<svg width="24" height="24" viewBox="0 0 24 24" fill="none" xmlns="http://www.w3.org/2000/svg">
<path fill-rule="evenodd" clip-rule="evenodd" d="M14.3828 5.65838C14.8938 5.34709 15.5598 5.50877 15.8711 6.01971C16.2607 6.65913 17.0425 7.72643 18.0742 8.75799C19.1127 9.79615 20.3378 10.731 21.6064 11.2013C21.9981 11.3467 22.2713 11.7042 22.3086 12.1203C22.3162 12.2052 22.3107 12.2891 22.2988 12.3713C22.2989 12.3765 22.2998 12.3817 22.2998 12.3869C22.2998 12.9655 21.8464 13.4355 21.2754 13.466C20.5026 13.9719 19.4959 14.719 18.5332 15.5344C17.3165 16.5648 16.303 17.594 15.876 18.3068C15.5684 18.8197 14.9028 18.9862 14.3896 18.6789C13.8765 18.3715 13.7093 17.7058 14.0166 17.1926C14.6433 16.1465 15.9048 14.9211 17.1328 13.881C17.2964 13.7425 17.4619 13.605 17.6279 13.4699H2.58301C1.98468 13.4699 1.5 12.9852 1.5 12.3869C1.50009 11.7886 1.98474 11.3039 2.58301 11.3039H17.6523C17.2555 10.9738 16.8835 10.6317 16.542 10.2902C15.3856 9.13407 14.4987 7.92987 14.0215 7.14666C13.7102 6.63575 13.872 5.96972 14.3828 5.65838Z" fill="currentColor"/>
</svg>
