<svg width="383" height="193" viewBox="0 0 383 193" fill="none" xmlns="http://www.w3.org/2000/svg">
<path d="M302.891 52.0823V13.6807H310.811V52.0823H302.891Z" fill="#353743"/>
<path d="M296.939 52.0824H288.058L288.97 45.9861H288.01C287.722 47.4262 287.226 48.5622 286.522 49.3943C285.818 50.1943 285.082 50.8023 284.314 51.2183C283.546 51.6024 282.81 51.8424 282.106 51.9384C281.434 52.0344 280.97 52.0824 280.714 52.0824H261.609C260.841 52.0824 259.945 51.9544 258.921 51.6984C257.897 51.4104 256.921 50.9623 255.993 50.3543C255.097 49.7463 254.329 48.9783 253.689 48.0502C253.081 47.0902 252.777 45.9221 252.777 44.5461L252.729 40.3699C252.729 39.4739 252.873 38.6258 253.161 37.8258C253.481 37.0258 253.993 36.3217 254.697 35.7137C255.401 35.1057 256.297 34.6257 257.385 34.2737C258.505 33.9216 259.865 33.7456 261.465 33.7456H288.586C288.33 32.5936 287.834 31.6176 287.098 30.8175C286.394 30.0175 285.37 29.6175 284.026 29.6175H264.297C263.145 29.6175 262.009 29.6495 260.889 29.7135C259.801 29.7775 258.761 29.9215 257.769 30.1455C256.777 30.3375 255.849 30.6095 254.985 30.9615C254.153 31.3135 253.401 31.7776 252.729 32.3536V25.9213C253.913 24.9933 255.321 24.3213 256.953 23.9052C258.617 23.4892 260.313 23.2812 262.041 23.2812H287.674C288.986 23.2812 290.203 23.5372 291.323 24.0492C292.475 24.5293 293.467 25.2173 294.299 26.1133C295.131 27.0094 295.771 28.0654 296.219 29.2815C296.699 30.4975 296.939 31.8256 296.939 33.2656V52.0824ZM288.73 40.1299H263.673C262.617 40.1299 261.849 40.3379 261.369 40.7539C260.889 41.1379 260.649 41.714 260.649 42.482C260.649 43.186 260.857 43.778 261.273 44.2581C261.689 44.7381 262.489 44.9781 263.673 44.9781H283.786C285.194 44.9781 286.314 44.5621 287.146 43.73C287.978 42.898 288.506 41.698 288.73 40.1299Z" fill="#353743"/>
<path d="M249.361 31.2015H234.817C232.993 31.2015 231.393 31.3935 230.017 31.7776C228.64 32.1616 227.344 32.7376 226.128 33.5056V52.0824H218.208V23.2812H226.128L225.216 29.4735H226.176C226.304 28.6734 226.64 27.9054 227.184 27.1694C227.728 26.4013 228.432 25.7293 229.297 25.1533C230.161 24.5773 231.137 24.1292 232.225 23.8092C233.345 23.4572 234.529 23.2812 235.777 23.2812H249.361V31.2015Z" fill="#353743"/>
<path d="M199.193 44.5458H200.249C200.697 44.5458 201.385 44.5138 202.313 44.4498C203.273 44.3538 204.362 44.2098 205.578 44.0178C206.794 43.7938 208.09 43.4898 209.466 43.1057C210.842 42.7217 212.154 42.2257 213.402 41.6177V48.674C212.186 49.25 210.81 49.762 209.274 50.21C207.77 50.626 206.25 50.9781 204.714 51.2661C203.209 51.5221 201.785 51.7301 200.441 51.8901C199.097 52.0181 198.009 52.0821 197.177 52.0821H195.833C194.585 52.0821 193.481 51.8421 192.521 51.3621C191.561 50.8821 190.745 50.258 190.073 49.49C189.433 48.722 188.937 47.8579 188.585 46.8979C188.233 45.9059 188.057 44.8978 188.057 43.8738V31.2013H181.289V23.2809H188.057V12.0005H195.977V23.2809H213.402V31.2013H195.977V39.1696C195.977 41.2177 196.265 42.6257 196.841 43.3938C197.449 44.1618 198.233 44.5458 199.193 44.5458Z" fill="#353743"/>
<path d="M170.515 36.4337C170.515 34.6097 170.019 33.2816 169.027 32.4496C168.035 31.6176 166.627 31.2015 164.803 31.2015H154.722C152.706 31.2015 150.946 31.3615 149.442 31.6816C147.97 31.9696 146.578 32.5776 145.266 33.5056V52.0824H137.345V23.2812H145.266L144.354 28.8974H145.314C145.442 28.0654 145.778 27.3134 146.322 26.6414C146.898 25.9693 147.618 25.3773 148.482 24.8653C149.346 24.3533 150.338 23.9692 151.458 23.7132C152.578 23.4252 153.762 23.2812 155.01 23.2812H167.683C169.187 23.2812 170.579 23.5692 171.859 24.1453C173.171 24.6893 174.307 25.4413 175.267 26.4013C176.259 27.3614 177.027 28.4974 177.571 29.8095C178.147 31.1215 178.435 32.5296 178.435 34.0337V52.0824H170.515V36.4337Z" fill="#353743"/>
<path d="M97.1567 40.7539C97.2847 41.3299 97.4767 41.89 97.7327 42.434C98.0207 42.978 98.3568 43.458 98.7408 43.874C99.1248 44.2901 99.5728 44.6261 100.085 44.8821C100.597 45.1381 101.141 45.2661 101.717 45.2661H121.398C122.55 45.2661 123.67 45.2341 124.758 45.1701C125.878 45.1061 126.934 44.9781 127.926 44.7861C128.918 44.5621 129.83 44.2741 130.662 43.9221C131.526 43.57 132.294 43.106 132.966 42.53V49.4423C131.782 50.3703 130.358 51.0423 128.694 51.4584C127.062 51.8744 125.382 52.0824 123.654 52.0824H98.2128C96.8367 52.0824 95.5726 51.7944 94.4206 51.2183C93.2686 50.6103 92.2765 49.8263 91.4445 48.8663C90.6124 47.8742 89.9564 46.7542 89.4764 45.5061C89.0284 44.2581 88.8044 42.978 88.8044 41.666V33.5056C88.8044 32.0016 89.0284 30.6255 89.4764 29.3775C89.9564 28.1294 90.5804 27.0574 91.3485 26.1613C92.1485 25.2333 93.0926 24.5293 94.1806 24.0492C95.2686 23.5372 96.4367 23.2812 97.6847 23.2812H124.086C124.822 23.2812 125.686 23.4252 126.678 23.7132C127.702 24.0012 128.678 24.4493 129.606 25.0573C130.534 25.6653 131.318 26.4333 131.958 27.3614C132.598 28.2894 132.918 29.3935 132.918 30.6735L132.966 34.0817C132.998 36.0017 132.31 37.6018 130.902 38.8818C129.494 40.1299 127.27 40.7539 124.23 40.7539H97.1567ZM96.9647 34.3217H122.022C122.246 34.3217 122.534 34.3057 122.886 34.2737C123.238 34.2417 123.574 34.1617 123.894 34.0337C124.214 33.8736 124.486 33.6656 124.71 33.4096C124.934 33.1216 125.046 32.7536 125.046 32.3056C125.046 31.6016 124.774 31.0415 124.23 30.6255C123.686 30.1775 122.95 29.9535 122.022 29.9535H101.333C100.917 29.9535 100.469 30.0335 99.9888 30.1935C99.5408 30.3215 99.1088 30.5615 98.6928 30.9135C98.2768 31.2335 97.9087 31.6816 97.5887 32.2576C97.2687 32.8016 97.0607 33.4896 96.9647 34.3217Z" fill="#353743"/>
<path d="M357.042 97.8758C355.57 96.9157 354.226 96.2757 353.01 95.9557C351.826 95.6357 350.658 95.4757 349.506 95.4757H327.809C326.881 95.4757 326.065 95.6517 325.361 96.0037C324.657 96.3557 324.305 97.0277 324.305 98.0198C324.305 98.5958 324.577 99.0598 325.121 99.4118C325.665 99.7638 326.481 99.9398 327.569 99.9398H348.017C349.522 99.9398 350.834 100.084 351.954 100.372C353.106 100.66 354.05 101.156 354.786 101.86C355.554 102.564 356.13 103.492 356.514 104.644C356.898 105.764 357.09 107.172 357.09 108.868C357.09 110.116 356.85 111.284 356.37 112.372C355.922 113.428 355.282 114.34 354.45 115.108C353.65 115.876 352.706 116.485 351.618 116.933C350.53 117.381 349.362 117.605 348.113 117.605H325.121C324.257 117.605 323.184 117.397 321.904 116.981C320.656 116.533 319.312 115.86 317.872 114.964V108.34C319.312 109.236 320.688 109.908 322 110.356C323.344 110.804 324.385 111.028 325.121 111.028H346.913C347.905 111.028 348.77 110.852 349.506 110.5C350.242 110.116 350.61 109.508 350.61 108.676C350.61 108.132 350.274 107.668 349.602 107.284C348.962 106.868 348.081 106.66 346.961 106.66H326.849C325.313 106.66 323.968 106.516 322.816 106.228C321.696 105.908 320.768 105.396 320.032 104.692C319.296 103.956 318.752 103.012 318.4 101.86C318.048 100.676 317.872 99.2358 317.872 97.5398C317.872 96.2917 318.096 95.1397 318.544 94.0836C319.024 92.9956 319.664 92.0675 320.464 91.2995C321.296 90.5315 322.256 89.9234 323.344 89.4754C324.433 89.0274 325.601 88.8034 326.849 88.8034H349.506C350.722 88.8034 351.906 88.9634 353.058 89.2834C354.242 89.5714 355.57 90.1955 357.042 91.1555V97.8758Z" fill="#353743"/>
<path d="M280.396 104.452C280.396 106.276 280.892 107.604 281.884 108.436C282.876 109.268 284.284 109.684 286.108 109.684H296.189C298.205 109.684 299.949 109.524 301.421 109.204C302.925 108.884 304.333 108.276 305.645 107.38V88.8034H313.566V117.605H305.645L306.557 111.988H305.597C305.469 112.788 305.117 113.54 304.541 114.244C303.997 114.916 303.293 115.508 302.429 116.021C301.565 116.533 300.573 116.933 299.453 117.221C298.333 117.477 297.149 117.605 295.901 117.605H283.228C281.756 117.605 280.364 117.333 279.052 116.789C277.74 116.213 276.588 115.444 275.596 114.484C274.636 113.524 273.868 112.388 273.292 111.076C272.748 109.764 272.476 108.356 272.476 106.852V88.8034H280.396V104.452Z" fill="#353743"/>
<path d="M232.283 106.276C232.411 106.852 232.603 107.412 232.859 107.956C233.147 108.5 233.483 108.98 233.867 109.396C234.251 109.812 234.699 110.148 235.211 110.404C235.723 110.66 236.267 110.788 236.843 110.788H256.524C257.676 110.788 258.796 110.756 259.884 110.692C261.004 110.628 262.06 110.5 263.053 110.308C264.045 110.084 264.957 109.796 265.789 109.444C266.653 109.092 267.421 108.628 268.093 108.052V114.964C266.909 115.892 265.485 116.565 263.821 116.981C262.188 117.397 260.508 117.605 258.78 117.605H233.339C231.963 117.605 230.699 117.317 229.547 116.741C228.395 116.133 227.403 115.348 226.571 114.388C225.739 113.396 225.083 112.276 224.603 111.028C224.155 109.78 223.931 108.5 223.931 107.188V99.0278C223.931 97.5238 224.155 96.1477 224.603 94.8996C225.083 93.6516 225.707 92.5796 226.475 91.6835C227.275 90.7555 228.219 90.0515 229.307 89.5714C230.395 89.0594 231.563 88.8034 232.811 88.8034H259.212C259.948 88.8034 260.812 88.9474 261.804 89.2354C262.829 89.5234 263.805 89.9714 264.733 90.5795C265.661 91.1875 266.445 91.9555 267.085 92.8836C267.725 93.8116 268.045 94.9156 268.045 96.1957L268.093 99.6038C268.125 101.524 267.437 103.124 266.029 104.404C264.621 105.652 262.396 106.276 259.356 106.276H232.283ZM232.091 99.8438H257.148C257.372 99.8438 257.66 99.8278 258.012 99.7958C258.364 99.7638 258.7 99.6838 259.02 99.5558C259.34 99.3958 259.612 99.1878 259.836 98.9318C260.06 98.6438 260.172 98.2758 260.172 97.8278C260.172 97.1237 259.9 96.5637 259.356 96.1477C258.812 95.6997 258.076 95.4757 257.148 95.4757H236.459C236.043 95.4757 235.595 95.5557 235.115 95.7157C234.667 95.8437 234.235 96.0837 233.819 96.4357C233.403 96.7557 233.035 97.2037 232.715 97.7798C232.395 98.3238 232.187 99.0118 232.091 99.8438Z" fill="#353743"/>
<path d="M210.137 88.8038H223.674L206.393 100.372L223.674 117.605H212.585L199.913 105.076L189.736 111.701V117.605H181.816V79.2034H189.736L188.824 101.668H189.784L210.137 88.8038Z" fill="#353743"/>
<path d="M177.016 117.605H168.136L169.048 111.508H168.088C167.8 112.948 167.304 114.084 166.6 114.916C165.896 115.716 165.159 116.325 164.391 116.741C163.623 117.125 162.887 117.365 162.183 117.461C161.511 117.557 161.047 117.605 160.791 117.605H141.687C140.918 117.605 140.022 117.477 138.998 117.221C137.974 116.933 136.998 116.485 136.07 115.876C135.174 115.268 134.406 114.5 133.766 113.572C133.158 112.612 132.854 111.444 132.854 110.068L132.806 105.892C132.806 104.996 132.95 104.148 133.238 103.348C133.558 102.548 134.07 101.844 134.774 101.236C135.478 100.628 136.374 100.148 137.462 99.7958C138.582 99.4438 139.942 99.2678 141.543 99.2678H168.664C168.408 98.1158 167.912 97.1397 167.176 96.3397C166.472 95.5397 165.447 95.1397 164.103 95.1397H144.375C143.223 95.1397 142.087 95.1717 140.966 95.2357C139.878 95.2997 138.838 95.4437 137.846 95.6677C136.854 95.8597 135.926 96.1317 135.062 96.4837C134.23 96.8357 133.478 97.2997 132.806 97.8758V91.4435C133.99 90.5155 135.398 89.8434 137.03 89.4274C138.694 89.0114 140.39 88.8034 142.119 88.8034H167.752C169.064 88.8034 170.28 89.0594 171.4 89.5714C172.552 90.0515 173.544 90.7395 174.376 91.6355C175.208 92.5316 175.848 93.5876 176.296 94.8036C176.776 96.0197 177.016 97.3477 177.016 98.7878V117.605ZM168.808 105.652H143.751C142.695 105.652 141.927 105.86 141.447 106.276C140.966 106.66 140.726 107.236 140.726 108.004C140.726 108.708 140.934 109.3 141.351 109.78C141.767 110.26 142.567 110.5 143.751 110.5H163.863C165.271 110.5 166.392 110.084 167.224 109.252C168.056 108.42 168.584 107.22 168.808 105.652Z" fill="#353743"/>
<rect x="24.001" width="56.8023" height="51.2021" fill="white"/>
<rect y="127.205" width="56.8023" height="51.2021" fill="white"/>
<rect x="67.2058" y="66.4026" width="56.8023" height="51.2021" fill="white"/>
<rect x="27.2042" y="3.20032" width="57.6023" height="51.2021" fill="#3755FF"/>
<rect x="3.20325" y="130.405" width="57.6023" height="51.2021" fill="#3755FF"/>
<rect x="70.4052" y="69.6029" width="57.6023" height="51.2021" fill="#3755FF"/>
<path d="M71.7199 26.9826C71.7199 25.6137 71.5302 24.4599 71.1509 23.5211C70.7716 22.5824 70.2974 21.8197 69.7284 21.2331C69.1595 20.6073 68.5272 20.1575 67.8318 19.8837C67.168 19.6099 66.52 19.473 65.8878 19.473H47.3956C46.5105 19.473 45.6729 19.6685 44.8826 20.0597C44.124 20.4508 43.4601 20.9984 42.8911 21.7024C42.3222 22.4064 41.8796 23.2278 41.5635 24.1665C41.2474 25.1052 41.0894 26.1417 41.0894 27.276V30.3268C41.0894 31.3437 41.2316 32.3215 41.5161 33.2602C41.8006 34.1989 42.2115 35.0398 42.7489 35.783C43.2863 36.487 43.9501 37.0541 44.7404 37.4844C45.5306 37.9146 46.4157 38.1297 47.3956 38.1297H65.7455C66.2513 38.1297 66.8519 37.9928 67.5473 37.7191C68.2427 37.4062 68.8908 36.9368 69.4914 36.311C70.1236 35.6461 70.6451 34.8247 71.0561 33.8469C71.4986 32.83 71.7199 31.637 71.7199 30.2681H78.4055V32.3802C78.4055 34.2967 78.1368 36.1154 77.5994 37.8364C77.0621 39.5574 76.3034 41.0436 75.3235 42.2952C74.3752 43.5468 73.2214 44.5442 71.8622 45.2874C70.5029 46.0305 69.0014 46.4021 67.3577 46.4021H45.0249C43.5708 46.4021 42.1957 46.0696 40.8997 45.4047C39.6037 44.7007 38.4657 43.762 37.4858 42.5886C36.5374 41.3761 35.7788 39.968 35.2098 38.3644C34.6724 36.7608 34.4037 35.0594 34.4037 33.2602V24.3425C34.4037 22.5042 34.6724 20.8028 35.2098 19.2383C35.7788 17.6347 36.5374 16.2462 37.4858 15.0728C38.4657 13.8603 39.6037 12.9216 40.8997 12.2567C42.1957 11.5527 43.5708 11.2006 45.0249 11.2006H67.3577C69.0014 11.2006 70.5029 11.5722 71.8622 12.3154C73.2214 13.0585 74.3752 14.0754 75.3235 15.3662C76.3034 16.6178 77.0621 18.104 77.5994 19.825C78.1368 21.546 78.4055 23.3843 78.4055 25.3399V26.9826H71.7199Z" fill="white"/>
<path d="M47.7189 154.187C47.7189 152.819 47.5293 151.665 47.1499 150.726C46.7706 149.787 46.2965 149.025 45.7275 148.438C45.1585 147.812 44.5263 147.362 43.8308 147.089C43.167 146.815 42.519 146.678 41.8868 146.678H23.3947C22.5096 146.678 21.6719 146.873 20.8816 147.265C20.123 147.656 19.4592 148.203 18.8902 148.907C18.3212 149.611 17.8786 150.433 17.5625 151.371C17.2464 152.31 17.0884 153.347 17.0884 154.481V157.532C17.0884 158.549 17.2306 159.526 17.5151 160.465C17.7996 161.404 18.2106 162.245 18.7479 162.988C19.2853 163.692 19.9491 164.259 20.7394 164.689C21.5297 165.119 22.4147 165.335 23.3947 165.335H41.7445C42.2503 165.335 42.8509 165.198 43.5463 164.924C44.2418 164.611 44.8898 164.142 45.4904 163.516C46.1226 162.851 46.6442 162.03 47.0551 161.052C47.4977 160.035 47.7189 158.842 47.7189 157.473H54.4045V159.585C54.4045 161.502 54.1359 163.32 53.5985 165.041C53.0611 166.762 52.3024 168.248 51.3225 169.5C50.3742 170.752 49.2204 171.749 47.8612 172.492C46.5019 173.235 45.0004 173.607 43.3567 173.607H21.0239C19.5698 173.607 18.1947 173.274 16.8987 172.61C15.6027 171.906 14.4647 170.967 13.4848 169.793C12.5365 168.581 11.7778 167.173 11.2088 165.569C10.6715 163.966 10.4028 162.264 10.4028 160.465V151.547C10.4028 149.709 10.6715 148.008 11.2088 146.443C11.7778 144.84 12.5365 143.451 13.4848 142.278C14.4647 141.065 15.6027 140.126 16.8987 139.462C18.1947 138.758 19.5698 138.406 21.0239 138.406H43.3567C45.0004 138.406 46.5019 138.777 47.8612 139.52C49.2204 140.263 50.3742 141.28 51.3225 142.571C52.3024 143.823 53.0611 145.309 53.5985 147.03C54.1359 148.751 54.4045 150.589 54.4045 152.545V154.187H47.7189Z" fill="white"/>
<path d="M123.205 78.4031V111.204H115.562V89.838L99.7662 111.204H99.3956L83.6462 89.8835V111.204H76.0031V78.4031H84.9895L99.6272 98.175L114.311 78.4031H123.205Z" fill="white"/>
<path d="M346.468 169.479C346.596 170.055 346.788 170.615 347.044 171.159C347.332 171.703 347.668 172.183 348.052 172.599C348.436 173.015 348.884 173.351 349.396 173.607C349.908 173.863 350.452 173.991 351.028 173.991H370.709C371.861 173.991 372.981 173.959 374.069 173.895C375.189 173.831 376.245 173.703 377.237 173.511C378.229 173.287 379.141 172.999 379.973 172.647C380.837 172.295 381.605 171.831 382.277 171.255V178.167C381.093 179.095 379.669 179.767 378.005 180.183C376.373 180.599 374.693 180.807 372.965 180.807H347.524C346.148 180.807 344.884 180.519 343.731 179.943C342.579 179.335 341.587 178.551 340.755 177.591C339.923 176.599 339.267 175.479 338.787 174.231C338.339 172.983 338.115 171.703 338.115 170.391V162.231C338.115 160.727 338.339 159.35 338.787 158.102C339.267 156.854 339.891 155.782 340.659 154.886C341.459 153.958 342.403 153.254 343.491 152.774C344.58 152.262 345.748 152.006 346.996 152.006H373.397C374.133 152.006 374.997 152.15 375.989 152.438C377.013 152.726 377.989 153.174 378.917 153.782C379.845 154.39 380.629 155.158 381.269 156.086C381.909 157.014 382.229 158.118 382.229 159.398L382.277 162.807C382.309 164.727 381.621 166.327 380.213 167.607C378.805 168.855 376.581 169.479 373.541 169.479H346.468ZM346.276 163.047H371.333C371.557 163.047 371.845 163.031 372.197 162.999C372.549 162.967 372.885 162.887 373.205 162.759C373.525 162.599 373.797 162.391 374.021 162.135C374.245 161.847 374.357 161.479 374.357 161.031C374.357 160.326 374.085 159.766 373.541 159.35C372.997 158.902 372.261 158.678 371.333 158.678H350.644C350.228 158.678 349.78 158.758 349.3 158.918C348.852 159.046 348.42 159.286 348.004 159.638C347.588 159.958 347.22 160.406 346.9 160.983C346.58 161.527 346.372 162.215 346.276 163.047Z" fill="#353743"/>
<path d="M325.846 181.671L326.758 173.511H325.798C325.414 174.823 324.87 175.943 324.166 176.871C323.494 177.799 322.726 178.551 321.862 179.127C321.03 179.703 320.182 180.135 319.318 180.423C318.454 180.679 317.654 180.807 316.918 180.807H299.013C297.093 180.807 295.445 180.455 294.069 179.751C292.725 179.015 291.621 178.119 290.757 177.063C289.893 175.975 289.269 174.807 288.885 173.559C288.501 172.311 288.309 171.143 288.309 170.055L288.357 162.759C288.357 161.479 288.629 160.198 289.173 158.918C289.749 157.638 290.501 156.486 291.429 155.462C292.389 154.438 293.509 153.606 294.789 152.966C296.101 152.326 297.509 152.006 299.013 152.006H316.918C317.974 152.006 318.998 152.15 319.99 152.438C321.014 152.726 321.942 153.126 322.774 153.638C323.606 154.118 324.294 154.71 324.838 155.414C325.382 156.086 325.702 156.822 325.798 157.622H326.758L325.846 152.006H333.766V184.023C333.766 185.271 333.526 186.44 333.046 187.528C332.598 188.616 331.958 189.56 331.126 190.36C330.326 191.192 329.382 191.832 328.294 192.28C327.206 192.76 326.038 193 324.79 193H298.869C297.141 193 295.445 192.792 293.781 192.376C292.149 191.96 290.741 191.288 289.557 190.36V183.591C290.901 184.743 292.581 185.496 294.597 185.848C296.645 186.2 298.821 186.376 301.125 186.376H321.094C322.534 186.376 323.654 185.928 324.454 185.031C325.286 184.135 325.75 183.015 325.846 181.671ZM325.846 167.031V165.207C325.846 164.439 325.686 163.735 325.366 163.095C325.078 162.455 324.662 161.895 324.118 161.415C323.606 160.935 322.982 160.566 322.246 160.31C321.542 160.054 320.79 159.926 319.99 159.926H301.797C300.165 159.926 298.821 160.326 297.765 161.127C296.741 161.895 296.229 163.223 296.229 165.111V167.655C296.229 169.319 296.725 170.615 297.717 171.543C298.741 172.439 300.581 172.887 303.237 172.887H319.75C320.55 172.887 321.318 172.759 322.054 172.503C322.79 172.247 323.43 171.863 323.974 171.351C324.55 170.839 324.998 170.231 325.318 169.527C325.67 168.791 325.846 167.959 325.846 167.031Z" fill="#353743"/>
<path d="M276.035 165.159C276.035 163.335 275.539 162.007 274.547 161.175C273.555 160.342 272.147 159.926 270.322 159.926H260.242C258.226 159.926 256.466 160.086 254.962 160.406C253.49 160.695 252.098 161.303 250.786 162.231V180.807H242.865V152.006H250.786L249.874 157.622H250.834C250.962 156.79 251.298 156.038 251.842 155.366C252.418 154.694 253.138 154.102 254.002 153.59C254.866 153.078 255.858 152.694 256.978 152.438C258.098 152.15 259.282 152.006 260.53 152.006H273.203C274.707 152.006 276.099 152.294 277.379 152.87C278.691 153.414 279.827 154.166 280.787 155.126C281.779 156.086 282.547 157.222 283.091 158.534C283.667 159.846 283.955 161.255 283.955 162.759V180.807H276.035V165.159Z" fill="#353743"/>
<path d="M202.673 169.479C202.801 170.055 202.993 170.615 203.249 171.159C203.537 171.703 203.873 172.183 204.257 172.599C204.641 173.015 205.089 173.351 205.601 173.607C206.113 173.863 206.657 173.991 207.233 173.991H226.914C228.066 173.991 229.186 173.959 230.274 173.895C231.394 173.831 232.45 173.703 233.442 173.511C234.434 173.287 235.346 172.999 236.178 172.647C237.042 172.295 237.81 171.831 238.482 171.255V178.167C237.298 179.095 235.874 179.767 234.21 180.183C232.578 180.599 230.898 180.807 229.17 180.807H203.729C202.353 180.807 201.089 180.519 199.937 179.943C198.785 179.335 197.793 178.551 196.96 177.591C196.128 176.599 195.472 175.479 194.992 174.231C194.544 172.983 194.32 171.703 194.32 170.391V162.231C194.32 160.727 194.544 159.35 194.992 158.102C195.472 156.854 196.096 155.782 196.864 154.886C197.665 153.958 198.609 153.254 199.697 152.774C200.785 152.262 201.953 152.006 203.201 152.006H229.602C230.338 152.006 231.202 152.15 232.194 152.438C233.218 152.726 234.194 153.174 235.122 153.782C236.05 154.39 236.834 155.158 237.474 156.086C238.114 157.014 238.434 158.118 238.434 159.398L238.482 162.807C238.514 164.727 237.826 166.327 236.418 167.607C235.01 168.855 232.786 169.479 229.746 169.479H202.673ZM202.481 163.047H227.538C227.762 163.047 228.05 163.031 228.402 162.999C228.754 162.967 229.09 162.887 229.41 162.759C229.73 162.599 230.002 162.391 230.226 162.135C230.45 161.847 230.562 161.479 230.562 161.031C230.562 160.326 230.29 159.766 229.746 159.35C229.202 158.902 228.466 158.678 227.538 158.678H206.849C206.433 158.678 205.985 158.758 205.505 158.918C205.057 159.046 204.625 159.286 204.209 159.638C203.793 159.958 203.425 160.406 203.105 160.983C202.785 161.527 202.577 162.215 202.481 163.047Z" fill="#353743"/>
<path d="M180.453 180.807V142.406H188.373V180.807H180.453Z" fill="#353743"/>
<path d="M165.429 180.807V142.406H173.349V180.807H165.429Z" fill="#353743"/>
<path d="M159.48 180.807H150.6L151.512 174.711H150.552C150.264 176.151 149.768 177.287 149.064 178.119C148.36 178.919 147.624 179.527 146.856 179.943C146.088 180.327 145.352 180.567 144.647 180.663C143.975 180.759 143.511 180.807 143.255 180.807H124.151C123.383 180.807 122.487 180.679 121.463 180.423C120.438 180.135 119.462 179.687 118.534 179.079C117.638 178.471 116.87 177.703 116.23 176.775C115.622 175.815 115.318 174.647 115.318 173.271L115.27 169.095C115.27 168.199 115.414 167.351 115.702 166.551C116.022 165.751 116.534 165.047 117.238 164.439C117.942 163.831 118.838 163.351 119.926 162.999C121.047 162.647 122.407 162.471 124.007 162.471H151.128C150.872 161.319 150.376 160.342 149.64 159.542C148.936 158.742 147.912 158.342 146.568 158.342H126.839C125.687 158.342 124.551 158.374 123.431 158.438C122.343 158.502 121.303 158.646 120.31 158.87C119.318 159.062 118.39 159.334 117.526 159.686C116.694 160.038 115.942 160.502 115.27 161.079V154.646C116.454 153.718 117.862 153.046 119.494 152.63C121.159 152.214 122.855 152.006 124.583 152.006H150.216C151.528 152.006 152.744 152.262 153.864 152.774C155.016 153.254 156.008 153.942 156.84 154.838C157.672 155.734 158.312 156.79 158.76 158.006C159.24 159.222 159.48 160.55 159.48 161.991V180.807ZM151.272 168.855H126.215C125.159 168.855 124.391 169.063 123.911 169.479C123.431 169.863 123.191 170.439 123.191 171.207C123.191 171.911 123.399 172.503 123.815 172.983C124.231 173.463 125.031 173.703 126.215 173.703H146.328C147.736 173.703 148.856 173.287 149.688 172.455C150.52 171.623 151.048 170.423 151.272 168.855Z" fill="#353743"/>
<path d="M103.19 165.063C103.19 163.399 102.726 162.134 101.798 161.27C100.87 160.374 99.4136 159.926 97.4295 159.926H83.5089C82.7089 159.926 81.8609 159.942 80.9648 159.974C80.1008 160.006 79.2368 160.118 78.3727 160.31C77.5087 160.47 76.6607 160.726 75.8286 161.078C74.9966 161.398 74.2286 161.862 73.5245 162.47V180.807H65.6042V142.406H73.5245L72.6125 157.622H73.5725C73.6685 156.822 73.9886 156.086 74.5326 155.414C75.0766 154.71 75.7806 154.118 76.6447 153.638C77.5087 153.126 78.5007 152.726 79.6208 152.438C80.7408 152.15 81.9249 152.006 83.1729 152.006H100.358C101.862 152.006 103.254 152.294 104.534 152.87C105.846 153.414 106.982 154.182 107.942 155.174C108.934 156.134 109.702 157.27 110.246 158.582C110.822 159.862 111.11 161.254 111.11 162.758V180.807H103.19V165.063Z" fill="#353743"/>
</svg>
