<svg width="48" height="48" viewBox="0 0 48 48" fill="none" xmlns="http://www.w3.org/2000/svg">
<path d="M23.9998 4C36.1501 4 46 11.6779 46 21.1489C46 30.62 36.1501 38.2978 23.9998 38.2978C22.7674 38.2978 21.5593 38.2173 20.382 38.0656L11.146 44.1068C10.0954 44.6629 9.72453 44.6011 10.157 43.2415L12.0251 35.536C5.99088 32.4782 2 27.1773 2 21.1489C2 11.6779 11.8496 4 23.9998 4ZM36.3766 20.8857L39.4572 17.9043C39.8496 17.5244 39.8599 16.8986 39.4803 16.5061C39.1006 16.1141 38.4748 16.1035 38.0819 16.4832L34.0419 20.3929V17.1628C34.0419 16.6169 33.5993 16.1741 33.0531 16.1741C32.5073 16.1741 32.0644 16.6169 32.0644 17.1628V22.5204C32.0271 22.6734 32.0279 22.8318 32.0644 22.9851V26C32.0644 26.546 32.5073 26.9887 33.0531 26.9887C33.5993 26.9887 34.0419 26.546 34.0419 26V23.1448L34.9378 22.278L37.9294 26.5374C38.1219 26.8115 38.4284 26.9581 38.7394 26.9581C38.9359 26.9581 39.1341 26.8995 39.307 26.7781C39.7539 26.4645 39.8616 25.8477 39.5477 25.4007L36.3766 20.8857ZM30.1795 24.9186H27.1207V17.1937C27.1207 16.6479 26.6779 16.205 26.1317 16.205C25.5859 16.205 25.1434 16.6479 25.1434 17.1937V25.9072C25.1434 26.4534 25.5859 26.8959 26.1317 26.8959H30.1795C30.7257 26.8959 31.1682 26.4534 31.1682 25.9072C31.1682 25.3614 30.7257 24.9186 30.1795 24.9186ZM17.9075 22.6319L19.3658 19.0541L20.7011 22.6319H17.9075ZM23.1931 23.6537C23.1936 23.6424 23.1965 23.6322 23.1965 23.6208C23.1965 23.361 23.0943 23.1268 22.9306 22.9504L20.7403 17.0822C20.5341 16.4958 20.018 16.1066 19.4253 16.0901C18.8426 16.0744 18.3003 16.4388 18.0569 17.0254L14.5767 25.565C14.3707 26.0706 14.6135 26.6478 15.1192 26.854C15.6249 27.0602 16.202 26.8171 16.4079 26.3113L17.1015 24.6096H21.439L22.064 26.2841C22.2126 26.6818 22.5895 26.9273 22.9907 26.9271C23.1056 26.9271 23.2223 26.907 23.3363 26.8645C23.8479 26.6738 24.1077 26.1041 23.9166 25.5922L23.1931 23.6537ZM16.2339 17.2041C16.2339 16.6582 15.7911 16.2154 15.2452 16.2154H8.44755C7.90138 16.2154 7.45859 16.6582 7.45859 17.2041C7.45859 17.75 7.90138 18.1928 8.44755 18.1928H10.8781V26.0207C10.8781 26.5667 11.3208 27.0093 11.8668 27.0093C12.4129 27.0093 12.8557 26.5667 12.8557 26.0207V18.1928H15.2452C15.7911 18.1928 16.2339 17.75 16.2339 17.2041Z" fill="#606060"/>
</svg>
