<svg width="48" height="48" viewBox="0 0 48 48" fill="none" xmlns="http://www.w3.org/2000/svg">
<path d="M24 17.4C20.3538 17.4 17.4 20.3548 17.4 24C17.4 27.6461 20.3549 30.6 24 30.6C27.6461 30.6 30.6 27.6452 30.6 24C30.6 20.3539 27.6452 17.4 24 17.4ZM24 13C30.0729 13 35 17.9216 35 24C35 30.0731 30.0784 35 24 35C17.927 35 13 30.0784 13 24C13 17.927 17.9216 13 24 13ZM38.3 12.4481C38.3 13.9664 37.0663 15.1982 35.55 15.1982C34.0318 15.1982 32.8 13.9645 32.8 12.4481C32.8 10.9318 34.0336 9.7 35.55 9.7C37.0643 9.69809 38.3 10.9318 38.3 12.4481ZM24 6.4C18.5561 6.4 17.6688 6.41441 15.1368 6.52716C13.4118 6.60814 12.2554 6.84015 11.181 7.25727C10.2262 7.62758 9.53744 8.06976 8.80359 8.80361C8.06692 9.54028 7.62553 10.2272 7.25672 11.1824C6.83864 12.2593 6.60669 13.4138 6.52716 15.1365C6.41331 17.5654 6.4 18.4143 6.4 24C6.4 29.4439 6.41441 30.3312 6.52714 32.8629C6.60816 34.5873 6.84048 35.7454 7.25659 36.8172C7.62786 37.7733 8.07094 38.4637 8.80126 39.1941C9.54083 39.9326 10.2298 40.3755 11.176 40.7407C12.2635 41.1611 13.4191 41.3934 15.1365 41.4728C17.5654 41.5866 18.4143 41.6 24 41.6C29.4439 41.6 30.3312 41.5855 32.863 41.4728C34.5836 41.3921 35.7425 41.1591 36.8172 40.7433C37.7707 40.3731 38.4633 39.9284 39.1941 39.1987C39.9338 38.458 40.3757 37.7707 40.7414 36.8223C41.1607 35.7388 41.3935 34.5816 41.4729 32.8636C41.5866 30.4346 41.6 29.5856 41.6 24C41.6 18.5561 41.5855 17.6689 41.4729 15.137C41.3919 13.4159 41.1589 12.2553 40.7427 11.181C40.3733 10.2288 39.9296 9.53797 39.1963 8.80361C38.4584 8.06573 37.7734 7.62525 36.8175 7.25672C35.7414 6.83899 34.5851 6.60671 32.8634 6.52718C30.4346 6.41331 29.5856 6.4 24 6.4ZM24 2C29.9766 2 30.7228 2.022 33.0695 2.132C35.4106 2.24017 37.0075 2.6105 38.41 3.155C39.8601 3.71417 41.0848 4.4695 42.3076 5.69233C43.5286 6.91517 44.284 8.1435 44.845 9.59C45.3876 10.9907 45.758 12.5893 45.868 14.9305C45.9725 17.2772 46 18.0233 46 24C46 29.9767 45.978 30.7228 45.868 33.0695C45.7598 35.4107 45.3876 37.0075 44.845 38.41C44.2858 39.8602 43.5286 41.0848 42.3076 42.3077C41.0848 43.5287 39.8546 44.284 38.41 44.845C37.0075 45.3877 35.4106 45.758 33.0695 45.868C30.7228 45.9725 29.9766 46 24 46C18.0233 46 17.2772 45.978 14.9305 45.868C12.5893 45.7598 10.9943 45.3877 9.59 44.845C8.14165 44.2858 6.91515 43.5287 5.69233 42.3077C4.4695 41.0848 3.716 39.8547 3.155 38.41C2.6105 37.0075 2.242 35.4107 2.132 33.0695C2.0275 30.7228 2 29.9767 2 24C2 18.0233 2.022 17.2772 2.132 14.9305C2.24015 12.5875 2.6105 10.9925 3.155 9.59C3.71415 8.14167 4.4695 6.91517 5.69233 5.69233C6.91515 4.4695 8.1435 3.716 9.59 3.155C10.9925 2.6105 12.5875 2.242 14.9305 2.132C17.2772 2.0275 18.0233 2 24 2Z" fill="#606060"/>
</svg>
