<svg width="1440" height="538" viewBox="0 0 1440 538" fill="none" xmlns="http://www.w3.org/2000/svg">
<path d="M1820.56 519.733C1809.3 561.018 1753.36 586.69 1668.13 596.364C1544.49 610.398 1359.24 590.763 1159.43 536.282C821.884 444.247 570.613 287.618 598.199 186.443C625.577 86.0323 917.323 77.9754 1251.68 167.823C1254.23 168.507 1397.67 204.123 1400.22 204.819" stroke="white"/>
<g filter="url(#filter0_iiii_3583_1107)">
<path d="M720 551.622C720 504.593 701.377 437.143 665.193 393.695C629.01 350.246 575.975 310.767 509.117 277.513C442.259 244.258 362.886 217.879 275.532 199.882C188.178 181.885 4.55175 172.622 -90 172.622V551.622H720Z" fill="#0D0F14"/>
</g>
<g filter="url(#filter1_iiii_3583_1107)">
<path d="M720 551.622C720 504.593 738.623 437.143 774.807 393.695C810.99 350.246 864.025 310.767 930.883 277.513C997.741 244.258 1077.11 217.879 1164.47 199.882C1251.82 181.885 1435.45 172.622 1530 172.622V551.622H720Z" fill="#0D0F14"/>
</g>
<path d="M785.028 390.094C881.781 442.18 1018.8 497.939 1159.43 536.282C1359.24 590.763 1544.49 610.398 1668.13 596.364C1753.36 586.691 1809.31 561.019 1820.56 519.734" stroke="white"/>
<rect x="93" y="167.047" width="22" height="22" fill="white"/>
<rect x="365" y="425.047" width="16" height="16" fill="white"/>
<path d="M102.936 288.047C102.768 288.047 102.656 287.972 102.6 287.823L97.728 274.243L97.7 274.131C97.7 273.982 97.7933 273.907 97.98 273.907H99.968C100.136 273.907 100.248 273.982 100.304 274.131L103.608 284.155L107.556 274.131C107.612 273.982 107.724 273.907 107.892 273.907H108.928C109.077 273.907 109.189 273.982 109.264 274.131L113.1 284.043L116.488 274.131C116.544 273.982 116.656 273.907 116.824 273.907H118.644C118.887 273.907 118.971 274.019 118.896 274.243L114.024 287.823C113.968 287.972 113.856 288.047 113.688 288.047H112.652C112.484 288.047 112.372 287.972 112.316 287.823L108.368 277.631L104.308 287.823C104.252 287.972 104.14 288.047 103.972 288.047H102.936ZM121.265 288.047C121.06 288.047 120.957 287.944 120.957 287.739V267.327C120.957 267.14 121.06 267.047 121.265 267.047H122.917C123.104 267.047 123.197 267.14 123.197 267.327V276.399C123.701 275.503 124.401 274.822 125.297 274.355C126.212 273.87 127.173 273.627 128.181 273.627C129.768 273.627 131.009 274.094 131.905 275.027C132.801 275.942 133.249 277.22 133.249 278.863V287.739C133.249 287.944 133.156 288.047 132.969 288.047H131.317C131.112 288.047 131.009 287.944 131.009 287.739V279.787C131.009 278.424 130.729 277.407 130.169 276.735C129.609 276.044 128.751 275.699 127.593 275.699C126.884 275.699 126.193 275.886 125.521 276.259C124.849 276.614 124.289 277.155 123.841 277.883C123.412 278.611 123.197 279.507 123.197 280.571V287.739C123.197 287.944 123.104 288.047 122.917 288.047H121.265ZM142.596 288.327C141.196 288.327 139.973 288.01 138.928 287.375C137.882 286.74 137.08 285.872 136.52 284.771C135.96 283.651 135.68 282.382 135.68 280.963C135.68 279.544 135.96 278.284 136.52 277.183C137.098 276.063 137.91 275.195 138.956 274.579C140.001 273.944 141.214 273.627 142.596 273.627C144.649 273.627 146.236 274.336 147.356 275.755C148.494 277.155 149.045 279.031 149.008 281.383C149.008 281.588 148.905 281.691 148.7 281.691H138.032C138.162 283.11 138.629 284.23 139.432 285.051C140.253 285.872 141.308 286.283 142.596 286.283C144.537 286.283 145.909 285.49 146.712 283.903C146.786 283.754 146.917 283.707 147.104 283.763L148.504 284.267C148.597 284.304 148.653 284.36 148.672 284.435C148.709 284.491 148.709 284.556 148.672 284.631C148.074 285.863 147.253 286.787 146.208 287.403C145.181 288.019 143.977 288.327 142.596 288.327ZM146.6 279.927C146.506 278.639 146.105 277.603 145.396 276.819C144.686 276.035 143.753 275.643 142.596 275.643C141.382 275.643 140.365 276.035 139.544 276.819C138.722 277.584 138.228 278.62 138.06 279.927H146.6ZM151.605 288.047C151.399 288.047 151.297 287.944 151.297 287.739V274.187C151.297 274 151.399 273.907 151.605 273.907H153.033C153.238 273.907 153.341 274 153.341 274.187L153.453 276.511C153.938 275.578 154.647 274.868 155.581 274.383C156.514 273.879 157.494 273.627 158.521 273.627C160.107 273.627 161.349 274.094 162.245 275.027C163.141 275.942 163.589 277.22 163.589 278.863V287.739C163.589 287.944 163.495 288.047 163.309 288.047H161.657C161.451 288.047 161.349 287.944 161.349 287.739V279.787C161.349 278.424 161.069 277.407 160.509 276.735C159.949 276.044 159.09 275.699 157.933 275.699C157.223 275.699 156.533 275.886 155.861 276.259C155.189 276.614 154.629 277.155 154.181 277.883C153.751 278.611 153.537 279.507 153.537 280.571V287.739C153.537 287.944 153.443 288.047 153.257 288.047H151.605Z" fill="white"/>
<path d="M98.988 446.047C98.7827 446.047 98.68 445.944 98.68 445.739V445.235C98.68 445.123 98.7267 445.002 98.82 444.871L103.804 439.355C105.279 437.731 106.389 436.424 107.136 435.435C107.883 434.446 108.387 433.606 108.648 432.915C108.909 432.224 109.04 431.506 109.04 430.759C109.04 429.714 108.676 428.892 107.948 428.295C107.239 427.698 106.305 427.399 105.148 427.399C104.065 427.399 103.141 427.679 102.376 428.239C101.611 428.799 101.051 429.611 100.696 430.675C100.64 430.862 100.519 430.927 100.332 430.871L98.68 430.423C98.4747 430.386 98.4 430.264 98.456 430.059C98.96 428.491 99.8 427.278 100.976 426.419C102.152 425.542 103.571 425.103 105.232 425.103C106.445 425.103 107.519 425.336 108.452 425.803C109.404 426.251 110.141 426.886 110.664 427.707C111.187 428.528 111.448 429.48 111.448 430.563C111.448 431.515 111.299 432.42 111 433.279C110.72 434.138 110.151 435.155 109.292 436.331C108.433 437.507 107.164 438.982 105.484 440.755L102.6 443.835H111.98C112.167 443.835 112.26 443.928 112.26 444.115V445.739C112.26 445.944 112.167 446.047 111.98 446.047H98.988ZM122.296 446.439C120.71 446.439 119.347 446.019 118.208 445.179C117.07 444.32 116.192 443.098 115.576 441.511C114.979 439.906 114.68 437.992 114.68 435.771C114.68 433.55 114.979 431.646 115.576 430.059C116.192 428.454 117.07 427.231 118.208 426.391C119.347 425.532 120.71 425.103 122.296 425.103C123.883 425.103 125.246 425.532 126.384 426.391C127.523 427.231 128.391 428.454 128.988 430.059C129.604 431.646 129.912 433.55 129.912 435.771C129.912 437.992 129.604 439.906 128.988 441.511C128.391 443.098 127.523 444.32 126.384 445.179C125.246 446.019 123.883 446.439 122.296 446.439ZM122.296 444.143C123.958 444.143 125.236 443.434 126.132 442.015C127.028 440.578 127.476 438.496 127.476 435.771C127.476 433.046 127.028 430.974 126.132 429.555C125.236 428.118 123.958 427.399 122.296 427.399C120.635 427.399 119.356 428.118 118.46 429.555C117.564 430.974 117.116 433.046 117.116 435.771C117.116 438.496 117.564 440.578 118.46 442.015C119.356 443.434 120.635 444.143 122.296 444.143ZM132.609 446.047C132.403 446.047 132.301 445.944 132.301 445.739V445.235C132.301 445.123 132.347 445.002 132.441 444.871L137.425 439.355C138.899 437.731 140.01 436.424 140.757 435.435C141.503 434.446 142.007 433.606 142.269 432.915C142.53 432.224 142.661 431.506 142.661 430.759C142.661 429.714 142.297 428.892 141.569 428.295C140.859 427.698 139.926 427.399 138.769 427.399C137.686 427.399 136.762 427.679 135.997 428.239C135.231 428.799 134.671 429.611 134.317 430.675C134.261 430.862 134.139 430.927 133.953 430.871L132.301 430.423C132.095 430.386 132.021 430.264 132.077 430.059C132.581 428.491 133.421 427.278 134.597 426.419C135.773 425.542 137.191 425.103 138.853 425.103C140.066 425.103 141.139 425.336 142.073 425.803C143.025 426.251 143.762 426.886 144.285 427.707C144.807 428.528 145.069 429.48 145.069 430.563C145.069 431.515 144.919 432.42 144.621 433.279C144.341 434.138 143.771 435.155 142.913 436.331C142.054 437.507 140.785 438.982 139.105 440.755L136.221 443.835H145.601C145.787 443.835 145.881 443.928 145.881 444.115V445.739C145.881 445.944 145.787 446.047 145.601 446.047H132.609ZM155.049 446.439C153.668 446.439 152.445 446.15 151.381 445.571C150.317 444.974 149.487 444.152 148.889 443.107C148.311 442.043 148.021 440.83 148.021 439.467C148.021 438.235 148.273 437.031 148.777 435.855C149.281 434.66 150.177 433.13 151.465 431.263L155.441 425.663C155.535 425.551 155.656 425.495 155.805 425.495H157.849C157.961 425.495 158.036 425.532 158.073 425.607C158.111 425.682 158.092 425.766 158.017 425.859L152.333 433.783C153.248 433.111 154.331 432.775 155.581 432.775C156.851 432.775 157.98 433.064 158.969 433.643C159.959 434.203 160.724 434.996 161.265 436.023C161.825 437.05 162.105 438.226 162.105 439.551C162.105 440.914 161.807 442.118 161.209 443.163C160.631 444.19 159.809 444.992 158.745 445.571C157.681 446.15 156.449 446.439 155.049 446.439ZM155.049 444.143C156.431 444.143 157.541 443.723 158.381 442.883C159.221 442.043 159.641 440.914 159.641 439.495C159.641 438.076 159.221 436.956 158.381 436.135C157.56 435.295 156.449 434.875 155.049 434.875C153.649 434.875 152.529 435.295 151.689 436.135C150.849 436.956 150.429 438.076 150.429 439.495C150.429 440.914 150.849 442.043 151.689 442.883C152.529 443.723 153.649 444.143 155.049 444.143ZM165.384 446.467C164.917 446.467 164.525 446.318 164.208 446.019C163.909 445.72 163.76 445.338 163.76 444.871C163.76 444.404 163.909 444.022 164.208 443.723C164.525 443.424 164.917 443.275 165.384 443.275C165.851 443.275 166.233 443.424 166.532 443.723C166.849 444.022 167.008 444.404 167.008 444.871C167.008 445.338 166.849 445.72 166.532 446.019C166.233 446.318 165.851 446.467 165.384 446.467ZM176.112 446.439C174.526 446.439 173.163 446.019 172.024 445.179C170.886 444.32 170.008 443.098 169.392 441.511C168.795 439.906 168.496 437.992 168.496 435.771C168.496 433.55 168.795 431.646 169.392 430.059C170.008 428.454 170.886 427.231 172.024 426.391C173.163 425.532 174.526 425.103 176.112 425.103C177.699 425.103 179.062 425.532 180.2 426.391C181.339 427.231 182.207 428.454 182.804 430.059C183.42 431.646 183.728 433.55 183.728 435.771C183.728 437.992 183.42 439.906 182.804 441.511C182.207 443.098 181.339 444.32 180.2 445.179C179.062 446.019 177.699 446.439 176.112 446.439ZM176.112 444.143C177.774 444.143 179.052 443.434 179.948 442.015C180.844 440.578 181.292 438.496 181.292 435.771C181.292 433.046 180.844 430.974 179.948 429.555C179.052 428.118 177.774 427.399 176.112 427.399C174.451 427.399 173.172 428.118 172.276 429.555C171.38 430.974 170.932 433.046 170.932 435.771C170.932 438.496 171.38 440.578 172.276 442.015C173.172 443.434 174.451 444.143 176.112 444.143ZM196.175 446.047C195.97 446.047 195.867 445.944 195.867 445.739V441.539H185.535C185.33 441.539 185.227 441.436 185.227 441.231V440.671C185.227 440.522 185.264 440.4 185.339 440.307L196.315 425.663C196.408 425.551 196.53 425.495 196.679 425.495H197.911C198.116 425.495 198.219 425.588 198.219 425.775V439.327H201.047C201.252 439.327 201.355 439.42 201.355 439.607V441.231C201.355 441.436 201.252 441.539 201.047 441.539H198.219V445.739C198.219 445.944 198.116 446.047 197.911 446.047H196.175ZM195.867 429.555L188.587 439.327H195.867V429.555ZM204.536 446.467C204.069 446.467 203.677 446.318 203.36 446.019C203.061 445.72 202.912 445.338 202.912 444.871C202.912 444.404 203.061 444.022 203.36 443.723C203.677 443.424 204.069 443.275 204.536 443.275C205.003 443.275 205.385 443.424 205.684 443.723C206.001 444.022 206.16 444.404 206.16 444.871C206.16 445.338 206.001 445.72 205.684 446.019C205.385 446.318 205.003 446.467 204.536 446.467ZM210.411 446.047C210.224 446.047 210.131 445.944 210.131 445.739V428.771L206.155 431.067C206.08 431.104 206.024 431.123 205.987 431.123C205.912 431.123 205.837 431.058 205.763 430.927L205.399 430.311C205.361 430.236 205.343 430.18 205.343 430.143C205.343 430.05 205.389 429.975 205.483 429.919L210.579 425.635C210.672 425.542 210.793 425.495 210.943 425.495H212.175C212.361 425.495 212.455 425.588 212.455 425.775V445.739C212.455 445.944 212.361 446.047 212.175 446.047H210.411ZM223.356 446.439C221.938 446.439 220.668 446.187 219.548 445.683C218.428 445.179 217.551 444.47 216.916 443.555C216.3 442.64 215.992 441.595 215.992 440.419C215.992 439.206 216.366 438.132 217.112 437.199C217.878 436.247 218.895 435.575 220.164 435.183C219.082 434.81 218.214 434.203 217.56 433.363C216.926 432.504 216.608 431.552 216.608 430.507C216.608 429.462 216.898 428.528 217.476 427.707C218.055 426.886 218.858 426.251 219.884 425.803C220.911 425.336 222.068 425.103 223.356 425.103C224.663 425.103 225.82 425.336 226.828 425.803C227.855 426.251 228.658 426.886 229.236 427.707C229.815 428.528 230.104 429.462 230.104 430.507C230.104 431.552 229.778 432.504 229.124 433.363C228.49 434.203 227.631 434.81 226.548 435.183C227.818 435.575 228.826 436.247 229.572 437.199C230.338 438.132 230.72 439.206 230.72 440.419C230.72 441.595 230.403 442.64 229.768 443.555C229.152 444.451 228.284 445.16 227.164 445.683C226.044 446.187 224.775 446.439 223.356 446.439ZM223.356 434.343C224.626 434.343 225.662 434.007 226.464 433.335C227.286 432.663 227.696 431.804 227.696 430.759C227.696 429.751 227.286 428.911 226.464 428.239C225.662 427.567 224.626 427.231 223.356 427.231C222.087 427.231 221.042 427.567 220.22 428.239C219.418 428.911 219.016 429.751 219.016 430.759C219.016 431.804 219.418 432.663 220.22 433.335C221.042 434.007 222.087 434.343 223.356 434.343ZM223.356 444.283C224.308 444.283 225.158 444.115 225.904 443.779C226.67 443.424 227.258 442.939 227.668 442.323C228.098 441.688 228.312 440.979 228.312 440.195C228.312 439.43 228.098 438.748 227.668 438.151C227.258 437.535 226.67 437.059 225.904 436.723C225.158 436.368 224.308 436.191 223.356 436.191C222.404 436.191 221.546 436.368 220.78 436.723C220.034 437.059 219.446 437.535 219.016 438.151C218.606 438.748 218.4 439.43 218.4 440.195C218.4 440.979 218.606 441.688 219.016 442.323C219.446 442.939 220.034 443.424 220.78 443.779C221.546 444.115 222.404 444.283 223.356 444.283ZM234.528 446.467C234.061 446.467 233.669 446.318 233.352 446.019C233.053 445.72 232.904 445.338 232.904 444.871C232.904 444.404 233.053 444.022 233.352 443.723C233.669 443.424 234.061 443.275 234.528 443.275C234.994 443.275 235.377 443.424 235.676 443.723C235.993 444.022 236.152 444.404 236.152 444.871C236.152 445.338 235.993 445.72 235.676 446.019C235.377 446.318 234.994 446.467 234.528 446.467ZM253.878 438.179C253.038 438.179 252.329 438.058 251.75 437.815C251.19 437.572 250.583 437.218 249.93 436.751C249.501 436.434 249.127 436.2 248.81 436.051C248.511 435.902 248.175 435.827 247.802 435.827C247.335 435.827 246.887 435.986 246.458 436.303C246.029 436.62 245.646 437.096 245.31 437.731C245.291 437.787 245.245 437.815 245.17 437.815C245.151 437.815 245.058 437.787 244.89 437.731L243.49 437.143C243.341 437.087 243.294 436.966 243.35 436.779C243.817 435.771 244.442 435.006 245.226 434.483C246.01 433.942 246.813 433.671 247.634 433.671C248.474 433.671 249.174 433.792 249.734 434.035C250.313 434.278 250.929 434.632 251.582 435.099C252.011 435.416 252.375 435.65 252.674 435.799C252.991 435.948 253.337 436.023 253.71 436.023C254.177 436.023 254.625 435.864 255.054 435.547C255.483 435.23 255.866 434.754 256.202 434.119C256.239 434.063 256.286 434.035 256.342 434.035C256.361 434.035 256.454 434.063 256.622 434.119L258.022 434.707C258.171 434.763 258.218 434.884 258.162 435.071C257.695 436.079 257.07 436.854 256.286 437.395C255.502 437.918 254.699 438.179 253.878 438.179ZM272.841 446.439C271.255 446.439 269.892 446.019 268.753 445.179C267.615 444.32 266.737 443.098 266.121 441.511C265.524 439.906 265.225 437.992 265.225 435.771C265.225 433.55 265.524 431.646 266.121 430.059C266.737 428.454 267.615 427.231 268.753 426.391C269.892 425.532 271.255 425.103 272.841 425.103C274.428 425.103 275.791 425.532 276.929 426.391C278.068 427.231 278.936 428.454 279.533 430.059C280.149 431.646 280.457 433.55 280.457 435.771C280.457 437.992 280.149 439.906 279.533 441.511C278.936 443.098 278.068 444.32 276.929 445.179C275.791 446.019 274.428 446.439 272.841 446.439ZM272.841 444.143C274.503 444.143 275.781 443.434 276.677 442.015C277.573 440.578 278.021 438.496 278.021 435.771C278.021 433.046 277.573 430.974 276.677 429.555C275.781 428.118 274.503 427.399 272.841 427.399C271.18 427.399 269.901 428.118 269.005 429.555C268.109 430.974 267.661 433.046 267.661 435.771C267.661 438.496 268.109 440.578 269.005 442.015C269.901 443.434 271.18 444.143 272.841 444.143ZM292.904 446.047C292.699 446.047 292.596 445.944 292.596 445.739V441.539H282.264C282.059 441.539 281.956 441.436 281.956 441.231V440.671C281.956 440.522 281.994 440.4 282.068 440.307L293.044 425.663C293.138 425.551 293.259 425.495 293.408 425.495H294.64C294.846 425.495 294.948 425.588 294.948 425.775V439.327H297.776C297.982 439.327 298.084 439.42 298.084 439.607V441.231C298.084 441.436 297.982 441.539 297.776 441.539H294.948V445.739C294.948 445.944 294.846 446.047 294.64 446.047H292.904ZM292.596 429.555L285.316 439.327H292.596V429.555ZM301.265 446.467C300.798 446.467 300.406 446.318 300.089 446.019C299.79 445.72 299.641 445.338 299.641 444.871C299.641 444.404 299.79 444.022 300.089 443.723C300.406 443.424 300.798 443.275 301.265 443.275C301.732 443.275 302.114 443.424 302.413 443.723C302.73 444.022 302.889 444.404 302.889 444.871C302.889 445.338 302.73 445.72 302.413 446.019C302.114 446.318 301.732 446.467 301.265 446.467ZM305.673 446.047C305.468 446.047 305.365 445.944 305.365 445.739V445.235C305.365 445.123 305.412 445.002 305.505 444.871L310.489 439.355C311.964 437.731 313.074 436.424 313.821 435.435C314.568 434.446 315.072 433.606 315.333 432.915C315.594 432.224 315.725 431.506 315.725 430.759C315.725 429.714 315.361 428.892 314.633 428.295C313.924 427.698 312.99 427.399 311.833 427.399C310.75 427.399 309.826 427.679 309.061 428.239C308.296 428.799 307.736 429.611 307.381 430.675C307.325 430.862 307.204 430.927 307.017 430.871L305.365 430.423C305.16 430.386 305.085 430.264 305.141 430.059C305.645 428.491 306.485 427.278 307.661 426.419C308.837 425.542 310.256 425.103 311.917 425.103C313.13 425.103 314.204 425.336 315.137 425.803C316.089 426.251 316.826 426.886 317.349 427.707C317.872 428.528 318.133 429.48 318.133 430.563C318.133 431.515 317.984 432.42 317.685 433.279C317.405 434.138 316.836 435.155 315.977 436.331C315.118 437.507 313.849 438.982 312.169 440.755L309.285 443.835H318.665C318.852 443.835 318.945 443.928 318.945 444.115V445.739C318.945 445.944 318.852 446.047 318.665 446.047H305.673ZM330.443 446.047C330.237 446.047 330.135 445.944 330.135 445.739V441.539H319.803C319.597 441.539 319.495 441.436 319.495 441.231V440.671C319.495 440.522 319.532 440.4 319.607 440.307L330.583 425.663C330.676 425.551 330.797 425.495 330.947 425.495H332.179C332.384 425.495 332.487 425.588 332.487 425.775V439.327H335.315C335.52 439.327 335.623 439.42 335.623 439.607V441.231C335.623 441.436 335.52 441.539 335.315 441.539H332.487V445.739C332.487 445.944 332.384 446.047 332.179 446.047H330.443ZM330.135 429.555L322.855 439.327H330.135V429.555ZM338.804 446.467C338.337 446.467 337.945 446.318 337.628 446.019C337.329 445.72 337.18 445.338 337.18 444.871C337.18 444.404 337.329 444.022 337.628 443.723C337.945 443.424 338.337 443.275 338.804 443.275C339.27 443.275 339.653 443.424 339.952 443.723C340.269 444.022 340.428 444.404 340.428 444.871C340.428 445.338 340.269 445.72 339.952 446.019C339.653 446.318 339.27 446.467 338.804 446.467Z" fill="white"/>
<path d="M132 328.047V406.047" stroke="white"/>
<path d="M380 433.047C415.802 433.864 528 476.047 543 549.047" stroke="white"/>
<path d="M725.546 104.29C732.612 102.047 737.923 101.945 739.431 104.511C742.067 108.993 732.101 119.917 717.173 128.91C702.244 137.903 688.005 141.56 685.369 137.078C683.837 134.471 686.566 129.687 692.055 124.37L692.405 125.844C690.446 128.446 689.685 130.659 690.51 132.063C692.564 135.554 703.656 132.705 715.285 125.699C726.914 118.693 734.676 110.185 732.625 106.693C731.833 105.347 728.771 105.117 725.779 105.531L725.546 104.29Z" fill="white"/>
<g filter="url(#filter2_ii_3583_1107)">
<path d="M694.507 67.0993C727.062 60.9952 754.972 64.1506 756.847 74.1474C757.489 77.5718 754.994 81.355 750.125 85.0941C733.331 97.9935 715.767 111.432 708.761 130.894C708.591 131.365 708.82 131.876 709.212 132.186C709.923 132.749 710.442 133.561 710.622 134.522C710.841 135.688 710.516 136.83 709.827 137.687C709.474 138.125 709.376 138.766 709.736 139.198C723.305 155.469 745.049 161.65 765.683 168.07C771.218 169.792 774.681 172.349 775.3 175.652C777.175 185.649 752.303 198.702 719.748 204.806C687.192 210.91 659.281 207.754 657.406 197.757C656.764 194.333 659.26 190.551 664.128 186.812C681.164 173.727 698.99 160.087 705.787 140.17C705.981 139.602 705.604 139.006 705.066 138.741C704.002 138.217 703.19 137.216 702.954 135.96C702.757 134.906 703.003 133.871 703.561 133.049C703.862 132.606 703.917 131.999 703.563 131.597C689.944 116.152 668.729 110.107 648.57 103.835C643.036 102.113 639.573 99.5562 638.953 96.2525C637.08 86.2555 661.952 73.2034 694.507 67.0993Z" fill="url(#paint0_linear_3583_1107)"/>
</g>
<circle cx="703.735" cy="118.947" r="2.92557" transform="rotate(-10.6197 703.735 118.947)" fill="url(#paint1_linear_3583_1107)"/>
<circle cx="709.843" cy="151.536" r="2.92557" transform="rotate(169.38 709.843 151.536)" fill="url(#paint2_linear_3583_1107)"/>
<circle cx="701.397" cy="106.487" r="3.90077" transform="rotate(-10.6197 701.397 106.487)" fill="url(#paint3_linear_3583_1107)"/>
<circle cx="712.18" cy="163.996" r="3.90077" transform="rotate(169.38 712.18 163.996)" fill="url(#paint4_linear_3583_1107)"/>
<path d="M685.36 137.025C688.023 141.589 702.354 137.896 717.37 128.779L715.488 125.579C703.791 132.682 692.602 135.488 690.527 131.933C689.693 130.503 691.551 127.969 693.519 125.327L692.067 124.111C686.55 129.508 683.812 134.37 685.36 137.025Z" fill="white"/>
<g filter="url(#filter3_i_3583_1107)">
<path d="M1185.64 92.052C1201.01 85.1439 1219.38 92.1008 1226.28 107.438C1233.28 123.017 1226.28 141.378 1210.92 148.287C1196.05 154.971 1173.78 149.875 1156.39 145.249C1156.1 145.173 1155.81 145.339 1155.71 145.617C1155.47 146.24 1155.68 146.972 1156.28 147.272C1172.26 155.333 1191.92 166.222 1198.52 180.921C1205.43 196.29 1198.47 214.666 1182.9 221.669C1167.56 228.563 1149.2 221.567 1142.29 206.198C1135.84 191.846 1140.44 168.476 1145.11 151.203C1145.18 150.924 1145.02 150.642 1144.75 150.54C1144.3 150.368 1143.78 150.535 1143.56 150.968C1135.58 166.942 1123.57 187.263 1109.31 193.674C1093.94 200.582 1075.56 193.625 1068.67 178.289C1061.67 162.709 1068.66 144.348 1084.03 137.439C1098.84 130.783 1120.98 135.807 1138.34 140.417C1138.97 140.583 1139.6 140.193 1139.83 139.587C1139.93 139.329 1139.83 139.035 1139.58 138.911C1123.44 130.807 1103.16 119.785 1096.42 104.805C1089.52 89.4365 1096.47 71.0612 1112.05 64.0579C1127.39 57.1639 1145.75 64.1587 1152.66 79.5274C1158.98 93.5897 1154.69 116.31 1150.12 133.469C1149.99 133.972 1150.29 134.479 1150.78 134.663C1151.09 134.779 1151.43 134.663 1151.58 134.371C1159.55 118.458 1171.49 98.4121 1185.64 92.052Z" fill="url(#paint5_linear_3583_1107)"/>
</g>
<g filter="url(#filter4_i_3583_1107)">
<path d="M1155.83 82.5782C1167.98 83.8908 1176.08 87.2307 1176.68 92.0323C1177.72 100.419 1155.49 110.091 1127.01 113.634C1098.54 117.176 1074.61 113.249 1073.57 104.862C1072.96 99.9838 1080.22 94.6726 1092.01 90.3849L1091.58 92.8043C1086.91 95.3795 1084.3 98.1659 1084.63 100.793C1085.45 107.327 1104.09 110.385 1126.27 107.625C1148.45 104.865 1165.76 97.3314 1164.95 90.7985C1164.64 88.2796 1161.67 86.2764 1156.88 84.9251L1155.83 82.5782Z" fill="white"/>
</g>
<g filter="url(#filter5_d_3583_1107)">
<circle cx="1182.82" cy="218.494" r="1.46105" transform="rotate(-31.2989 1182.82 218.494)" fill="white"/>
</g>
<g filter="url(#filter6_d_3583_1107)">
<circle cx="1071.91" cy="176.372" r="1.46105" transform="rotate(-31.2989 1071.91 176.372)" fill="white"/>
</g>
<g filter="url(#filter7_d_3583_1107)">
<circle cx="1223.58" cy="111.16" r="1.46105" transform="rotate(-31.2989 1223.58 111.16)" fill="white"/>
</g>
<g filter="url(#filter8_d_3583_1107)">
<circle cx="1112.67" cy="69.0382" r="1.46105" transform="rotate(-31.2989 1112.67 69.0382)" fill="white"/>
</g>
<g filter="url(#filter9_ii_3583_1107)">
<path d="M910.696 386.047L896.221 409.806L896.224 409.808L851.959 482.468L851.955 482.466L851.953 482.47L779.292 438.204L779.294 438.2L755.535 423.726L799.801 351.065L823.559 365.539L838.034 341.781L910.696 386.047Z" fill="url(#paint6_linear_3583_1107)"/>
</g>
<g filter="url(#filter10_i_3583_1107)">
<circle cx="834.537" cy="414.509" r="20.326" transform="rotate(-13.6496 834.537 414.509)" fill="url(#paint7_linear_3583_1107)"/>
</g>
<g filter="url(#filter11_i_3583_1107)">
<path d="M865.404 357.161C885.019 346.607 900.627 343.281 906.473 349.88C916.685 361.405 893.246 398.85 854.117 433.514C814.988 468.178 774.987 486.938 764.774 475.414C758.835 468.709 762.285 455.069 775.578 436.478L779.769 439.032C775.406 447.713 774.006 454.287 777.204 457.898C785.161 466.875 816.32 452.261 846.801 425.257C877.282 398.253 895.539 369.087 887.587 360.107C884.519 356.647 878 356.692 869.401 359.605L865.404 357.161Z" fill="#C1CAFF"/>
</g>
<g filter="url(#filter12_i_3583_1107)">
<path d="M782.758 377.231C760.487 376.849 745.092 381.051 742.924 389.596C739.135 404.521 777.138 427.045 827.807 439.903C878.476 452.76 922.626 451.085 926.415 436.16C928.618 427.478 918.89 417.548 898.552 407.125L896.592 410.28C904.451 415.994 908.523 421.621 907.337 426.296C904.383 437.923 869.992 439.227 830.521 429.21C791.049 419.193 761.45 401.649 764.397 390.023C765.536 385.541 771.35 382.591 780.327 381.235L782.758 377.231Z" fill="white"/>
</g>
<path d="M942 349.547H1058.5V379.047C1058.5 391.473 1048.43 401.547 1036 401.547H930.5V361.047C930.5 354.894 935.332 349.87 941.408 349.562L942 349.547Z" fill="#3755FF"/>
<path d="M942 349.547H1058.5V379.047C1058.5 391.473 1048.43 401.547 1036 401.547H930.5V361.047C930.5 354.894 935.332 349.87 941.408 349.562L942 349.547Z" stroke="white"/>
<path d="M962.428 386.439C960.58 386.439 959.031 385.991 957.78 385.095C956.548 384.18 955.671 382.827 955.148 381.035L955.12 380.923C955.12 380.811 955.195 380.727 955.344 380.671L957.024 380.251L957.136 380.223C957.248 380.223 957.332 380.298 957.388 380.447C957.817 381.735 958.433 382.678 959.236 383.275C960.039 383.854 961.103 384.143 962.428 384.143C963.772 384.143 964.845 383.854 965.648 383.275C966.451 382.696 966.852 381.884 966.852 380.839C966.852 379.794 966.507 378.972 965.816 378.375C965.144 377.778 964.08 377.227 962.624 376.723L961.084 376.191C957.481 374.978 955.68 373.083 955.68 370.507C955.68 369.462 955.96 368.528 956.52 367.707C957.08 366.886 957.845 366.251 958.816 365.803C959.805 365.336 960.907 365.103 962.12 365.103C963.856 365.103 965.303 365.523 966.46 366.363C967.617 367.184 968.42 368.407 968.868 370.031L968.896 370.143C968.896 370.274 968.821 370.358 968.672 370.395L966.908 370.843L966.796 370.871C966.684 370.871 966.6 370.796 966.544 370.647C966.189 369.527 965.648 368.706 964.92 368.183C964.192 367.66 963.259 367.399 962.12 367.399C960.925 367.399 959.955 367.679 959.208 368.239C958.461 368.799 958.088 369.536 958.088 370.451C958.088 371.254 958.424 371.963 959.096 372.579C959.787 373.176 960.851 373.708 962.288 374.175L963.66 374.623C965.62 375.276 967.039 376.079 967.916 377.031C968.812 377.964 969.26 379.234 969.26 380.839C969.26 381.922 968.971 382.892 968.392 383.751C967.813 384.591 967.001 385.254 965.956 385.739C964.929 386.206 963.753 386.439 962.428 386.439ZM977.993 386.327C976.593 386.327 975.37 386.01 974.325 385.375C973.28 384.74 972.477 383.872 971.917 382.771C971.357 381.651 971.077 380.382 971.077 378.963C971.077 377.544 971.357 376.284 971.917 375.183C972.496 374.063 973.308 373.195 974.353 372.579C975.398 371.944 976.612 371.627 977.993 371.627C980.046 371.627 981.633 372.336 982.753 373.755C983.892 375.155 984.442 377.031 984.405 379.383C984.405 379.588 984.302 379.691 984.097 379.691H973.429C973.56 381.11 974.026 382.23 974.829 383.051C975.65 383.872 976.705 384.283 977.993 384.283C979.934 384.283 981.306 383.49 982.109 381.903C982.184 381.754 982.314 381.707 982.501 381.763L983.901 382.267C983.994 382.304 984.05 382.36 984.069 382.435C984.106 382.491 984.106 382.556 984.069 382.631C983.472 383.863 982.65 384.787 981.605 385.403C980.578 386.019 979.374 386.327 977.993 386.327ZM981.997 377.927C981.904 376.639 981.502 375.603 980.793 374.819C980.084 374.035 979.15 373.643 977.993 373.643C976.78 373.643 975.762 374.035 974.941 374.819C974.12 375.584 973.625 376.62 973.457 377.927H981.997ZM987.282 386.047C987.077 386.047 986.974 385.944 986.974 385.739V372.187C986.974 372 987.077 371.907 987.282 371.907H988.71C988.915 371.907 989.018 372 989.018 372.187L989.13 374.623C989.634 373.708 990.306 372.999 991.146 372.495C992.005 371.972 992.938 371.711 993.946 371.711C994.319 371.711 994.571 371.73 994.702 371.767C994.87 371.786 994.954 371.888 994.954 372.075V373.699C994.954 373.886 994.87 373.979 994.702 373.979C994.59 373.979 994.431 373.97 994.226 373.951C994.039 373.914 993.862 373.895 993.694 373.895C992.929 373.895 992.201 374.091 991.51 374.483C990.819 374.875 990.259 375.416 989.83 376.107C989.419 376.798 989.214 377.554 989.214 378.375V385.739C989.214 385.944 989.121 386.047 988.934 386.047H987.282ZM1002 386.047C1001.84 386.047 1001.72 385.972 1001.67 385.823L995.705 372.243C995.668 372.168 995.649 372.112 995.649 372.075C995.649 371.963 995.742 371.907 995.929 371.907H997.889C998.057 371.907 998.178 371.982 998.253 372.131L1002.59 382.659L1006.93 372.131C1007.01 371.982 1007.13 371.907 1007.3 371.907H1009.14C1009.39 371.907 1009.46 372.019 1009.37 372.243L1003.4 385.823C1003.31 385.972 1003.19 386.047 1003.04 386.047H1002ZM1016.97 386.327C1015.57 386.327 1014.35 386.01 1013.31 385.375C1012.26 384.74 1011.46 383.872 1010.9 382.771C1010.34 381.651 1010.06 380.382 1010.06 378.963C1010.06 377.544 1010.34 376.284 1010.9 375.183C1011.48 374.063 1012.29 373.195 1013.33 372.579C1014.38 371.944 1015.59 371.627 1016.97 371.627C1019.03 371.627 1020.61 372.336 1021.73 373.755C1022.87 375.155 1023.42 377.031 1023.39 379.383C1023.39 379.588 1023.28 379.691 1023.08 379.691H1012.41C1012.54 381.11 1013.01 382.23 1013.81 383.051C1014.63 383.872 1015.69 384.283 1016.97 384.283C1018.91 384.283 1020.29 383.49 1021.09 381.903C1021.16 381.754 1021.29 381.707 1021.48 381.763L1022.88 382.267C1022.97 382.304 1023.03 382.36 1023.05 382.435C1023.09 382.491 1023.09 382.556 1023.05 382.631C1022.45 383.863 1021.63 384.787 1020.59 385.403C1019.56 386.019 1018.35 386.327 1016.97 386.327ZM1020.98 377.927C1020.88 376.639 1020.48 375.603 1019.77 374.819C1019.06 374.035 1018.13 373.643 1016.97 373.643C1015.76 373.643 1014.74 374.035 1013.92 374.819C1013.1 375.584 1012.61 376.62 1012.44 377.927H1020.98ZM1026.26 386.047C1026.06 386.047 1025.95 385.944 1025.95 385.739V372.187C1025.95 372 1026.06 371.907 1026.26 371.907H1027.69C1027.9 371.907 1028 372 1028 372.187L1028.11 374.623C1028.61 373.708 1029.29 372.999 1030.13 372.495C1030.98 371.972 1031.92 371.711 1032.93 371.711C1033.3 371.711 1033.55 371.73 1033.68 371.767C1033.85 371.786 1033.93 371.888 1033.93 372.075V373.699C1033.93 373.886 1033.85 373.979 1033.68 373.979C1033.57 373.979 1033.41 373.97 1033.21 373.951C1033.02 373.914 1032.84 373.895 1032.67 373.895C1031.91 373.895 1031.18 374.091 1030.49 374.483C1029.8 374.875 1029.24 375.416 1028.81 376.107C1028.4 376.798 1028.19 377.554 1028.19 378.375V385.739C1028.19 385.944 1028.1 386.047 1027.91 386.047H1026.26Z" fill="white"/>
<path d="M1255 86.5469H1378.5V116.047C1378.5 128.473 1368.43 138.547 1356 138.547H1243.5V98.0469C1243.5 91.6956 1248.65 86.5469 1255 86.5469Z" fill="#3755FF"/>
<path d="M1255 86.5469H1378.5V116.047C1378.5 128.473 1368.43 138.547 1356 138.547H1243.5V98.0469C1243.5 91.6956 1248.65 86.5469 1255 86.5469Z" stroke="white"/>
<path d="M1269.83 123.047C1269.62 123.047 1269.52 122.944 1269.52 122.739V102.775C1269.52 102.588 1269.62 102.495 1269.83 102.495H1275.96C1279.38 102.495 1281.95 103.4 1283.69 105.211C1285.44 107.022 1286.32 109.542 1286.32 112.771C1286.32 115.982 1285.44 118.502 1283.69 120.331C1281.95 122.142 1279.38 123.047 1275.96 123.047H1269.83ZM1275.68 120.835C1278.39 120.835 1280.43 120.135 1281.81 118.735C1283.2 117.335 1283.89 115.347 1283.89 112.771C1283.89 110.195 1283.2 108.207 1281.81 106.807C1280.43 105.407 1278.39 104.707 1275.68 104.707H1271.87V120.835H1275.68ZM1295.48 123.327C1294.08 123.327 1292.86 123.01 1291.81 122.375C1290.77 121.74 1289.96 120.872 1289.4 119.771C1288.84 118.651 1288.56 117.382 1288.56 115.963C1288.56 114.544 1288.84 113.284 1289.4 112.183C1289.98 111.063 1290.79 110.195 1291.84 109.579C1292.88 108.944 1294.1 108.627 1295.48 108.627C1297.53 108.627 1299.12 109.336 1300.24 110.755C1301.38 112.155 1301.93 114.031 1301.89 116.383C1301.89 116.588 1301.79 116.691 1301.58 116.691H1290.92C1291.05 118.11 1291.51 119.23 1292.32 120.051C1293.14 120.872 1294.19 121.283 1295.48 121.283C1297.42 121.283 1298.79 120.49 1299.6 118.903C1299.67 118.754 1299.8 118.707 1299.99 118.763L1301.39 119.267C1301.48 119.304 1301.54 119.36 1301.56 119.435C1301.59 119.491 1301.59 119.556 1301.56 119.631C1300.96 120.863 1300.14 121.787 1299.09 122.403C1298.06 123.019 1296.86 123.327 1295.48 123.327ZM1299.48 114.927C1299.39 113.639 1298.99 112.603 1298.28 111.819C1297.57 111.035 1296.64 110.643 1295.48 110.643C1294.27 110.643 1293.25 111.035 1292.43 111.819C1291.61 112.584 1291.11 113.62 1290.94 114.927H1299.48ZM1309.19 123.327C1307.7 123.327 1306.45 123.019 1305.44 122.403C1304.45 121.768 1303.73 120.826 1303.28 119.575L1303.26 119.463C1303.26 119.351 1303.33 119.267 1303.48 119.211L1304.94 118.819C1304.97 118.8 1305.02 118.791 1305.08 118.791C1305.21 118.791 1305.28 118.856 1305.3 118.987C1305.66 119.79 1306.14 120.378 1306.76 120.751C1307.37 121.106 1308.16 121.283 1309.11 121.283C1309.97 121.283 1310.65 121.124 1311.15 120.807C1311.68 120.471 1311.94 119.986 1311.94 119.351C1311.94 118.81 1311.72 118.38 1311.29 118.063C1310.86 117.727 1310.15 117.419 1309.16 117.139L1308.32 116.915C1306.79 116.486 1305.67 115.916 1304.96 115.207C1304.27 114.479 1303.93 113.592 1303.93 112.547C1303.93 111.408 1304.38 110.475 1305.27 109.747C1306.19 109 1307.38 108.627 1308.86 108.627C1310.11 108.627 1311.18 108.916 1312.08 109.495C1312.97 110.055 1313.63 110.904 1314.04 112.043C1314.06 112.08 1314.06 112.127 1314.06 112.183C1314.06 112.239 1314.05 112.286 1314.01 112.323C1313.97 112.36 1313.92 112.388 1313.87 112.407L1312.41 112.855C1312.38 112.874 1312.33 112.883 1312.27 112.883C1312.18 112.883 1312.1 112.818 1312.02 112.687C1311.4 111.324 1310.34 110.643 1308.83 110.643C1308.04 110.643 1307.41 110.811 1306.92 111.147C1306.46 111.483 1306.22 111.95 1306.22 112.547C1306.22 113.088 1306.44 113.527 1306.87 113.863C1307.32 114.199 1308.07 114.507 1309.14 114.787L1309.92 114.983C1311.45 115.375 1312.55 115.926 1313.22 116.635C1313.92 117.326 1314.26 118.212 1314.26 119.295C1314.26 120.508 1313.78 121.488 1312.83 122.235C1311.9 122.963 1310.69 123.327 1309.19 123.327ZM1318.25 105.715C1317.83 105.715 1317.47 105.584 1317.19 105.323C1316.91 105.043 1316.77 104.698 1316.77 104.287C1316.77 103.876 1316.91 103.54 1317.19 103.279C1317.47 102.999 1317.83 102.859 1318.25 102.859C1318.68 102.859 1319.04 102.999 1319.32 103.279C1319.6 103.54 1319.74 103.876 1319.74 104.287C1319.74 104.698 1319.6 105.043 1319.32 105.323C1319.04 105.584 1318.68 105.715 1318.25 105.715ZM1317.44 123.047C1317.24 123.047 1317.13 122.944 1317.13 122.739V109.187C1317.13 109 1317.24 108.907 1317.44 108.907H1319.09C1319.28 108.907 1319.37 109 1319.37 109.187V122.739C1319.37 122.944 1319.28 123.047 1319.09 123.047H1317.44ZM1329.3 129.431C1327.75 129.431 1326.41 129.095 1325.29 128.423C1324.19 127.751 1323.39 126.771 1322.88 125.483C1322.87 125.446 1322.86 125.399 1322.86 125.343C1322.86 125.25 1322.92 125.175 1323.05 125.119L1324.4 124.615L1324.51 124.587C1324.64 124.587 1324.73 124.652 1324.79 124.783C1325.18 125.604 1325.73 126.239 1326.44 126.687C1327.17 127.135 1328.1 127.359 1329.24 127.359C1330.62 127.359 1331.76 127.014 1332.66 126.323C1333.57 125.651 1334.03 124.559 1334.03 123.047V120.527C1333.54 121.386 1332.84 122.067 1331.93 122.571C1331.01 123.075 1330.01 123.327 1328.93 123.327C1327.59 123.327 1326.4 123.019 1325.38 122.403C1324.35 121.768 1323.56 120.9 1323 119.799C1322.45 118.679 1322.18 117.4 1322.18 115.963C1322.18 114.544 1322.45 113.284 1323 112.183C1323.56 111.063 1324.35 110.195 1325.38 109.579C1326.4 108.944 1327.59 108.627 1328.93 108.627C1330.05 108.627 1331.08 108.888 1332.01 109.411C1332.95 109.934 1333.65 110.643 1334.11 111.539L1334.22 109.187C1334.22 109 1334.33 108.907 1334.53 108.907H1335.99C1336.17 108.907 1336.27 109 1336.27 109.187V122.823C1336.27 125.007 1335.62 126.65 1334.34 127.751C1333.05 128.871 1331.37 129.431 1329.3 129.431ZM1329.35 121.255C1330.79 121.255 1331.96 120.77 1332.85 119.799C1333.77 118.828 1334.22 117.55 1334.22 115.963C1334.22 114.936 1334.02 114.022 1333.61 113.219C1333.2 112.416 1332.62 111.8 1331.87 111.371C1331.14 110.923 1330.3 110.699 1329.35 110.699C1328.4 110.699 1327.55 110.923 1326.8 111.371C1326.08 111.8 1325.51 112.416 1325.1 113.219C1324.69 114.022 1324.48 114.936 1324.48 115.963C1324.48 117.55 1324.93 118.828 1325.82 119.799C1326.74 120.77 1327.91 121.255 1329.35 121.255ZM1340.39 123.047C1340.18 123.047 1340.08 122.944 1340.08 122.739V109.187C1340.08 109 1340.18 108.907 1340.39 108.907H1341.81C1342.02 108.907 1342.12 109 1342.12 109.187L1342.23 111.511C1342.72 110.578 1343.43 109.868 1344.36 109.383C1345.29 108.879 1346.27 108.627 1347.3 108.627C1348.89 108.627 1350.13 109.094 1351.03 110.027C1351.92 110.942 1352.37 112.22 1352.37 113.863V122.739C1352.37 122.944 1352.28 123.047 1352.09 123.047H1350.44C1350.23 123.047 1350.13 122.944 1350.13 122.739V114.787C1350.13 113.424 1349.85 112.407 1349.29 111.735C1348.73 111.044 1347.87 110.699 1346.71 110.699C1346 110.699 1345.31 110.886 1344.64 111.259C1343.97 111.614 1343.41 112.155 1342.96 112.883C1342.53 113.611 1342.32 114.507 1342.32 115.571V122.739C1342.32 122.944 1342.22 123.047 1342.04 123.047H1340.39Z" fill="white"/>
<path d="M777 79.5464H869.5V109.046C869.5 121.473 859.426 131.546 847 131.546H765.5V91.0464C765.5 84.6951 770.649 79.5464 777 79.5464Z" fill="#3755FF"/>
<path d="M777 79.5464H869.5V109.046C869.5 121.473 859.426 131.546 847 131.546H765.5V91.0464C765.5 84.6951 770.649 79.5464 777 79.5464Z" stroke="white"/>
<path d="M791.828 116.046C791.623 116.046 791.52 115.944 791.52 115.738V95.7744C791.52 95.5877 791.623 95.4944 791.828 95.4944H797.792C800.368 95.4944 802.291 96.0917 803.56 97.2864C804.848 98.4624 805.492 100.133 805.492 102.298C805.492 104.482 804.857 106.162 803.588 107.338C802.319 108.514 800.387 109.102 797.792 109.102H793.872V115.738C793.872 115.944 793.769 116.046 793.564 116.046H791.828ZM797.652 106.918C799.5 106.918 800.863 106.536 801.74 105.77C802.617 105.005 803.056 103.829 803.056 102.242C803.056 100.73 802.617 99.5917 801.74 98.8264C800.863 98.0611 799.5 97.6784 797.652 97.6784H793.872V106.918H797.652ZM808.733 116.046C808.527 116.046 808.425 115.944 808.425 115.738V95.3264C808.425 95.1397 808.527 95.0464 808.733 95.0464H810.385C810.571 95.0464 810.665 95.1397 810.665 95.3264V115.738C810.665 115.944 810.571 116.046 810.385 116.046H808.733ZM820.222 116.326C818.878 116.326 817.693 116.018 816.666 115.402C815.639 114.768 814.846 113.9 814.286 112.798C813.745 111.678 813.474 110.4 813.474 108.962C813.474 107.544 813.745 106.284 814.286 105.182C814.846 104.062 815.639 103.194 816.666 102.578C817.693 101.944 818.878 101.626 820.222 101.626C821.342 101.626 822.369 101.888 823.302 102.41C824.235 102.933 824.935 103.642 825.402 104.538L825.514 102.186C825.514 102 825.617 101.906 825.822 101.906H827.278C827.465 101.906 827.558 102 827.558 102.186V115.738C827.558 115.944 827.465 116.046 827.278 116.046H825.822C825.617 116.046 825.514 115.944 825.514 115.738L825.402 113.386C824.935 114.282 824.235 115.001 823.302 115.542C822.369 116.065 821.342 116.326 820.222 116.326ZM820.642 114.254C822.079 114.254 823.246 113.769 824.142 112.798C825.057 111.828 825.514 110.549 825.514 108.962C825.514 107.936 825.309 107.021 824.898 106.218C824.487 105.416 823.909 104.8 823.162 104.37C822.434 103.922 821.594 103.698 820.642 103.698C819.69 103.698 818.841 103.922 818.094 104.37C817.366 104.8 816.797 105.416 816.386 106.218C815.975 107.021 815.77 107.936 815.77 108.962C815.77 110.549 816.218 111.828 817.114 112.798C818.029 113.769 819.205 114.254 820.642 114.254ZM831.675 116.046C831.47 116.046 831.367 115.944 831.367 115.738V102.186C831.367 102 831.47 101.906 831.675 101.906H833.103C833.309 101.906 833.411 102 833.411 102.186L833.523 104.51C834.009 103.577 834.718 102.868 835.651 102.382C836.585 101.878 837.565 101.626 838.591 101.626C840.178 101.626 841.419 102.093 842.315 103.026C843.211 103.941 843.659 105.22 843.659 106.862V115.738C843.659 115.944 843.566 116.046 843.379 116.046H841.727C841.522 116.046 841.419 115.944 841.419 115.738V107.786C841.419 106.424 841.139 105.406 840.579 104.734C840.019 104.044 839.161 103.698 838.003 103.698C837.294 103.698 836.603 103.885 835.931 104.258C835.259 104.613 834.699 105.154 834.251 105.882C833.822 106.61 833.607 107.506 833.607 108.57V115.738C833.607 115.944 833.514 116.046 833.327 116.046H831.675Z" fill="white"/>
<g filter="url(#filter13_d_3583_1107)">
<path d="M1068.91 491.412L1069.96 498.53L1073.06 492.038L1071.97 499.149L1076.84 493.858L1073.7 500.331L1079.92 496.713L1075.01 501.971L1082.02 500.347L1075.78 503.924L1082.95 504.439L1075.93 506.017L1082.64 508.623L1075.47 508.063L1081.1 512.53L1074.42 509.88L1078.49 515.811L1072.88 511.307L1075.02 518.175L1070.99 512.217L1071.01 519.412L1068.91 512.53L1066.81 519.412L1066.84 512.217L1062.8 518.175L1064.95 511.307L1059.34 515.811L1063.41 509.88L1056.72 512.53L1062.36 508.063L1055.19 508.623L1061.89 506.017L1054.87 504.439L1062.05 503.924L1055.81 500.347L1062.82 501.971L1057.91 496.713L1064.12 500.331L1060.98 493.858L1065.86 499.149L1064.76 492.038L1067.86 498.53L1068.91 491.412Z" fill="white"/>
</g>
<g filter="url(#filter14_d_3583_1107)">
<path fill-rule="evenodd" clip-rule="evenodd" d="M412.43 237.023L408.76 232.797L414.151 228.113L417.825 232.335L419.65 227.046L426.404 229.372L424.584 234.663L430.079 233.599L431.442 240.609L425.949 241.679L429.619 245.904L424.228 250.588L420.554 246.367L418.729 251.656L411.975 249.33L413.794 244.039L408.3 245.103L406.936 238.092L412.43 237.023Z" fill="white"/>
</g>
<defs>
<filter id="filter0_iiii_3583_1107" x="-90" y="172.622" width="810" height="509" filterUnits="userSpaceOnUse" color-interpolation-filters="sRGB">
<feFlood flood-opacity="0" result="BackgroundImageFix"/>
<feBlend mode="normal" in="SourceGraphic" in2="BackgroundImageFix" result="shape"/>
<feColorMatrix in="SourceAlpha" type="matrix" values="0 0 0 0 0 0 0 0 0 0 0 0 0 0 0 0 0 0 127 0" result="hardAlpha"/>
<feOffset dy="202"/>
<feGaussianBlur stdDeviation="65"/>
<feComposite in2="hardAlpha" operator="arithmetic" k2="-1" k3="1"/>
<feColorMatrix type="matrix" values="0 0 0 0 0.00392157 0 0 0 0 0.12549 0 0 0 0 0.458824 0 0 0 0.7 0"/>
<feBlend mode="lighten" in2="shape" result="effect1_innerShadow_3583_1107"/>
<feColorMatrix in="SourceAlpha" type="matrix" values="0 0 0 0 0 0 0 0 0 0 0 0 0 0 0 0 0 0 127 0" result="hardAlpha"/>
<feOffset dy="66"/>
<feGaussianBlur stdDeviation="50"/>
<feComposite in2="hardAlpha" operator="arithmetic" k2="-1" k3="1"/>
<feColorMatrix type="matrix" values="0 0 0 0 0.0196078 0 0 0 0 0.415686 0 0 0 0 0.803922 0 0 0 0.6 0"/>
<feBlend mode="screen" in2="effect1_innerShadow_3583_1107" result="effect2_innerShadow_3583_1107"/>
<feColorMatrix in="SourceAlpha" type="matrix" values="0 0 0 0 0 0 0 0 0 0 0 0 0 0 0 0 0 0 127 0" result="hardAlpha"/>
<feOffset dy="94"/>
<feGaussianBlur stdDeviation="37.5"/>
<feComposite in2="hardAlpha" operator="arithmetic" k2="-1" k3="1"/>
<feColorMatrix type="matrix" values="0 0 0 0 0.36366 0 0 0 0 0.32549 0 0 0 0 0.898039 0 0 0 0.8 0"/>
<feBlend mode="normal" in2="effect2_innerShadow_3583_1107" result="effect3_innerShadow_3583_1107"/>
<feColorMatrix in="SourceAlpha" type="matrix" values="0 0 0 0 0 0 0 0 0 0 0 0 0 0 0 0 0 0 127 0" result="hardAlpha"/>
<feOffset dy="22"/>
<feGaussianBlur stdDeviation="32.5"/>
<feComposite in2="hardAlpha" operator="arithmetic" k2="-1" k3="1"/>
<feColorMatrix type="matrix" values="0 0 0 0 0.792157 0 0 0 0 0.768627 0 0 0 0 0.858824 0 0 0 0.8 0"/>
<feBlend mode="screen" in2="effect3_innerShadow_3583_1107" result="effect4_innerShadow_3583_1107"/>
</filter>
<filter id="filter1_iiii_3583_1107" x="720" y="172.622" width="810" height="509" filterUnits="userSpaceOnUse" color-interpolation-filters="sRGB">
<feFlood flood-opacity="0" result="BackgroundImageFix"/>
<feBlend mode="normal" in="SourceGraphic" in2="BackgroundImageFix" result="shape"/>
<feColorMatrix in="SourceAlpha" type="matrix" values="0 0 0 0 0 0 0 0 0 0 0 0 0 0 0 0 0 0 127 0" result="hardAlpha"/>
<feOffset dy="202"/>
<feGaussianBlur stdDeviation="65"/>
<feComposite in2="hardAlpha" operator="arithmetic" k2="-1" k3="1"/>
<feColorMatrix type="matrix" values="0 0 0 0 0.00392157 0 0 0 0 0.12549 0 0 0 0 0.458824 0 0 0 0.7 0"/>
<feBlend mode="lighten" in2="shape" result="effect1_innerShadow_3583_1107"/>
<feColorMatrix in="SourceAlpha" type="matrix" values="0 0 0 0 0 0 0 0 0 0 0 0 0 0 0 0 0 0 127 0" result="hardAlpha"/>
<feOffset dy="66"/>
<feGaussianBlur stdDeviation="50"/>
<feComposite in2="hardAlpha" operator="arithmetic" k2="-1" k3="1"/>
<feColorMatrix type="matrix" values="0 0 0 0 0.0196078 0 0 0 0 0.415686 0 0 0 0 0.803922 0 0 0 0.6 0"/>
<feBlend mode="screen" in2="effect1_innerShadow_3583_1107" result="effect2_innerShadow_3583_1107"/>
<feColorMatrix in="SourceAlpha" type="matrix" values="0 0 0 0 0 0 0 0 0 0 0 0 0 0 0 0 0 0 127 0" result="hardAlpha"/>
<feOffset dy="94"/>
<feGaussianBlur stdDeviation="37.5"/>
<feComposite in2="hardAlpha" operator="arithmetic" k2="-1" k3="1"/>
<feColorMatrix type="matrix" values="0 0 0 0 0.36366 0 0 0 0 0.32549 0 0 0 0 0.898039 0 0 0 0.8 0"/>
<feBlend mode="normal" in2="effect2_innerShadow_3583_1107" result="effect3_innerShadow_3583_1107"/>
<feColorMatrix in="SourceAlpha" type="matrix" values="0 0 0 0 0 0 0 0 0 0 0 0 0 0 0 0 0 0 127 0" result="hardAlpha"/>
<feOffset dy="22"/>
<feGaussianBlur stdDeviation="32.5"/>
<feComposite in2="hardAlpha" operator="arithmetic" k2="-1" k3="1"/>
<feColorMatrix type="matrix" values="0 0 0 0 0.792157 0 0 0 0 0.768627 0 0 0 0 0.858824 0 0 0 0.8 0"/>
<feBlend mode="screen" in2="effect3_innerShadow_3583_1107" result="effect4_innerShadow_3583_1107"/>
</filter>
<filter id="filter2_ii_3583_1107" x="636.882" y="59.0592" width="138.519" height="148.858" filterUnits="userSpaceOnUse" color-interpolation-filters="sRGB">
<feFlood flood-opacity="0" result="BackgroundImageFix"/>
<feBlend mode="normal" in="SourceGraphic" in2="BackgroundImageFix" result="shape"/>
<feColorMatrix in="SourceAlpha" type="matrix" values="0 0 0 0 0 0 0 0 0 0 0 0 0 0 0 0 0 0 127 0" result="hardAlpha"/>
<feOffset dy="-4.92958"/>
<feGaussianBlur stdDeviation="9.85916"/>
<feComposite in2="hardAlpha" operator="arithmetic" k2="-1" k3="1"/>
<feColorMatrix type="matrix" values="0 0 0 0 1 0 0 0 0 1 0 0 0 0 1 0 0 0 0.7 0"/>
<feBlend mode="normal" in2="shape" result="effect1_innerShadow_3583_1107"/>
<feColorMatrix in="SourceAlpha" type="matrix" values="0 0 0 0 0 0 0 0 0 0 0 0 0 0 0 0 0 0 127 0" result="hardAlpha"/>
<feOffset dx="-1.97183"/>
<feGaussianBlur stdDeviation="1.97183"/>
<feComposite in2="hardAlpha" operator="arithmetic" k2="-1" k3="1"/>
<feColorMatrix type="matrix" values="0 0 0 0 0.027451 0 0 0 0 0.25098 0 0 0 0 0.964706 0 0 0 0.25 0"/>
<feBlend mode="normal" in2="effect1_innerShadow_3583_1107" result="effect2_innerShadow_3583_1107"/>
</filter>
<filter id="filter3_i_3583_1107" x="1065.95" y="56.4708" width="163.053" height="167.856" filterUnits="userSpaceOnUse" color-interpolation-filters="sRGB">
<feFlood flood-opacity="0" result="BackgroundImageFix"/>
<feBlend mode="normal" in="SourceGraphic" in2="BackgroundImageFix" result="shape"/>
<feColorMatrix in="SourceAlpha" type="matrix" values="0 0 0 0 0 0 0 0 0 0 0 0 0 0 0 0 0 0 127 0" result="hardAlpha"/>
<feOffset dy="-4.92958"/>
<feGaussianBlur stdDeviation="9.85915"/>
<feComposite in2="hardAlpha" operator="arithmetic" k2="-1" k3="1"/>
<feColorMatrix type="matrix" values="0 0 0 0 1 0 0 0 0 1 0 0 0 0 1 0 0 0 0.7 0"/>
<feBlend mode="normal" in2="shape" result="effect1_innerShadow_3583_1107"/>
</filter>
<filter id="filter4_i_3583_1107" x="1071.56" y="82.5781" width="105.152" height="32.3589" filterUnits="userSpaceOnUse" color-interpolation-filters="sRGB">
<feFlood flood-opacity="0" result="BackgroundImageFix"/>
<feBlend mode="normal" in="SourceGraphic" in2="BackgroundImageFix" result="shape"/>
<feColorMatrix in="SourceAlpha" type="matrix" values="0 0 0 0 0 0 0 0 0 0 0 0 0 0 0 0 0 0 127 0" result="hardAlpha"/>
<feOffset dx="-1.97183"/>
<feGaussianBlur stdDeviation="1.97183"/>
<feComposite in2="hardAlpha" operator="arithmetic" k2="-1" k3="1"/>
<feColorMatrix type="matrix" values="0 0 0 0 0.027451 0 0 0 0 0.25098 0 0 0 0 0.964706 0 0 0 0.25 0"/>
<feBlend mode="normal" in2="shape" result="effect1_innerShadow_3583_1107"/>
</filter>
<filter id="filter5_d_3583_1107" x="1178.2" y="213.878" width="9.23173" height="9.23222" filterUnits="userSpaceOnUse" color-interpolation-filters="sRGB">
<feFlood flood-opacity="0" result="BackgroundImageFix"/>
<feColorMatrix in="SourceAlpha" type="matrix" values="0 0 0 0 0 0 0 0 0 0 0 0 0 0 0 0 0 0 127 0" result="hardAlpha"/>
<feMorphology radius="0.985915" operator="dilate" in="SourceAlpha" result="effect1_dropShadow_3583_1107"/>
<feOffset/>
<feGaussianBlur stdDeviation="1.08451"/>
<feComposite in2="hardAlpha" operator="out"/>
<feColorMatrix type="matrix" values="0 0 0 0 1 0 0 0 0 1 0 0 0 0 1 0 0 0 1 0"/>
<feBlend mode="normal" in2="BackgroundImageFix" result="effect1_dropShadow_3583_1107"/>
<feBlend mode="normal" in="SourceGraphic" in2="effect1_dropShadow_3583_1107" result="shape"/>
</filter>
<filter id="filter6_d_3583_1107" x="1067.29" y="171.756" width="9.23173" height="9.23222" filterUnits="userSpaceOnUse" color-interpolation-filters="sRGB">
<feFlood flood-opacity="0" result="BackgroundImageFix"/>
<feColorMatrix in="SourceAlpha" type="matrix" values="0 0 0 0 0 0 0 0 0 0 0 0 0 0 0 0 0 0 127 0" result="hardAlpha"/>
<feMorphology radius="0.985915" operator="dilate" in="SourceAlpha" result="effect1_dropShadow_3583_1107"/>
<feOffset/>
<feGaussianBlur stdDeviation="1.08451"/>
<feComposite in2="hardAlpha" operator="out"/>
<feColorMatrix type="matrix" values="0 0 0 0 1 0 0 0 0 1 0 0 0 0 1 0 0 0 1 0"/>
<feBlend mode="normal" in2="BackgroundImageFix" result="effect1_dropShadow_3583_1107"/>
<feBlend mode="normal" in="SourceGraphic" in2="effect1_dropShadow_3583_1107" result="shape"/>
</filter>
<filter id="filter7_d_3583_1107" x="1218.96" y="106.544" width="9.23173" height="9.23222" filterUnits="userSpaceOnUse" color-interpolation-filters="sRGB">
<feFlood flood-opacity="0" result="BackgroundImageFix"/>
<feColorMatrix in="SourceAlpha" type="matrix" values="0 0 0 0 0 0 0 0 0 0 0 0 0 0 0 0 0 0 127 0" result="hardAlpha"/>
<feMorphology radius="0.985915" operator="dilate" in="SourceAlpha" result="effect1_dropShadow_3583_1107"/>
<feOffset/>
<feGaussianBlur stdDeviation="1.08451"/>
<feComposite in2="hardAlpha" operator="out"/>
<feColorMatrix type="matrix" values="0 0 0 0 1 0 0 0 0 1 0 0 0 0 1 0 0 0 1 0"/>
<feBlend mode="normal" in2="BackgroundImageFix" result="effect1_dropShadow_3583_1107"/>
<feBlend mode="normal" in="SourceGraphic" in2="effect1_dropShadow_3583_1107" result="shape"/>
</filter>
<filter id="filter8_d_3583_1107" x="1108.05" y="64.4222" width="9.23173" height="9.23222" filterUnits="userSpaceOnUse" color-interpolation-filters="sRGB">
<feFlood flood-opacity="0" result="BackgroundImageFix"/>
<feColorMatrix in="SourceAlpha" type="matrix" values="0 0 0 0 0 0 0 0 0 0 0 0 0 0 0 0 0 0 127 0" result="hardAlpha"/>
<feMorphology radius="0.985915" operator="dilate" in="SourceAlpha" result="effect1_dropShadow_3583_1107"/>
<feOffset/>
<feGaussianBlur stdDeviation="1.08451"/>
<feComposite in2="hardAlpha" operator="out"/>
<feColorMatrix type="matrix" values="0 0 0 0 1 0 0 0 0 1 0 0 0 0 1 0 0 0 1 0"/>
<feBlend mode="normal" in2="BackgroundImageFix" result="effect1_dropShadow_3583_1107"/>
<feBlend mode="normal" in="SourceGraphic" in2="effect1_dropShadow_3583_1107" result="shape"/>
</filter>
<filter id="filter9_ii_3583_1107" x="753.563" y="336.851" width="157.132" height="145.619" filterUnits="userSpaceOnUse" color-interpolation-filters="sRGB">
<feFlood flood-opacity="0" result="BackgroundImageFix"/>
<feBlend mode="normal" in="SourceGraphic" in2="BackgroundImageFix" result="shape"/>
<feColorMatrix in="SourceAlpha" type="matrix" values="0 0 0 0 0 0 0 0 0 0 0 0 0 0 0 0 0 0 127 0" result="hardAlpha"/>
<feOffset dy="-4.92958"/>
<feGaussianBlur stdDeviation="9.85916"/>
<feComposite in2="hardAlpha" operator="arithmetic" k2="-1" k3="1"/>
<feColorMatrix type="matrix" values="0 0 0 0 1 0 0 0 0 1 0 0 0 0 1 0 0 0 0.7 0"/>
<feBlend mode="normal" in2="shape" result="effect1_innerShadow_3583_1107"/>
<feColorMatrix in="SourceAlpha" type="matrix" values="0 0 0 0 0 0 0 0 0 0 0 0 0 0 0 0 0 0 127 0" result="hardAlpha"/>
<feOffset dx="-1.97183"/>
<feGaussianBlur stdDeviation="1.97183"/>
<feComposite in2="hardAlpha" operator="arithmetic" k2="-1" k3="1"/>
<feColorMatrix type="matrix" values="0 0 0 0 0.027451 0 0 0 0 0.25098 0 0 0 0 0.964706 0 0 0 0.25 0"/>
<feBlend mode="normal" in2="effect1_innerShadow_3583_1107" result="effect2_innerShadow_3583_1107"/>
</filter>
<filter id="filter10_i_3583_1107" x="812.235" y="394.178" width="42.632" height="40.6616" filterUnits="userSpaceOnUse" color-interpolation-filters="sRGB">
<feFlood flood-opacity="0" result="BackgroundImageFix"/>
<feBlend mode="normal" in="SourceGraphic" in2="BackgroundImageFix" result="shape"/>
<feColorMatrix in="SourceAlpha" type="matrix" values="0 0 0 0 0 0 0 0 0 0 0 0 0 0 0 0 0 0 127 0" result="hardAlpha"/>
<feOffset dx="-1.97183"/>
<feGaussianBlur stdDeviation="1.97183"/>
<feComposite in2="hardAlpha" operator="arithmetic" k2="-1" k3="1"/>
<feColorMatrix type="matrix" values="0 0 0 0 0.027451 0 0 0 0 0.25098 0 0 0 0 0.964706 0 0 0 0.25 0"/>
<feBlend mode="normal" in2="shape" result="effect1_innerShadow_3583_1107"/>
</filter>
<filter id="filter11_i_3583_1107" x="759.999" y="346.483" width="148.864" height="132.326" filterUnits="userSpaceOnUse" color-interpolation-filters="sRGB">
<feFlood flood-opacity="0" result="BackgroundImageFix"/>
<feBlend mode="normal" in="SourceGraphic" in2="BackgroundImageFix" result="shape"/>
<feColorMatrix in="SourceAlpha" type="matrix" values="0 0 0 0 0 0 0 0 0 0 0 0 0 0 0 0 0 0 127 0" result="hardAlpha"/>
<feOffset dx="-1.97183"/>
<feGaussianBlur stdDeviation="1.97183"/>
<feComposite in2="hardAlpha" operator="arithmetic" k2="-1" k3="1"/>
<feColorMatrix type="matrix" values="0 0 0 0 0.027451 0 0 0 0 0.25098 0 0 0 0 0.964706 0 0 0 0.25 0"/>
<feBlend mode="normal" in2="shape" result="effect1_innerShadow_3583_1107"/>
</filter>
<filter id="filter12_i_3583_1107" x="740.692" y="377.207" width="186.028" height="71.3418" filterUnits="userSpaceOnUse" color-interpolation-filters="sRGB">
<feFlood flood-opacity="0" result="BackgroundImageFix"/>
<feBlend mode="normal" in="SourceGraphic" in2="BackgroundImageFix" result="shape"/>
<feColorMatrix in="SourceAlpha" type="matrix" values="0 0 0 0 0 0 0 0 0 0 0 0 0 0 0 0 0 0 127 0" result="hardAlpha"/>
<feOffset dx="-1.97183"/>
<feGaussianBlur stdDeviation="1.97183"/>
<feComposite in2="hardAlpha" operator="arithmetic" k2="-1" k3="1"/>
<feColorMatrix type="matrix" values="0 0 0 0 0.027451 0 0 0 0 0.25098 0 0 0 0 0.964706 0 0 0 0.25 0"/>
<feBlend mode="normal" in2="shape" result="effect1_innerShadow_3583_1107"/>
</filter>
<filter id="filter13_d_3583_1107" x="1034.87" y="475.412" width="68.0781" height="68" filterUnits="userSpaceOnUse" color-interpolation-filters="sRGB">
<feFlood flood-opacity="0" result="BackgroundImageFix"/>
<feColorMatrix in="SourceAlpha" type="matrix" values="0 0 0 0 0 0 0 0 0 0 0 0 0 0 0 0 0 0 127 0" result="hardAlpha"/>
<feOffset dy="4"/>
<feGaussianBlur stdDeviation="10"/>
<feComposite in2="hardAlpha" operator="out"/>
<feColorMatrix type="matrix" values="0 0 0 0 1 0 0 0 0 1 0 0 0 0 1 0 0 0 1 0"/>
<feBlend mode="normal" in2="BackgroundImageFix" result="effect1_dropShadow_3583_1107"/>
<feBlend mode="normal" in="SourceGraphic" in2="effect1_dropShadow_3583_1107" result="shape"/>
</filter>
<filter id="filter14_d_3583_1107" x="386.936" y="211.045" width="64.5059" height="64.6104" filterUnits="userSpaceOnUse" color-interpolation-filters="sRGB">
<feFlood flood-opacity="0" result="BackgroundImageFix"/>
<feColorMatrix in="SourceAlpha" type="matrix" values="0 0 0 0 0 0 0 0 0 0 0 0 0 0 0 0 0 0 127 0" result="hardAlpha"/>
<feOffset dy="4"/>
<feGaussianBlur stdDeviation="10"/>
<feComposite in2="hardAlpha" operator="out"/>
<feColorMatrix type="matrix" values="0 0 0 0 1 0 0 0 0 1 0 0 0 0 1 0 0 0 1 0"/>
<feBlend mode="normal" in2="BackgroundImageFix" result="effect1_dropShadow_3583_1107"/>
<feBlend mode="normal" in="SourceGraphic" in2="effect1_dropShadow_3583_1107" result="shape"/>
</filter>
<linearGradient id="paint0_linear_3583_1107" x1="662.372" y1="61.2065" x2="745.779" y2="203.54" gradientUnits="userSpaceOnUse">
<stop stop-color="#C1CAFF"/>
<stop offset="1" stop-color="#6B81FF"/>
</linearGradient>
<linearGradient id="paint1_linear_3583_1107" x1="703.735" y1="121.873" x2="703.735" y2="116.022" gradientUnits="userSpaceOnUse">
<stop stop-color="white"/>
<stop offset="1" stop-color="white" stop-opacity="0"/>
</linearGradient>
<linearGradient id="paint2_linear_3583_1107" x1="709.843" y1="154.461" x2="709.843" y2="148.61" gradientUnits="userSpaceOnUse">
<stop stop-color="white"/>
<stop offset="1" stop-color="white" stop-opacity="0"/>
</linearGradient>
<linearGradient id="paint3_linear_3583_1107" x1="701.397" y1="110.387" x2="701.397" y2="102.586" gradientUnits="userSpaceOnUse">
<stop stop-color="white"/>
<stop offset="1" stop-color="white" stop-opacity="0"/>
</linearGradient>
<linearGradient id="paint4_linear_3583_1107" x1="712.18" y1="167.897" x2="712.18" y2="160.095" gradientUnits="userSpaceOnUse">
<stop stop-color="white"/>
<stop offset="1" stop-color="white" stop-opacity="0"/>
</linearGradient>
<linearGradient id="paint5_linear_3583_1107" x1="1143.6" y1="53.9831" x2="1132.91" y2="221.142" gradientUnits="userSpaceOnUse">
<stop stop-color="#C1CAFF"/>
<stop offset="1" stop-color="#6B81FF"/>
</linearGradient>
<linearGradient id="paint6_linear_3583_1107" x1="777.255" y1="344.486" x2="858.792" y2="492.722" gradientUnits="userSpaceOnUse">
<stop stop-color="#C1CAFF"/>
<stop offset="1" stop-color="#6B81FF"/>
</linearGradient>
<linearGradient id="paint7_linear_3583_1107" x1="824.345" y1="390.781" x2="838.705" y2="437.24" gradientUnits="userSpaceOnUse">
<stop stop-color="#C1CAFF"/>
<stop offset="1" stop-color="#6B81FF"/>
</linearGradient>
</defs>
</svg>
