<svg width="727" height="90" viewBox="0 0 727 90" fill="none" xmlns="http://www.w3.org/2000/svg">
<path d="M4 41L2.71797e-05 41.0148L2.71797e-05 49.0148L4 49L4 45L4 41ZM4 45L4 49L275 48L275 44L275 40L4 41L4 45Z" fill="white"/>
<rect x="191" width="536" height="90" rx="45" fill="white"/>
<rect x="191" width="536" height="90" rx="45" fill="url(#paint0_linear_3837_1111)"/>
<g clip-path="url(#clip0_3837_1111)">
<path d="M236.001 77.5924C254.001 77.5924 268.593 63.0002 268.593 44.9998C268.593 26.9994 254.001 12.4072 236.001 12.4072C218 12.4072 203.408 26.9994 203.408 44.9998C203.408 63.0002 218 77.5924 236.001 77.5924Z" fill="#3755FF"/>
<path d="M236 58.037L249.037 44.9999L236 31.9629" stroke="white" stroke-width="6.51852" stroke-linecap="round" stroke-linejoin="round"/>
<path d="M222.963 45H249.037" stroke="white" stroke-width="6.51852" stroke-linecap="round" stroke-linejoin="round"/>
</g>
<path d="M298.388 62.088C295.392 62.088 292.76 61.43 290.492 60.114C288.224 58.798 286.46 56.936 285.2 54.528C283.968 52.092 283.352 49.278 283.352 46.086C283.352 42.894 283.996 40.094 285.284 37.686C286.572 35.25 288.364 33.374 290.66 32.058C292.956 30.742 295.56 30.084 298.472 30.084C301.692 30.084 304.436 30.812 306.704 32.268C308.972 33.696 310.624 35.726 311.66 38.358C311.688 38.414 311.702 38.498 311.702 38.61C311.702 38.862 311.576 39.016 311.324 39.072L306.83 40.332L306.662 40.374C306.41 40.374 306.242 40.248 306.158 39.996C305.43 38.596 304.408 37.518 303.092 36.762C301.804 36.006 300.292 35.628 298.556 35.628C295.644 35.628 293.362 36.58 291.71 38.484C290.058 40.36 289.232 42.894 289.232 46.086C289.232 49.278 290.058 51.826 291.71 53.73C293.39 55.606 295.672 56.544 298.556 56.544C300.572 56.544 302.28 56.068 303.68 55.116C305.108 54.164 306.158 52.736 306.83 50.832C306.942 50.496 307.166 50.37 307.502 50.454L311.954 51.714C312.29 51.798 312.416 51.98 312.332 52.26C311.492 55.256 309.868 57.65 307.46 59.442C305.052 61.206 302.028 62.088 298.388 62.088ZM317.115 61.5C316.751 61.5 316.569 61.318 316.569 60.954V31.218C316.569 30.854 316.751 30.672 317.115 30.672H321.945C322.253 30.672 322.463 30.798 322.575 31.05L333.243 48.774L343.785 31.05C343.925 30.798 344.135 30.672 344.415 30.672H349.119C349.483 30.672 349.665 30.854 349.665 31.218V60.954C349.665 61.318 349.483 61.5 349.119 61.5H344.751C344.387 61.5 344.205 61.318 344.205 60.954V40.122L335.175 55.242C335.063 55.494 334.853 55.62 334.545 55.62H331.689C331.409 55.62 331.199 55.494 331.059 55.242L322.029 40.332V60.954C322.029 61.318 321.847 61.5 321.483 61.5H317.115ZM369.163 62.088C366.167 62.088 363.535 61.43 361.267 60.114C358.999 58.798 357.235 56.936 355.975 54.528C354.743 52.092 354.127 49.278 354.127 46.086C354.127 42.894 354.771 40.094 356.059 37.686C357.347 35.25 359.139 33.374 361.435 32.058C363.731 30.742 366.335 30.084 369.247 30.084C372.467 30.084 375.211 30.812 377.479 32.268C379.747 33.696 381.399 35.726 382.435 38.358C382.463 38.414 382.477 38.498 382.477 38.61C382.477 38.862 382.351 39.016 382.099 39.072L377.605 40.332L377.437 40.374C377.185 40.374 377.017 40.248 376.933 39.996C376.205 38.596 375.183 37.518 373.867 36.762C372.579 36.006 371.067 35.628 369.331 35.628C366.419 35.628 364.137 36.58 362.485 38.484C360.833 40.36 360.007 42.894 360.007 46.086C360.007 49.278 360.833 51.826 362.485 53.73C364.165 55.606 366.447 56.544 369.331 56.544C371.347 56.544 373.055 56.068 374.455 55.116C375.883 54.164 376.933 52.736 377.605 50.832C377.717 50.496 377.941 50.37 378.277 50.454L382.729 51.714C383.065 51.798 383.191 51.98 383.107 52.26C382.267 55.256 380.643 57.65 378.235 59.442C375.827 61.206 372.803 62.088 369.163 62.088ZM400.982 61.5C400.618 61.5 400.436 61.318 400.436 60.954V38.232L394.808 40.458C394.752 40.486 394.668 40.5 394.556 40.5C394.36 40.5 394.206 40.388 394.094 40.164L393.296 38.652C393.24 38.484 393.212 38.386 393.212 38.358C393.212 38.162 393.296 38.008 393.464 37.896L401.612 30.924C401.78 30.756 402.004 30.672 402.284 30.672H405.56C405.924 30.672 406.106 30.854 406.106 31.218V60.954C406.106 61.318 405.924 61.5 405.56 61.5H400.982ZM415.795 61.5C415.487 61.5 415.333 61.388 415.333 61.164C415.333 61.052 415.375 60.94 415.459 60.828L423.229 50.16C422.193 50.58 421.073 50.79 419.869 50.79C417.993 50.79 416.327 50.37 414.871 49.53C413.415 48.662 412.267 47.458 411.427 45.918C410.615 44.35 410.209 42.572 410.209 40.584C410.209 38.512 410.671 36.692 411.595 35.124C412.547 33.528 413.863 32.296 415.543 31.428C417.251 30.532 419.211 30.084 421.423 30.084C423.607 30.084 425.553 30.546 427.261 31.47C428.969 32.394 430.285 33.682 431.209 35.334C432.161 36.958 432.637 38.806 432.637 40.878C432.637 42.782 432.231 44.7 431.419 46.632C430.607 48.536 429.151 50.93 427.051 53.814L421.717 61.164C421.549 61.388 421.325 61.5 421.045 61.5H415.795ZM421.465 45.876C423.033 45.876 424.307 45.414 425.287 44.49C426.267 43.538 426.757 42.292 426.757 40.752C426.757 39.212 426.267 37.98 425.287 37.056C424.307 36.104 423.033 35.628 421.465 35.628C419.897 35.628 418.623 36.104 417.643 37.056C416.663 37.98 416.173 39.212 416.173 40.752C416.173 42.292 416.663 43.538 417.643 44.49C418.623 45.414 419.897 45.876 421.465 45.876ZM461.256 65.028C460.892 65.028 460.71 64.86 460.71 64.524V28.656C460.71 28.292 460.892 28.11 461.256 28.11H465.54C465.932 28.11 466.128 28.292 466.128 28.656V64.524C466.128 64.86 465.932 65.028 465.54 65.028H461.256ZM438.702 57.09C438.618 57.146 438.492 57.174 438.324 57.174C438.156 57.174 438.016 57.09 437.904 56.922L435.93 53.436C435.846 53.296 435.804 53.184 435.804 53.1C435.804 52.96 435.916 52.82 436.14 52.68C440.704 50.468 443.98 48.2 445.968 45.876C447.956 43.552 448.95 40.808 448.95 37.644V36.804H437.19C436.854 36.804 436.686 36.636 436.686 36.3V32.604C436.686 32.24 436.854 32.058 437.19 32.058H453.822C454.186 32.058 454.368 32.24 454.368 32.604V37.644C454.368 41.676 453.094 45.274 450.546 48.438C447.998 51.574 444.05 54.458 438.702 57.09ZM513.4 40.71C513.792 40.71 513.988 40.892 513.988 41.256V44.91C513.988 45.274 513.792 45.456 513.4 45.456H508.066V64.524C508.066 64.86 507.87 65.028 507.478 65.028H503.194C502.858 65.028 502.69 64.86 502.69 64.524V28.656C502.69 28.292 502.858 28.11 503.194 28.11H507.478C507.87 28.11 508.066 28.292 508.066 28.656V40.71H513.4ZM500.506 51.84C500.674 51.924 500.758 52.064 500.758 52.26C500.758 52.4 500.688 52.54 500.548 52.68L498.028 55.62C497.916 55.732 497.776 55.788 497.608 55.788C497.412 55.788 497.244 55.732 497.104 55.62C495.34 54.192 493.786 52.722 492.442 51.21C491.098 49.67 490.076 48.186 489.376 46.758C488.592 48.298 487.486 49.894 486.058 51.546C484.63 53.198 483.006 54.752 481.186 56.208C481.074 56.32 480.92 56.376 480.724 56.376C480.556 56.376 480.416 56.32 480.304 56.208L477.784 53.268C477.672 53.156 477.616 53.016 477.616 52.848C477.616 52.68 477.686 52.54 477.826 52.428C480.57 50.216 482.712 47.808 484.252 45.204C485.792 42.6 486.562 39.646 486.562 36.342V31.974C486.562 31.638 486.73 31.47 487.066 31.47H491.35C491.714 31.47 491.896 31.638 491.896 31.974V36.342C491.896 39.478 492.694 42.334 494.29 44.91C495.886 47.486 497.958 49.796 500.506 51.84ZM540.315 37.098V28.656C540.315 28.292 540.497 28.11 540.861 28.11H545.103C545.495 28.11 545.691 28.292 545.691 28.656V54.528C545.691 54.864 545.495 55.032 545.103 55.032H540.861C540.497 55.032 540.315 54.864 540.315 54.528V41.718H534.099C533.735 41.718 533.553 41.522 533.553 41.13V37.686C533.553 37.294 533.735 37.098 534.099 37.098H540.315ZM525.447 43.944C523.459 46.436 520.631 48.508 516.963 50.16C516.851 50.216 516.739 50.244 516.627 50.244C516.375 50.244 516.193 50.16 516.081 49.992L514.233 46.842C514.149 46.674 514.107 46.52 514.107 46.38C514.107 46.184 514.191 46.044 514.359 45.96C517.019 44.728 519.077 43.426 520.533 42.054C522.017 40.682 522.759 39.17 522.759 37.518V35.124H515.871C515.507 35.124 515.325 34.956 515.325 34.62V30.966C515.325 30.63 515.507 30.462 515.871 30.462H534.771C535.135 30.462 535.317 30.63 535.317 30.966V34.62C535.317 34.956 535.135 35.124 534.771 35.124H528.093V37.518C528.093 39.086 528.723 40.444 529.983 41.592C531.271 42.74 533.245 43.902 535.905 45.078C536.101 45.162 536.199 45.302 536.199 45.498C536.199 45.61 536.157 45.736 536.073 45.876L534.393 49.11C534.337 49.25 534.197 49.32 533.973 49.32C533.889 49.32 533.735 49.292 533.511 49.236C531.943 48.62 530.459 47.864 529.059 46.968C527.659 46.044 526.455 45.036 525.447 43.944ZM545.943 59.904C546.307 59.904 546.489 60.086 546.489 60.45V64.104C546.489 64.468 546.307 64.65 545.943 64.65H521.793C521.429 64.65 521.247 64.468 521.247 64.104V52.554C521.247 52.19 521.429 52.008 521.793 52.008H525.867C526.063 52.008 526.231 52.064 526.371 52.176C526.539 52.26 526.623 52.386 526.623 52.554V59.904H545.943ZM590.317 28.11C590.653 28.11 590.821 28.292 590.821 28.656V64.524C590.821 64.86 590.653 65.028 590.317 65.028H586.075C585.739 65.028 585.571 64.86 585.571 64.524V28.656C585.571 28.292 585.739 28.11 586.075 28.11H590.317ZM582.043 28.908C582.407 28.908 582.589 29.09 582.589 29.454V63.39C582.589 63.754 582.407 63.936 582.043 63.936H577.885C577.549 63.936 577.381 63.754 577.381 63.39V51.378H572.593C571.893 53.058 570.941 54.346 569.737 55.242C568.533 56.138 567.119 56.586 565.495 56.586C562.891 56.586 560.847 55.494 559.363 53.31C557.879 51.098 557.137 48.018 557.137 44.07C557.137 40.122 557.879 37.056 559.363 34.872C560.847 32.688 562.891 31.596 565.495 31.596C566.951 31.596 568.239 31.96 569.359 32.688C570.507 33.388 571.445 34.438 572.173 35.838H577.381V29.454C577.381 29.09 577.549 28.908 577.885 28.908H582.043ZM565.495 51.84C567.567 51.84 568.603 49.25 568.603 44.07C568.603 38.918 567.567 36.342 565.495 36.342C564.431 36.342 563.647 36.986 563.143 38.274C562.639 39.534 562.387 41.466 562.387 44.07C562.387 46.674 562.639 48.62 563.143 49.908C563.647 51.196 564.431 51.84 565.495 51.84ZM577.381 46.716V40.542H573.559C573.727 41.634 573.811 42.81 573.811 44.07C573.811 44.994 573.769 45.876 573.685 46.716H577.381ZM623.489 36.972V40.584H628.529C628.893 40.584 629.075 40.766 629.075 41.13V44.7C629.075 45.036 628.893 45.204 628.529 45.204H623.489V48.228C623.489 48.592 623.293 48.774 622.901 48.774H618.617C618.281 48.774 618.113 48.592 618.113 48.228V28.656C618.113 28.292 618.281 28.11 618.617 28.11H622.901C623.293 28.11 623.489 28.292 623.489 28.656V32.31H628.529C628.893 32.31 629.075 32.492 629.075 32.856V36.426C629.075 36.79 628.893 36.972 628.529 36.972H623.489ZM614.375 38.694C614.375 40.514 613.941 42.124 613.073 43.524C612.205 44.896 610.987 45.974 609.419 46.758C607.879 47.514 606.087 47.892 604.043 47.892C601.999 47.892 600.193 47.514 598.625 46.758C597.085 45.974 595.881 44.882 595.013 43.482C594.145 42.082 593.711 40.486 593.711 38.694C593.711 36.874 594.145 35.264 595.013 33.864C595.881 32.464 597.085 31.386 598.625 30.63C600.193 29.846 601.999 29.454 604.043 29.454C606.087 29.454 607.879 29.846 609.419 30.63C610.987 31.386 612.205 32.464 613.073 33.864C613.941 35.264 614.375 36.874 614.375 38.694ZM598.961 38.694C598.961 40.122 599.423 41.27 600.347 42.138C601.299 42.978 602.531 43.398 604.043 43.398C605.555 43.398 606.773 42.978 607.697 42.138C608.649 41.27 609.125 40.122 609.125 38.694C609.125 37.266 608.649 36.118 607.697 35.25C606.773 34.382 605.555 33.948 604.043 33.948C602.531 33.948 601.299 34.382 600.347 35.25C599.423 36.118 598.961 37.266 598.961 38.694ZM622.943 50.622C623.307 50.622 623.489 50.79 623.489 51.126V64.902C623.489 65.238 623.307 65.406 622.943 65.406H618.659C618.295 65.406 618.113 65.238 618.113 64.902V55.284H599.297C598.933 55.284 598.751 55.116 598.751 54.78V51.126C598.751 50.79 598.933 50.622 599.297 50.622H622.943ZM664.641 42.348C665.033 42.348 665.229 42.53 665.229 42.894V46.59C665.229 46.926 665.033 47.094 664.641 47.094H659.307V64.524C659.307 64.86 659.111 65.028 658.719 65.028H654.435C654.099 65.028 653.931 64.86 653.931 64.524V28.656C653.931 28.292 654.099 28.11 654.435 28.11H658.719C659.111 28.11 659.307 28.292 659.307 28.656V42.348H664.641ZM650.739 34.074C651.103 34.074 651.285 34.256 651.285 34.62V38.19C651.285 38.554 651.103 38.736 650.739 38.736H629.613C629.277 38.736 629.109 38.554 629.109 38.19V34.62C629.109 34.256 629.277 34.074 629.613 34.074H637.509V29.748C637.509 29.412 637.705 29.244 638.097 29.244H642.339C642.703 29.244 642.885 29.412 642.885 29.748V34.074H650.739ZM640.239 40.878C643.207 40.878 645.559 41.69 647.295 43.314C649.059 44.938 649.941 47.136 649.941 49.908C649.941 52.68 649.059 54.864 647.295 56.46C645.559 58.056 643.207 58.854 640.239 58.854C637.299 58.854 634.961 58.056 633.225 56.46C631.489 54.864 630.621 52.68 630.621 49.908C630.621 47.136 631.489 44.938 633.225 43.314C634.961 41.69 637.299 40.878 640.239 40.878ZM640.281 54.444C641.625 54.444 642.689 54.024 643.473 53.184C644.285 52.344 644.691 51.252 644.691 49.908C644.691 48.536 644.299 47.43 643.515 46.59C642.731 45.722 641.653 45.288 640.281 45.288C638.909 45.288 637.831 45.722 637.047 46.59C636.263 47.43 635.871 48.536 635.871 49.908C635.871 51.252 636.263 52.344 637.047 53.184C637.859 54.024 638.937 54.444 640.281 54.444ZM692.102 65.028C691.738 65.028 691.556 64.86 691.556 64.524V28.656C691.556 28.292 691.738 28.11 692.102 28.11H696.386C696.778 28.11 696.974 28.292 696.974 28.656V64.524C696.974 64.86 696.778 65.028 696.386 65.028H692.102ZM669.548 57.09C669.464 57.146 669.338 57.174 669.17 57.174C669.002 57.174 668.862 57.09 668.75 56.922L666.776 53.436C666.692 53.296 666.65 53.184 666.65 53.1C666.65 52.96 666.762 52.82 666.986 52.68C671.55 50.468 674.826 48.2 676.814 45.876C678.802 43.552 679.796 40.808 679.796 37.644V36.804H668.036C667.7 36.804 667.532 36.636 667.532 36.3V32.604C667.532 32.24 667.7 32.058 668.036 32.058H684.668C685.032 32.058 685.214 32.24 685.214 32.604V37.644C685.214 41.676 683.94 45.274 681.392 48.438C678.844 51.574 674.896 54.458 669.548 57.09Z" fill="#0D0F14"/>
<defs>
<linearGradient id="paint0_linear_3837_1111" x1="727" y1="45" x2="191" y2="44.9999" gradientUnits="userSpaceOnUse">
<stop stop-color="#3755FF"/>
<stop offset="1" stop-color="#B5B6FF"/>
</linearGradient>
<clipPath id="clip0_3837_1111">
<rect width="66" height="66" fill="white" transform="translate(203 12)"/>
</clipPath>
</defs>
</svg>
