<svg width="332" height="181" viewBox="0 0 332 181" fill="none" xmlns="http://www.w3.org/2000/svg">
<g filter="url(#filter0_ii_3583_1158)">
<path d="M183.696 62.0002L169.221 85.759L169.224 85.7611L124.959 158.421L124.955 158.419L124.953 158.423L52.2918 114.157L52.2937 114.153L28.5352 99.6788L72.8008 27.0185L96.5594 41.4926L111.034 17.7338L183.696 62.0002Z" fill="url(#paint0_linear_3583_1158)"/>
</g>
<g filter="url(#filter1_i_3583_1158)">
<circle cx="107.537" cy="90.4617" r="20.326" transform="rotate(-13.6496 107.537 90.4617)" fill="url(#paint1_linear_3583_1158)"/>
</g>
<g filter="url(#filter2_i_3583_1158)">
<path d="M138.404 33.1141C158.019 22.5605 173.627 19.2341 179.473 25.8331C189.685 37.358 166.246 74.8029 127.117 109.467C87.9881 144.131 47.9866 162.892 37.7745 151.367C31.8349 144.662 35.2853 131.022 48.578 112.431L52.7693 114.985C48.4065 123.666 47.006 130.24 50.204 133.851C58.161 142.828 89.3201 128.214 119.801 101.21C150.282 74.2057 168.539 45.0398 160.587 36.0605C157.519 32.5998 151 32.6454 142.401 35.5577L138.404 33.1141Z" fill="#C1CAFF"/>
</g>
<g filter="url(#filter3_i_3583_1158)">
<path d="M55.7582 53.1839C33.4875 52.802 18.0925 57.0044 15.9245 65.5494C12.1355 80.4743 50.1378 102.999 100.807 115.856C151.476 128.713 195.626 127.038 199.415 112.113C201.618 103.431 191.89 93.5011 171.552 83.078L169.592 86.2332C177.451 91.947 181.523 97.5739 180.337 102.249C177.383 113.876 142.992 115.18 103.521 105.163C64.0493 95.1465 34.4496 77.6021 37.3974 65.976C38.5365 61.4937 44.3503 58.5443 53.327 57.1886L55.7582 53.1839Z" fill="white"/>
</g>
<path d="M215 25.5H331.5V55C331.5 67.4264 321.426 77.5 309 77.5H203.5V37C203.5 30.8472 208.332 25.8227 214.408 25.5146L215 25.5Z" fill="#3755FF"/>
<path d="M215 25.5H331.5V55C331.5 67.4264 321.426 77.5 309 77.5H203.5V37C203.5 30.8472 208.332 25.8227 214.408 25.5146L215 25.5Z" stroke="white"/>
<path d="M235.428 62.392C233.58 62.392 232.031 61.944 230.78 61.048C229.548 60.1333 228.671 58.78 228.148 56.988L228.12 56.876C228.12 56.764 228.195 56.68 228.344 56.624L230.024 56.204L230.136 56.176C230.248 56.176 230.332 56.2507 230.388 56.4C230.817 57.688 231.433 58.6307 232.236 59.228C233.039 59.8067 234.103 60.096 235.428 60.096C236.772 60.096 237.845 59.8067 238.648 59.228C239.451 58.6493 239.852 57.8373 239.852 56.792C239.852 55.7467 239.507 54.9253 238.816 54.328C238.144 53.7307 237.08 53.18 235.624 52.676L234.084 52.144C230.481 50.9307 228.68 49.036 228.68 46.46C228.68 45.4147 228.96 44.4813 229.52 43.66C230.08 42.8387 230.845 42.204 231.816 41.756C232.805 41.2893 233.907 41.056 235.12 41.056C236.856 41.056 238.303 41.476 239.46 42.316C240.617 43.1373 241.42 44.36 241.868 45.984L241.896 46.096C241.896 46.2267 241.821 46.3107 241.672 46.348L239.908 46.796L239.796 46.824C239.684 46.824 239.6 46.7493 239.544 46.6C239.189 45.48 238.648 44.6587 237.92 44.136C237.192 43.6133 236.259 43.352 235.12 43.352C233.925 43.352 232.955 43.632 232.208 44.192C231.461 44.752 231.088 45.4893 231.088 46.404C231.088 47.2067 231.424 47.916 232.096 48.532C232.787 49.1293 233.851 49.6613 235.288 50.128L236.66 50.576C238.62 51.2293 240.039 52.032 240.916 52.984C241.812 53.9173 242.26 55.1867 242.26 56.792C242.26 57.8747 241.971 58.8453 241.392 59.704C240.813 60.544 240.001 61.2067 238.956 61.692C237.929 62.1587 236.753 62.392 235.428 62.392ZM250.993 62.28C249.593 62.28 248.37 61.9627 247.325 61.328C246.28 60.6933 245.477 59.8253 244.917 58.724C244.357 57.604 244.077 56.3347 244.077 54.916C244.077 53.4973 244.357 52.2373 244.917 51.136C245.496 50.016 246.308 49.148 247.353 48.532C248.398 47.8973 249.612 47.58 250.993 47.58C253.046 47.58 254.633 48.2893 255.753 49.708C256.892 51.108 257.442 52.984 257.405 55.336C257.405 55.5413 257.302 55.644 257.097 55.644H246.429C246.56 57.0627 247.026 58.1827 247.829 59.004C248.65 59.8253 249.705 60.236 250.993 60.236C252.934 60.236 254.306 59.4427 255.109 57.856C255.184 57.7067 255.314 57.66 255.501 57.716L256.901 58.22C256.994 58.2573 257.05 58.3133 257.069 58.388C257.106 58.444 257.106 58.5093 257.069 58.584C256.472 59.816 255.65 60.74 254.605 61.356C253.578 61.972 252.374 62.28 250.993 62.28ZM254.997 53.88C254.904 52.592 254.502 51.556 253.793 50.772C253.084 49.988 252.15 49.596 250.993 49.596C249.78 49.596 248.762 49.988 247.941 50.772C247.12 51.5373 246.625 52.5733 246.457 53.88H254.997ZM260.282 62C260.077 62 259.974 61.8973 259.974 61.692V48.14C259.974 47.9533 260.077 47.86 260.282 47.86H261.71C261.915 47.86 262.018 47.9533 262.018 48.14L262.13 50.576C262.634 49.6613 263.306 48.952 264.146 48.448C265.005 47.9253 265.938 47.664 266.946 47.664C267.319 47.664 267.571 47.6827 267.702 47.72C267.87 47.7387 267.954 47.8413 267.954 48.028V49.652C267.954 49.8387 267.87 49.932 267.702 49.932C267.59 49.932 267.431 49.9227 267.226 49.904C267.039 49.8667 266.862 49.848 266.694 49.848C265.929 49.848 265.201 50.044 264.51 50.436C263.819 50.828 263.259 51.3693 262.83 52.06C262.419 52.7507 262.214 53.5067 262.214 54.328V61.692C262.214 61.8973 262.121 62 261.934 62H260.282ZM275.005 62C274.837 62 274.725 61.9253 274.669 61.776L268.705 48.196C268.668 48.1213 268.649 48.0653 268.649 48.028C268.649 47.916 268.742 47.86 268.929 47.86H270.889C271.057 47.86 271.178 47.9347 271.253 48.084L275.593 58.612L279.933 48.084C280.008 47.9347 280.129 47.86 280.297 47.86H282.145C282.388 47.86 282.462 47.972 282.369 48.196L276.405 61.776C276.312 61.9253 276.19 62 276.041 62H275.005ZM289.973 62.28C288.573 62.28 287.35 61.9627 286.305 61.328C285.26 60.6933 284.457 59.8253 283.897 58.724C283.337 57.604 283.057 56.3347 283.057 54.916C283.057 53.4973 283.337 52.2373 283.897 51.136C284.476 50.016 285.288 49.148 286.333 48.532C287.378 47.8973 288.592 47.58 289.973 47.58C292.026 47.58 293.613 48.2893 294.733 49.708C295.872 51.108 296.422 52.984 296.385 55.336C296.385 55.5413 296.282 55.644 296.077 55.644H285.409C285.54 57.0627 286.006 58.1827 286.809 59.004C287.63 59.8253 288.685 60.236 289.973 60.236C291.914 60.236 293.286 59.4427 294.089 57.856C294.164 57.7067 294.294 57.66 294.481 57.716L295.881 58.22C295.974 58.2573 296.03 58.3133 296.049 58.388C296.086 58.444 296.086 58.5093 296.049 58.584C295.452 59.816 294.63 60.74 293.585 61.356C292.558 61.972 291.354 62.28 289.973 62.28ZM293.977 53.88C293.884 52.592 293.482 51.556 292.773 50.772C292.064 49.988 291.13 49.596 289.973 49.596C288.76 49.596 287.742 49.988 286.921 50.772C286.1 51.5373 285.605 52.5733 285.437 53.88H293.977ZM299.262 62C299.057 62 298.954 61.8973 298.954 61.692V48.14C298.954 47.9533 299.057 47.86 299.262 47.86H300.69C300.896 47.86 300.998 47.9533 300.998 48.14L301.11 50.576C301.614 49.6613 302.286 48.952 303.126 48.448C303.985 47.9253 304.918 47.664 305.926 47.664C306.3 47.664 306.552 47.6827 306.682 47.72C306.85 47.7387 306.934 47.8413 306.934 48.028V49.652C306.934 49.8387 306.85 49.932 306.682 49.932C306.57 49.932 306.412 49.9227 306.206 49.904C306.02 49.8667 305.842 49.848 305.674 49.848C304.909 49.848 304.181 50.044 303.49 50.436C302.8 50.828 302.24 51.3693 301.81 52.06C301.4 52.7507 301.194 53.5067 301.194 54.328V61.692C301.194 61.8973 301.101 62 300.914 62H299.262Z" fill="white"/>
<defs>
<filter id="filter0_ii_3583_1158" x="26.5633" y="12.8043" width="157.132" height="145.619" filterUnits="userSpaceOnUse" color-interpolation-filters="sRGB">
<feFlood flood-opacity="0" result="BackgroundImageFix"/>
<feBlend mode="normal" in="SourceGraphic" in2="BackgroundImageFix" result="shape"/>
<feColorMatrix in="SourceAlpha" type="matrix" values="0 0 0 0 0 0 0 0 0 0 0 0 0 0 0 0 0 0 127 0" result="hardAlpha"/>
<feOffset dy="-4.92958"/>
<feGaussianBlur stdDeviation="9.85916"/>
<feComposite in2="hardAlpha" operator="arithmetic" k2="-1" k3="1"/>
<feColorMatrix type="matrix" values="0 0 0 0 1 0 0 0 0 1 0 0 0 0 1 0 0 0 0.7 0"/>
<feBlend mode="normal" in2="shape" result="effect1_innerShadow_3583_1158"/>
<feColorMatrix in="SourceAlpha" type="matrix" values="0 0 0 0 0 0 0 0 0 0 0 0 0 0 0 0 0 0 127 0" result="hardAlpha"/>
<feOffset dx="-1.97183"/>
<feGaussianBlur stdDeviation="1.97183"/>
<feComposite in2="hardAlpha" operator="arithmetic" k2="-1" k3="1"/>
<feColorMatrix type="matrix" values="0 0 0 0 0.027451 0 0 0 0 0.25098 0 0 0 0 0.964706 0 0 0 0.25 0"/>
<feBlend mode="normal" in2="effect1_innerShadow_3583_1158" result="effect2_innerShadow_3583_1158"/>
</filter>
<filter id="filter1_i_3583_1158" x="85.2352" y="70.1309" width="42.632" height="40.6616" filterUnits="userSpaceOnUse" color-interpolation-filters="sRGB">
<feFlood flood-opacity="0" result="BackgroundImageFix"/>
<feBlend mode="normal" in="SourceGraphic" in2="BackgroundImageFix" result="shape"/>
<feColorMatrix in="SourceAlpha" type="matrix" values="0 0 0 0 0 0 0 0 0 0 0 0 0 0 0 0 0 0 127 0" result="hardAlpha"/>
<feOffset dx="-1.97183"/>
<feGaussianBlur stdDeviation="1.97183"/>
<feComposite in2="hardAlpha" operator="arithmetic" k2="-1" k3="1"/>
<feColorMatrix type="matrix" values="0 0 0 0 0.027451 0 0 0 0 0.25098 0 0 0 0 0.964706 0 0 0 0.25 0"/>
<feBlend mode="normal" in2="shape" result="effect1_innerShadow_3583_1158"/>
</filter>
<filter id="filter2_i_3583_1158" x="32.9989" y="22.436" width="148.864" height="132.326" filterUnits="userSpaceOnUse" color-interpolation-filters="sRGB">
<feFlood flood-opacity="0" result="BackgroundImageFix"/>
<feBlend mode="normal" in="SourceGraphic" in2="BackgroundImageFix" result="shape"/>
<feColorMatrix in="SourceAlpha" type="matrix" values="0 0 0 0 0 0 0 0 0 0 0 0 0 0 0 0 0 0 127 0" result="hardAlpha"/>
<feOffset dx="-1.97183"/>
<feGaussianBlur stdDeviation="1.97183"/>
<feComposite in2="hardAlpha" operator="arithmetic" k2="-1" k3="1"/>
<feColorMatrix type="matrix" values="0 0 0 0 0.027451 0 0 0 0 0.25098 0 0 0 0 0.964706 0 0 0 0.25 0"/>
<feBlend mode="normal" in2="shape" result="effect1_innerShadow_3583_1158"/>
</filter>
<filter id="filter3_i_3583_1158" x="13.6922" y="53.1602" width="186.028" height="71.3418" filterUnits="userSpaceOnUse" color-interpolation-filters="sRGB">
<feFlood flood-opacity="0" result="BackgroundImageFix"/>
<feBlend mode="normal" in="SourceGraphic" in2="BackgroundImageFix" result="shape"/>
<feColorMatrix in="SourceAlpha" type="matrix" values="0 0 0 0 0 0 0 0 0 0 0 0 0 0 0 0 0 0 127 0" result="hardAlpha"/>
<feOffset dx="-1.97183"/>
<feGaussianBlur stdDeviation="1.97183"/>
<feComposite in2="hardAlpha" operator="arithmetic" k2="-1" k3="1"/>
<feColorMatrix type="matrix" values="0 0 0 0 0.027451 0 0 0 0 0.25098 0 0 0 0 0.964706 0 0 0 0.25 0"/>
<feBlend mode="normal" in2="shape" result="effect1_innerShadow_3583_1158"/>
</filter>
<linearGradient id="paint0_linear_3583_1158" x1="50.2555" y1="20.4391" x2="131.792" y2="168.675" gradientUnits="userSpaceOnUse">
<stop stop-color="#C1CAFF"/>
<stop offset="1" stop-color="#6B81FF"/>
</linearGradient>
<linearGradient id="paint1_linear_3583_1158" x1="97.3455" y1="66.7343" x2="111.705" y2="113.193" gradientUnits="userSpaceOnUse">
<stop stop-color="#C1CAFF"/>
<stop offset="1" stop-color="#6B81FF"/>
</linearGradient>
</defs>
</svg>
