<svg width="630" height="116" viewBox="0 0 630 116" fill="none" xmlns="http://www.w3.org/2000/svg">
<g filter="url(#filter0_d_3324_1294)">
<mask id="path-1-outside-1_3324_1294" maskUnits="userSpaceOnUse" x="6" y="6" width="624" height="110" fill="black">
<rect fill="white" x="6" y="6" width="624" height="110"/>
<path d="M306.898 24.5332H628.942V92.8174H546.817V114.041H458.232V92.8174H256.146V7H306.898V24.5332ZM175.865 24.5332H256.146V92.8174H94.6621V92.8164H7V14.3818H94.6621V7H175.865V24.5332Z"/>
</mask>
<path d="M306.898 24.5332H628.942V92.8174H546.817V114.041H458.232V92.8174H256.146V7H306.898V24.5332ZM175.865 24.5332H256.146V92.8174H94.6621V92.8164H7V14.3818H94.6621V7H175.865V24.5332Z" fill="#3755FF"/>
<path d="M306.898 24.5332H305.898V25.5332H306.898V24.5332ZM628.942 24.5332H629.942V23.5332H628.942V24.5332ZM628.942 92.8174V93.8174H629.942V92.8174H628.942ZM546.817 92.8174V91.8174H545.817V92.8174H546.817ZM546.817 114.041V115.041H547.817V114.041H546.817ZM458.232 114.041H457.232V115.041H458.232V114.041ZM458.232 92.8174H459.232V91.8174H458.232V92.8174ZM256.146 92.8174H255.146V93.8174H256.146V92.8174ZM256.146 7V6H255.146V7H256.146ZM306.898 7H307.898V6H306.898V7ZM175.865 24.5332H174.865V25.5332H175.865V24.5332ZM256.146 24.5332H257.146V23.5332H256.146V24.5332ZM256.146 92.8174V93.8174H257.146V92.8174H256.146ZM94.6621 92.8174H93.6621V93.8174H94.6621V92.8174ZM94.6621 92.8164H95.6621V91.8164H94.6621V92.8164ZM7 92.8164H6V93.8164H7V92.8164ZM7 14.3818V13.3818H6V14.3818H7ZM94.6621 14.3818V15.3818H95.6621V14.3818H94.6621ZM94.6621 7V6H93.6621V7H94.6621ZM175.865 7H176.865V6H175.865V7ZM306.898 24.5332V25.5332H628.942V24.5332V23.5332H306.898V24.5332ZM628.942 24.5332H627.942V92.8174H628.942H629.942V24.5332H628.942ZM628.942 92.8174V91.8174H546.817V92.8174V93.8174H628.942V92.8174ZM546.817 92.8174H545.817V114.041H546.817H547.817V92.8174H546.817ZM546.817 114.041V113.041H458.232V114.041V115.041H546.817V114.041ZM458.232 114.041H459.232V92.8174H458.232H457.232V114.041H458.232ZM458.232 92.8174V91.8174H256.146V92.8174V93.8174H458.232V92.8174ZM256.146 92.8174H257.146V7H256.146H255.146V92.8174H256.146ZM256.146 7V8H306.898V7V6H256.146V7ZM306.898 7H305.898V24.5332H306.898H307.898V7H306.898ZM175.865 24.5332V25.5332H256.146V24.5332V23.5332H175.865V24.5332ZM256.146 24.5332H255.146V92.8174H256.146H257.146V24.5332H256.146ZM256.146 92.8174V91.8174H94.6621V92.8174V93.8174H256.146V92.8174ZM94.6621 92.8174H95.6621V92.8164H94.6621H93.6621V92.8174H94.6621ZM94.6621 92.8164V91.8164H7V92.8164V93.8164H94.6621V92.8164ZM7 92.8164H8V14.3818H7H6V92.8164H7ZM7 14.3818V15.3818H94.6621V14.3818V13.3818H7V14.3818ZM94.6621 14.3818H95.6621V7H94.6621H93.6621V14.3818H94.6621ZM94.6621 7V8H175.865V7V6H94.6621V7ZM175.865 7H174.865V24.5332H175.865H176.865V7H175.865Z" fill="white" mask="url(#path-1-outside-1_3324_1294)"/>
</g>
<path d="M557.918 62.6114C558.081 63.9648 558.406 65.29 558.893 66.587C559.435 67.8276 560.112 68.9554 560.924 69.9705C561.737 70.9855 562.657 71.8032 563.686 72.4235C564.77 73.0438 565.907 73.354 567.099 73.354H601.057C604.957 73.354 608.613 73.0438 612.025 72.4235C615.491 71.8032 618.362 70.478 620.637 68.4479V78.9367C618.633 80.572 616.223 81.7562 613.406 82.4893C610.644 83.2224 607.801 83.589 604.876 83.589H562.143C559.706 83.589 557.485 83.025 555.481 81.8972C553.477 80.713 551.771 79.1904 550.363 77.3295C548.955 75.4686 547.844 73.3822 547.032 71.0701C546.274 68.7017 545.895 66.3333 545.895 63.9648V51.6152C545.895 48.7956 546.274 46.2298 547.032 43.9178C547.844 41.6057 548.9 39.632 550.2 37.9967C551.554 36.3614 553.152 35.0926 554.994 34.1903C556.835 33.288 558.812 32.8369 560.924 32.8369H605.607C606.907 32.8369 608.423 33.0907 610.156 33.5982C611.89 34.1057 613.515 34.8952 615.031 35.9666C616.602 37.0381 617.902 38.3914 618.931 40.0268C620.014 41.6621 620.555 43.6076 620.555 45.8633L620.637 51.0231C620.691 54.4065 619.526 57.1979 617.143 59.3971C614.76 61.54 610.996 62.6114 605.851 62.6114H557.918ZM557.675 52.884H602.682C603.061 52.884 603.603 52.8558 604.307 52.7994C605.065 52.6866 605.797 52.4892 606.501 52.2073C607.205 51.9253 607.828 51.5024 608.369 50.9385C608.911 50.3182 609.182 49.4723 609.182 48.4009C609.182 46.7655 608.559 45.4403 607.313 44.4253C606.121 43.4103 604.551 42.9027 602.601 42.9027H566.124C565.365 42.9027 564.526 43.0437 563.605 43.3257C562.684 43.6076 561.818 44.1433 561.005 44.9328C560.193 45.6659 559.462 46.6809 558.812 47.9779C558.216 49.2749 557.837 50.9103 557.675 52.884Z" fill="white"/>
<path d="M528.168 85.428L529.447 70.5946H528.008C527.369 72.8983 526.464 74.8648 525.292 76.4943C524.12 78.1237 522.841 79.4441 521.456 80.4554C520.071 81.4668 518.66 82.2253 517.222 82.731C515.783 83.1805 514.452 83.4053 513.227 83.4053H481.586C478.39 83.4053 475.646 82.7872 473.356 81.5511C471.119 80.2588 469.281 78.6856 467.843 76.8314C466.404 74.921 465.366 72.8702 464.726 70.6789C464.087 68.4876 463.768 66.4368 463.768 64.5264L463.847 51.7158C463.847 49.4683 464.3 47.2208 465.206 44.9733C466.165 42.7258 467.416 40.7031 468.961 38.9051C470.559 37.1071 472.424 35.6463 474.554 34.5225C476.738 33.3988 479.082 32.8369 481.586 32.8369H513.227C514.984 32.8369 516.689 33.0898 518.34 33.5954C520.045 34.0449 521.563 34.7192 522.895 35.6182C524.28 36.5172 525.425 37.5566 526.33 38.7366C527.289 39.9165 527.849 41.2369 528.008 42.6977H529.447L528.168 32.8369H539.434V89.0521C539.434 91.2434 539.035 93.2942 538.236 95.2045C537.49 97.1149 536.425 98.7724 535.04 100.177C533.708 101.638 532.137 102.762 530.325 103.548C528.514 104.391 526.57 104.813 524.493 104.813H481.346C478.469 104.813 475.646 104.447 472.876 103.717C470.16 102.986 467.816 101.807 465.845 100.177V89.8949C468.082 91.9176 470.879 93.238 474.235 93.856C477.644 94.4741 481.266 94.7831 485.101 94.7831H519.219C521.936 94.7831 524.067 93.8841 525.611 92.0862C527.209 90.3444 528.062 88.125 528.168 85.428ZM528.168 59.7224V55.5927C528.168 52.39 527.183 49.7773 525.212 47.7546C523.294 45.7318 520.684 44.7205 517.381 44.7205H485.501C484.063 44.7205 482.704 44.9452 481.426 45.3947C480.147 45.788 479.029 46.4342 478.07 47.3332C477.164 48.176 476.419 49.2716 475.833 50.6201C475.3 51.9686 475.034 53.5699 475.034 55.4241V60.8181C475.034 62.3913 475.247 63.8522 475.673 65.2007C476.099 66.493 476.792 67.6167 477.75 68.5719C478.762 69.5271 480.067 70.2575 481.666 70.7632C483.264 71.2689 485.234 71.5217 487.578 71.5217H517.062C518.5 71.5217 519.885 71.2408 521.217 70.6789C522.548 70.117 523.72 69.3304 524.732 68.319C525.798 67.2515 526.623 65.9873 527.209 64.5264C527.849 63.0655 528.168 61.4642 528.168 59.7224Z" fill="white"/>
<path d="M446.831 55.5062C446.831 51.9535 445.861 49.2749 443.92 47.4704C441.98 45.6659 439.312 44.7636 435.916 44.7636H416.593C413.09 44.7636 409.99 45.1866 407.295 46.0324C404.6 46.8219 402.31 48.4291 400.423 50.8539V83.589H389.023V32.8369H400.423L399.13 42.7336H400.585C400.854 41.2674 401.474 39.9422 402.444 38.758C403.415 37.5174 404.627 36.4741 406.083 35.6283C407.538 34.726 409.182 34.0493 411.015 33.5982C412.901 33.0907 414.895 32.8369 416.997 32.8369H440.12C442.654 32.8369 444.998 33.3444 447.154 34.3595C449.364 35.3181 451.278 36.6433 452.895 38.3351C454.566 40.0268 455.859 42.0287 456.775 44.3407C457.746 46.6527 458.231 49.134 458.231 51.7843V83.589H446.831V55.5062Z" fill="white"/>
<path d="M320.768 62.6114C320.93 63.9648 321.255 65.29 321.743 66.587C322.284 67.8276 322.961 68.9554 323.774 69.9705C324.586 70.9855 325.507 71.8032 326.536 72.4235C327.619 73.0438 328.757 73.354 329.948 73.354H363.907C367.807 73.354 371.463 73.0438 374.875 72.4235C378.341 71.8032 381.211 70.478 383.486 68.4479V78.9367C381.482 80.572 379.072 81.7562 376.256 82.4893C373.494 83.2224 370.65 83.589 367.725 83.589H324.992C322.555 83.589 320.335 83.025 318.331 81.8972C316.327 80.713 314.621 79.1904 313.212 77.3295C311.804 75.4686 310.694 73.3822 309.882 71.0701C309.123 68.7017 308.744 66.3333 308.744 63.9648V51.6152C308.744 48.7956 309.123 46.2298 309.882 43.9178C310.694 41.6057 311.75 39.632 313.05 37.9967C314.404 36.3614 316.002 35.0926 317.843 34.1903C319.685 33.288 321.662 32.8369 323.774 32.8369H368.457C369.756 32.8369 371.273 33.0907 373.006 33.5982C374.739 34.1057 376.364 34.8952 377.881 35.9666C379.451 37.0381 380.751 38.3914 381.78 40.0268C382.863 41.6621 383.405 43.6076 383.405 45.8633L383.486 51.0231C383.54 54.4065 382.376 57.1979 379.993 59.3971C377.61 61.54 373.846 62.6114 368.7 62.6114H320.768ZM320.524 52.884H365.532C365.911 52.884 366.453 52.8558 367.157 52.7994C367.915 52.6866 368.646 52.4892 369.35 52.2073C370.054 51.9253 370.677 51.5024 371.219 50.9385C371.76 50.3182 372.031 49.4723 372.031 48.4009C372.031 46.7655 371.408 45.4403 370.163 44.4253C368.971 43.4103 367.4 42.9027 365.451 42.9027H328.973C328.215 42.9027 327.376 43.0437 326.455 43.3257C325.534 43.6076 324.667 44.1433 323.855 44.9328C323.043 45.6659 322.311 46.6809 321.662 47.9779C321.066 49.2749 320.687 50.9103 320.524 52.884Z" fill="white"/>
<path d="M288.443 83.5892V15.3047H299.517V83.5892H288.443Z" fill="white"/>
<path d="M264.451 83.5892V15.3047H275.524V83.5892H264.451Z" fill="white"/>
<path d="M255.223 83.589H242.639L243.842 72.4235H242.399C241.918 75.1303 241.036 77.2449 239.754 78.7675C238.525 80.2337 237.216 81.3333 235.826 82.0664C234.491 82.7431 233.208 83.166 231.979 83.3352C230.75 83.5044 229.922 83.589 229.494 83.589H196.231C194.788 83.589 193.212 83.3634 191.502 82.9123C189.792 82.4047 188.189 81.6435 186.692 80.6284C185.25 79.557 184.021 78.1754 183.005 76.4837C181.99 74.7355 181.482 72.6209 181.482 70.1397L181.402 63.9648C181.402 62.3295 181.643 60.7787 182.124 59.3126C182.658 57.8464 183.486 56.5776 184.608 55.5062C185.731 54.4347 187.227 53.5889 189.097 52.9686C190.967 52.3483 193.265 52.0381 195.99 52.0381H243.281C242.96 49.3877 242.078 47.1321 240.636 45.2712C239.246 43.4103 237.136 42.4798 234.303 42.4798H200.719C198.796 42.4798 196.899 42.5362 195.028 42.649C193.212 42.7618 191.475 43.0155 189.818 43.4103C188.162 43.7486 186.612 44.2279 185.17 44.8482C183.78 45.4685 182.524 46.2862 181.402 47.3012V37.4892C183.379 35.8538 185.731 34.6696 188.456 33.9365C191.234 33.2035 194.067 32.8369 196.952 32.8369H239.433C241.731 32.8369 243.842 33.288 245.765 34.1903C247.689 35.0926 249.346 36.3614 250.735 37.9967C252.178 39.632 253.273 41.5775 254.021 43.8332C254.823 46.0888 255.223 48.57 255.223 51.2768V83.589ZM243.521 61.681H199.116C196.872 61.681 195.242 62.1321 194.227 63.0344C193.212 63.9366 192.704 65.29 192.704 67.0945C192.704 67.884 192.784 68.6453 192.944 69.3784C193.158 70.0551 193.505 70.6472 193.986 71.1547C194.467 71.6622 195.109 72.0852 195.91 72.4235C196.765 72.7055 197.834 72.8464 199.116 72.8464H233.742C236.681 72.8464 238.979 71.916 240.636 70.0551C242.292 68.1378 243.254 65.3464 243.521 61.681Z" fill="white"/>
<path d="M164.473 54.9951C164.473 51.8085 163.585 49.2478 161.807 47.3131C160.03 45.3783 157.229 44.411 153.405 44.411H127.633C126.232 44.411 124.751 44.4679 123.189 44.5817C121.627 44.6955 120.065 44.98 118.504 45.4352C116.995 45.8336 115.541 46.488 114.141 47.3984C112.794 48.3089 111.636 49.5608 110.667 51.1541V83.5892H99.2754V15.3047H110.667L109.374 42.3624H110.828C111.044 40.9398 111.609 39.6311 112.525 38.4361C113.441 37.1842 114.626 36.1315 116.08 35.2779C117.534 34.3675 119.177 33.6562 121.008 33.144C122.893 32.6319 124.886 32.3758 126.987 32.3758H157.768C160.299 32.3758 162.642 32.888 164.797 33.9122C167.005 34.8796 168.917 36.2453 170.533 38.0093C172.202 39.7164 173.495 41.7365 174.411 44.0696C175.38 46.3457 175.865 48.821 175.865 51.4955V83.5892H164.473V54.9951Z" fill="white"/>
<path d="M82.4546 45.6941C82.4546 44.2279 82.2145 42.8464 81.7343 41.5494C81.2541 40.196 80.5604 39.0118 79.6534 37.9967C78.7463 36.9817 77.6525 36.164 76.3719 35.5437C75.0913 34.9234 73.6507 34.6132 72.05 34.6132H37.4746C35.9272 34.6132 34.4866 34.8952 33.1526 35.4591C31.8187 35.9666 30.6715 36.7279 29.7111 37.743C28.7507 38.758 27.977 39.9986 27.3901 41.4648C26.8565 42.8746 26.5897 44.4817 26.5897 46.2862V60.3276C26.5897 62.0193 26.8565 63.5701 27.3901 64.9799C27.977 66.3333 28.7507 67.5175 29.7111 68.5325C30.7249 69.5476 31.8988 70.337 33.2327 70.901C34.5666 71.4085 36.0072 71.6622 37.5546 71.6622H72.05C73.2772 71.6622 74.5044 71.3803 75.7316 70.8164C77.0122 70.2525 78.1327 69.463 79.0931 68.4479C80.1069 67.4329 80.9073 66.2205 81.4942 64.8107C82.1345 63.4009 82.4546 61.8502 82.4546 60.1584H93.7397V61.8502C93.7397 64.5006 93.2861 67.1227 92.379 69.7167C91.472 72.3107 90.1914 74.651 88.5373 76.7374C86.9366 78.7675 84.9891 80.4311 82.6947 81.7281C80.4004 82.9687 77.8659 83.589 75.0913 83.589H33.2327C30.7783 83.589 28.4572 83.1096 26.2696 82.151C24.0819 81.1359 22.1611 79.7826 20.507 78.0908C18.9063 76.3427 17.6257 74.3126 16.6653 72.0006C15.7582 69.6885 15.3047 67.2355 15.3047 64.6415V41.6339C15.3047 38.9836 15.7582 36.5306 16.6653 34.2749C17.6257 31.9629 18.9063 29.961 20.507 28.2692C22.1611 26.5211 24.0819 25.1677 26.2696 24.2091C28.4572 23.194 30.7783 22.6865 33.2327 22.6865H75.0913C77.8659 22.6865 80.4004 23.335 82.6947 24.632C84.9891 25.8726 86.9366 27.508 88.5373 29.538C90.1914 31.5681 91.472 33.852 92.379 36.3896C93.2861 38.9272 93.7397 41.4648 93.7397 44.0024V45.6941H82.4546Z" fill="white"/>
<defs>
<filter id="filter0_d_3324_1294" x="0" y="0" width="629.942" height="115.041" filterUnits="userSpaceOnUse" color-interpolation-filters="sRGB">
<feFlood flood-opacity="0" result="BackgroundImageFix"/>
<feColorMatrix in="SourceAlpha" type="matrix" values="0 0 0 0 0 0 0 0 0 0 0 0 0 0 0 0 0 0 127 0" result="hardAlpha"/>
<feOffset dx="-6" dy="-6"/>
<feComposite in2="hardAlpha" operator="out"/>
<feColorMatrix type="matrix" values="0 0 0 0 1 0 0 0 0 1 0 0 0 0 1 0 0 0 1 0"/>
<feBlend mode="normal" in2="BackgroundImageFix" result="effect1_dropShadow_3324_1294"/>
<feBlend mode="normal" in="SourceGraphic" in2="effect1_dropShadow_3324_1294" result="shape"/>
</filter>
</defs>
</svg>
