<svg width="373" height="328" viewBox="0 0 373 328" fill="none" xmlns="http://www.w3.org/2000/svg">
<path d="M41.0398 156.345C46.4669 151.717 55.0346 151.119 66.053 154.22C77.0502 157.315 90.3546 164.061 105.099 173.902C134.582 193.58 169.724 225.568 203.522 265.207C237.321 304.846 263.353 344.602 278.124 376.825C285.511 392.939 290.069 407.143 291.387 418.491C292.707 429.861 290.762 438.226 285.335 442.854C279.908 447.481 271.341 448.079 260.322 444.978C249.325 441.884 236.021 435.137 221.276 425.297C191.793 405.618 156.651 373.63 122.852 333.991C89.0539 294.352 63.0222 254.596 48.2514 222.373C40.8645 206.259 36.3061 192.056 34.9883 180.708C33.668 169.338 35.6127 160.972 41.0398 156.345Z" stroke="white" stroke-opacity="0.6"/>
<path d="M111.161 96.5552C172.078 44.6134 276.221 66.4127 343.765 145.627C411.308 224.842 416.373 331.122 355.456 383.064C294.539 435.006 190.396 413.206 122.852 333.991C55.3091 254.776 50.2436 148.497 111.161 96.5552Z" stroke="white" stroke-opacity="0.6"/>
<path d="M232.924 169.87C233.922 170.735 234.918 171.608 235.913 172.491L235.914 172.49L235.582 172.864C236.569 173.74 237.555 174.625 238.538 175.518L238.873 175.149C239.848 176.035 240.822 176.93 241.793 177.834L241.454 178.2C242.423 179.101 243.391 180.009 244.355 180.927L244.699 180.567C245.652 181.474 246.603 182.389 247.552 183.312L247.205 183.67C248.152 184.592 249.096 185.523 250.039 186.461L250.39 186.109C251.325 187.039 252.257 187.977 253.186 188.923L252.831 189.272C253.755 190.213 254.678 191.163 255.598 192.119L255.957 191.773C256.873 192.727 257.786 193.69 258.697 194.659L258.334 194.999C259.236 195.959 260.136 196.926 261.032 197.9L261.399 197.563C262.296 198.539 263.192 199.521 264.083 200.512L263.712 200.846C264.592 201.824 265.468 202.809 266.342 203.801L266.716 203.472C267.59 204.465 268.462 205.464 269.33 206.471L268.953 206.797C269.386 207.299 269.818 207.804 270.25 208.31C270.682 208.817 271.112 209.324 271.54 209.831L271.92 209.509C272.778 210.526 273.627 211.544 274.469 212.565L274.086 212.883C274.927 213.902 275.762 214.923 276.588 215.947L276.975 215.632C277.813 216.669 278.642 217.708 279.464 218.749L279.073 219.058C279.894 220.097 280.706 221.138 281.511 222.18L281.904 221.876C282.717 222.928 283.523 223.982 284.32 225.038L283.922 225.338C284.722 226.398 285.513 227.459 286.297 228.52L286.697 228.224C287.484 229.291 288.263 230.36 289.034 231.429L288.63 231.721C289.408 232.8 290.178 233.88 290.939 234.961L291.346 234.674C292.108 235.757 292.861 236.841 293.606 237.926L293.197 238.208C293.951 239.306 294.695 240.405 295.432 241.504L295.845 241.226C296.584 242.328 297.314 243.431 298.035 244.534L297.618 244.807C298.345 245.92 299.063 247.033 299.772 248.146L300.192 247.877C300.907 248.999 301.612 250.121 302.307 251.243L301.884 251.506C302.583 252.633 303.272 253.759 303.952 254.886L304.378 254.628C305.066 255.769 305.746 256.91 306.416 258.051L305.987 258.303C306.656 259.444 307.316 260.584 307.966 261.723L308.399 261.477C309.061 262.637 309.714 263.796 310.356 264.955L309.918 265.198C310.559 266.355 311.191 267.511 311.811 268.667L312.249 268.431C312.881 269.608 313.503 270.784 314.114 271.959L313.672 272.189C314.284 273.364 314.885 274.538 315.475 275.711L315.919 275.488C316.519 276.679 317.108 277.87 317.685 279.059L317.239 279.275C317.819 280.468 318.388 281.661 318.946 282.85L319.397 282.638C319.963 283.845 320.518 285.049 321.061 286.252L320.607 286.458C321.154 287.669 321.688 288.877 322.211 290.083L322.669 289.884C323.2 291.106 323.718 292.326 324.225 293.543L323.764 293.736C324.275 294.963 324.773 296.187 325.259 297.408L325.723 297.223C326.215 298.461 326.695 299.696 327.163 300.928L326.697 301.105C327.169 302.349 327.627 303.589 328.073 304.825L328.543 304.655C328.996 305.909 329.433 307.16 329.858 308.406L329.387 308.568C329.817 309.826 330.233 311.08 330.635 312.329L331.11 312.176C331.518 313.447 331.912 314.713 332.293 315.975L331.816 316.118C332.199 317.39 332.568 318.657 332.923 319.918L333.401 319.784C333.763 321.072 334.108 322.354 334.439 323.629L333.959 323.754C334.292 325.037 334.609 326.315 334.911 327.586L335.395 327.472C335.705 328.776 335.999 330.074 336.276 331.364L335.788 331.469C336.066 332.764 336.327 334.052 336.571 335.332L337.06 335.239C337.312 336.558 337.545 337.869 337.761 339.171L337.271 339.253C337.488 340.564 337.687 341.867 337.868 343.161L338.361 343.092C338.547 344.416 338.714 345.731 338.861 347.036L338.365 347.091C338.515 348.418 338.645 349.734 338.755 351.039L339.25 350.997C339.361 352.322 339.454 353.636 339.524 354.938L339.026 354.965C339.099 356.303 339.15 357.63 339.178 358.943L339.675 358.933C339.704 360.269 339.712 361.593 339.696 362.903L339.197 362.897C339.181 364.225 339.141 365.539 339.077 366.839L339.574 366.863C339.509 368.205 339.418 369.533 339.302 370.844L338.807 370.8C338.69 372.125 338.547 373.434 338.378 374.725L338.872 374.79C338.699 376.113 338.497 377.417 338.269 378.703L337.779 378.617C337.546 379.932 337.284 381.228 336.994 382.503L337.477 382.613C337.18 383.918 336.852 385.202 336.494 386.463L336.016 386.328C335.654 387.603 335.26 388.855 334.836 390.083L335.305 390.245C334.868 391.509 334.399 392.747 333.895 393.96L333.437 393.769C332.928 394.995 332.385 396.194 331.808 397.365L332.254 397.585C331.665 398.781 331.041 399.949 330.381 401.087L329.951 400.837C329.289 401.977 328.591 403.088 327.857 404.167L328.268 404.448C327.521 405.546 326.737 406.613 325.915 407.647L325.526 407.336C324.708 408.364 323.853 409.359 322.96 410.321L323.325 410.661C322.426 411.63 321.488 412.564 320.513 413.464L320.176 413.097C319.693 413.542 319.201 413.978 318.699 414.405C318.198 414.833 317.689 415.25 317.173 415.656L317.482 416.048C316.439 416.869 315.368 417.646 314.27 418.381L313.993 417.966C312.902 418.696 311.784 419.384 310.64 420.029L310.884 420.463C309.734 421.112 308.556 421.717 307.354 422.281L307.143 421.829C305.961 422.384 304.754 422.897 303.524 423.37L303.702 423.835C302.473 424.307 301.221 424.739 299.947 425.132L299.801 424.657C298.554 425.041 297.284 425.388 295.993 425.696L296.108 426.18C294.831 426.485 293.534 426.753 292.217 426.984L292.132 426.495C290.853 426.72 289.554 426.91 288.238 427.066L288.296 427.56C286.993 427.714 285.674 427.836 284.339 427.923L284.306 427.427C283.001 427.513 281.68 427.567 280.345 427.589L280.353 428.086C279.047 428.108 277.726 428.102 276.392 428.064L276.407 427.565C275.106 427.528 273.791 427.462 272.464 427.368L272.428 427.863C271.115 427.771 269.791 427.651 268.455 427.504L268.511 427.009C267.217 426.867 265.913 426.698 264.598 426.504L264.524 426.999C263.229 426.808 261.923 426.59 260.609 426.35L260.698 425.86C259.406 425.624 258.104 425.366 256.794 425.083L256.687 425.57C255.412 425.295 254.13 424.996 252.839 424.676L252.96 424.193C251.689 423.879 250.409 423.542 249.123 423.185L248.989 423.666C247.724 423.315 246.452 422.942 245.174 422.55L245.321 422.073C244.072 421.69 242.816 421.287 241.556 420.865L241.398 421.336C240.146 420.917 238.887 420.48 237.625 420.024L237.795 419.555C236.57 419.112 235.339 418.65 234.105 418.171L233.924 418.636C232.693 418.159 231.458 417.664 230.219 417.152L230.409 416.691C229.202 416.192 227.991 415.677 226.776 415.145L226.576 415.601C225.368 415.072 224.157 414.529 222.943 413.968L223.152 413.515C221.963 412.966 220.769 412.402 219.574 411.822L219.356 412.271C218.171 411.696 216.983 411.107 215.793 410.502L216.02 410.057C214.85 409.463 213.677 408.854 212.503 408.231L212.267 408.671C211.104 408.054 209.939 407.423 208.772 406.779L209.015 406.342C207.865 405.706 206.713 405.057 205.56 404.394L205.311 404.828L205.31 404.828C204.168 404.172 203.024 403.502 201.879 402.82L202.136 402.391C201.007 401.718 199.877 401.032 198.746 400.334L198.483 400.759C197.361 400.066 196.238 399.362 195.114 398.645L195.385 398.224C194.277 397.517 193.168 396.798 192.059 396.067L191.783 396.482C190.682 395.756 189.58 395.017 188.478 394.267L188.759 393.856C187.672 393.117 186.586 392.366 185.499 391.605L185.213 392.013C184.131 391.254 183.048 390.485 181.966 389.704L182.258 389.3C181.193 388.532 180.129 387.753 179.065 386.964L178.767 387.364C177.704 386.575 176.64 385.775 175.578 384.965L175.882 384.569C174.839 383.773 173.796 382.968 172.755 382.152L172.446 382.545C171.403 381.728 170.361 380.901 169.32 380.064L169.634 379.674C168.611 378.852 167.589 378.021 166.569 377.18L166.251 377.564C165.231 376.722 164.211 375.871 163.193 375.011L163.516 374.631C162.511 373.781 161.507 372.922 160.506 372.055L160.178 372.431C159.18 371.567 158.183 370.694 157.189 369.811L157.521 369.438C156.534 368.562 155.548 367.677 154.565 366.784L154.229 367.153C153.253 366.266 152.28 365.37 151.308 364.467L151.648 364.102C150.68 363.201 149.713 362.292 148.748 361.374L148.403 361.735C147.45 360.828 146.499 359.913 145.55 358.989L145.899 358.631C144.952 357.709 144.006 356.779 143.063 355.84L142.711 356.193C141.777 355.263 140.845 354.325 139.915 353.379L140.272 353.03C139.347 352.089 138.425 351.139 137.505 350.183L137.145 350.529C136.228 349.575 135.315 348.612 134.404 347.643L134.768 347.302C133.866 346.343 132.968 345.376 132.072 344.401L131.703 344.738C130.806 343.762 129.91 342.779 129.019 341.789L129.392 341.455C128.512 340.478 127.634 339.493 126.761 338.501L126.386 338.829C125.512 337.836 124.639 336.837 123.771 335.83L124.15 335.505C123.717 335.002 123.284 334.497 122.852 333.991C122.421 333.485 121.991 332.978 121.563 332.471L121.181 332.793C120.324 331.776 119.475 330.757 118.633 329.737L119.017 329.419C118.176 328.4 117.342 327.378 116.516 326.355L116.126 326.669C115.289 325.632 114.46 324.593 113.639 323.552L114.031 323.243C113.21 322.204 112.397 321.164 111.592 320.122L111.198 320.426C110.385 319.373 109.578 318.32 108.781 317.264L109.181 316.964C108.381 315.904 107.59 314.843 106.806 313.781L106.405 314.078C105.617 313.011 104.839 311.942 104.068 310.873L104.472 310.58C103.695 309.501 102.926 308.421 102.165 307.34L101.755 307.628C100.994 306.545 100.24 305.461 99.4953 304.376L99.9071 304.093C99.1531 302.996 98.4078 301.897 97.6713 300.798L97.2571 301.076C96.5184 299.973 95.7877 298.871 95.0666 297.767L95.4845 297.495C94.7578 296.382 94.0398 295.269 93.3311 294.156L92.9093 294.425C92.195 293.303 91.4908 292.18 90.7948 291.058L91.2189 290.795C90.5203 289.669 89.831 288.543 89.1511 287.416L88.724 287.674C88.0351 286.533 87.3564 285.391 86.6867 284.25L87.1162 283.999C86.4467 282.858 85.7869 281.718 85.1368 280.578L84.703 280.825C84.0411 279.665 83.3887 278.506 82.747 277.347L83.1846 277.104C82.5438 275.947 81.9131 274.79 81.2924 273.634L80.8524 273.871C80.2203 272.694 79.5988 271.518 78.9877 270.343L79.4306 270.113C78.8192 268.938 78.2187 267.763 77.6284 266.59L77.1825 266.814C76.5828 265.622 75.994 264.432 75.4161 263.243L75.8649 263.026C75.2848 261.833 74.7149 260.641 74.1569 259.452L73.7058 259.663C73.1398 258.456 72.5843 257.252 72.0411 256.049L72.496 255.844C71.9493 254.633 71.4144 253.424 70.8911 252.218L70.4325 252.418C69.9105 251.215 69.4007 250.015 68.902 248.817L68.8775 248.758L69.3389 248.566C68.8283 247.339 68.3298 246.115 67.8438 244.894L67.3788 245.078C66.886 243.84 66.4056 242.605 65.9382 241.374L65.9396 241.374L66.4067 241.196C65.9349 239.953 65.4754 238.713 65.0296 237.477L64.5596 237.647C64.1072 236.392 63.6681 235.142 63.2425 233.895L63.716 233.734C63.2864 232.476 62.8704 231.222 62.4683 229.973L61.9928 230.125C61.5839 228.854 61.1893 227.588 60.8089 226.327L61.2866 226.183C60.9031 224.911 60.5347 223.644 60.1805 222.383L59.7001 222.518C59.3385 221.23 58.9917 219.948 58.6607 218.672L59.1445 218.547C58.8115 217.264 58.4937 215.986 58.192 214.715L57.7062 214.83C57.3965 213.526 57.1032 212.228 56.8264 210.937L57.3148 210.832C57.0372 209.538 56.7758 208.25 56.5316 206.97L56.0407 207.064C55.789 205.745 55.5568 204.433 55.3407 203.13L55.8321 203.049C55.6147 201.738 55.4158 200.435 55.2348 199.141L54.7402 199.21C54.5549 197.886 54.3878 196.571 54.2406 195.266L54.7376 195.21C54.588 193.884 54.4583 192.568 54.3484 191.262L53.8519 191.304C53.786 190.521 53.7257 189.742 53.6741 188.966L53.5771 187.364L54.076 187.336C54.0036 185.998 53.9541 184.671 53.9255 183.358L53.4273 183.368C53.3991 182.073 53.3894 180.79 53.4037 179.519L53.4056 179.399L53.906 179.405C53.9224 178.077 53.9613 176.762 54.0249 175.463L53.528 175.438C53.5936 174.096 53.685 172.769 53.8009 171.458L54.2962 171.502C54.4134 170.177 54.5563 168.868 54.7254 167.577L54.2297 167.512C54.4031 166.189 54.6054 164.884 54.8334 163.598L55.3238 163.685C55.5569 162.37 55.8186 161.074 56.1094 159.799L55.6242 159.689C55.922 158.384 56.2496 157.1 56.608 155.838L57.0869 155.974C57.449 154.699 57.8428 153.447 58.2674 152.219L57.7968 152.057C58.2335 150.793 58.7031 149.555 59.2061 148.342L59.6661 148.532C60.1746 147.307 60.7171 146.107 61.294 144.936L60.8479 144.717C61.4369 143.521 62.0607 142.353 62.7211 141.215L63.1523 141.463C63.8139 140.323 64.5124 139.213 65.2465 138.134L64.8331 137.854C65.5801 136.756 66.3642 135.689 67.1864 134.655L67.5773 134.966C68.3948 133.938 69.2507 132.942 70.1436 131.981L69.7771 131.641C70.6763 130.673 71.6132 129.738 72.5887 128.838L72.9274 129.205C73.4099 128.76 73.9022 128.324 74.4037 127.896C74.9052 127.469 75.4138 127.052 75.9295 126.646L75.6198 126.254C76.6623 125.433 77.733 124.655 78.8312 123.92L79.1106 124.335C80.2012 123.605 81.3189 122.918 82.4632 122.273L82.2172 121.839C83.368 121.19 84.5453 120.585 85.7477 120.021L85.9605 120.472C87.1422 119.917 88.3488 119.403 89.5793 118.93L89.4007 118.466C90.6289 117.994 91.8805 117.563 93.1544 117.17L93.3009 117.645C94.5487 117.26 95.8189 116.914 97.1097 116.606L96.9937 116.122C98.2707 115.817 99.5678 115.549 100.884 115.318L100.971 115.807C102.25 115.582 103.549 115.391 104.866 115.235L104.806 114.741C106.109 114.587 107.428 114.466 108.764 114.379L108.797 114.875C110.102 114.789 111.422 114.735 112.758 114.713L112.749 114.215C114.055 114.193 115.376 114.2 116.709 114.238L116.696 114.737C117.997 114.774 119.312 114.84 120.639 114.934L120.674 114.437C121.986 114.53 123.311 114.651 124.647 114.798L124.593 115.292C125.886 115.435 127.19 115.603 128.504 115.797L128.577 115.302C129.873 115.494 131.178 115.711 132.494 115.951L132.405 116.441C133.698 116.677 134.999 116.936 136.309 117.219L136.415 116.731C137.69 117.007 138.972 117.306 140.262 117.626L140.144 118.108C141.415 118.423 142.694 118.76 143.98 119.117L144.112 118.636C145.378 118.987 146.65 119.36 147.928 119.752L147.782 120.229C149.031 120.612 150.286 121.015 151.547 121.437L151.704 120.965C152.957 121.384 154.215 121.821 155.478 122.278L155.308 122.747C156.533 123.19 157.764 123.652 158.998 124.131L159.179 123.665C160.409 124.142 161.644 124.638 162.883 125.15L162.694 125.61C163.901 126.109 165.113 126.625 166.328 127.156L166.526 126.7C167.734 127.228 168.945 127.773 170.159 128.334L169.951 128.785C171.14 129.335 172.333 129.899 173.528 130.479L173.745 130.031C174.93 130.606 176.119 131.195 177.309 131.799L177.083 132.245C178.253 132.839 179.426 133.448 180.6 134.071L180.834 133.63C181.997 134.247 183.163 134.877 184.33 135.522L184.33 135.523L184.088 135.96C185.238 136.596 186.391 137.245 187.544 137.907L187.792 137.474C188.934 138.13 190.078 138.8 191.222 139.482L191.223 139.481L190.967 139.911C192.096 140.584 193.226 141.27 194.357 141.968L194.62 141.543C195.741 142.235 196.864 142.94 197.987 143.657L197.718 144.078C198.826 144.785 199.935 145.504 201.044 146.235L201.319 145.819C202.421 146.545 203.522 147.284 204.624 148.034L204.344 148.446C205.431 149.185 206.518 149.935 207.605 150.697L207.889 150.289C208.971 151.048 210.053 151.817 211.135 152.598L210.845 153.001C211.91 153.769 212.974 154.549 214.038 155.338L214.334 154.938C215.398 155.727 216.461 156.526 217.523 157.336L217.222 157.733C218.265 158.528 219.307 159.334 220.348 160.15L220.657 159.756L220.656 159.755C221.699 160.573 222.74 161.401 223.782 162.238L223.47 162.627C224.493 163.449 225.514 164.281 226.534 165.122L226.851 164.738C227.872 165.579 228.891 166.43 229.909 167.291L229.587 167.671C230.592 168.521 231.596 169.379 232.597 170.247L232.924 169.87Z" stroke="white" stroke-opacity="0.6" stroke-dasharray="4 4"/>
<path d="M395.61 62.6672C396.608 63.5177 397.599 64.3807 398.583 65.2554L398.252 65.6274C399.231 66.4983 400.203 67.3818 401.166 68.2767L401.507 67.9096L401.506 67.9089C402.469 68.8032 403.423 69.711 404.371 70.6291L404.024 70.9874C404.964 71.8976 405.896 72.8196 406.819 73.7533L407.173 73.4026C408.1 74.3389 409.018 75.2865 409.928 76.2463L409.566 76.5895C410.464 77.5371 411.354 78.4963 412.236 79.4668L412.606 79.1311C413.49 80.1038 414.365 81.0881 415.233 82.0838L414.856 82.4113C415.288 82.9077 415.719 83.407 416.147 83.9091C416.576 84.4114 417.001 84.9161 417.423 85.4216L417.805 85.1008C418.651 86.1146 419.485 87.1347 420.306 88.1613L419.916 88.4739C420.735 89.4982 421.542 90.5286 422.335 91.5653L422.731 91.2615C423.535 92.3116 424.325 93.3684 425.103 94.4309L424.702 94.7259C425.478 95.7855 426.241 96.8512 426.991 97.9227L427.399 97.6365C428.156 98.7173 428.902 99.8028 429.632 100.895L429.216 101.173C429.947 102.266 430.666 103.365 431.371 104.47L431.79 104.201C432.499 105.311 433.194 106.426 433.876 107.546L433.451 107.806C434.136 108.931 434.807 110.061 435.465 111.196L435.896 110.946C436.556 112.084 437.202 113.228 437.836 114.377L437.4 114.618C438.035 115.771 438.657 116.928 439.266 118.091L439.705 117.859C440.316 119.026 440.916 120.197 441.501 121.374L441.054 121.597C441.638 122.773 442.21 123.954 442.767 125.14L443.216 124.929C443.777 126.122 444.324 127.319 444.858 128.521L444.405 128.723C444.937 129.922 445.456 131.126 445.962 132.333L446.422 132.14C446.932 133.357 447.426 134.578 447.908 135.803L447.446 135.985C447.927 137.206 448.394 138.432 448.848 139.661L449.313 139.489C449.77 140.725 450.213 141.964 450.643 143.208L450.173 143.371C450.602 144.612 451.016 145.857 451.417 147.106L451.892 146.952C452.295 148.206 452.682 149.464 453.057 150.724L452.583 150.865C452.958 152.124 453.319 153.387 453.667 154.652L454.146 154.52C454.495 155.788 454.832 157.059 455.153 158.334L454.67 158.457C454.992 159.73 455.299 161.007 455.593 162.286L456.077 162.175C456.372 163.458 456.653 164.743 456.92 166.031L456.435 166.132C456.702 167.417 456.955 168.705 457.195 169.995L457.683 169.904C457.924 171.199 458.152 172.495 458.365 173.793L457.873 173.874C458.086 175.169 458.285 176.466 458.471 177.765L458.962 177.695C459.148 178.998 459.32 180.303 459.478 181.609L458.985 181.669C459.143 182.972 459.288 184.277 459.419 185.582L459.914 185.533C460.046 186.842 460.162 188.153 460.265 189.465L459.77 189.505C459.874 190.813 459.963 192.122 460.039 193.432L460.535 193.404C460.611 194.717 460.674 196.032 460.723 197.347L460.227 197.366C460.276 198.677 460.312 199.989 460.333 201.301L460.832 201.293C460.854 202.609 460.86 203.925 460.855 205.241L460.358 205.239C460.353 206.551 460.333 207.863 460.301 209.175L460.797 209.189C460.764 210.504 460.719 211.819 460.659 213.134L460.162 213.112C460.103 214.422 460.03 215.733 459.944 217.043L460.44 217.075C460.353 218.388 460.251 219.701 460.137 221.013L459.643 220.969C459.53 222.276 459.403 223.582 459.263 224.887L459.756 224.941C459.615 226.249 459.463 227.556 459.296 228.862L458.802 228.799C458.635 230.1 458.455 231.4 458.261 232.699L458.753 232.772C458.558 234.073 458.349 235.373 458.129 236.67L457.64 236.587C457.42 237.88 457.187 239.173 456.94 240.463L457.428 240.557C457.181 241.848 456.922 243.138 456.649 244.425L456.162 244.322C455.889 245.605 455.603 246.887 455.304 248.166L455.787 248.28C455.487 249.56 455.175 250.837 454.849 252.112L454.368 251.989C454.043 253.261 453.705 254.53 453.354 255.795L453.835 255.929C453.483 257.196 453.117 258.461 452.74 259.723L452.263 259.58C451.887 260.836 451.498 262.089 451.096 263.339L451.569 263.491C451.166 264.744 450.751 265.994 450.322 267.24L449.852 267.078C449.425 268.317 448.986 269.553 448.534 270.785L449.001 270.956C448.547 272.192 448.079 273.422 447.599 274.65L447.138 274.47C446.661 275.691 446.171 276.908 445.669 278.121L446.128 278.311C445.625 279.526 445.111 280.738 444.583 281.945L444.126 281.744C443.599 282.946 443.06 284.143 442.509 285.335L442.96 285.544C442.408 286.736 441.843 287.924 441.267 289.108L440.821 288.891C440.246 290.071 439.658 291.247 439.058 292.418L439.501 292.646C438.903 293.814 438.29 294.976 437.666 296.134L437.228 295.898C436.606 297.053 435.972 298.204 435.325 299.349L435.756 299.593C435.11 300.737 434.453 301.876 433.783 303.01L433.354 302.755C432.686 303.883 432.006 305.006 431.314 306.123L431.736 306.384C431.043 307.503 430.337 308.615 429.62 309.721L429.204 309.451C428.492 310.549 427.768 311.643 427.031 312.73L427.443 313.009C426.705 314.099 425.955 315.183 425.193 316.26L424.787 315.972C424.031 317.041 423.264 318.104 422.484 319.16L422.883 319.454C422.102 320.512 421.313 321.566 420.509 322.611L420.113 322.306C419.314 323.345 418.503 324.377 417.68 325.403L418.067 325.714C417.246 326.738 416.413 327.755 415.568 328.766L415.188 328.448C414.346 329.455 413.491 330.456 412.626 331.45L413.003 331.779C412.142 332.767 411.269 333.747 410.386 334.721L410.019 334.387C409.138 335.359 408.246 336.324 407.343 337.282L407.705 337.625C406.804 338.58 405.891 339.528 404.968 340.469L404.613 340.119C403.697 341.053 402.768 341.98 401.829 342.9L402.178 343.257C401.237 344.178 400.285 345.093 399.322 345.999L398.981 345.635C398.03 346.53 397.069 347.418 396.097 348.297L396.43 348.668C395.455 349.55 394.469 350.424 393.473 351.29L393.147 350.914C392.65 351.346 392.15 351.777 391.648 352.205C391.145 352.633 390.642 353.059 390.136 353.481L390.456 353.863C389.443 354.71 388.424 355.545 387.398 356.369L387.086 355.98C386.064 356.801 385.036 357.61 384.002 358.407L384.307 358.802C383.259 359.61 382.206 360.406 381.147 361.189L380.85 360.788C379.794 361.57 378.732 362.34 377.665 363.097L377.953 363.503C376.878 364.266 375.798 365.017 374.712 365.756L374.432 365.344C373.344 366.085 372.249 366.813 371.151 367.529L371.422 367.944C370.32 368.662 369.215 369.37 368.103 370.063L367.839 369.639C366.72 370.336 365.596 371.022 364.468 371.694L364.722 372.121C363.591 372.795 362.454 373.456 361.313 374.106L361.069 373.674C359.926 374.324 358.777 374.962 357.625 375.587L357.863 376.026C356.704 376.655 355.539 377.268 354.371 377.871L354.145 377.431C352.979 378.033 351.808 378.623 350.633 379.2L350.853 379.647C349.668 380.23 348.479 380.799 347.286 381.356L347.076 380.905C345.887 381.46 344.693 382.003 343.496 382.532L343.695 382.986C342.489 383.519 341.28 384.04 340.067 384.547L339.876 384.089C338.664 384.596 337.447 385.09 336.228 385.571L336.411 386.035C335.186 386.518 333.956 386.986 332.725 387.444L332.553 386.978C331.32 387.436 330.084 387.881 328.844 388.313L329.008 388.783C327.766 389.216 326.521 389.637 325.273 390.044L325.119 389.57C323.868 389.977 322.614 390.371 321.357 390.753L321.501 391.228C320.241 391.611 318.979 391.98 317.714 392.336L317.58 391.858C316.315 392.214 315.048 392.557 313.779 392.886L313.904 393.37C312.628 393.701 311.351 394.017 310.071 394.321L309.957 393.838C308.68 394.142 307.4 394.433 306.12 394.711L306.224 395.196C304.936 395.476 303.647 395.743 302.355 395.996L302.26 395.507C300.972 395.759 299.682 395.997 298.391 396.222L298.476 396.713C297.178 396.94 295.878 397.151 294.577 397.351L294.503 396.86C293.205 397.06 291.906 397.246 290.606 397.419L290.67 397.912C289.365 398.085 288.059 398.247 286.752 398.394L286.697 397.897C285.392 398.044 284.085 398.177 282.779 398.297L282.824 398.791C281.513 398.911 280.202 399.019 278.891 399.112L278.856 398.617C277.546 398.71 276.235 398.79 274.924 398.856L274.949 399.355C273.634 399.422 272.32 399.473 271.006 399.512L270.991 399.015C269.678 399.055 268.365 399.081 267.053 399.094L267.057 399.59C265.74 399.603 264.425 399.604 263.11 399.59L263.115 399.092C261.802 399.078 260.49 399.051 259.179 399.01L259.163 399.508C257.847 399.467 256.531 399.411 255.217 399.343L255.244 398.846C253.933 398.779 252.623 398.698 251.315 398.603L251.278 399.099C249.965 399.004 248.653 398.897 247.343 398.775L247.39 398.279C246.083 398.158 244.778 398.022 243.474 397.874L243.416 398.369C242.109 398.22 240.803 398.057 239.499 397.881L239.566 397.389C238.265 397.214 236.966 397.025 235.67 396.823L235.592 397.314C234.291 397.111 232.993 396.897 231.697 396.668L231.785 396.176C230.493 395.947 229.202 395.705 227.915 395.45L227.817 395.937C226.526 395.681 225.238 395.41 223.953 395.127L224.061 394.642C222.78 394.359 221.501 394.064 220.226 393.755L220.107 394.239C218.828 393.929 217.553 393.607 216.28 393.271L216.408 392.788C215.14 392.453 213.874 392.104 212.613 391.742L212.475 392.22C211.21 391.857 209.949 391.48 208.691 391.09L208.839 390.617C207.586 390.228 206.336 389.826 205.091 389.412L204.933 389.885C203.685 389.47 202.441 389.039 201.201 388.597L201.368 388.129C200.133 387.688 198.901 387.235 197.674 386.768L197.496 387.233C196.267 386.765 195.042 386.284 193.822 385.79L194.01 385.329C192.793 384.837 191.581 384.332 190.373 383.813L190.175 384.271C188.968 383.752 187.766 383.218 186.569 382.673L186.775 382.221C185.581 381.677 184.392 381.121 183.208 380.551L182.993 380.998C181.808 380.428 180.627 379.847 179.453 379.251L179.679 378.807C178.51 378.213 177.346 377.606 176.188 376.987L175.953 377.426C174.793 376.805 173.639 376.171 172.491 375.525L172.736 375.093C171.594 374.45 170.457 373.795 169.327 373.127L169.074 373.556C167.94 372.886 166.812 372.205 165.691 371.509L165.955 371.085C164.842 370.395 163.736 369.692 162.636 368.977L162.365 369.392C161.263 368.675 160.166 367.946 159.077 367.204L159.357 366.793C158.274 366.055 157.198 365.305 156.129 364.542L155.838 364.949C154.768 364.186 153.708 363.407 152.652 362.619L152.949 362.222C151.898 361.437 150.854 360.64 149.817 359.83L149.509 360.223C148.474 359.416 147.446 358.598 146.426 357.766L146.743 357.379C145.726 356.55 144.716 355.708 143.714 354.854L143.389 355.233C142.391 354.383 141.4 353.52 140.416 352.645L140.749 352.273C139.769 351.402 138.798 350.519 137.834 349.624L137.494 349.991C136.53 349.097 135.576 348.19 134.628 347.271L134.976 346.913C134.036 346.003 133.105 345.081 132.181 344.147L131.825 344.499C130.899 343.563 129.98 342.615 129.071 341.656L129.434 341.311C128.536 340.364 127.646 339.404 126.764 338.434L126.393 338.77C125.509 337.797 124.634 336.812 123.766 335.817L124.144 335.489C123.712 334.993 123.281 334.493 122.852 333.991C122.424 333.489 121.999 332.985 121.577 332.479L121.194 332.8C120.348 331.786 119.514 330.766 118.693 329.739L119.084 329.427C118.265 328.403 117.459 327.372 116.665 326.335L116.268 326.639L116.267 326.639C115.463 325.589 114.673 324.533 113.895 323.47L114.299 323.175C113.523 322.115 112.759 321.05 112.009 319.978L111.6 320.264C110.843 319.183 110.097 318.098 109.367 317.005L109.368 317.005L109.784 316.728C109.053 315.634 108.334 314.535 107.629 313.431L107.208 313.699C106.5 312.59 105.805 311.475 105.123 310.354L105.549 310.095C104.865 308.97 104.193 307.84 103.535 306.704L103.102 306.955C102.442 305.817 101.796 304.672 101.163 303.523L101.6 303.282C100.965 302.13 100.342 300.973 99.7337 299.811L99.2935 300.041C98.6823 298.874 98.0814 297.704 97.497 296.527L97.4983 296.527L97.9455 296.305C97.3612 295.128 96.7905 293.947 96.233 292.761L95.7826 292.972C95.2217 291.779 94.675 290.581 94.1412 289.379L94.5949 289.178C94.0623 287.979 93.5431 286.776 93.0373 285.568L92.5766 285.761C92.067 284.544 91.5728 283.322 91.0904 282.097L91.5538 281.915C91.0729 280.694 90.6049 279.469 90.151 278.24L89.6857 278.412C89.2293 277.176 88.7855 275.936 88.3563 274.693L88.8272 274.53C88.3987 273.289 87.9834 272.044 87.5822 270.796L87.1066 270.948C86.7036 269.695 86.3171 268.437 85.9415 267.177L86.4175 267.035C86.0423 265.776 85.6805 264.514 85.3325 263.249L84.8531 263.381C84.5042 262.112 84.1665 260.842 83.845 259.568L84.3293 259.445C84.0078 258.171 83.7006 256.893 83.4065 255.614L82.9209 255.726C82.626 254.443 82.3452 253.158 82.0777 251.87L82.5651 251.769C82.298 250.483 82.0439 249.195 81.8042 247.905L81.3156 247.996C81.075 246.702 80.8466 245.406 80.6335 244.108L81.1269 244.027C80.9143 242.732 80.7148 241.435 80.5296 240.136L80.0377 240.206C79.8518 238.903 79.679 237.598 79.5206 236.291L80.0143 236.232C79.8563 234.929 79.7123 233.624 79.5816 232.319L79.0845 232.368C78.9534 231.058 78.8365 229.748 78.7328 228.436L79.2299 228.396C79.1264 227.088 79.0366 225.778 78.9604 224.468L78.4642 224.497C78.3878 223.183 78.324 221.869 78.2749 220.554L78.7723 220.536C78.7234 219.224 78.6887 217.912 78.667 216.6L78.1669 216.608C78.1451 215.292 78.1395 213.976 78.1449 212.659L78.6421 212.662C78.6475 211.349 78.6664 210.037 78.6989 208.725L78.2018 208.712C78.2344 207.397 78.2792 206.082 78.3389 204.767L78.8372 204.79C78.8968 203.479 78.9698 202.168 79.0564 200.858L78.5575 200.825C78.6443 199.512 78.7471 198.2 78.8609 196.889L79.3569 196.931C79.4703 195.624 79.5969 194.318 79.7371 193.013L79.2426 192.959C79.3832 191.651 79.5345 190.344 79.702 189.038L80.1978 189.102C80.3647 187.801 80.5456 186.501 80.7393 185.202L80.2464 185.128C80.4404 183.828 80.6487 182.528 80.8695 181.231L81.3596 181.313C81.5797 180.02 81.8132 178.727 82.0599 177.437L81.5707 177.344C81.8176 176.052 82.0759 174.762 82.3494 173.475L82.8385 173.579C83.1112 172.295 83.3971 171.014 83.6963 169.734L83.2121 169.621C83.5116 168.341 83.825 167.063 84.1508 165.788L84.6321 165.911C84.9568 164.64 85.2945 163.372 85.6455 162.106L85.1643 161.972C85.5157 160.705 85.8815 159.441 86.2591 158.179L86.7361 158.322C87.1122 157.065 87.5017 155.812 87.9038 154.562L87.4303 154.41C87.8333 153.157 88.2478 151.907 88.6768 150.661L89.1488 150.823C89.5753 149.584 90.0144 148.348 90.4667 147.116L89.9982 146.944C90.4518 145.709 90.9197 144.478 91.399 143.25L91.8626 143.431C92.3392 142.21 92.8291 140.993 93.3312 139.78L92.8712 139.59C93.3734 138.377 93.8859 137.167 94.4135 135.962L94.416 135.956L94.8746 136.157C95.4008 134.955 95.9387 133.758 96.4902 132.565L96.0392 132.357C96.5908 131.164 97.1549 129.976 97.7317 128.792L98.1792 129.01C98.7543 127.83 99.3418 126.654 99.9421 125.483L99.4973 125.256C100.096 124.088 100.709 122.925 101.333 121.766L101.771 122.002C102.393 120.847 103.029 119.697 103.676 118.552L103.243 118.308C103.889 117.164 104.545 116.025 105.216 114.892L105.646 115.146C106.314 114.018 106.994 112.895 107.686 111.778L107.262 111.515C107.955 110.398 108.661 109.286 109.379 108.18L109.796 108.449C110.508 107.351 111.232 106.258 111.968 105.171L111.555 104.892C112.294 103.802 113.044 102.718 113.806 101.64L114.213 101.928C114.968 100.859 115.737 99.7968 116.516 98.7406L116.115 98.4462C116.895 97.3883 117.686 96.3352 118.49 95.29L118.887 95.5951C119.686 94.5563 120.497 93.5234 121.32 92.4976L120.932 92.1868C121.753 91.163 122.585 90.1458 123.43 89.1353L123.812 89.4538C124.654 88.4459 125.508 87.4439 126.373 86.4496L125.996 86.1217C126.857 85.1334 127.73 84.1539 128.613 83.1794L128.982 83.5135C129.862 82.5416 130.754 81.5764 131.657 80.6187L131.294 80.2753C132.195 79.3201 133.108 78.3728 134.031 77.4319L134.387 77.7816C135.303 76.8476 136.232 75.9209 137.17 75.0015L136.821 74.6439C137.762 73.7223 138.714 72.8081 139.677 71.9014L140.02 72.2653C140.97 71.3706 141.931 70.4831 142.904 69.6033L142.569 69.2331C143.544 68.351 144.53 67.4768 145.526 66.6101L145.854 66.9867C146.35 66.5546 146.85 66.1244 147.352 65.6962C147.854 65.2679 148.359 64.8423 148.864 64.4199L148.543 64.0376C149.556 63.1907 150.575 62.3553 151.6 61.5321L151.914 61.9207C152.936 61.0998 153.965 60.2907 154.998 59.4935L154.692 59.0986C155.74 58.2907 156.793 57.4949 157.852 56.7113L158.15 57.1132C159.206 56.3315 160.268 55.5611 161.336 54.8035L161.046 54.3974C162.121 53.6344 163.2 52.8826 164.286 52.144L164.568 52.5565C165.657 51.8161 166.75 51.0885 167.849 50.3728L167.577 49.9563C168.679 49.2385 169.784 48.5305 170.896 47.8373L171.161 48.2609C172.28 47.5636 173.403 46.8792 174.532 46.2069L174.277 45.78C175.408 45.1058 176.545 44.4441 177.686 43.795L177.931 44.2273C179.074 43.577 180.222 42.9394 181.374 42.3143L181.135 41.8754C182.294 41.2464 183.459 40.6322 184.627 40.0286L184.856 40.47C186.022 39.8674 187.192 39.2768 188.366 38.6995L188.146 38.2532C189.331 37.6709 190.52 37.1012 191.713 36.5446L191.923 36.9964C193.113 36.4413 194.306 35.8987 195.504 35.3692L195.303 34.9154C196.509 34.3821 197.718 33.8599 198.932 33.3524L199.124 33.8118C200.337 33.3047 201.553 32.8111 202.772 32.3299L202.588 31.8657C203.813 31.3823 205.042 30.9142 206.274 30.4568L206.448 30.9223C207.68 30.4644 208.916 30.0189 210.155 29.5872L209.991 29.1176C211.233 28.6848 212.478 28.2635 213.726 27.8567L213.881 28.3311C215.132 27.9235 216.386 27.5292 217.643 27.1479L217.498 26.6722C218.758 26.2898 220.02 25.9205 221.285 25.5644L221.419 26.0427C222.684 25.6866 223.952 25.3441 225.222 25.0144L225.095 24.5305C226.37 24.1993 227.648 23.884 228.928 23.5794L229.044 24.0631C230.321 23.759 231.6 23.4677 232.881 23.19L232.775 22.705C234.063 22.4258 235.352 22.1576 236.644 21.905L236.74 22.3941C238.028 22.1422 239.318 21.904 240.609 21.6786L240.523 21.1876C241.821 20.9609 243.121 20.7492 244.421 20.5493L244.497 21.0402C245.795 20.8408 247.094 20.6549 248.394 20.4822L248.327 19.9885C249.633 19.8149 250.939 19.6538 252.247 19.507L252.303 20.0033C253.608 19.8568 254.914 19.7239 256.221 19.6042L256.175 19.1094C257.486 18.9893 258.797 18.8817 260.108 18.7884L260.143 19.2844C261.454 19.1911 262.765 19.1108 264.076 19.0444L264.051 18.5464C265.365 18.4798 266.679 18.4279 267.993 18.3881L268.009 18.8854C269.322 18.8457 270.635 18.8193 271.947 18.8065L271.942 18.3101C273.258 18.2973 274.574 18.2969 275.889 18.3109L275.884 18.8093C277.197 18.8233 278.509 18.8501 279.821 18.891L279.836 18.3914C281.152 18.4323 282.467 18.4896 283.781 18.5575L283.756 19.0536C285.067 19.1213 286.377 19.2029 287.685 19.2975L287.72 18.8022C289.033 18.8971 290.345 19.0038 291.656 19.1256L291.61 19.6214C292.917 19.7429 294.222 19.878 295.526 20.0263L295.582 19.532C296.89 19.6809 298.196 19.8439 299.5 20.0196L299.434 20.5117C300.735 20.687 302.034 20.8758 303.331 21.0779L303.406 20.5873C304.707 20.7899 306.006 21.0035 307.302 21.233L307.215 21.7241C308.507 21.953 309.797 22.196 311.085 22.4517L311.181 21.9641C312.472 22.2204 313.76 22.4905 315.045 22.7736L314.938 23.2583C316.22 23.5406 317.499 23.8363 318.775 24.1453L318.891 23.6613C320.17 23.9711 321.446 24.2935 322.719 24.63L322.592 25.1125C323.86 25.4479 325.125 25.7963 326.387 26.1583L326.524 25.6808C327.789 26.0437 329.05 26.42 330.307 26.8095L330.161 27.2841C331.414 27.6723 332.663 28.0737 333.909 28.4882L334.066 28.0152C335.314 28.4307 336.558 28.8612 337.798 29.3032L337.631 29.7714C338.867 30.212 340.099 30.6658 341.327 31.1327L341.502 30.6687C342.731 31.1364 343.956 31.6168 345.176 32.1109L344.99 32.5712C346.207 33.0638 347.419 33.5698 348.626 34.0886L348.823 33.6297C350.03 34.1487 351.232 34.6827 352.43 35.2279L352.224 35.6805C353.419 36.224 354.608 36.7801 355.792 37.3497L356.006 36.9026C357.191 37.4725 358.371 38.0533 359.545 38.6491L359.32 39.0939C360.489 39.6875 361.654 40.2942 362.812 40.9136L363.046 40.4751C364.206 41.0954 365.36 41.7294 366.508 42.3755L366.265 42.8078C367.407 43.4502 368.543 44.1053 369.673 44.7732L369.925 44.3451C371.059 45.015 372.187 45.6961 373.308 46.3916L373.045 46.8161C374.157 47.5063 375.264 48.2093 376.364 48.9247L376.634 48.5084C377.736 49.2256 378.832 49.9546 379.922 50.697L379.643 51.1078C380.726 51.8457 381.802 52.5967 382.871 53.3595L383.161 52.9531C384.23 53.7161 385.292 54.4933 386.347 55.2812L386.05 55.6794C387.102 56.4641 388.146 57.2611 389.184 58.0705L389.49 57.6772C390.524 58.4844 391.552 59.3038 392.572 60.1355L392.572 60.1348L392.257 60.5219C393.274 61.3513 394.284 62.1929 395.286 63.0467L395.61 62.6672Z" stroke="white" stroke-opacity="0.6" stroke-dasharray="4 4"/>
</svg>
