<svg width="696" height="74" viewBox="0 0 696 74" fill="none" xmlns="http://www.w3.org/2000/svg">
<path d="M684.056 44.0136C684.056 40.7225 683.168 38.0779 681.391 36.0798C679.614 34.0817 676.814 33.0826 672.991 33.0826H647.226C645.826 33.0826 644.345 33.1414 642.784 33.2589C641.222 33.3765 639.661 33.6703 638.099 34.1405C636.592 34.5518 635.138 35.2277 633.738 36.168C632.392 37.1083 631.234 38.4012 630.265 40.0467V73.5448H618.877V3.02246H630.265L628.973 30.9669H630.427C630.642 29.4977 631.207 28.146 632.123 26.9119C633.038 25.619 634.223 24.5318 635.677 23.6502C637.13 22.71 638.773 21.9753 640.603 21.4464C642.488 20.9175 644.48 20.653 646.58 20.653H677.352C679.883 20.653 682.225 21.182 684.379 22.2398C686.587 23.2389 688.498 24.6493 690.113 26.4711C691.783 28.2342 693.075 30.3205 693.99 32.73C694.959 35.0807 695.444 37.6372 695.444 40.3993V73.5448H684.056V44.0136Z" fill="white"/>
<path d="M601.504 44.6436C601.504 42.6062 601.183 40.8891 600.54 39.4921C599.897 38.0951 599.094 36.96 598.13 36.0868C597.166 35.1555 596.095 34.4861 594.916 34.0786C593.792 33.6712 592.694 33.4674 591.623 33.4674H560.291C558.792 33.4674 557.373 33.7585 556.034 34.3406C554.748 34.9227 553.624 35.7376 552.659 36.7853C551.695 37.8331 550.946 39.0555 550.41 40.4525C549.875 41.8495 549.607 43.3921 549.607 45.0801V49.6204C549.607 51.1339 549.848 52.5891 550.33 53.9861C550.812 55.3831 551.508 56.6346 552.418 57.7406C553.329 58.7883 554.454 59.6324 555.793 60.2727C557.132 60.9129 558.631 61.2331 560.291 61.2331H591.382C592.239 61.2331 593.256 61.0294 594.434 60.6219C595.613 60.1562 596.711 59.4577 597.728 58.5264C598.799 57.5368 599.683 56.3144 600.379 54.8592C601.129 53.3458 601.504 51.5704 601.504 49.5331H612.832V52.6764C612.832 55.5286 612.376 58.2353 611.466 60.7965C610.555 63.3577 609.27 65.5697 607.61 67.4324C606.003 69.295 604.048 70.7794 601.745 71.8853C599.442 72.9913 596.898 73.5443 594.113 73.5443H556.275C553.811 73.5443 551.481 73.0495 549.285 72.06C547.09 71.0122 545.161 69.6152 543.501 67.8689C541.894 66.0644 540.609 63.9689 539.645 61.5824C538.735 59.1958 538.279 56.6637 538.279 53.9861V40.7145C538.279 37.9786 538.735 35.4465 539.645 33.1182C540.609 30.7316 541.894 28.6652 543.501 26.9189C545.161 25.1145 547.09 23.7174 549.285 22.7279C551.481 21.6801 553.811 21.1562 556.275 21.1562H594.113C596.898 21.1562 599.442 21.7092 601.745 22.8152C604.048 23.9212 606.003 25.4346 607.61 27.3555C609.27 29.2182 610.555 31.4301 611.466 33.9913C612.376 36.5525 612.832 39.2883 612.832 42.1988V44.6436H601.504Z" fill="white"/>
<path d="M520.949 44.5562C520.949 40.8891 519.989 38.1242 518.068 36.2615C516.148 34.3988 513.507 33.4674 510.145 33.4674H491.018C487.549 33.4674 484.482 33.904 481.814 34.7771C479.146 35.5921 476.878 37.251 475.011 39.754V73.5443H463.727V21.1562H475.011L473.731 31.3719H475.171C475.438 29.8585 476.052 28.4906 477.012 27.2682C477.972 25.9876 479.173 24.9107 480.613 24.0376C482.054 23.1063 483.681 22.4077 485.495 21.9421C487.363 21.4182 489.337 21.1562 491.418 21.1562H514.307C516.815 21.1562 519.135 21.6801 521.27 22.7279C523.457 23.7174 525.351 25.0854 526.952 26.8316C528.606 28.5779 529.886 30.6443 530.793 33.0309C531.754 35.4174 532.234 37.9786 532.234 40.7145V73.5443H520.949V44.5562Z" fill="white"/>
<path d="M399.451 50.1443C399.451 53.8115 400.411 56.5764 402.332 58.4391C404.252 60.3018 406.92 61.2331 410.335 61.2331H429.383C432.851 61.2331 435.918 60.8256 438.586 60.0107C441.254 59.1376 443.522 57.4495 445.389 54.9465V21.1562H456.673V73.5443H445.389L446.669 63.3286H445.229C445.015 64.8421 444.429 66.2391 443.468 67.5197C442.508 68.7421 441.281 69.8189 439.787 70.7503C438.346 71.6234 436.692 72.3219 434.825 72.8458C433.011 73.3115 431.063 73.5443 428.982 73.5443H406.093C403.639 73.5443 401.318 73.0495 399.13 72.06C396.943 71.0122 395.022 69.6152 393.368 67.8689C391.767 66.1227 390.487 64.0562 389.527 61.6697C388.62 59.2831 388.166 56.7219 388.166 53.9861V21.1562H399.451V50.1443Z" fill="white"/>
<path d="M381.115 73.5443H368.578L369.776 62.0189H368.339C367.859 64.813 366.981 66.9958 365.703 68.5674C364.479 70.0809 363.175 71.2159 361.791 71.9726C360.46 72.6712 359.182 73.1077 357.958 73.2824C356.733 73.457 355.908 73.5443 355.482 73.5443H322.343C320.906 73.5443 319.335 73.3115 317.632 72.8458C315.928 72.3219 314.331 71.5361 312.841 70.4883C311.403 69.3824 310.179 67.9562 309.167 66.21C308.156 64.4055 307.65 62.2227 307.65 59.6615L307.57 53.2876C307.57 51.5995 307.81 49.9988 308.289 48.4853C308.821 46.9719 309.647 45.6622 310.764 44.5562C311.882 43.4503 313.373 42.5771 315.236 41.9368C317.099 41.2965 319.389 40.9764 322.104 40.9764H369.217C368.898 38.2406 368.019 35.9122 366.582 33.9913C365.198 32.0704 363.095 31.11 360.273 31.11H326.815C324.898 31.11 323.009 31.1682 321.145 31.2846C319.335 31.401 317.605 31.663 315.955 32.0704C314.305 32.4197 312.761 32.9145 311.323 33.5548C309.939 34.1951 308.688 35.0391 307.57 36.0868V25.9585C309.54 24.2704 311.882 23.048 314.597 22.2913C317.366 21.5346 320.187 21.1562 323.062 21.1562H365.384C367.673 21.1562 369.776 21.6219 371.692 22.5533C373.609 23.4846 375.259 24.7943 376.643 26.4824C378.081 28.1704 379.172 30.1786 379.917 32.507C380.716 34.8354 381.115 37.3965 381.115 40.1906V73.5443ZM369.457 50.9301H325.218C322.982 50.9301 321.358 51.3958 320.347 52.3271C319.335 53.2585 318.83 54.6555 318.83 56.5182C318.83 57.3331 318.909 58.1189 319.069 58.8756C319.282 59.5741 319.628 60.1853 320.107 60.7092C320.586 61.2331 321.225 61.6697 322.024 62.0189C322.876 62.31 323.94 62.4555 325.218 62.4555H359.714C362.642 62.4555 364.931 61.495 366.582 59.5741C368.232 57.595 369.19 54.7137 369.457 50.9301Z" fill="white"/>
<path d="M227.052 73.368L226.973 10.0742H238.187V61.1148H299.51V73.5443L227.052 73.368Z" fill="white"/>
<path d="M181.656 21.1562C184.441 21.1563 186.985 21.7095 189.288 22.8154C191.591 23.8631 193.546 25.3181 195.152 27.1807C196.813 28.9851 198.098 31.1099 199.009 33.5547C199.919 35.9412 200.374 38.4442 200.374 41.0635V54.1611C200.374 56.8968 199.919 59.4583 199.009 61.8447C198.098 64.1729 196.813 66.2099 195.152 67.9561C193.546 69.7023 191.591 71.07 189.288 72.0596C186.985 73.0491 184.441 73.5439 181.656 73.5439H143.817C141.354 73.5439 139.024 73.0491 136.828 72.0596C134.996 71.1855 133.352 70.0681 131.893 68.708C130.436 70.0998 128.728 71.2177 126.767 72.0605C124.464 73.0501 121.92 73.5449 119.135 73.5449H81.2959C78.8323 73.5449 76.5024 73.0501 74.3066 72.0605C72.1109 71.0128 70.1827 69.6163 68.5225 67.8701C66.9157 66.0656 65.6301 63.9696 64.666 61.583C63.7557 59.1966 63.3008 56.6647 63.3008 53.9873V40.7158C63.3008 37.9801 63.7556 35.4475 64.666 33.1191C65.63 30.7326 66.9158 28.6662 68.5225 26.9199C70.1827 25.1155 72.1108 23.7181 74.3066 22.7285C76.5024 21.6808 78.8323 21.1573 81.2959 21.1572H119.135C121.92 21.1572 124.464 21.7105 126.767 22.8164C128.654 23.6753 130.308 24.8084 131.728 26.2148C133.227 24.7473 134.927 23.5843 136.828 22.7275C139.024 21.6798 141.354 21.1563 143.817 21.1562H181.656ZM85.4736 33.4688C84.0276 33.4688 82.6348 33.7597 81.2959 34.3418C80.0106 34.8657 78.8593 35.6515 77.8418 36.6992C76.8778 37.7469 76.1008 38.998 75.5117 40.4531C74.9226 41.85 74.628 43.4219 74.6279 45.168V49.6211C74.6279 51.2509 74.8961 52.7938 75.4316 54.249C76.0208 55.646 76.7977 56.8683 77.7617 57.916C78.7793 58.9637 79.957 59.7793 81.2959 60.3613C82.6348 60.9434 84.0816 61.2344 85.6348 61.2344H115.921C117.421 61.2344 118.813 60.9721 120.099 60.4482C121.384 59.8662 122.509 59.0803 123.473 58.0908C124.437 57.0431 125.187 55.7912 125.723 54.3359C125.759 54.2384 125.789 54.1384 125.822 54.0391V41.0762C125.765 40.8963 125.705 40.7178 125.642 40.541C125.16 39.1442 124.491 37.9217 123.634 36.874C122.777 35.8263 121.705 35.0108 120.42 34.4287C119.135 33.7885 117.635 33.4688 115.921 33.4688H85.4736ZM147.995 33.4678C146.549 33.4678 145.156 33.7587 143.817 34.3408C142.532 34.8647 141.381 35.6506 140.363 36.6982C139.399 37.7459 138.622 38.9971 138.033 40.4521C137.969 40.6052 137.908 40.7607 137.851 40.918C137.851 40.9668 137.853 41.0156 137.853 41.0645V53.9541C137.886 54.0521 137.917 54.1508 137.953 54.248C138.542 55.645 139.319 56.8673 140.283 57.915C141.301 58.9627 142.479 59.7783 143.817 60.3604C145.156 60.9424 146.603 61.2334 148.156 61.2334H178.442C179.942 61.2334 181.335 60.9711 182.62 60.4473C183.905 59.8652 185.03 59.0794 185.994 58.0898C186.958 57.0421 187.709 55.7902 188.244 54.335C188.78 52.8799 189.047 51.2209 189.047 49.3584V44.8184C188.94 43.305 188.645 41.8788 188.163 40.54C187.681 39.1432 187.012 37.9207 186.155 36.873C185.298 35.8253 184.227 35.0098 182.941 34.4277C181.656 33.7875 180.156 33.4678 178.442 33.4678H147.995Z" fill="url(#paint0_linear_3324_1320)"/>
<path d="M29.4378 61.7424H31.2268C31.9858 61.7424 33.2056 61.6836 34.8862 61.5662C36.5668 61.3901 38.4914 61.0965 40.6599 60.6854C42.8827 60.2744 45.1867 59.7166 47.5721 59.012C50.0117 58.2486 52.2887 57.3091 54.403 56.1935V67.2912C52.3429 68.3482 50.0117 69.2877 47.4095 70.1097C44.8614 70.8731 42.2863 71.519 39.6841 72.0474C37.1361 72.5172 34.7236 72.8988 32.4466 73.1924C30.1697 73.4273 28.3264 73.5448 26.9169 73.5448H24.6399C22.5256 73.5448 20.6552 73.1044 19.0288 72.2236C17.4024 71.3428 16.02 70.1978 14.8815 68.7886C13.7973 67.3793 12.957 65.7939 12.3606 64.0324C11.7643 62.2121 11.4661 60.3625 11.4661 58.4835V33.1172H0V20.6982H11.4661V0H22.9322V20.6982H54.403V33.1172H22.9322V51.1731C22.9322 55.1072 23.5556 57.8669 24.8025 59.4523C26.0495 60.979 27.5945 61.7424 29.4378 61.7424Z" fill="white"/>
<defs>
<linearGradient id="paint0_linear_3324_1320" x1="200.374" y1="47.3506" x2="63.3008" y2="47.3506" gradientUnits="userSpaceOnUse">
<stop stop-color="#3755FF"/>
<stop offset="1" stop-color="#B5B6FF"/>
</linearGradient>
</defs>
</svg>
