<svg width="883" height="82" viewBox="0 0 883 82" fill="none" xmlns="http://www.w3.org/2000/svg">
<path d="M-22 38.2358L-26 38.2358L-26 46.2358L-22 46.2358L-22 42.2358L-22 38.2358ZM-22 42.2358L-22 46.2358L166 46.2358L166 42.2358L166 38.2358L-22 38.2358L-22 42.2358Z" fill="white"/>
<path d="M134.771 4.90915L131.958 2.0654L126.271 7.69144L129.084 10.5352L131.928 7.72217L134.771 4.90915ZM165.574 41.7361L168.418 44.5491C169.959 42.9906 169.959 40.4815 168.418 38.923L165.574 41.7361ZM131.928 7.72217L129.084 10.5352L162.73 44.5491L165.574 41.7361L168.418 38.923L134.771 4.90915L131.928 7.72217ZM165.574 41.7361L162.73 38.923L129.084 72.9369L131.928 75.7499L134.771 78.563L168.418 44.5491L165.574 41.7361Z" fill="white"/>
<path d="M871.613 44.0136C871.613 40.7225 870.724 38.078 868.947 36.0798C867.17 34.0817 864.37 33.0826 860.547 33.0826H834.783C833.383 33.0826 831.902 33.1414 830.341 33.2589C828.779 33.3765 827.218 33.6703 825.656 34.1405C824.148 34.5518 822.695 35.2277 821.295 36.168C819.949 37.1083 818.791 38.4012 817.822 40.0467V73.5448H806.434V3.02246H817.822L816.529 30.9669H817.983C818.199 29.4977 818.764 28.1461 819.679 26.9119C820.595 25.619 821.779 24.5318 823.233 23.6502C824.687 22.71 826.329 21.9753 828.16 21.4464C830.044 20.9175 832.037 20.6531 834.137 20.6531H864.909C867.44 20.6531 869.782 21.182 871.936 22.2398C874.143 23.2389 876.055 24.6493 877.67 26.4711C879.339 28.2342 880.632 30.3205 881.547 32.73C882.516 35.0808 883.001 37.6372 883.001 40.3993V73.5448H871.613V44.0136Z" fill="white"/>
<path d="M789.061 44.644C789.061 42.6067 788.739 40.8896 788.097 39.4926C787.454 38.0955 786.651 36.9605 785.687 36.0873C784.723 35.156 783.651 34.4866 782.473 34.0791C781.348 33.6717 780.25 33.4679 779.179 33.4679H747.848C746.348 33.4679 744.929 33.759 743.59 34.3411C742.305 34.9232 741.18 35.7381 740.216 36.7858C739.252 37.8336 738.502 39.056 737.967 40.453C737.431 41.85 737.163 43.3926 737.163 45.0806V49.6209C737.163 51.1343 737.404 52.5896 737.886 53.9866C738.368 55.3836 739.065 56.6351 739.975 57.7411C740.886 58.7888 742.01 59.6328 743.349 60.2731C744.688 60.9134 746.188 61.2336 747.848 61.2336H778.938C779.795 61.2336 780.813 61.0299 781.991 60.6224C783.169 60.1567 784.267 59.4582 785.285 58.5269C786.356 57.5373 787.24 56.3149 787.936 54.8597C788.686 53.3463 789.061 51.5709 789.061 49.5336H800.388V52.6769C800.388 55.5291 799.933 58.2358 799.022 60.797C798.112 63.3582 796.827 65.5702 795.166 67.4328C793.56 69.2955 791.605 70.7799 789.302 71.8858C786.999 72.9918 784.455 73.5448 781.67 73.5448H743.831C741.368 73.5448 739.038 73.05 736.842 72.0605C734.646 71.0127 732.718 69.6157 731.058 67.8694C729.451 66.0649 728.166 63.9694 727.202 61.5828C726.291 59.1963 725.836 56.6642 725.836 53.9866V40.7149C725.836 37.9791 726.291 35.447 727.202 33.1187C728.166 30.7321 729.451 28.6657 731.058 26.9194C732.718 25.1149 734.646 23.7179 736.842 22.7284C739.038 21.6806 741.368 21.1567 743.831 21.1567H781.67C784.455 21.1567 786.999 21.7097 789.302 22.8157C791.605 23.9217 793.56 25.4351 795.166 27.356C796.827 29.2187 798.112 31.4306 799.022 33.9918C799.933 36.553 800.388 39.2888 800.388 42.1993V44.644H789.061Z" fill="white"/>
<path d="M708.506 44.5566C708.506 40.8894 707.546 38.1245 705.625 36.2618C703.704 34.3992 701.063 33.4678 697.702 33.4678H678.574C675.106 33.4678 672.038 33.9044 669.37 34.7775C666.703 35.5924 664.435 37.2514 662.568 39.7544V73.5447H651.283V21.1566H662.568L661.287 31.3723H662.728C662.995 29.8589 663.608 28.4909 664.569 27.2686C665.529 25.988 666.729 24.9111 668.17 24.038C669.611 23.1066 671.238 22.4081 673.052 21.9424C674.919 21.4186 676.893 21.1566 678.974 21.1566H701.863C704.371 21.1566 706.692 21.6805 708.826 22.7283C711.014 23.7178 712.908 25.0857 714.509 26.832C716.163 28.5783 717.443 30.6447 718.35 33.0312C719.31 35.4178 719.791 37.979 719.791 40.7148V73.5447H708.506V44.5566Z" fill="white"/>
<path d="M587.007 50.1448C587.007 53.812 587.968 56.5769 589.888 58.4396C591.809 60.3022 594.477 61.2336 597.892 61.2336H616.939C620.407 61.2336 623.475 60.8261 626.143 60.0112C628.811 59.1381 631.078 57.45 632.946 54.947V21.1567H644.23V73.5448H632.946L634.226 63.3291H632.786C632.572 64.8425 631.985 66.2396 631.025 67.5202C630.064 68.7425 628.837 69.8194 627.343 70.7508C625.903 71.6239 624.249 72.3224 622.381 72.8463C620.567 73.3119 618.62 73.5448 616.539 73.5448H593.65C591.196 73.5448 588.875 73.05 586.687 72.0605C584.499 71.0127 582.579 69.6157 580.925 67.8694C579.324 66.1231 578.044 64.0567 577.083 61.6702C576.176 59.2836 575.723 56.7224 575.723 53.9866V21.1567H587.007V50.1448Z" fill="white"/>
<path d="M568.672 73.5447H556.135L557.333 62.0193H555.895C555.416 64.8133 554.538 66.9962 553.26 68.5678C552.036 70.0812 550.731 71.2163 549.347 71.973C548.016 72.6715 546.739 73.1081 545.514 73.2827C544.29 73.4573 543.465 73.5447 543.039 73.5447H509.9C508.462 73.5447 506.892 73.3118 505.188 72.8462C503.485 72.3223 501.888 71.5364 500.397 70.4887C498.96 69.3827 497.735 67.9566 496.724 66.2103C495.713 64.4059 495.207 62.223 495.207 59.6618L495.127 53.2879C495.127 51.5999 495.367 49.9991 495.846 48.4857C496.378 46.9723 497.203 45.6626 498.321 44.5566C499.439 43.4506 500.93 42.5775 502.793 41.9372C504.656 41.2969 506.945 40.9768 509.66 40.9768H556.774C556.454 38.2409 555.576 35.9126 554.138 33.9917C552.754 32.0708 550.652 31.1103 547.83 31.1103H514.372C512.455 31.1103 510.565 31.1686 508.702 31.285C506.892 31.4014 505.162 31.6633 503.512 32.0708C501.861 32.42 500.317 32.9148 498.88 33.5551C497.496 34.1954 496.245 35.0394 495.127 36.0872V25.9589C497.097 24.2708 499.439 23.0484 502.154 22.2917C504.922 21.535 507.744 21.1566 510.618 21.1566H552.941C555.23 21.1566 557.333 21.6223 559.249 22.5536C561.166 23.485 562.816 24.7947 564.2 26.4827C565.637 28.1708 566.729 30.179 567.474 32.5074C568.272 34.8357 568.672 37.3969 568.672 40.1909V73.5447ZM557.013 50.9305H512.774C510.539 50.9305 508.915 51.3962 507.903 52.3275C506.892 53.2588 506.386 54.6559 506.386 56.5185C506.386 57.3335 506.466 58.1193 506.626 58.876C506.839 59.5745 507.185 60.1857 507.664 60.7096C508.143 61.2335 508.782 61.67 509.58 62.0193C510.432 62.3103 511.497 62.4559 512.774 62.4559H547.271C550.199 62.4559 552.488 61.4954 554.138 59.5745C555.789 57.5954 556.747 54.7141 557.013 50.9305Z" fill="white"/>
<path d="M414.609 73.3683L414.529 10.0745H425.744V61.1151H487.067V73.5447L414.609 73.3683Z" fill="white"/>
<path d="M306.691 21.1567C309.476 21.1568 312.02 21.71 314.323 22.8159C316.211 23.6748 317.864 24.8079 319.284 26.2144C320.784 24.7469 322.484 23.5847 324.385 22.728C326.581 21.6803 328.91 21.1568 331.374 21.1567H369.213C371.998 21.1568 374.542 21.709 376.845 22.8149C379.148 23.8627 381.102 25.3185 382.709 27.1812C384.369 28.9856 385.655 31.1104 386.565 33.5552C387.476 35.9416 387.931 38.4447 387.931 41.064V54.1606C387.931 56.8964 387.476 59.4577 386.565 61.8442C385.655 64.1726 384.369 66.2103 382.709 67.9565C381.102 69.7027 379.148 71.0706 376.845 72.0601C374.542 73.0496 371.998 73.5444 369.213 73.5444H331.374C328.91 73.5444 326.581 73.0496 324.385 72.0601C322.553 71.186 320.908 70.0677 319.449 68.7075C317.993 70.0993 316.285 71.2172 314.323 72.0601C312.02 73.0496 309.476 73.5444 306.691 73.5444H268.853C266.389 73.5444 264.059 73.0496 261.863 72.0601C259.668 71.0123 257.739 69.6158 256.079 67.8696C254.472 66.0652 253.187 63.9691 252.223 61.5825C251.312 59.1962 250.857 56.6642 250.857 53.9868V40.7153C250.857 37.9796 251.312 35.447 252.223 33.1187C253.187 30.7321 254.472 28.6657 256.079 26.9194C257.739 25.115 259.667 23.7176 261.863 22.728C264.059 21.6803 266.389 21.1568 268.853 21.1567H306.691ZM273.03 33.4683C271.584 33.4683 270.191 33.7592 268.853 34.3413C267.567 34.8652 266.416 35.6511 265.398 36.6987C264.434 37.7464 263.657 38.9975 263.068 40.4526C262.479 41.8495 262.185 43.4214 262.185 45.1675V49.6206C262.185 51.2505 262.453 52.7933 262.988 54.2485C263.577 55.6455 264.354 56.8678 265.318 57.9155C266.336 58.9632 267.514 59.7788 268.853 60.3608C270.191 60.9429 271.638 61.2339 273.191 61.2339H303.478C304.977 61.2339 306.37 60.9716 307.655 60.4478C308.941 59.8657 310.065 59.0798 311.029 58.0903C311.993 57.0426 312.744 55.7907 313.279 54.3354C313.315 54.2379 313.345 54.1379 313.379 54.0386V41.0757C313.322 40.8958 313.262 40.7173 313.198 40.5405C312.716 39.1437 312.047 37.9212 311.19 36.8735C310.334 35.8258 309.262 35.0103 307.977 34.4282C306.691 33.788 305.191 33.4683 303.478 33.4683H273.03ZM335.552 33.4673C334.106 33.4673 332.713 33.7582 331.374 34.3403C330.089 34.8642 328.937 35.6501 327.92 36.6978C326.956 37.7455 326.179 38.9974 325.59 40.4526C325.525 40.6055 325.465 40.7605 325.407 40.9175C325.408 40.9663 325.409 41.0151 325.409 41.064V53.9536C325.443 54.0516 325.474 54.1503 325.51 54.2476C326.099 55.6446 326.876 56.8678 327.84 57.9155C328.857 58.963 330.035 59.7778 331.374 60.3599C332.713 60.942 334.16 61.2329 335.713 61.2329H365.999C367.499 61.2329 368.891 60.9716 370.177 60.4478C371.462 59.8657 372.587 59.0789 373.551 58.0894C374.515 57.0416 375.265 55.7906 375.801 54.3354C376.336 52.8803 376.603 51.2214 376.604 49.3589V44.8179C376.496 43.3046 376.202 41.8783 375.72 40.5396C375.238 39.1427 374.569 37.9202 373.712 36.8726C372.855 35.8248 371.783 35.0103 370.498 34.4282C369.213 33.7879 367.713 33.4673 365.999 33.4673H335.552Z" fill="url(#paint0_linear_3491_1191)"/>
<path d="M216.994 61.7423H218.783C219.542 61.7423 220.762 61.6836 222.443 61.5661C224.123 61.39 226.048 61.0964 228.217 60.6854C230.439 60.2743 232.743 59.7165 235.129 59.0119C237.568 58.2486 239.845 57.3091 241.96 56.1934V67.2912C239.9 68.3481 237.568 69.2876 234.966 70.1097C232.418 70.873 229.843 71.5189 227.241 72.0474C224.693 72.5171 222.28 72.8988 220.003 73.1924C217.726 73.4273 215.883 73.5447 214.474 73.5447H212.197C210.082 73.5447 208.212 73.1043 206.585 72.2235C204.959 71.3428 203.577 70.1977 202.438 68.7885C201.354 67.3793 200.514 65.7939 199.917 64.0323C199.321 62.212 199.023 60.3624 199.023 58.4834V33.1171H187.557V20.6982H199.023V-6.10352e-05H210.489V20.6982H241.96V33.1171H210.489V51.173C210.489 55.1071 211.112 57.8669 212.359 59.4523C213.606 60.979 215.151 61.7423 216.994 61.7423Z" fill="white"/>
<defs>
<linearGradient id="paint0_linear_3491_1191" x1="387.931" y1="47.3506" x2="250.857" y2="47.3506" gradientUnits="userSpaceOnUse">
<stop stop-color="#3755FF"/>
<stop offset="1" stop-color="#B5B6FF"/>
</linearGradient>
</defs>
</svg>
