<svg width="648" height="90" viewBox="0 0 648 90" fill="none" xmlns="http://www.w3.org/2000/svg">
<path d="M4 41L2.71797e-05 41.0148L2.71797e-05 49.0148L4 49L4 45L4 41ZM4 45L4 49L275 48L275 44L275 40L4 41L4 45Z" fill="white"/>
<rect x="191" width="457" height="90" rx="45" fill="#273CB5"/>
<g clip-path="url(#clip0_3491_1281)">
<path d="M236.001 77.5924C254.001 77.5924 268.593 63.0002 268.593 44.9998C268.593 26.9994 254.001 12.4072 236.001 12.4072C218 12.4072 203.408 26.9994 203.408 44.9998C203.408 63.0002 218 77.5924 236.001 77.5924Z" fill="#6B81FF"/>
<path d="M236 58.037L249.037 44.9999L236 31.9629" stroke="white" stroke-width="6.51852" stroke-linecap="round" stroke-linejoin="round"/>
<path d="M222.963 45H249.037" stroke="white" stroke-width="6.51852" stroke-linecap="round" stroke-linejoin="round"/>
</g>
<path d="M298.388 62.088C295.392 62.088 292.76 61.43 290.492 60.114C288.224 58.798 286.46 56.936 285.2 54.528C283.968 52.092 283.352 49.278 283.352 46.086C283.352 42.894 283.996 40.094 285.284 37.686C286.572 35.25 288.364 33.374 290.66 32.058C292.956 30.742 295.56 30.084 298.472 30.084C301.692 30.084 304.436 30.812 306.704 32.268C308.972 33.696 310.624 35.726 311.66 38.358C311.688 38.414 311.702 38.498 311.702 38.61C311.702 38.862 311.576 39.016 311.324 39.072L306.83 40.332L306.662 40.374C306.41 40.374 306.242 40.248 306.158 39.996C305.43 38.596 304.408 37.518 303.092 36.762C301.804 36.006 300.292 35.628 298.556 35.628C295.644 35.628 293.362 36.58 291.71 38.484C290.058 40.36 289.232 42.894 289.232 46.086C289.232 49.278 290.058 51.826 291.71 53.73C293.39 55.606 295.672 56.544 298.556 56.544C300.572 56.544 302.28 56.068 303.68 55.116C305.108 54.164 306.158 52.736 306.83 50.832C306.942 50.496 307.166 50.37 307.502 50.454L311.954 51.714C312.29 51.798 312.416 51.98 312.332 52.26C311.492 55.256 309.868 57.65 307.46 59.442C305.052 61.206 302.028 62.088 298.388 62.088ZM317.115 61.5C316.751 61.5 316.569 61.318 316.569 60.954V31.218C316.569 30.854 316.751 30.672 317.115 30.672H321.945C322.253 30.672 322.463 30.798 322.575 31.05L333.243 48.774L343.785 31.05C343.925 30.798 344.135 30.672 344.415 30.672H349.119C349.483 30.672 349.665 30.854 349.665 31.218V60.954C349.665 61.318 349.483 61.5 349.119 61.5H344.751C344.387 61.5 344.205 61.318 344.205 60.954V40.122L335.175 55.242C335.063 55.494 334.853 55.62 334.545 55.62H331.689C331.409 55.62 331.199 55.494 331.059 55.242L322.029 40.332V60.954C322.029 61.318 321.847 61.5 321.483 61.5H317.115ZM369.163 62.088C366.167 62.088 363.535 61.43 361.267 60.114C358.999 58.798 357.235 56.936 355.975 54.528C354.743 52.092 354.127 49.278 354.127 46.086C354.127 42.894 354.771 40.094 356.059 37.686C357.347 35.25 359.139 33.374 361.435 32.058C363.731 30.742 366.335 30.084 369.247 30.084C372.467 30.084 375.211 30.812 377.479 32.268C379.747 33.696 381.399 35.726 382.435 38.358C382.463 38.414 382.477 38.498 382.477 38.61C382.477 38.862 382.351 39.016 382.099 39.072L377.605 40.332L377.437 40.374C377.185 40.374 377.017 40.248 376.933 39.996C376.205 38.596 375.183 37.518 373.867 36.762C372.579 36.006 371.067 35.628 369.331 35.628C366.419 35.628 364.137 36.58 362.485 38.484C360.833 40.36 360.007 42.894 360.007 46.086C360.007 49.278 360.833 51.826 362.485 53.73C364.165 55.606 366.447 56.544 369.331 56.544C371.347 56.544 373.055 56.068 374.455 55.116C375.883 54.164 376.933 52.736 377.605 50.832C377.717 50.496 377.941 50.37 378.277 50.454L382.729 51.714C383.065 51.798 383.191 51.98 383.107 52.26C382.267 55.256 380.643 57.65 378.235 59.442C375.827 61.206 372.803 62.088 369.163 62.088ZM400.982 61.5C400.618 61.5 400.436 61.318 400.436 60.954V38.232L394.808 40.458C394.752 40.486 394.668 40.5 394.556 40.5C394.36 40.5 394.206 40.388 394.094 40.164L393.296 38.652C393.24 38.484 393.212 38.386 393.212 38.358C393.212 38.162 393.296 38.008 393.464 37.896L401.612 30.924C401.78 30.756 402.004 30.672 402.284 30.672H405.56C405.924 30.672 406.106 30.854 406.106 31.218V60.954C406.106 61.318 405.924 61.5 405.56 61.5H400.982ZM415.795 61.5C415.487 61.5 415.333 61.388 415.333 61.164C415.333 61.052 415.375 60.94 415.459 60.828L423.229 50.16C422.193 50.58 421.073 50.79 419.869 50.79C417.993 50.79 416.327 50.37 414.871 49.53C413.415 48.662 412.267 47.458 411.427 45.918C410.615 44.35 410.209 42.572 410.209 40.584C410.209 38.512 410.671 36.692 411.595 35.124C412.547 33.528 413.863 32.296 415.543 31.428C417.251 30.532 419.211 30.084 421.423 30.084C423.607 30.084 425.553 30.546 427.261 31.47C428.969 32.394 430.285 33.682 431.209 35.334C432.161 36.958 432.637 38.806 432.637 40.878C432.637 42.782 432.231 44.7 431.419 46.632C430.607 48.536 429.151 50.93 427.051 53.814L421.717 61.164C421.549 61.388 421.325 61.5 421.045 61.5H415.795ZM421.465 45.876C423.033 45.876 424.307 45.414 425.287 44.49C426.267 43.538 426.757 42.292 426.757 40.752C426.757 39.212 426.267 37.98 425.287 37.056C424.307 36.104 423.033 35.628 421.465 35.628C419.897 35.628 418.623 36.104 417.643 37.056C416.663 37.98 416.173 39.212 416.173 40.752C416.173 42.292 416.663 43.538 417.643 44.49C418.623 45.414 419.897 45.876 421.465 45.876ZM461.256 65.028C460.892 65.028 460.71 64.86 460.71 64.524V28.656C460.71 28.292 460.892 28.11 461.256 28.11H465.54C465.932 28.11 466.128 28.292 466.128 28.656V64.524C466.128 64.86 465.932 65.028 465.54 65.028H461.256ZM438.702 57.09C438.618 57.146 438.492 57.174 438.324 57.174C438.156 57.174 438.016 57.09 437.904 56.922L435.93 53.436C435.846 53.296 435.804 53.184 435.804 53.1C435.804 52.96 435.916 52.82 436.14 52.68C440.704 50.468 443.98 48.2 445.968 45.876C447.956 43.552 448.95 40.808 448.95 37.644V36.804H437.19C436.854 36.804 436.686 36.636 436.686 36.3V32.604C436.686 32.24 436.854 32.058 437.19 32.058H453.822C454.186 32.058 454.368 32.24 454.368 32.604V37.644C454.368 41.676 453.094 45.274 450.546 48.438C447.998 51.574 444.05 54.458 438.702 57.09ZM509.284 28.11C509.676 28.11 509.872 28.292 509.872 28.656V64.524C509.872 64.86 509.676 65.028 509.284 65.028H505.042C504.678 65.028 504.496 64.86 504.496 64.524V28.656C504.496 28.292 504.678 28.11 505.042 28.11H509.284ZM501.094 52.638C501.262 52.75 501.346 52.89 501.346 53.058C501.346 53.198 501.276 53.338 501.136 53.478L498.616 56.418C498.504 56.53 498.364 56.586 498.196 56.586C498.028 56.586 497.874 56.53 497.734 56.418C495.942 54.962 494.374 53.478 493.03 51.966C491.686 50.426 490.664 48.956 489.964 47.556C489.18 49.152 488.074 50.79 486.646 52.47C485.218 54.122 483.608 55.634 481.816 57.006C481.676 57.118 481.508 57.174 481.312 57.174C481.172 57.174 481.046 57.118 480.934 57.006L478.372 54.066C478.26 53.982 478.204 53.842 478.204 53.646C478.204 53.478 478.274 53.338 478.414 53.226C481.158 51.042 483.3 48.648 484.84 46.044C486.38 43.44 487.15 40.542 487.15 37.35V36.72H479.968C479.604 36.72 479.422 36.538 479.422 36.174V32.478C479.422 32.114 479.604 31.932 479.968 31.932H499.204C499.596 31.932 499.792 32.114 499.792 32.478V36.174C499.792 36.538 499.596 36.72 499.204 36.72H492.484V37.35C492.484 42.922 495.354 48.018 501.094 52.638ZM540.315 49.824V28.656C540.315 28.292 540.497 28.11 540.861 28.11H545.103C545.495 28.11 545.691 28.292 545.691 28.656V56.334C545.691 56.698 545.495 56.88 545.103 56.88H540.861C540.497 56.88 540.315 56.698 540.315 56.334V54.024H532.377C532.181 54.024 532.041 53.982 531.957 53.898C531.873 53.814 531.831 53.674 531.831 53.478V50.37C531.831 50.174 531.873 50.034 531.957 49.95C532.041 49.866 532.181 49.824 532.377 49.824H540.315ZM526.035 42.432C522.843 42.432 520.393 41.83 518.685 40.626C516.977 39.422 516.123 37.812 516.123 35.796C516.123 33.752 516.977 32.128 518.685 30.924C520.393 29.72 522.843 29.118 526.035 29.118C529.255 29.118 531.705 29.72 533.385 30.924C535.093 32.128 535.947 33.752 535.947 35.796C535.947 37.812 535.093 39.422 533.385 40.626C531.705 41.83 529.255 42.432 526.035 42.432ZM526.035 33.234C524.523 33.234 523.361 33.472 522.549 33.948C521.765 34.396 521.373 35.012 521.373 35.796C521.373 36.552 521.765 37.168 522.549 37.644C523.361 38.092 524.523 38.316 526.035 38.316C527.547 38.316 528.709 38.092 529.521 37.644C530.333 37.168 530.739 36.552 530.739 35.796C530.739 35.012 530.333 34.396 529.521 33.948C528.709 33.472 527.547 33.234 526.035 33.234ZM522.927 48.396H522.003H514.275C513.911 48.396 513.729 48.228 513.729 47.892V44.448C513.729 44.084 513.911 43.902 514.275 43.902H520.953C527.757 43.902 533.301 43.524 537.585 42.768H537.753C538.005 42.768 538.159 42.922 538.215 43.23L538.677 46.506V46.59C538.677 46.814 538.495 46.968 538.131 47.052C535.107 47.64 531.803 48.046 528.219 48.27V52.806C528.219 53.142 528.051 53.31 527.715 53.31H523.515C523.123 53.31 522.927 53.142 522.927 52.806V48.396ZM546.111 60.114C546.503 60.114 546.699 60.31 546.699 60.702V64.356C546.699 64.72 546.503 64.902 546.111 64.902H520.785C520.421 64.902 520.239 64.72 520.239 64.356V55.41C520.239 55.074 520.421 54.906 520.785 54.906H524.859C525.055 54.906 525.223 54.948 525.363 55.032C525.531 55.116 525.615 55.242 525.615 55.41V60.114H546.111ZM585.037 42.348C585.429 42.348 585.625 42.53 585.625 42.894V46.59C585.625 46.926 585.429 47.094 585.037 47.094H579.703V64.524C579.703 64.86 579.507 65.028 579.115 65.028H574.831C574.495 65.028 574.327 64.86 574.327 64.524V28.656C574.327 28.292 574.495 28.11 574.831 28.11H579.115C579.507 28.11 579.703 28.292 579.703 28.656V42.348H585.037ZM571.135 34.074C571.499 34.074 571.681 34.256 571.681 34.62V38.19C571.681 38.554 571.499 38.736 571.135 38.736H550.009C549.673 38.736 549.505 38.554 549.505 38.19V34.62C549.505 34.256 549.673 34.074 550.009 34.074H557.905V29.748C557.905 29.412 558.101 29.244 558.493 29.244H562.735C563.099 29.244 563.281 29.412 563.281 29.748V34.074H571.135ZM560.635 40.878C563.603 40.878 565.955 41.69 567.691 43.314C569.455 44.938 570.337 47.136 570.337 49.908C570.337 52.68 569.455 54.864 567.691 56.46C565.955 58.056 563.603 58.854 560.635 58.854C557.695 58.854 555.357 58.056 553.621 56.46C551.885 54.864 551.017 52.68 551.017 49.908C551.017 47.136 551.885 44.938 553.621 43.314C555.357 41.69 557.695 40.878 560.635 40.878ZM560.677 54.444C562.021 54.444 563.085 54.024 563.869 53.184C564.681 52.344 565.087 51.252 565.087 49.908C565.087 48.536 564.695 47.43 563.911 46.59C563.127 45.722 562.049 45.288 560.677 45.288C559.305 45.288 558.227 45.722 557.443 46.59C556.659 47.43 556.267 48.536 556.267 49.908C556.267 51.252 556.659 52.344 557.443 53.184C558.255 54.024 559.333 54.444 560.677 54.444ZM612.497 65.028C612.133 65.028 611.951 64.86 611.951 64.524V28.656C611.951 28.292 612.133 28.11 612.497 28.11H616.781C617.173 28.11 617.369 28.292 617.369 28.656V64.524C617.369 64.86 617.173 65.028 616.781 65.028H612.497ZM589.943 57.09C589.859 57.146 589.733 57.174 589.565 57.174C589.397 57.174 589.257 57.09 589.145 56.922L587.171 53.436C587.087 53.296 587.045 53.184 587.045 53.1C587.045 52.96 587.157 52.82 587.381 52.68C591.945 50.468 595.221 48.2 597.209 45.876C599.197 43.552 600.191 40.808 600.191 37.644V36.804H588.431C588.095 36.804 587.927 36.636 587.927 36.3V32.604C587.927 32.24 588.095 32.058 588.431 32.058H605.063C605.427 32.058 605.609 32.24 605.609 32.604V37.644C605.609 41.676 604.335 45.274 601.787 48.438C599.239 51.574 595.291 54.458 589.943 57.09Z" fill="white"/>
<defs>
<clipPath id="clip0_3491_1281">
<rect width="66" height="66" fill="white" transform="translate(203 12)"/>
</clipPath>
</defs>
</svg>
