<svg width="171" height="80" viewBox="0 0 171 80" fill="none" xmlns="http://www.w3.org/2000/svg">
<path d="M-22 36.1709L-26 36.1709L-26 44.1709L-22 44.1709L-22 40.1709L-22 36.1709ZM-22 40.1709L-22 44.1709L166 44.1709L166 40.1709L166 36.1709L-22 36.1709L-22 40.1709Z" fill="white"/>
<path d="M134.771 2.84421L131.958 0.000455856L126.271 5.6265L129.084 8.47025L131.928 5.65723L134.771 2.84421ZM165.574 39.6711L168.418 42.4841C169.959 40.9256 169.959 38.4166 168.418 36.8581L165.574 39.6711ZM131.928 5.65723L129.084 8.47025L162.73 42.4841L165.574 39.6711L168.418 36.8581L134.771 2.84421L131.928 5.65723ZM165.574 39.6711L162.73 36.8581L129.084 70.872L131.928 73.685L134.771 76.498L168.418 42.4841L165.574 39.6711Z" fill="white"/>
</svg>
