<svg width="1440" height="538" viewBox="0 0 1440 538" fill="none" xmlns="http://www.w3.org/2000/svg">
<path d="M1820.56 519.733C1809.3 561.018 1753.36 586.69 1668.13 596.364C1544.49 610.398 1359.24 590.763 1159.43 536.282C821.884 444.247 570.613 287.618 598.199 186.443C625.577 86.0323 917.323 77.9754 1251.68 167.823C1254.23 168.507 1397.67 204.123 1400.22 204.819" stroke="white"/>
<g filter="url(#filter0_iiii_3583_1107)">
<path d="M720 551.622C720 504.593 701.377 437.143 665.193 393.695C629.01 350.246 575.975 310.767 509.117 277.513C442.259 244.258 362.886 217.879 275.532 199.882C188.178 181.885 4.55175 172.622 -90 172.622V551.622H720Z" fill="#0D0F14"/>
</g>
<g filter="url(#filter1_iiii_3583_1107)">
<path d="M720 551.622C720 504.593 738.623 437.143 774.807 393.695C810.99 350.246 864.025 310.767 930.883 277.513C997.741 244.258 1077.11 217.879 1164.47 199.882C1251.82 181.885 1435.45 172.622 1530 172.622V551.622H720Z" fill="#0D0F14"/>
</g>
<path d="M785.028 390.094C881.781 442.18 1018.8 497.939 1159.43 536.282C1359.24 590.763 1544.49 610.398 1668.13 596.364C1753.36 586.691 1809.31 561.019 1820.56 519.734" stroke="white"/>
<rect x="93" y="167.047" width="22" height="22" fill="white"/>
<rect x="365" y="425.047" width="16" height="16" fill="white"/>
<path d="M102.936 288.047C102.768 288.047 102.656 287.972 102.6 287.823L97.728 274.243L97.7 274.131C97.7 273.982 97.7933 273.907 97.98 273.907H99.968C100.136 273.907 100.248 273.982 100.304 274.131L103.608 284.155L107.556 274.131C107.612 273.982 107.724 273.907 107.892 273.907H108.928C109.077 273.907 109.189 273.982 109.264 274.131L113.1 284.043L116.488 274.131C116.544 273.982 116.656 273.907 116.824 273.907H118.644C118.887 273.907 118.971 274.019 118.896 274.243L114.024 287.823C113.968 287.972 113.856 288.047 113.688 288.047H112.652C112.484 288.047 112.372 287.972 112.316 287.823L108.368 277.631L104.308 287.823C104.252 287.972 104.14 288.047 103.972 288.047H102.936ZM121.265 288.047C121.06 288.047 120.957 287.944 120.957 287.739V267.327C120.957 267.14 121.06 267.047 121.265 267.047H122.917C123.104 267.047 123.197 267.14 123.197 267.327V276.399C123.701 275.503 124.401 274.822 125.297 274.355C126.212 273.87 127.173 273.627 128.181 273.627C129.768 273.627 131.009 274.094 131.905 275.027C132.801 275.942 133.249 277.22 133.249 278.863V287.739C133.249 287.944 133.156 288.047 132.969 288.047H131.317C131.112 288.047 131.009 287.944 131.009 287.739V279.787C131.009 278.424 130.729 277.407 130.169 276.735C129.609 276.044 128.751 275.699 127.593 275.699C126.884 275.699 126.193 275.886 125.521 276.259C124.849 276.614 124.289 277.155 123.841 277.883C123.412 278.611 123.197 279.507 123.197 280.571V287.739C123.197 287.944 123.104 288.047 122.917 288.047H121.265ZM142.596 288.327C141.196 288.327 139.973 288.01 138.928 287.375C137.882 286.74 137.08 285.872 136.52 284.771C135.96 283.651 135.68 282.382 135.68 280.963C135.68 279.544 135.96 278.284 136.52 277.183C137.098 276.063 137.91 275.195 138.956 274.579C140.001 273.944 141.214 273.627 142.596 273.627C144.649 273.627 146.236 274.336 147.356 275.755C148.494 277.155 149.045 279.031 149.008 281.383C149.008 281.588 148.905 281.691 148.7 281.691H138.032C138.162 283.11 138.629 284.23 139.432 285.051C140.253 285.872 141.308 286.283 142.596 286.283C144.537 286.283 145.909 285.49 146.712 283.903C146.786 283.754 146.917 283.707 147.104 283.763L148.504 284.267C148.597 284.304 148.653 284.36 148.672 284.435C148.709 284.491 148.709 284.556 148.672 284.631C148.074 285.863 147.253 286.787 146.208 287.403C145.181 288.019 143.977 288.327 142.596 288.327ZM146.6 279.927C146.506 278.639 146.105 277.603 145.396 276.819C144.686 276.035 143.753 275.643 142.596 275.643C141.382 275.643 140.365 276.035 139.544 276.819C138.722 277.584 138.228 278.62 138.06 279.927H146.6ZM151.605 288.047C151.399 288.047 151.297 287.944 151.297 287.739V274.187C151.297 274 151.399 273.907 151.605 273.907H153.033C153.238 273.907 153.341 274 153.341 274.187L153.453 276.511C153.938 275.578 154.647 274.868 155.581 274.383C156.514 273.879 157.494 273.627 158.521 273.627C160.107 273.627 161.349 274.094 162.245 275.027C163.141 275.942 163.589 277.22 163.589 278.863V287.739C163.589 287.944 163.495 288.047 163.309 288.047H161.657C161.451 288.047 161.349 287.944 161.349 287.739V279.787C161.349 278.424 161.069 277.407 160.509 276.735C159.949 276.044 159.09 275.699 157.933 275.699C157.223 275.699 156.533 275.886 155.861 276.259C155.189 276.614 154.629 277.155 154.181 277.883C153.751 278.611 153.537 279.507 153.537 280.571V287.739C153.537 287.944 153.443 288.047 153.257 288.047H151.605Z" fill="white"/>
<path d="M98.988 446.047C98.7827 446.047 98.68 445.944 98.68 445.739V445.235C98.68 445.123 98.7267 445.002 98.82 444.871L103.804 439.355C105.279 437.731 106.389 436.424 107.136 435.435C107.883 434.446 108.387 433.606 108.648 432.915C108.909 432.224 109.04 431.506 109.04 430.759C109.04 429.714 108.676 428.892 107.948 428.295C107.239 427.698 106.305 427.399 105.148 427.399C104.065 427.399 103.141 427.679 102.376 428.239C101.611 428.799 101.051 429.611 100.696 430.675C100.64 430.862 100.519 430.927 100.332 430.871L98.68 430.423C98.4747 430.386 98.4 430.264 98.456 430.059C98.96 428.491 99.8 427.278 100.976 426.419C102.152 425.542 103.571 425.103 105.232 425.103C106.445 425.103 107.519 425.336 108.452 425.803C109.404 426.251 110.141 426.886 110.664 427.707C111.187 428.528 111.448 429.48 111.448 430.563C111.448 431.515 111.299 432.42 111 433.279C110.72 434.138 110.151 435.155 109.292 436.331C108.433 437.507 107.164 438.982 105.484 440.755L102.6 443.835H111.98C112.167 443.835 112.26 443.928 112.26 444.115V445.739C112.26 445.944 112.167 446.047 111.98 446.047H98.988ZM122.296 446.439C120.71 446.439 119.347 446.019 118.208 445.179C117.07 444.32 116.192 443.098 115.576 441.511C114.979 439.906 114.68 437.992 114.68 435.771C114.68 433.55 114.979 431.646 115.576 430.059C116.192 428.454 117.07 427.231 118.208 426.391C119.347 425.532 120.71 425.103 122.296 425.103C123.883 425.103 125.246 425.532 126.384 426.391C127.523 427.231 128.391 428.454 128.988 430.059C129.604 431.646 129.912 433.55 129.912 435.771C129.912 437.992 129.604 439.906 128.988 441.511C128.391 443.098 127.523 444.32 126.384 445.179C125.246 446.019 123.883 446.439 122.296 446.439ZM122.296 444.143C123.958 444.143 125.236 443.434 126.132 442.015C127.028 440.578 127.476 438.496 127.476 435.771C127.476 433.046 127.028 430.974 126.132 429.555C125.236 428.118 123.958 427.399 122.296 427.399C120.635 427.399 119.356 428.118 118.46 429.555C117.564 430.974 117.116 433.046 117.116 435.771C117.116 438.496 117.564 440.578 118.46 442.015C119.356 443.434 120.635 444.143 122.296 444.143ZM132.609 446.047C132.403 446.047 132.301 445.944 132.301 445.739V445.235C132.301 445.123 132.347 445.002 132.441 444.871L137.425 439.355C138.899 437.731 140.01 436.424 140.757 435.435C141.503 434.446 142.007 433.606 142.269 432.915C142.53 432.224 142.661 431.506 142.661 430.759C142.661 429.714 142.297 428.892 141.569 428.295C140.859 427.698 139.926 427.399 138.769 427.399C137.686 427.399 136.762 427.679 135.997 428.239C135.231 428.799 134.671 429.611 134.317 430.675C134.261 430.862 134.139 430.927 133.953 430.871L132.301 430.423C132.095 430.386 132.021 430.264 132.077 430.059C132.581 428.491 133.421 427.278 134.597 426.419C135.773 425.542 137.191 425.103 138.853 425.103C140.066 425.103 141.139 425.336 142.073 425.803C143.025 426.251 143.762 426.886 144.285 427.707C144.807 428.528 145.069 429.48 145.069 430.563C145.069 431.515 144.919 432.42 144.621 433.279C144.341 434.138 143.771 435.155 142.913 436.331C142.054 437.507 140.785 438.982 139.105 440.755L136.221 443.835H145.601C145.787 443.835 145.881 443.928 145.881 444.115V445.739C145.881 445.944 145.787 446.047 145.601 446.047H132.609ZM155.049 446.439C153.668 446.439 152.445 446.15 151.381 445.571C150.317 444.974 149.487 444.152 148.889 443.107C148.311 442.043 148.021 440.83 148.021 439.467C148.021 438.235 148.273 437.031 148.777 435.855C149.281 434.66 150.177 433.13 151.465 431.263L155.441 425.663C155.535 425.551 155.656 425.495 155.805 425.495H157.849C157.961 425.495 158.036 425.532 158.073 425.607C158.111 425.682 158.092 425.766 158.017 425.859L152.333 433.783C153.248 433.111 154.331 432.775 155.581 432.775C156.851 432.775 157.98 433.064 158.969 433.643C159.959 434.203 160.724 434.996 161.265 436.023C161.825 437.05 162.105 438.226 162.105 439.551C162.105 440.914 161.807 442.118 161.209 443.163C160.631 444.19 159.809 444.992 158.745 445.571C157.681 446.15 156.449 446.439 155.049 446.439ZM155.049 444.143C156.431 444.143 157.541 443.723 158.381 442.883C159.221 442.043 159.641 440.914 159.641 439.495C159.641 438.076 159.221 436.956 158.381 436.135C157.56 435.295 156.449 434.875 155.049 434.875C153.649 434.875 152.529 435.295 151.689 436.135C150.849 436.956 150.429 438.076 150.429 439.495C150.429 440.914 150.849 442.043 151.689 442.883C152.529 443.723 153.649 444.143 155.049 444.143ZM165.384 446.467C164.917 446.467 164.525 446.318 164.208 446.019C163.909 445.72 163.76 445.338 163.76 444.871C163.76 444.404 163.909 444.022 164.208 443.723C164.525 443.424 164.917 443.275 165.384 443.275C165.851 443.275 166.233 443.424 166.532 443.723C166.849 444.022 167.008 444.404 167.008 444.871C167.008 445.338 166.849 445.72 166.532 446.019C166.233 446.318 165.851 446.467 165.384 446.467ZM176.112 446.439C174.526 446.439 173.163 446.019 172.024 445.179C170.886 444.32 170.008 443.098 169.392 441.511C168.795 439.906 168.496 437.992 168.496 435.771C168.496 433.55 168.795 431.646 169.392 430.059C170.008 428.454 170.886 427.231 172.024 426.391C173.163 425.532 174.526 425.103 176.112 425.103C177.699 425.103 179.062 425.532 180.2 426.391C181.339 427.231 182.207 428.454 182.804 430.059C183.42 431.646 183.728 433.55 183.728 435.771C183.728 437.992 183.42 439.906 182.804 441.511C182.207 443.098 181.339 444.32 180.2 445.179C179.062 446.019 177.699 446.439 176.112 446.439ZM176.112 444.143C177.774 444.143 179.052 443.434 179.948 442.015C180.844 440.578 181.292 438.496 181.292 435.771C181.292 433.046 180.844 430.974 179.948 429.555C179.052 428.118 177.774 427.399 176.112 427.399C174.451 427.399 173.172 428.118 172.276 429.555C171.38 430.974 170.932 433.046 170.932 435.771C170.932 438.496 171.38 440.578 172.276 442.015C173.172 443.434 174.451 444.143 176.112 444.143ZM196.175 446.047C195.97 446.047 195.867 445.944 195.867 445.739V441.539H185.535C185.33 441.539 185.227 441.436 185.227 441.231V440.671C185.227 440.522 185.264 440.4 185.339 440.307L196.315 425.663C196.408 425.551 196.53 425.495 196.679 425.495H197.911C198.116 425.495 198.219 425.588 198.219 425.775V439.327H201.047C201.252 439.327 201.355 439.42 201.355 439.607V441.231C201.355 441.436 201.252 441.539 201.047 441.539H198.219V445.739C198.219 445.944 198.116 446.047 197.911 446.047H196.175ZM195.867 429.555L188.587 439.327H195.867V429.555ZM204.536 446.467C204.069 446.467 203.677 446.318 203.36 446.019C203.061 445.72 202.912 445.338 202.912 444.871C202.912 444.404 203.061 444.022 203.36 443.723C203.677 443.424 204.069 443.275 204.536 443.275C205.003 443.275 205.385 443.424 205.684 443.723C206.001 444.022 206.16 444.404 206.16 444.871C206.16 445.338 206.001 445.72 205.684 446.019C205.385 446.318 205.003 446.467 204.536 446.467ZM210.411 446.047C210.224 446.047 210.131 445.944 210.131 445.739V428.771L206.155 431.067C206.08 431.104 206.024 431.123 205.987 431.123C205.912 431.123 205.837 431.058 205.763 430.927L205.399 430.311C205.361 430.236 205.343 430.18 205.343 430.143C205.343 430.05 205.389 429.975 205.483 429.919L210.579 425.635C210.672 425.542 210.793 425.495 210.943 425.495H212.175C212.361 425.495 212.455 425.588 212.455 425.775V445.739C212.455 445.944 212.361 446.047 212.175 446.047H210.411ZM223.356 446.439C221.938 446.439 220.668 446.187 219.548 445.683C218.428 445.179 217.551 444.47 216.916 443.555C216.3 442.64 215.992 441.595 215.992 440.419C215.992 439.206 216.366 438.132 217.112 437.199C217.878 436.247 218.895 435.575 220.164 435.183C219.082 434.81 218.214 434.203 217.56 433.363C216.926 432.504 216.608 431.552 216.608 430.507C216.608 429.462 216.898 428.528 217.476 427.707C218.055 426.886 218.858 426.251 219.884 425.803C220.911 425.336 222.068 425.103 223.356 425.103C224.663 425.103 225.82 425.336 226.828 425.803C227.855 426.251 228.658 426.886 229.236 427.707C229.815 428.528 230.104 429.462 230.104 430.507C230.104 431.552 229.778 432.504 229.124 433.363C228.49 434.203 227.631 434.81 226.548 435.183C227.818 435.575 228.826 436.247 229.572 437.199C230.338 438.132 230.72 439.206 230.72 440.419C230.72 441.595 230.403 442.64 229.768 443.555C229.152 444.451 228.284 445.16 227.164 445.683C226.044 446.187 224.775 446.439 223.356 446.439ZM223.356 434.343C224.626 434.343 225.662 434.007 226.464 433.335C227.286 432.663 227.696 431.804 227.696 430.759C227.696 429.751 227.286 428.911 226.464 428.239C225.662 427.567 224.626 427.231 223.356 427.231C222.087 427.231 221.042 427.567 220.22 428.239C219.418 428.911 219.016 429.751 219.016 430.759C219.016 431.804 219.418 432.663 220.22 433.335C221.042 434.007 222.087 434.343 223.356 434.343ZM223.356 444.283C224.308 444.283 225.158 444.115 225.904 443.779C226.67 443.424 227.258 442.939 227.668 442.323C228.098 441.688 228.312 440.979 228.312 440.195C228.312 439.43 228.098 438.748 227.668 438.151C227.258 437.535 226.67 437.059 225.904 436.723C225.158 436.368 224.308 436.191 223.356 436.191C222.404 436.191 221.546 436.368 220.78 436.723C220.034 437.059 219.446 437.535 219.016 438.151C218.606 438.748 218.4 439.43 218.4 440.195C218.4 440.979 218.606 441.688 219.016 442.323C219.446 442.939 220.034 443.424 220.78 443.779C221.546 444.115 222.404 444.283 223.356 444.283ZM234.528 446.467C234.061 446.467 233.669 446.318 233.352 446.019C233.053 445.72 232.904 445.338 232.904 444.871C232.904 444.404 233.053 444.022 233.352 443.723C233.669 443.424 234.061 443.275 234.528 443.275C234.994 443.275 235.377 443.424 235.676 443.723C235.993 444.022 236.152 444.404 236.152 444.871C236.152 445.338 235.993 445.72 235.676 446.019C235.377 446.318 234.994 446.467 234.528 446.467ZM253.878 438.179C253.038 438.179 252.329 438.058 251.75 437.815C251.19 437.572 250.583 437.218 249.93 436.751C249.501 436.434 249.127 436.2 248.81 436.051C248.511 435.902 248.175 435.827 247.802 435.827C247.335 435.827 246.887 435.986 246.458 436.303C246.029 436.62 245.646 437.096 245.31 437.731C245.291 437.787 245.245 437.815 245.17 437.815C245.151 437.815 245.058 437.787 244.89 437.731L243.49 437.143C243.341 437.087 243.294 436.966 243.35 436.779C243.817 435.771 244.442 435.006 245.226 434.483C246.01 433.942 246.813 433.671 247.634 433.671C248.474 433.671 249.174 433.792 249.734 434.035C250.313 434.278 250.929 434.632 251.582 435.099C252.011 435.416 252.375 435.65 252.674 435.799C252.991 435.948 253.337 436.023 253.71 436.023C254.177 436.023 254.625 435.864 255.054 435.547C255.483 435.23 255.866 434.754 256.202 434.119C256.239 434.063 256.286 434.035 256.342 434.035C256.361 434.035 256.454 434.063 256.622 434.119L258.022 434.707C258.171 434.763 258.218 434.884 258.162 435.071C257.695 436.079 257.07 436.854 256.286 437.395C255.502 437.918 254.699 438.179 253.878 438.179ZM272.841 446.439C271.255 446.439 269.892 446.019 268.753 445.179C267.615 444.32 266.737 443.098 266.121 441.511C265.524 439.906 265.225 437.992 265.225 435.771C265.225 433.55 265.524 431.646 266.121 430.059C266.737 428.454 267.615 427.231 268.753 426.391C269.892 425.532 271.255 425.103 272.841 425.103C274.428 425.103 275.791 425.532 276.929 426.391C278.068 427.231 278.936 428.454 279.533 430.059C280.149 431.646 280.457 433.55 280.457 435.771C280.457 437.992 280.149 439.906 279.533 441.511C278.936 443.098 278.068 444.32 276.929 445.179C275.791 446.019 274.428 446.439 272.841 446.439ZM272.841 444.143C274.503 444.143 275.781 443.434 276.677 442.015C277.573 440.578 278.021 438.496 278.021 435.771C278.021 433.046 277.573 430.974 276.677 429.555C275.781 428.118 274.503 427.399 272.841 427.399C271.18 427.399 269.901 428.118 269.005 429.555C268.109 430.974 267.661 433.046 267.661 435.771C267.661 438.496 268.109 440.578 269.005 442.015C269.901 443.434 271.18 444.143 272.841 444.143ZM292.904 446.047C292.699 446.047 292.596 445.944 292.596 445.739V441.539H282.264C282.059 441.539 281.956 441.436 281.956 441.231V440.671C281.956 440.522 281.994 440.4 282.068 440.307L293.044 425.663C293.138 425.551 293.259 425.495 293.408 425.495H294.64C294.846 425.495 294.948 425.588 294.948 425.775V439.327H297.776C297.982 439.327 298.084 439.42 298.084 439.607V441.231C298.084 441.436 297.982 441.539 297.776 441.539H294.948V445.739C294.948 445.944 294.846 446.047 294.64 446.047H292.904ZM292.596 429.555L285.316 439.327H292.596V429.555ZM301.265 446.467C300.798 446.467 300.406 446.318 300.089 446.019C299.79 445.72 299.641 445.338 299.641 444.871C299.641 444.404 299.79 444.022 300.089 443.723C300.406 443.424 300.798 443.275 301.265 443.275C301.732 443.275 302.114 443.424 302.413 443.723C302.73 444.022 302.889 444.404 302.889 444.871C302.889 445.338 302.73 445.72 302.413 446.019C302.114 446.318 301.732 446.467 301.265 446.467ZM305.673 446.047C305.468 446.047 305.365 445.944 305.365 445.739V445.235C305.365 445.123 305.412 445.002 305.505 444.871L310.489 439.355C311.964 437.731 313.074 436.424 313.821 435.435C314.568 434.446 315.072 433.606 315.333 432.915C315.594 432.224 315.725 431.506 315.725 430.759C315.725 429.714 315.361 428.892 314.633 428.295C313.924 427.698 312.99 427.399 311.833 427.399C310.75 427.399 309.826 427.679 309.061 428.239C308.296 428.799 307.736 429.611 307.381 430.675C307.325 430.862 307.204 430.927 307.017 430.871L305.365 430.423C305.16 430.386 305.085 430.264 305.141 430.059C305.645 428.491 306.485 427.278 307.661 426.419C308.837 425.542 310.256 425.103 311.917 425.103C313.13 425.103 314.204 425.336 315.137 425.803C316.089 426.251 316.826 426.886 317.349 427.707C317.872 428.528 318.133 429.48 318.133 430.563C318.133 431.515 317.984 432.42 317.685 433.279C317.405 434.138 316.836 435.155 315.977 436.331C315.118 437.507 313.849 438.982 312.169 440.755L309.285 443.835H318.665C318.852 443.835 318.945 443.928 318.945 444.115V445.739C318.945 445.944 318.852 446.047 318.665 446.047H305.673ZM330.443 446.047C330.237 446.047 330.135 445.944 330.135 445.739V441.539H319.803C319.597 441.539 319.495 441.436 319.495 441.231V440.671C319.495 440.522 319.532 440.4 319.607 440.307L330.583 425.663C330.676 425.551 330.797 425.495 330.947 425.495H332.179C332.384 425.495 332.487 425.588 332.487 425.775V439.327H335.315C335.52 439.327 335.623 439.42 335.623 439.607V441.231C335.623 441.436 335.52 441.539 335.315 441.539H332.487V445.739C332.487 445.944 332.384 446.047 332.179 446.047H330.443ZM330.135 429.555L322.855 439.327H330.135V429.555ZM338.804 446.467C338.337 446.467 337.945 446.318 337.628 446.019C337.329 445.72 337.18 445.338 337.18 444.871C337.18 444.404 337.329 444.022 337.628 443.723C337.945 443.424 338.337 443.275 338.804 443.275C339.27 443.275 339.653 443.424 339.952 443.723C340.269 444.022 340.428 444.404 340.428 444.871C340.428 445.338 340.269 445.72 339.952 446.019C339.653 446.318 339.27 446.467 338.804 446.467Z" fill="white"/>
<path d="M132 328.047V406.047" stroke="white"/>
<path d="M380 433.047C415.802 433.864 528 476.047 543 549.047" stroke="white"/>
<g filter="url(#filter2_d_3583_1107)">
<path d="M1068.91 491.412L1069.96 498.53L1073.06 492.038L1071.97 499.149L1076.84 493.858L1073.7 500.331L1079.92 496.713L1075.01 501.971L1082.02 500.347L1075.78 503.924L1082.95 504.439L1075.93 506.017L1082.64 508.623L1075.47 508.063L1081.1 512.53L1074.42 509.88L1078.49 515.811L1072.88 511.307L1075.02 518.175L1070.99 512.217L1071.01 519.412L1068.91 512.53L1066.81 519.412L1066.84 512.217L1062.8 518.175L1064.95 511.307L1059.34 515.811L1063.41 509.88L1056.72 512.53L1062.36 508.063L1055.19 508.623L1061.89 506.017L1054.87 504.439L1062.05 503.924L1055.81 500.347L1062.82 501.971L1057.91 496.713L1064.12 500.331L1060.98 493.858L1065.86 499.149L1064.76 492.038L1067.86 498.53L1068.91 491.412Z" fill="white"/>
</g>
<g filter="url(#filter3_d_3583_1107)">
<path fill-rule="evenodd" clip-rule="evenodd" d="M412.43 237.023L408.76 232.797L414.151 228.113L417.825 232.335L419.65 227.046L426.404 229.372L424.584 234.663L430.079 233.599L431.442 240.609L425.949 241.679L429.619 245.904L424.228 250.588L420.554 246.367L418.729 251.656L411.975 249.33L413.794 244.039L408.3 245.103L406.936 238.092L412.43 237.023Z" fill="white"/>
</g>
<defs>
<filter id="filter0_iiii_3583_1107" x="-90" y="172.622" width="810" height="509" filterUnits="userSpaceOnUse" color-interpolation-filters="sRGB">
<feFlood flood-opacity="0" result="BackgroundImageFix"/>
<feBlend mode="normal" in="SourceGraphic" in2="BackgroundImageFix" result="shape"/>
<feColorMatrix in="SourceAlpha" type="matrix" values="0 0 0 0 0 0 0 0 0 0 0 0 0 0 0 0 0 0 127 0" result="hardAlpha"/>
<feOffset dy="202"/>
<feGaussianBlur stdDeviation="65"/>
<feComposite in2="hardAlpha" operator="arithmetic" k2="-1" k3="1"/>
<feColorMatrix type="matrix" values="0 0 0 0 0.00392157 0 0 0 0 0.12549 0 0 0 0 0.458824 0 0 0 0.7 0"/>
<feBlend mode="lighten" in2="shape" result="effect1_innerShadow_3583_1107"/>
<feColorMatrix in="SourceAlpha" type="matrix" values="0 0 0 0 0 0 0 0 0 0 0 0 0 0 0 0 0 0 127 0" result="hardAlpha"/>
<feOffset dy="66"/>
<feGaussianBlur stdDeviation="50"/>
<feComposite in2="hardAlpha" operator="arithmetic" k2="-1" k3="1"/>
<feColorMatrix type="matrix" values="0 0 0 0 0.0196078 0 0 0 0 0.415686 0 0 0 0 0.803922 0 0 0 0.6 0"/>
<feBlend mode="screen" in2="effect1_innerShadow_3583_1107" result="effect2_innerShadow_3583_1107"/>
<feColorMatrix in="SourceAlpha" type="matrix" values="0 0 0 0 0 0 0 0 0 0 0 0 0 0 0 0 0 0 127 0" result="hardAlpha"/>
<feOffset dy="94"/>
<feGaussianBlur stdDeviation="37.5"/>
<feComposite in2="hardAlpha" operator="arithmetic" k2="-1" k3="1"/>
<feColorMatrix type="matrix" values="0 0 0 0 0.36366 0 0 0 0 0.32549 0 0 0 0 0.898039 0 0 0 0.8 0"/>
<feBlend mode="normal" in2="effect2_innerShadow_3583_1107" result="effect3_innerShadow_3583_1107"/>
<feColorMatrix in="SourceAlpha" type="matrix" values="0 0 0 0 0 0 0 0 0 0 0 0 0 0 0 0 0 0 127 0" result="hardAlpha"/>
<feOffset dy="22"/>
<feGaussianBlur stdDeviation="32.5"/>
<feComposite in2="hardAlpha" operator="arithmetic" k2="-1" k3="1"/>
<feColorMatrix type="matrix" values="0 0 0 0 0.792157 0 0 0 0 0.768627 0 0 0 0 0.858824 0 0 0 0.8 0"/>
<feBlend mode="screen" in2="effect3_innerShadow_3583_1107" result="effect4_innerShadow_3583_1107"/>
</filter>
<filter id="filter1_iiii_3583_1107" x="720" y="172.622" width="810" height="509" filterUnits="userSpaceOnUse" color-interpolation-filters="sRGB">
<feFlood flood-opacity="0" result="BackgroundImageFix"/>
<feBlend mode="normal" in="SourceGraphic" in2="BackgroundImageFix" result="shape"/>
<feColorMatrix in="SourceAlpha" type="matrix" values="0 0 0 0 0 0 0 0 0 0 0 0 0 0 0 0 0 0 127 0" result="hardAlpha"/>
<feOffset dy="202"/>
<feGaussianBlur stdDeviation="65"/>
<feComposite in2="hardAlpha" operator="arithmetic" k2="-1" k3="1"/>
<feColorMatrix type="matrix" values="0 0 0 0 0.00392157 0 0 0 0 0.12549 0 0 0 0 0.458824 0 0 0 0.7 0"/>
<feBlend mode="lighten" in2="shape" result="effect1_innerShadow_3583_1107"/>
<feColorMatrix in="SourceAlpha" type="matrix" values="0 0 0 0 0 0 0 0 0 0 0 0 0 0 0 0 0 0 127 0" result="hardAlpha"/>
<feOffset dy="66"/>
<feGaussianBlur stdDeviation="50"/>
<feComposite in2="hardAlpha" operator="arithmetic" k2="-1" k3="1"/>
<feColorMatrix type="matrix" values="0 0 0 0 0.0196078 0 0 0 0 0.415686 0 0 0 0 0.803922 0 0 0 0.6 0"/>
<feBlend mode="screen" in2="effect1_innerShadow_3583_1107" result="effect2_innerShadow_3583_1107"/>
<feColorMatrix in="SourceAlpha" type="matrix" values="0 0 0 0 0 0 0 0 0 0 0 0 0 0 0 0 0 0 127 0" result="hardAlpha"/>
<feOffset dy="94"/>
<feGaussianBlur stdDeviation="37.5"/>
<feComposite in2="hardAlpha" operator="arithmetic" k2="-1" k3="1"/>
<feColorMatrix type="matrix" values="0 0 0 0 0.36366 0 0 0 0 0.32549 0 0 0 0 0.898039 0 0 0 0.8 0"/>
<feBlend mode="normal" in2="effect2_innerShadow_3583_1107" result="effect3_innerShadow_3583_1107"/>
<feColorMatrix in="SourceAlpha" type="matrix" values="0 0 0 0 0 0 0 0 0 0 0 0 0 0 0 0 0 0 127 0" result="hardAlpha"/>
<feOffset dy="22"/>
<feGaussianBlur stdDeviation="32.5"/>
<feComposite in2="hardAlpha" operator="arithmetic" k2="-1" k3="1"/>
<feColorMatrix type="matrix" values="0 0 0 0 0.792157 0 0 0 0 0.768627 0 0 0 0 0.858824 0 0 0 0.8 0"/>
<feBlend mode="screen" in2="effect3_innerShadow_3583_1107" result="effect4_innerShadow_3583_1107"/>
</filter>
<filter id="filter2_d_3583_1107" x="1034.87" y="475.412" width="68.0781" height="68" filterUnits="userSpaceOnUse" color-interpolation-filters="sRGB">
<feFlood flood-opacity="0" result="BackgroundImageFix"/>
<feColorMatrix in="SourceAlpha" type="matrix" values="0 0 0 0 0 0 0 0 0 0 0 0 0 0 0 0 0 0 127 0" result="hardAlpha"/>
<feOffset dy="4"/>
<feGaussianBlur stdDeviation="10"/>
<feComposite in2="hardAlpha" operator="out"/>
<feColorMatrix type="matrix" values="0 0 0 0 1 0 0 0 0 1 0 0 0 0 1 0 0 0 1 0"/>
<feBlend mode="normal" in2="BackgroundImageFix" result="effect1_dropShadow_3583_1107"/>
<feBlend mode="normal" in="SourceGraphic" in2="effect1_dropShadow_3583_1107" result="shape"/>
</filter>
<filter id="filter3_d_3583_1107" x="386.936" y="211.045" width="64.5059" height="64.6104" filterUnits="userSpaceOnUse" color-interpolation-filters="sRGB">
<feFlood flood-opacity="0" result="BackgroundImageFix"/>
<feColorMatrix in="SourceAlpha" type="matrix" values="0 0 0 0 0 0 0 0 0 0 0 0 0 0 0 0 0 0 127 0" result="hardAlpha"/>
<feOffset dy="4"/>
<feGaussianBlur stdDeviation="10"/>
<feComposite in2="hardAlpha" operator="out"/>
<feColorMatrix type="matrix" values="0 0 0 0 1 0 0 0 0 1 0 0 0 0 1 0 0 0 1 0"/>
<feBlend mode="normal" in2="BackgroundImageFix" result="effect1_dropShadow_3583_1107"/>
<feBlend mode="normal" in="SourceGraphic" in2="effect1_dropShadow_3583_1107" result="shape"/>
</filter>
</defs>
</svg>
