<svg width="222" height="160" viewBox="0 0 222 160" fill="none" xmlns="http://www.w3.org/2000/svg">
<path d="M90.5463 48.2428C97.6118 45.9998 102.923 45.8984 104.431 48.4645C107.067 52.9463 97.1015 63.8703 82.1728 72.863C67.2442 81.8558 53.0048 85.5134 50.3695 81.0315C48.8369 78.4244 51.5657 73.6398 57.0549 68.3228L57.4055 69.7971C55.4457 72.3987 54.6852 74.6118 55.5103 76.0159C57.5638 79.5071 68.6557 76.6579 80.2851 69.6521C91.9145 62.6464 99.6761 54.1377 97.6245 50.6461C96.8327 49.3002 93.7714 49.07 90.7791 49.4843L90.5463 48.2428Z" fill="white"/>
<g filter="url(#filter0_ii_3583_1160)">
<path d="M59.507 11.0524C92.062 4.94834 119.972 8.10374 121.847 18.1005C122.489 21.5249 119.994 25.3081 115.125 29.0473C98.3308 41.9466 80.767 55.3853 73.7606 74.8474C73.5913 75.3176 73.82 75.8288 74.2118 76.1391C74.9229 76.7022 75.442 77.5141 75.6224 78.4756C75.8409 79.6413 75.5161 80.7828 74.8268 81.6398C74.4743 82.0781 74.3761 82.7194 74.7363 83.1513C88.3046 99.422 110.049 105.603 130.683 112.023C136.218 113.745 139.681 116.302 140.3 119.605C142.175 129.602 117.303 142.655 84.7478 148.759C52.1922 154.864 24.2808 151.708 22.4064 141.711C21.7644 138.286 24.2603 134.504 29.1284 130.765C46.1638 117.68 63.9896 104.041 70.7871 84.1231C70.9809 83.5556 70.6037 82.9596 70.0658 82.6944C69.0021 82.17 68.1896 81.1688 67.9543 79.9134C67.7567 78.8592 68.0029 77.8245 68.5615 77.0022C68.8623 76.5593 68.9173 75.9522 68.5632 75.5506C54.9442 60.1052 33.7287 54.0597 13.5702 47.7878C8.03596 46.066 4.5729 43.5093 3.95345 40.2056C2.07965 30.2086 26.9518 17.1565 59.507 11.0524Z" fill="url(#paint0_linear_3583_1160)"/>
</g>
<circle cx="68.7349" cy="62.9003" r="2.92557" transform="rotate(-10.6197 68.7349 62.9003)" fill="url(#paint1_linear_3583_1160)"/>
<circle cx="74.8432" cy="95.4889" r="2.92557" transform="rotate(169.38 74.8432 95.4889)" fill="url(#paint2_linear_3583_1160)"/>
<circle cx="66.3966" cy="50.4398" r="3.90077" transform="rotate(-10.6197 66.3966 50.4398)" fill="url(#paint3_linear_3583_1160)"/>
<circle cx="77.1796" cy="107.949" r="3.90077" transform="rotate(169.38 77.1796 107.949)" fill="url(#paint4_linear_3583_1160)"/>
<path d="M50.3601 80.9777C53.0227 85.5417 67.3544 81.8495 82.3696 72.7319L80.488 69.5317C68.7912 76.6347 57.6017 79.4413 55.527 75.8862C54.6933 74.4563 56.5511 71.9225 58.5194 69.2802L57.0672 68.0642C51.5501 73.4616 48.8116 78.3228 50.3601 80.9777Z" fill="white"/>
<path d="M142 23.4995H221.5V52.9995C221.5 65.4259 211.426 75.4995 199 75.4995H130.5V34.9995C130.5 28.6482 135.649 23.4995 142 23.4995Z" fill="#3755FF"/>
<path d="M142 23.4995H221.5V52.9995C221.5 65.4259 211.426 75.4995 199 75.4995H130.5V34.9995C130.5 28.6482 135.649 23.4995 142 23.4995Z" stroke="white"/>
<path d="M156.828 59.9995C156.623 59.9995 156.52 59.8968 156.52 59.6915V39.7275C156.52 39.5408 156.623 39.4475 156.828 39.4475H162.792C165.368 39.4475 167.291 40.0448 168.56 41.2395C169.848 42.4155 170.492 44.0862 170.492 46.2515C170.492 48.4355 169.857 50.1155 168.588 51.2915C167.319 52.4675 165.387 53.0555 162.792 53.0555H158.872V59.6915C158.872 59.8968 158.769 59.9995 158.564 59.9995H156.828ZM162.652 50.8715C164.5 50.8715 165.863 50.4888 166.74 49.7235C167.617 48.9582 168.056 47.7822 168.056 46.1955C168.056 44.6835 167.617 43.5448 166.74 42.7795C165.863 42.0142 164.5 41.6315 162.652 41.6315H158.872V50.8715H162.652ZM174.069 59.9995C173.863 59.9995 173.761 59.8968 173.761 59.6915V39.7275C173.761 39.5408 173.863 39.4475 174.069 39.4475H175.945C176.113 39.4475 176.225 39.5128 176.281 39.6435L184.345 53.2515L192.353 39.6435C192.427 39.5128 192.539 39.4475 192.689 39.4475H194.509C194.714 39.4475 194.817 39.5408 194.817 39.7275V59.6915C194.817 59.8968 194.714 59.9995 194.509 59.9995H192.829C192.642 59.9995 192.549 59.8968 192.549 59.6915V43.4515L185.213 55.8835C185.157 56.0142 185.045 56.0795 184.877 56.0795H183.701C183.551 56.0795 183.439 56.0142 183.365 55.8835L176.029 43.4795V59.6915C176.029 59.8968 175.935 59.9995 175.749 59.9995H174.069Z" fill="white"/>
<defs>
<filter id="filter0_ii_3583_1160" x="1.88168" y="3.01232" width="138.519" height="148.858" filterUnits="userSpaceOnUse" color-interpolation-filters="sRGB">
<feFlood flood-opacity="0" result="BackgroundImageFix"/>
<feBlend mode="normal" in="SourceGraphic" in2="BackgroundImageFix" result="shape"/>
<feColorMatrix in="SourceAlpha" type="matrix" values="0 0 0 0 0 0 0 0 0 0 0 0 0 0 0 0 0 0 127 0" result="hardAlpha"/>
<feOffset dy="-4.92958"/>
<feGaussianBlur stdDeviation="9.85916"/>
<feComposite in2="hardAlpha" operator="arithmetic" k2="-1" k3="1"/>
<feColorMatrix type="matrix" values="0 0 0 0 1 0 0 0 0 1 0 0 0 0 1 0 0 0 0.7 0"/>
<feBlend mode="normal" in2="shape" result="effect1_innerShadow_3583_1160"/>
<feColorMatrix in="SourceAlpha" type="matrix" values="0 0 0 0 0 0 0 0 0 0 0 0 0 0 0 0 0 0 127 0" result="hardAlpha"/>
<feOffset dx="-1.97183"/>
<feGaussianBlur stdDeviation="1.97183"/>
<feComposite in2="hardAlpha" operator="arithmetic" k2="-1" k3="1"/>
<feColorMatrix type="matrix" values="0 0 0 0 0.027451 0 0 0 0 0.25098 0 0 0 0 0.964706 0 0 0 0.25 0"/>
<feBlend mode="normal" in2="effect1_innerShadow_3583_1160" result="effect2_innerShadow_3583_1160"/>
</filter>
<linearGradient id="paint0_linear_3583_1160" x1="27.372" y1="5.15963" x2="110.779" y2="147.494" gradientUnits="userSpaceOnUse">
<stop stop-color="#C1CAFF"/>
<stop offset="1" stop-color="#6B81FF"/>
</linearGradient>
<linearGradient id="paint1_linear_3583_1160" x1="68.7349" y1="65.8259" x2="68.7349" y2="59.9747" gradientUnits="userSpaceOnUse">
<stop stop-color="white"/>
<stop offset="1" stop-color="white" stop-opacity="0"/>
</linearGradient>
<linearGradient id="paint2_linear_3583_1160" x1="74.8432" y1="98.4144" x2="74.8432" y2="92.5633" gradientUnits="userSpaceOnUse">
<stop stop-color="white"/>
<stop offset="1" stop-color="white" stop-opacity="0"/>
</linearGradient>
<linearGradient id="paint3_linear_3583_1160" x1="66.3966" y1="54.3406" x2="66.3966" y2="46.539" gradientUnits="userSpaceOnUse">
<stop stop-color="white"/>
<stop offset="1" stop-color="white" stop-opacity="0"/>
</linearGradient>
<linearGradient id="paint4_linear_3583_1160" x1="77.1796" y1="111.85" x2="77.1796" y2="104.049" gradientUnits="userSpaceOnUse">
<stop stop-color="white"/>
<stop offset="1" stop-color="white" stop-opacity="0"/>
</linearGradient>
</defs>
</svg>
