<svg width="1335" height="995" viewBox="0 0 1335 995" fill="none" xmlns="http://www.w3.org/2000/svg">
<path d="M328.465 465.269C330.398 465.71 332.332 466.154 334.269 466.6L334.045 467.573C335.981 468.019 337.919 468.468 339.859 468.92L340.085 467.946C342.026 468.398 343.97 468.853 345.915 469.31L345.915 469.309L345.686 470.282C347.631 470.739 349.577 471.199 351.525 471.662L351.755 470.69C353.691 471.149 355.63 471.612 357.57 472.077L357.337 473.048C359.259 473.509 361.183 473.972 363.109 474.438L363.343 473.468C365.27 473.934 367.198 474.402 369.128 474.873L369.129 474.873L368.892 475.845C370.821 476.316 372.753 476.79 374.685 477.267L374.925 476.297C376.859 476.774 378.795 477.253 380.732 477.736L380.491 478.705C382.427 479.187 384.366 479.671 386.306 480.158L386.55 479.189L386.549 479.189C388.484 479.675 390.421 480.165 392.36 480.657L392.115 481.624C394.031 482.11 395.949 482.598 397.868 483.089L398.115 482.122C400.035 482.613 401.956 483.106 403.88 483.602L403.63 484.57C405.553 485.066 407.477 485.564 409.402 486.065L409.654 485.097L409.653 485.097C411.58 485.598 413.508 486.103 415.437 486.61L415.184 487.576C417.112 488.082 419.043 488.591 420.975 489.102L421.23 488.137C423.163 488.649 425.096 489.163 427.031 489.68L427.032 489.679L426.774 490.644C428.686 491.155 430.6 491.668 432.515 492.183L432.775 491.219C434.688 491.734 436.602 492.253 438.518 492.773L438.257 493.736C440.172 494.256 442.088 494.778 444.006 495.303L444.269 494.34C446.188 494.866 448.108 495.392 450.029 495.923L449.763 496.886C451.684 497.416 453.605 497.949 455.528 498.484L455.797 497.52L455.796 497.52C457.719 498.055 459.644 498.594 461.57 499.134L461.301 500.096C462.263 500.366 463.227 500.636 464.191 500.907C465.154 501.179 466.117 501.451 467.079 501.723L467.35 500.761C469.275 501.305 471.198 501.85 473.119 502.398L472.845 503.36C474.765 503.906 476.682 504.455 478.597 505.004L478.872 504.044C480.787 504.594 482.7 505.146 484.61 505.699L484.334 506.658C486.244 507.211 488.152 507.766 490.057 508.321L490.335 507.363C492.24 507.919 494.144 508.475 496.045 509.034L495.765 509.993C497.667 510.552 499.567 511.112 501.465 511.675L501.747 510.717C503.668 511.286 505.586 511.857 507.502 512.429L507.217 513.386C509.132 513.957 511.044 514.531 512.953 515.105L513.24 514.148C515.15 514.723 517.058 515.299 518.963 515.876L518.674 516.833C520.578 517.41 522.48 517.989 524.378 518.569L524.669 517.613C526.568 518.193 528.465 518.775 530.359 519.358L530.067 520.313C531.96 520.895 533.851 521.479 535.739 522.065L536.033 521.111C537.944 521.703 539.852 522.296 541.757 522.891L541.459 523.845C543.368 524.441 545.274 525.04 547.178 525.639L547.477 524.686C549.381 525.286 551.282 525.887 553.181 526.489L552.88 527.441C554.778 528.043 556.674 528.646 558.566 529.251L558.869 528.299C560.762 528.903 562.651 529.51 564.538 530.118L564.232 531.069C566.118 531.676 568.001 532.285 569.881 532.895L570.189 531.944C572.086 532.56 573.981 533.176 575.873 533.794L575.563 534.744C577.466 535.366 579.367 535.99 581.264 536.614L581.575 535.665C583.473 536.29 585.368 536.916 587.259 537.543L586.946 538.492C588.836 539.119 590.724 539.747 592.609 540.377L592.924 539.43C594.809 540.06 596.692 540.69 598.57 541.323L598.252 542.269C600.13 542.901 602.005 543.535 603.876 544.169L604.197 543.223C606.083 543.863 607.966 544.504 609.845 545.146L609.523 546.092C611.419 546.74 613.313 547.389 615.203 548.039L615.527 547.094C617.417 547.745 619.304 548.397 621.188 549.05L620.861 549.994C622.744 550.646 624.624 551.3 626.5 551.955L626.828 551.013C628.704 551.668 630.578 552.324 632.447 552.982L632.117 553.925C633.985 554.582 635.851 555.241 637.712 555.901L638.045 554.959C639.922 555.624 641.795 556.291 643.664 556.958L643.329 557.898C645.218 558.573 647.104 559.248 648.985 559.925L649.322 558.985C651.204 559.662 653.082 560.34 654.957 561.019L654.617 561.959C656.491 562.638 658.361 563.318 660.227 564L660.569 563.061C662.435 563.742 664.298 564.425 666.157 565.108L665.813 566.046C667.671 566.73 669.526 567.414 671.376 568.1L671.723 567.163C673.593 567.856 675.459 568.55 677.32 569.245L676.973 570.181C678.852 570.882 680.727 571.585 682.598 572.288L682.949 571.353C684.821 572.057 686.689 572.763 688.553 573.469L688.2 574.403C690.062 575.109 691.922 575.815 693.776 576.523L694.133 575.59C695.988 576.298 697.839 577.008 699.685 577.718L699.327 578.65C701.173 579.36 703.015 580.071 704.852 580.783L705.213 579.852C707.08 580.575 708.942 581.298 710.799 582.024L710.437 582.955C712.305 583.685 714.17 584.414 716.03 585.146L716.394 584.217C718.254 584.948 720.11 585.681 721.962 586.414L721.594 587.344C723.444 588.077 725.291 588.811 727.132 589.546L727.501 588.618C729.343 589.354 731.18 590.091 733.013 590.829L732.641 591.755C734.474 592.492 736.303 593.232 738.127 593.971L738.502 593.045C740.368 593.801 742.229 594.559 744.085 595.318L743.708 596.243C745.563 597.001 747.413 597.76 749.258 598.52L749.638 597.596C751.484 598.356 753.325 599.118 755.161 599.88L754.78 600.803C756.615 601.564 758.445 602.327 760.27 603.09L760.656 602.168C762.482 602.932 764.302 603.697 766.117 604.463L765.73 605.384C767.568 606.158 769.4 606.933 771.227 607.709L771.616 606.79C773.467 607.577 775.313 608.364 777.153 609.152L776.761 610.07C778.6 610.858 780.434 611.646 782.262 612.436L782.657 611.519C784.486 612.309 786.309 613.099 788.127 613.89L787.729 614.806C789.546 615.597 791.358 616.389 793.164 617.181L793.564 616.267C795.375 617.062 797.181 617.857 798.981 618.653L798.578 619.566C800.421 620.382 802.259 621.198 804.09 622.015L804.496 621.103C806.329 621.92 808.155 622.738 809.976 623.557L809.566 624.468C811.385 625.286 813.199 626.105 815.006 626.925L815.418 626.015C817.226 626.835 819.028 627.657 820.824 628.478L820.409 629.386C822.204 630.207 823.993 631.028 825.776 631.851L826.193 630.945C828.02 631.787 829.84 632.629 831.653 633.473L831.232 634.379C833.054 635.227 834.87 636.074 836.678 636.923L837.102 636.019C838.911 636.868 840.714 637.719 842.51 638.569L842.084 639.472C843.878 640.322 845.667 641.172 847.448 642.023L847.879 641.121C849.661 641.972 851.436 642.825 853.205 643.678L852.772 644.577C854.579 645.448 856.38 646.32 858.173 647.192L858.609 646.294C860.419 647.174 862.222 648.054 864.017 648.936L863.578 649.834C865.372 650.714 867.159 651.596 868.939 652.477L869.381 651.582C871.162 652.465 872.936 653.347 874.702 654.23L874.255 655.124C876.02 656.006 877.778 656.889 879.527 657.772L879.976 656.881C881.771 657.787 883.559 658.694 885.339 659.601L884.886 660.491C886.679 661.405 888.464 662.319 890.24 663.233L890.697 662.345C892.475 663.261 894.244 664.176 896.006 665.092L895.545 665.978C897.305 666.893 899.057 667.809 900.801 668.725L901.264 667.84C903.009 668.756 904.745 669.673 906.474 670.59L906.006 671.473C907.793 672.421 909.572 673.369 911.341 674.317L911.812 673.438C913.585 674.388 915.349 675.339 917.104 676.29L916.629 677.168C918.382 678.118 920.126 679.069 921.861 680.019L922.341 679.144C924.078 680.095 925.805 681.045 927.523 681.997L927.039 682.871C928.778 683.834 930.508 684.797 932.227 685.76L932.715 684.889C934.481 685.878 936.237 686.867 937.982 687.855L937.491 688.725C939.235 689.712 940.969 690.701 942.692 691.688L943.189 690.822C944.913 691.81 946.628 692.799 948.332 693.787L947.832 694.651C949.535 695.639 951.228 696.627 952.91 697.614L953.415 696.753C955.162 697.778 956.897 698.803 958.621 699.828L958.112 700.687C959.842 701.715 961.562 702.743 963.269 703.771L963.784 702.916C965.494 703.945 967.191 704.974 968.877 706.003L968.358 706.855C970.043 707.882 971.716 708.91 973.377 709.936L973.902 709.086C975.611 710.143 977.309 711.199 978.994 712.255L978.465 713.101C980.177 714.174 981.876 715.247 983.562 716.318L984.097 715.475C985.785 716.547 987.459 717.62 989.121 718.691L988.58 719.531C990.24 720.601 991.887 721.671 993.52 722.74L994.067 721.904C995.746 723.002 997.41 724.1 999.061 725.197L998.509 726.03C1000.19 727.15 1001.87 728.269 1003.52 729.387L1004.08 728.559C1005.74 729.679 1007.38 730.797 1009.01 731.915L1008.44 732.739C1010.07 733.856 1011.68 734.971 1013.28 736.085L1013.85 735.267C1015.5 736.421 1017.14 737.574 1018.76 738.726L1018.18 739.54C1019.83 740.711 1021.46 741.881 1023.08 743.049L1023.66 742.241C1025.28 743.412 1026.88 744.581 1028.46 745.749L1027.87 746.552C1029.45 747.718 1031.02 748.882 1032.56 750.045L1033.16 749.247C1034.79 750.475 1036.41 751.702 1038 752.927L1037.4 753.719C1038.99 754.945 1040.57 756.17 1042.13 757.392L1042.74 756.607C1044.3 757.832 1045.84 759.056 1047.37 760.277L1046.74 761.054C1048.3 762.308 1049.84 763.56 1051.36 764.809L1051.99 764.037C1053.57 765.329 1055.12 766.62 1056.64 767.908L1056 768.67C1057.52 769.955 1059.02 771.237 1060.5 772.517L1061.16 771.762C1062.65 773.059 1064.13 774.355 1065.58 775.647L1064.92 776.392C1066.44 777.751 1067.94 779.108 1069.42 780.462L1070.09 779.725C1071.57 781.082 1073.02 782.436 1074.45 783.786L1073.76 784.511C1075.19 785.866 1076.6 787.217 1077.97 788.564L1078.67 787.851C1080.14 789.291 1081.58 790.726 1082.99 792.158L1082.27 792.859C1083.68 794.286 1085.05 795.709 1086.39 797.127L1087.12 796.442C1088.48 797.888 1089.81 799.329 1091.12 800.766L1090.38 801.436C1091.75 802.953 1093.09 804.466 1094.39 805.972L1095.14 805.32C1096.45 806.833 1097.72 808.34 1098.95 809.841L1098.17 810.473C1099.45 812.033 1100.69 813.586 1101.88 815.132L1102.67 814.522C1103.92 816.133 1105.12 817.736 1106.28 819.332L1105.47 819.918C1106.62 821.514 1107.73 823.102 1108.8 824.683L1109.63 824.125C1110.78 825.841 1111.88 827.549 1112.93 829.248L1112.09 829.772C1113.13 831.459 1114.12 833.136 1115.05 834.804L1115.92 834.316C1116.92 836.107 1117.87 837.887 1118.75 839.657L1117.85 840.101C1118.74 841.887 1119.56 843.661 1120.32 845.422L1121.23 845.028C1122.04 846.904 1122.78 848.767 1123.44 850.617L1122.5 850.952C1123.17 852.827 1123.76 854.686 1124.28 856.529L1125.24 856.261C1125.79 858.225 1126.25 860.173 1126.62 862.104L1125.64 862.293C1126.02 864.231 1126.31 866.15 1126.5 868.049L1127.49 867.947C1127.7 869.968 1127.81 871.968 1127.81 873.948L1126.81 873.95C1126.82 875.912 1126.72 877.852 1126.52 879.769L1127.51 879.874C1127.3 881.863 1126.99 883.829 1126.56 885.771L1125.58 885.555C1125.37 886.508 1125.13 887.455 1124.87 888.396C1124.6 889.337 1124.31 890.269 1123.99 891.192L1124.94 891.517C1124.29 893.398 1123.54 895.241 1122.68 897.047L1121.77 896.618C1120.95 898.358 1120.02 900.064 1118.99 901.735L1119.84 902.258C1118.8 903.945 1117.67 905.594 1116.44 907.209L1115.64 906.605C1114.49 908.123 1113.24 909.612 1111.91 911.069L1112.65 911.742C1111.32 913.193 1109.91 914.615 1108.42 916.004L1107.74 915.272C1106.33 916.576 1104.86 917.853 1103.31 919.103L1103.93 919.879C1102.41 921.112 1100.81 922.319 1099.14 923.498L1098.56 922.683C1097 923.79 1095.37 924.874 1093.68 925.934L1094.21 926.78C1092.54 927.831 1090.81 928.859 1089.02 929.863L1088.53 928.993C1086.86 929.928 1085.14 930.843 1083.37 931.738L1083.82 932.629C1082.04 933.53 1080.21 934.412 1078.33 935.272L1077.92 934.364C1076.18 935.157 1074.41 935.933 1072.59 936.691L1072.97 937.614C1071.15 938.372 1069.29 939.113 1067.39 939.837L1067.03 938.904C1065.21 939.599 1063.34 940.279 1061.44 940.942L1061.77 941.885C1059.93 942.524 1058.07 943.148 1056.16 943.757L1055.86 942.806C1053.96 943.413 1052.03 944.006 1050.07 944.583L1050.35 945.541C1048.49 946.088 1046.6 946.622 1044.68 947.143L1044.42 946.178C1042.54 946.689 1040.62 947.188 1038.68 947.673L1038.92 948.643C1036.98 949.13 1035 949.603 1033 950.065L1032.77 949.091C1030.89 949.523 1028.99 949.944 1027.07 950.353L1027.27 951.33C1025.35 951.738 1023.41 952.136 1021.44 952.523L1021.25 951.541C1019.28 951.926 1017.3 952.3 1015.28 952.663L1015.46 953.646C1013.55 953.991 1011.61 954.327 1009.66 954.652L1009.5 953.666C1007.57 953.986 1005.62 954.297 1003.65 954.598L1003.8 955.585C1001.82 955.887 999.829 956.18 997.813 956.462L997.675 955.473C995.728 955.745 993.761 956.009 991.775 956.264L991.902 957.254C989.967 957.502 988.015 957.742 986.045 957.973L985.928 956.98C983.962 957.21 981.978 957.433 979.976 957.646L980.081 958.639C978.081 958.852 976.064 959.057 974.03 959.253L973.935 958.258C972.009 958.443 970.068 958.62 968.111 958.79L968.197 959.785C966.237 959.955 964.262 960.119 962.271 960.274L962.195 959.277C960.208 959.432 958.205 959.578 956.188 959.717L956.256 960.714C954.272 960.851 952.274 960.98 950.261 961.102L950.201 960.105C948.258 960.223 946.301 960.333 944.331 960.437L944.383 961.436C942.41 961.539 940.425 961.637 938.426 961.727L938.382 960.728C936.386 960.818 934.377 960.902 932.354 960.978L932.391 961.976C930.41 962.051 928.418 962.119 926.413 962.18L926.383 961.18C924.431 961.24 922.468 961.293 920.494 961.34L920.517 962.34C918.54 962.387 916.552 962.428 914.552 962.462L914.536 961.463C912.539 961.497 910.53 961.525 908.51 961.547L908.52 962.546C906.531 962.568 904.532 962.583 902.522 962.592L902.518 961.593C900.565 961.602 898.602 961.605 896.629 961.603L896.627 962.602C894.652 962.6 892.666 962.591 890.671 962.577L890.68 961.578C888.686 961.564 886.682 961.544 884.669 961.519L884.656 962.518C882.65 962.492 880.635 962.461 878.61 962.424L878.628 961.425C876.678 961.39 874.719 961.349 872.751 961.303L872.727 962.303C870.757 962.257 868.779 962.205 866.791 962.148L866.821 961.149C864.835 961.093 862.84 961.031 860.837 960.964L860.802 961.962C858.797 961.895 856.783 961.822 854.761 961.745L854.8 960.746C852.831 960.671 850.852 960.59 848.866 960.504L848.822 961.503C846.86 961.418 844.89 961.328 842.913 961.233L842.962 960.235C840.985 960.141 839.001 960.041 837.009 959.937L836.956 960.935C834.963 960.83 832.962 960.721 830.953 960.607L831.011 959.61C829.007 959.496 826.995 959.377 824.975 959.253L824.914 960.251C822.961 960.131 821.001 960.007 819.035 959.879L819.102 958.881C817.137 958.752 815.164 958.62 813.185 958.482L813.115 959.479C811.134 959.341 809.147 959.199 807.153 959.052L807.228 958.056C805.235 957.909 803.235 957.757 801.229 957.601L801.15 958.599C799.159 958.444 797.161 958.284 795.157 958.12L795.238 957.125C793.285 956.965 791.325 956.801 789.359 956.633L789.274 957.63C787.306 957.462 785.333 957.29 783.353 957.113L783.444 956.117C781.466 955.941 779.48 955.761 777.49 955.576L777.397 956.57C775.406 956.385 773.408 956.196 771.404 956.003L771.5 955.008C769.516 954.817 767.526 954.621 765.53 954.421L765.429 955.415C763.475 955.219 761.516 955.021 759.551 954.817L759.655 953.822C757.691 953.618 755.722 953.411 753.747 953.199L753.64 954.193C751.664 953.981 749.683 953.766 747.696 953.547L747.806 952.553C745.821 952.334 743.83 952.11 741.834 951.883L741.72 952.876C739.732 952.649 737.74 952.419 735.742 952.185L735.859 951.192C733.909 950.963 731.955 950.731 729.995 950.495L729.874 951.487C727.914 951.251 725.948 951.01 723.978 950.766L724.102 949.775C722.133 949.531 720.158 949.283 718.179 949.032L718.052 950.024C716.072 949.773 714.087 949.517 712.097 949.258L712.227 948.267C710.238 948.009 708.245 947.746 706.247 947.48L706.114 948.472C704.163 948.212 702.208 947.947 700.248 947.68L700.384 946.69C698.43 946.424 696.472 946.154 694.509 945.881L694.371 946.87C692.407 946.597 690.439 946.319 688.466 946.039L688.608 945.05C686.636 944.769 684.66 944.485 682.68 944.198L682.536 945.187C680.555 944.899 678.569 944.608 676.58 944.313L676.727 943.324C674.764 943.033 672.796 942.739 670.825 942.441L670.675 943.429C668.726 943.134 666.774 942.837 664.817 942.536L664.971 941.548C663.016 941.247 661.056 940.942 659.093 940.634L658.938 941.621C656.974 941.313 655.006 941.004 653.034 940.689L653.193 939.701C651.222 939.387 649.247 939.069 647.268 938.747L647.107 939.734C645.128 939.413 643.145 939.089 641.159 938.761L641.323 937.773C639.381 937.453 637.435 937.129 635.487 936.802L635.32 937.787C633.372 937.459 631.42 937.13 629.465 936.796L629.634 935.811C627.679 935.478 625.722 935.141 623.761 934.801L623.589 935.786C621.627 935.446 619.661 935.102 617.692 934.756L617.867 933.772C615.899 933.426 613.928 933.077 611.953 932.724L611.776 933.708C609.813 933.357 607.846 933.002 605.877 932.645L606.056 931.662C604.117 931.311 602.174 930.956 600.229 930.599L600.048 931.581C598.102 931.224 596.152 930.864 594.2 930.5L594.384 929.517C592.432 929.153 590.477 928.786 588.52 928.416L588.334 929.398C586.376 929.028 584.414 928.655 582.45 928.279L582.638 927.297C580.675 926.921 578.709 926.542 576.739 926.16L576.547 927.141C574.597 926.762 572.643 926.38 570.686 925.995L570.879 925.015C568.943 924.634 567.004 924.251 565.062 923.864L564.866 924.845C562.924 924.458 560.978 924.068 559.03 923.675L559.229 922.695C557.282 922.303 555.331 921.908 553.378 921.51L553.178 922.489C551.224 922.09 549.268 921.688 547.309 921.284L547.512 920.305C545.554 919.901 543.594 919.494 541.63 919.083L541.425 920.061C539.482 919.655 537.537 919.247 535.589 918.835L535.796 917.857C533.864 917.449 531.929 917.037 529.991 916.623L529.781 917.6C527.843 917.186 525.903 916.769 523.96 916.349L524.172 915.372C522.23 914.952 520.285 914.529 518.339 914.104L518.125 915.08C516.177 914.655 514.227 914.227 512.274 913.795L512.492 912.818C510.54 912.387 508.586 911.954 506.63 911.517L506.411 912.492C504.473 912.059 502.532 911.623 500.589 911.185L500.81 910.21C498.883 909.775 496.953 909.337 495.021 908.897L494.798 909.871L494.798 909.872C492.865 909.431 490.93 908.986 488.993 908.54L489.219 907.566C487.283 907.12 485.344 906.672 483.404 906.22L483.177 907.193C481.236 906.741 479.293 906.287 477.348 905.83L477.577 904.856C475.633 904.399 473.686 903.94 471.738 903.477L471.507 904.45C469.571 903.99 467.633 903.527 465.693 903.062L465.927 902.091C464.005 901.631 462.081 901.167 460.155 900.701L459.92 901.673C457.993 901.207 456.064 900.738 454.133 900.266L454.371 899.294C452.442 898.823 450.511 898.349 448.578 897.872L448.337 898.842C446.403 898.365 444.468 897.886 442.53 897.404L442.773 896.434C440.836 895.952 438.897 895.468 436.957 894.98L436.713 895.951C434.778 895.464 432.841 894.974 430.902 894.483L431.149 893.514C429.233 893.029 427.315 892.54 425.396 892.05L425.148 893.018C423.228 892.527 421.306 892.034 419.383 891.538L419.633 890.57C417.711 890.074 415.787 889.575 413.861 889.074L413.609 890.043C411.682 889.541 409.755 889.036 407.825 888.53L408.08 887.564C406.151 887.057 404.22 886.548 402.289 886.036L402.032 887.003C400.099 886.491 398.166 885.977 396.231 885.46L396.489 884.495C394.577 883.984 392.663 883.471 390.748 882.955L390.488 883.921C388.575 883.406 386.66 882.888 384.744 882.368L385.007 881.403C383.092 880.883 381.175 880.361 379.258 879.836L378.993 880.799C377.075 880.274 375.154 879.747 373.233 879.217L373.5 878.253C371.58 877.723 369.658 877.191 367.735 876.656L367.466 877.619C365.542 877.084 363.618 876.546 361.692 876.006L361.963 875.043L359.074 874.232C358.11 873.96 357.147 873.688 356.185 873.416L355.913 874.378C353.987 873.834 352.065 873.289 350.144 872.742L350.418 871.78C348.498 871.233 346.581 870.684 344.666 870.134L344.391 871.096C342.475 870.545 340.562 869.993 338.652 869.44L338.929 868.48C337.019 867.928 335.112 867.373 333.207 866.817L332.927 867.778C331.022 867.222 329.118 866.665 327.217 866.106L327.499 865.146C325.596 864.587 323.696 864.026 321.799 863.464L321.515 864.422C319.594 863.853 317.676 863.283 315.76 862.712L316.046 861.753C314.132 861.182 312.22 860.609 310.31 860.035L310.022 860.991C309.521 860.841 309.02 860.69 308.519 860.539L304.299 859.263L304.59 858.306C302.686 857.729 300.784 857.151 298.885 856.571L298.593 857.527C296.694 856.947 294.797 856.364 292.903 855.782L293.196 854.826C291.303 854.244 289.412 853.659 287.525 853.074L287.229 854.029C285.319 853.436 283.41 852.844 281.505 852.249L281.507 852.248L281.805 851.294C279.895 850.697 277.989 850.099 276.086 849.5L275.786 850.453C273.881 849.854 271.98 849.253 270.081 848.65L270.383 847.698C268.485 847.096 266.59 846.492 264.698 845.888L264.394 846.84L264.393 846.841C262.5 846.236 260.61 845.63 258.723 845.022L258.725 845.022L259.031 844.07C257.145 843.463 255.262 842.855 253.382 842.245L253.074 843.195C251.176 842.58 249.281 841.963 247.39 841.345L247.701 840.395C245.797 839.773 243.896 839.149 241.999 838.525L241.687 839.475C239.789 838.85 237.895 838.223 236.003 837.596L236.318 836.648C234.427 836.021 232.539 835.392 230.655 834.762L230.338 835.71C228.453 835.08 226.57 834.45 224.691 833.817L224.692 833.817L225.011 832.87C223.133 832.238 221.258 831.604 219.387 830.97L219.066 831.916C217.18 831.276 215.297 830.636 213.417 829.994L213.74 829.048C211.844 828.4 209.951 827.75 208.061 827.1L207.735 828.046C206.193 827.515 204.652 826.983 203.114 826.451L202.074 826.09L202.402 825.145C200.519 824.492 198.64 823.838 196.764 823.183L196.434 824.127C195.83 823.916 195.226 823.706 194.623 823.495L190.815 822.158L191.147 821.214C189.278 820.557 187.413 819.899 185.551 819.239L185.217 820.181C184.135 819.797 183.055 819.414 181.976 819.03L179.598 818.182L179.934 817.24C178.045 816.566 176.16 815.89 174.279 815.214L173.941 816.154C172.058 815.477 170.18 814.8 168.305 814.12L168.646 813.18C166.772 812.501 164.902 811.82 163.036 811.139L162.694 812.078C160.827 811.397 158.964 810.715 157.105 810.031L157.45 809.092C155.592 808.409 153.738 807.725 151.887 807.039L151.539 807.976C149.67 807.283 147.804 806.59 145.942 805.895L146.291 804.958C144.411 804.257 142.536 803.554 140.665 802.851L140.313 803.786C139.062 803.316 137.812 802.845 136.565 802.374L134.709 801.671L135.064 800.736C133.201 800.03 131.342 799.323 129.487 798.616L129.13 799.55C127.275 798.842 125.424 798.131 123.577 797.421L123.936 796.489C122.09 795.779 120.248 795.067 118.411 794.356L118.049 795.287C116.183 794.564 114.32 793.841 112.463 793.116L112.826 792.185C110.958 791.455 109.093 790.724 107.234 789.993L106.868 790.923C105.008 790.191 103.152 789.459 101.3 788.725L101.67 787.795C99.8195 787.062 97.9729 786.328 96.1318 785.593L95.7608 786.521C93.9189 785.785 92.0819 785.048 90.2493 784.311L90.6228 783.384C88.7895 782.646 86.9603 781.907 85.1363 781.168L84.7607 782.095L84.7595 782.095C82.8937 781.339 81.0334 780.58 79.1775 779.822L79.5558 778.896C77.7006 778.138 75.8504 777.379 74.0052 776.619L73.6242 777.544L73.623 777.544C71.7771 776.784 69.9369 776.021 68.1011 775.259L68.4838 774.336C66.6486 773.574 64.818 772.812 62.993 772.048L62.6073 772.972C60.7812 772.208 58.9607 771.442 57.1449 770.677L57.5329 769.756C55.6956 768.982 53.8637 768.206 52.0369 767.43L51.6458 768.35C49.7947 767.564 47.9493 766.776 46.1092 765.988L46.5028 765.069C44.6636 764.281 42.8297 763.492 41.0016 762.703L40.6053 763.62C38.9813 762.919 37.3612 762.218 35.7459 761.515L35.135 761.249L35.5341 760.333C33.717 759.542 31.9053 758.75 30.0995 757.957L29.6976 758.873C27.8866 758.078 26.0808 757.284 24.2811 756.487L24.6857 755.573C22.8423 754.757 21.0048 753.941 19.1734 753.124L18.7662 754.037C16.9337 753.219 15.1071 752.402 13.2867 751.583L13.6977 750.671C11.8784 749.853 10.0648 749.034 8.2577 748.214L7.84414 749.124C6.03602 748.304 4.23374 747.484 2.43789 746.662L2.85427 745.753C1.05933 744.932 -0.729994 744.11 -2.51255 743.288L-2.93149 744.196C-4.7578 743.353 -6.57747 742.51 -8.39071 741.667L-7.96922 740.761C-9.79096 739.913 -11.6065 739.064 -13.415 738.216L-13.8393 739.121C-15.649 738.271 -17.4516 737.421 -19.2479 736.57L-18.8201 735.667C-20.6149 734.817 -22.4035 733.966 -24.1848 733.116L-24.6154 734.018L-24.6166 734.019C-26.3989 733.167 -28.1737 732.314 -29.9424 731.462L-29.5082 730.562C-31.3156 729.69 -33.1161 728.819 -34.909 727.947L-35.3467 728.846C-37.1567 727.965 -38.9596 727.085 -40.7549 726.204L-40.3145 725.306C-42.1089 724.425 -43.8958 723.543 -45.6753 722.661L-46.1195 723.558C-46.814 723.214 -47.5076 722.87 -48.1998 722.526L-51.4397 720.909L-50.9923 720.016C-52.7569 719.133 -54.514 718.25 -56.2636 717.367L-56.7136 718.259C-58.5091 717.352 -60.2972 716.447 -62.0767 715.539L-61.6227 714.648C-63.4153 713.734 -65.2 712.82 -66.9763 711.905L-67.4345 712.794C-69.2123 711.879 -70.982 710.963 -72.7433 710.047L-72.2816 709.161C-74.0417 708.246 -75.794 707.329 -77.5375 706.414L-78.002 707.299C-78.7753 706.893 -79.5468 706.487 -80.3169 706.081L-83.2113 704.549L-82.7427 703.667C-84.5299 702.718 -86.3083 701.77 -88.0774 700.821L-88.5496 701.702C-90.3227 700.751 -92.0868 699.8 -93.8417 698.849L-93.3651 697.971C-95.1185 697.021 -96.8628 696.07 -98.5978 695.12L-99.0788 695.996C-100.815 695.045 -102.543 694.094 -104.26 693.143L-103.775 692.268C-105.514 691.305 -107.244 690.342 -108.964 689.379L-109.453 690.25C-111.219 689.262 -112.975 688.273 -114.72 687.284L-114.228 686.414C-115.972 685.426 -117.705 684.438 -119.429 683.45L-119.926 684.318C-120.699 683.875 -121.469 683.433 -122.237 682.99L-125.07 681.353L-124.569 680.487C-126.272 679.5 -127.964 678.512 -129.646 677.525L-130.153 678.386C-131.899 677.361 -133.635 676.336 -135.359 675.311L-134.848 674.453C-136.579 673.424 -138.298 672.395 -140.006 671.367L-140.522 672.223C-142.231 671.194 -143.929 670.166 -145.615 669.137L-145.095 668.284C-146.78 667.256 -148.453 666.229 -150.114 665.203L-150.639 666.053C-152.349 664.996 -154.047 663.94 -155.732 662.884L-155.201 662.037C-156.913 660.965 -158.612 659.892 -160.298 658.821L-160.834 659.665C-162.522 658.592 -164.197 657.52 -165.859 656.448L-165.317 655.608C-166.977 654.538 -168.623 653.468 -170.257 652.399L-170.805 653.236C-172.402 652.191 -173.986 651.146 -175.558 650.103L-175.799 649.943L-175.246 649.11C-176.931 647.99 -178.601 646.87 -180.257 645.752L-180.817 646.58C-182.475 645.461 -184.118 644.342 -185.747 643.224L-185.181 642.4C-186.807 641.283 -188.419 640.168 -190.015 639.054L-190.588 639.873C-192.241 638.719 -193.878 637.566 -195.499 636.414L-194.92 635.599C-196.568 634.428 -198.2 633.258 -199.815 632.089L-200.401 632.899C-202.018 631.729 -203.618 630.559 -205.201 629.391L-204.607 628.587C-206.188 627.421 -207.752 626.257 -209.298 625.094L-209.899 625.893C-211.533 624.664 -213.147 623.437 -214.741 622.212L-214.133 621.42C-215.729 620.194 -217.306 618.969 -218.863 617.746L-219.481 618.532C-221.041 617.307 -222.582 616.084 -224.103 614.863L-223.477 614.084C-225.038 612.831 -226.578 611.58 -228.097 610.331L-228.733 611.103C-230.305 609.81 -231.854 608.519 -233.381 607.231L-232.736 606.469C-234.259 605.184 -235.761 603.902 -237.239 602.622L-237.894 603.378C-239.392 602.081 -240.866 600.785 -242.317 599.493L-241.653 598.747C-243.18 597.388 -244.681 596.031 -246.156 594.678L-246.832 595.414C-248.31 594.057 -249.762 592.703 -251.187 591.353L-250.499 590.629C-251.929 589.274 -253.332 587.922 -254.707 586.575L-255.407 587.288C-256.877 585.849 -258.316 584.414 -259.724 582.982L-259.011 582.281C-260.414 580.853 -261.786 579.43 -263.126 578.011L-263.853 578.697C-265.219 577.252 -266.552 575.81 -267.853 574.373L-267.114 573.703C-268.488 572.186 -269.824 570.673 -271.124 569.167L-271.88 569.819C-273.185 568.307 -274.453 566.8 -275.684 565.298L-274.911 564.665C-276.189 563.106 -277.426 561.553 -278.621 560.007L-279.412 560.617C-280.657 559.007 -281.86 557.404 -283.016 555.807L-282.205 555.221C-283.361 553.625 -284.471 552.036 -285.536 550.456L-286.365 551.014C-287.52 549.298 -288.623 547.591 -289.672 545.893L-288.822 545.367C-289.864 543.68 -290.853 542.003 -291.787 540.336L-292.657 540.824C-293.661 539.032 -294.604 537.252 -295.484 535.483L-294.587 535.038C-295.475 533.252 -296.297 531.478 -297.055 529.717L-297.973 530.112C-298.78 528.236 -299.514 526.372 -300.175 524.523L-299.234 524.187C-299.904 522.312 -300.498 520.453 -301.013 518.609L-301.975 518.878C-302.524 516.914 -302.985 514.967 -303.36 513.036L-302.38 512.845C-302.756 510.908 -303.042 508.989 -303.237 507.09L-304.229 507.192C-304.437 505.171 -304.545 503.171 -304.549 501.191L-303.55 501.188C-303.555 499.227 -303.457 497.287 -303.255 495.37L-304.249 495.266C-304.04 493.277 -303.723 491.311 -303.294 489.368L-302.317 489.584C-302.106 488.631 -301.869 487.684 -301.604 486.744C-301.339 485.802 -301.047 484.87 -300.73 483.947L-301.676 483.623C-301.029 481.742 -300.273 479.899 -299.413 478.093L-298.511 478.521C-297.683 476.781 -296.754 475.075 -295.727 473.404L-296.578 472.882C-295.542 471.195 -294.405 469.546 -293.173 467.93L-292.38 468.534C-291.223 467.015 -289.978 465.527 -288.646 464.07L-289.383 463.398C-288.056 461.946 -286.647 460.525 -285.154 459.136L-284.473 459.867C-283.071 458.563 -281.595 457.286 -280.045 456.036L-280.672 455.26C-279.143 454.027 -277.545 452.821 -275.878 451.642L-275.3 452.456C-273.735 451.349 -272.108 450.265 -270.419 449.205L-270.951 448.359C-269.278 447.308 -267.545 446.281 -265.754 445.276L-265.266 446.146C-263.599 445.211 -261.88 444.296 -260.111 443.401L-260.562 442.511C-258.781 441.609 -256.95 440.728 -255.069 439.867L-254.653 440.775C-252.92 439.982 -251.144 439.206 -249.326 438.448L-249.71 437.526C-247.891 436.767 -246.03 436.027 -244.127 435.303L-243.771 436.235C-241.944 435.54 -240.078 434.86 -238.175 434.197L-238.504 433.255C-236.671 432.616 -234.803 431.992 -232.9 431.382L-232.595 432.333C-230.7 431.726 -228.77 431.133 -226.807 430.556L-227.089 429.599C-225.23 429.052 -223.34 428.517 -221.42 427.997L-221.158 428.96C-219.274 428.45 -217.361 427.951 -215.419 427.466L-215.662 426.496C-213.714 426.009 -211.738 425.536 -209.733 425.075L-209.508 426.048C-207.631 425.616 -205.729 425.196 -203.803 424.786L-204.012 423.809C-202.091 423.401 -200.146 423.003 -198.177 422.617L-198.176 422.617L-197.983 423.597C-196.02 423.212 -194.032 422.838 -192.02 422.475L-192.198 421.494C-190.286 421.149 -188.353 420.812 -186.398 420.487L-186.397 420.487L-186.233 421.473C-184.304 421.153 -182.354 420.842 -180.384 420.541L-180.535 419.554C-178.561 419.252 -176.566 418.959 -174.551 418.677L-174.551 418.676L-174.412 419.667C-172.464 419.394 -170.497 419.13 -168.512 418.875L-168.64 417.885C-166.705 417.637 -164.753 417.398 -162.782 417.167L-162.665 418.159C-160.699 417.928 -158.715 417.706 -156.713 417.493L-156.819 416.5C-154.819 416.287 -152.802 416.083 -150.768 415.887L-150.768 415.886L-150.672 416.881C-148.746 416.696 -146.804 416.519 -144.847 416.349L-144.935 415.354C-142.975 415.184 -141 415.021 -139.009 414.867L-138.931 415.862C-136.944 415.707 -134.942 415.561 -132.924 415.422L-132.994 414.426C-131.01 414.289 -129.012 414.159 -126.999 414.037L-126.938 415.033C-124.994 414.916 -123.037 414.806 -121.068 414.702L-121.12 413.704C-119.148 413.6 -117.163 413.503 -115.164 413.413L-115.119 414.411C-113.122 414.321 -111.113 414.238 -109.091 414.162L-109.129 413.163C-107.148 413.089 -105.155 413.021 -103.15 412.96L-103.119 413.959C-101.168 413.899 -99.2048 413.846 -97.2304 413.799L-97.2544 412.8C-95.2778 412.753 -93.2896 412.712 -91.29 412.677L-91.273 413.676C-89.2756 413.642 -87.2663 413.614 -85.2462 413.592L-85.2573 412.593C-83.2692 412.572 -81.2702 412.556 -79.2605 412.547L-79.2547 413.546C-77.3019 413.537 -75.3387 413.534 -73.3656 413.536L-73.3646 412.538C-71.3894 412.541 -69.4042 412.548 -67.409 412.562L-67.4162 413.561C-65.4228 413.575 -63.419 413.595 -61.4057 413.621L-61.3933 412.622C-59.3878 412.647 -57.3725 412.678 -55.3475 412.715L-55.3649 413.714C-53.4149 413.749 -51.4555 413.79 -49.4875 413.836L-49.4649 412.836C-47.4951 412.883 -45.5164 412.935 -43.5288 412.991L-43.5573 413.99C-41.5715 414.046 -39.5765 414.108 -37.5731 414.175L-37.5396 413.177C-35.5346 413.244 -33.5209 413.317 -31.4985 413.395L-31.4982 413.394L-31.5369 414.392C-29.5673 414.468 -27.5891 414.549 -25.6031 414.635L-25.5595 413.637L-25.5604 413.636C-23.5984 413.721 -21.6285 413.812 -19.6507 413.906L-19.6504 413.905L-19.6981 414.903C-17.722 414.998 -15.7376 415.098 -13.7459 415.203L-13.6942 414.205C-11.7009 414.309 -9.69984 414.418 -7.69113 414.533L-7.74781 415.53C-5.74363 415.644 -3.73159 415.763 -1.71219 415.886L-1.65149 414.889C0.301132 415.008 2.26083 415.132 4.22751 415.261L4.16185 416.258C6.12684 416.386 8.09906 416.519 10.078 416.657L10.1474 415.661C12.1278 415.798 14.1152 415.941 16.1094 416.087L16.1096 416.086L16.0359 417.083C18.0287 417.23 20.0284 417.382 22.0348 417.538L22.1122 416.542C24.1034 416.696 26.1013 416.856 28.1057 417.019L28.0254 418.014C29.9787 418.173 31.9384 418.338 33.9042 418.506L33.9887 417.51C35.956 417.678 37.9293 417.851 39.9089 418.027L39.8197 419.022C41.7979 419.198 43.7831 419.379 45.7735 419.564L45.8649 418.569C47.8566 418.754 49.8545 418.943 51.8583 419.137L51.8585 419.136L51.7628 420.131C53.7472 420.323 55.7375 420.518 57.7336 420.718L57.8338 419.724C59.7873 419.92 61.7465 420.119 63.7111 420.322L63.712 420.322L63.6085 421.317C65.5722 421.521 67.5417 421.728 69.5164 421.94L69.6224 420.947C71.5983 421.158 73.5796 421.373 75.5663 421.593L75.4572 422.586C77.4426 422.805 79.4333 423.029 81.4295 423.257L81.5427 422.264C83.53 422.49 85.5224 422.722 87.5203 422.956L87.4045 423.947C89.3541 424.176 91.3086 424.408 93.268 424.644L93.3878 423.653C95.3484 423.89 97.314 424.129 99.2845 424.373L99.1616 425.364C101.131 425.608 103.105 425.855 105.084 426.107L105.21 425.115C107.191 425.367 109.175 425.622 111.165 425.881L111.036 426.872C113.025 427.13 115.019 427.392 117.017 427.659L117.148 426.669C119.099 426.929 121.054 427.193 123.014 427.46L122.879 428.449C124.833 428.715 126.791 428.985 128.754 429.258L128.891 428.269C130.855 428.543 132.824 428.82 134.796 429.101L134.656 430.089C136.627 430.369 138.603 430.654 140.583 430.941L140.727 429.953C142.707 430.241 144.692 430.532 146.681 430.827L146.536 431.815C148.5 432.106 150.467 432.401 152.438 432.699L152.588 431.711C154.536 432.005 156.488 432.302 158.444 432.603L158.445 432.603L158.293 433.591C160.248 433.892 162.207 434.197 164.17 434.504L164.324 433.518C166.289 433.826 168.257 434.136 170.229 434.451L170.071 435.437C172.042 435.752 174.017 436.07 175.995 436.391L176.155 435.406C178.134 435.727 180.117 436.051 182.104 436.38L181.941 437.365C183.883 437.686 185.828 438.01 187.777 438.337L187.942 437.353C189.891 437.68 191.842 438.01 193.797 438.343L193.63 439.328C195.584 439.661 197.542 439.998 199.503 440.338L199.673 439.353C201.635 439.693 203.601 440.037 205.57 440.384L205.397 441.367C207.364 441.713 209.336 442.063 211.31 442.416L211.487 441.432C213.45 441.782 215.416 442.137 217.385 442.494L217.207 443.477C219.146 443.828 221.089 444.183 223.034 444.54L223.215 443.558C225.16 443.916 227.109 444.275 229.061 444.639L229.062 444.64L228.88 445.622C230.831 445.986 232.786 446.353 234.743 446.723L234.928 445.741C236.887 446.111 238.848 446.484 240.812 446.86L240.625 447.842C242.589 448.218 244.555 448.597 246.524 448.979L246.715 447.999C248.666 448.378 250.619 448.759 252.576 449.144L252.384 450.124C254.32 450.505 256.26 450.888 258.201 451.275L258.396 450.295C260.339 450.682 262.284 451.072 264.232 451.464L264.034 452.443C265.982 452.836 267.932 453.232 269.885 453.63L270.085 452.651C272.038 453.049 273.994 453.451 275.953 453.856L275.954 453.855L275.751 454.833C277.709 455.238 279.67 455.645 281.633 456.055L281.837 455.078C283.78 455.484 285.726 455.893 287.674 456.304L287.467 457.282C289.4 457.691 291.335 458.102 293.272 458.516L293.481 457.539C295.419 457.953 297.359 458.371 299.302 458.791L299.091 459.767C301.033 460.187 302.978 460.61 304.925 461.035L305.138 460.059C307.085 460.485 309.035 460.914 310.988 461.345L310.772 462.32C312.723 462.752 314.677 463.186 316.633 463.623L316.851 462.647C318.79 463.08 320.73 463.516 322.673 463.955L322.453 464.929C324.381 465.364 326.311 465.802 328.243 466.242L328.465 465.269Z" stroke="#6B81FF" stroke-width="2" stroke-dasharray="6 6"/>
<path d="M276.862 392.421C278.794 392.862 280.729 393.306 282.665 393.752L282.441 394.725C284.377 395.171 286.315 395.62 288.256 396.072L288.482 395.099C290.423 395.551 292.366 396.005 294.311 396.462L294.311 396.461L294.083 397.435C296.027 397.892 297.974 398.351 299.922 398.814L300.152 397.842C302.088 398.302 304.026 398.764 305.966 399.229L305.733 400.201C307.655 400.661 309.579 401.125 311.505 401.591L311.74 400.62C313.666 401.086 315.595 401.554 317.525 402.025L317.526 402.026L317.289 402.997C319.218 403.468 321.149 403.942 323.082 404.419L323.321 403.45C325.255 403.927 327.191 404.406 329.128 404.888L328.887 405.857C330.824 406.339 332.763 406.823 334.703 407.311L334.946 406.341L334.945 406.341C336.881 406.827 338.818 407.318 340.756 407.809L340.511 408.777C342.427 409.262 344.345 409.751 346.264 410.241L346.511 409.274C348.431 409.765 350.353 410.258 352.276 410.754L352.027 411.722C353.949 412.218 355.873 412.716 357.799 413.217L358.051 412.249L358.05 412.249C359.976 412.751 361.904 413.256 363.834 413.762L363.58 414.729C365.509 415.235 367.44 415.743 369.371 416.255L369.627 415.29C371.559 415.801 373.493 416.315 375.428 416.832L375.428 416.831L375.171 417.796C377.083 418.307 378.997 418.82 380.912 419.336L381.171 418.371C383.084 418.886 384.998 419.405 386.914 419.925L386.653 420.888C388.568 421.408 390.485 421.931 392.402 422.455L392.665 421.493C394.584 422.018 396.504 422.545 398.426 423.075L398.16 424.038C400.08 424.568 402.002 425.101 403.925 425.636L404.193 424.673L404.192 424.672C406.116 425.208 408.041 425.746 409.967 426.286L409.697 427.248C410.66 427.518 411.624 427.789 412.587 428.06C413.551 428.331 414.513 428.603 415.475 428.875L415.746 427.913C417.672 428.458 419.595 429.003 421.516 429.55L421.242 430.512C423.161 431.059 425.079 431.607 426.994 432.157L427.268 431.196C429.184 431.746 431.096 432.299 433.007 432.852L432.731 433.811C434.641 434.364 436.548 434.918 438.453 435.474L438.731 434.515C440.637 435.071 442.541 435.627 444.441 436.186L444.161 437.145C446.064 437.704 447.964 438.265 449.861 438.827L450.144 437.87C452.065 438.439 453.983 439.009 455.898 439.581L455.614 440.538C457.528 441.11 459.44 441.683 461.35 442.258L461.636 441.3C463.547 441.875 465.455 442.451 467.36 443.029L467.07 443.985C468.974 444.562 470.876 445.141 472.775 445.721L473.065 444.765C474.965 445.345 476.862 445.927 478.756 446.51L478.463 447.465C480.357 448.048 482.248 448.632 484.135 449.217L484.429 448.263C486.34 448.856 488.248 449.448 490.153 450.043L489.855 450.997C491.765 451.594 493.671 452.192 495.574 452.791L495.873 451.838C497.778 452.438 499.679 453.039 501.577 453.641L501.277 454.594C503.175 455.196 505.07 455.799 506.962 456.403L507.266 455.451C509.158 456.056 511.047 456.663 512.934 457.27L512.629 458.221C514.515 458.828 516.398 459.437 518.278 460.047L518.585 459.097C520.483 459.712 522.378 460.329 524.269 460.947L523.959 461.896C525.863 462.518 527.764 463.142 529.661 463.767L529.972 462.817C531.87 463.442 533.764 464.068 535.656 464.696L535.342 465.644C537.233 466.271 539.121 466.899 541.005 467.529L541.32 466.582C543.206 467.212 545.088 467.843 546.967 468.475L546.649 469.421C548.527 470.053 550.402 470.687 552.273 471.322L552.593 470.376C554.479 471.015 556.362 471.656 558.241 472.298L557.919 473.244C559.816 473.892 561.709 474.541 563.599 475.191L563.923 474.247C565.814 474.897 567.701 475.549 569.584 476.202L569.258 477.146C571.141 477.799 573.02 478.453 574.896 479.108L575.224 478.165C577.101 478.821 578.974 479.476 580.843 480.134L580.513 481.077C582.382 481.734 584.247 482.393 586.109 483.053L586.442 482.111C588.319 482.776 590.191 483.443 592.061 484.11L591.726 485.051C593.615 485.725 595.5 486.401 597.381 487.077L597.718 486.137C599.6 486.814 601.479 487.492 603.353 488.172L603.014 489.112C604.887 489.791 606.758 490.471 608.624 491.152L608.965 490.213C610.832 490.895 612.695 491.577 614.554 492.261L614.21 493.199C616.068 493.882 617.922 494.566 619.772 495.252L620.119 494.316C621.989 495.009 623.855 495.702 625.717 496.397L625.369 497.333C627.248 498.034 629.124 498.737 630.995 499.441L631.345 498.505C633.218 499.21 635.086 499.915 636.949 500.621L636.596 501.555C638.459 502.261 640.318 502.968 642.173 503.675L642.53 502.742C644.385 503.45 646.235 504.16 648.082 504.871L647.724 505.803C649.57 506.513 651.412 507.224 653.249 507.936L653.61 507.004C655.476 507.727 657.338 508.451 659.196 509.176L658.833 510.108C660.702 510.837 662.567 511.567 664.426 512.298L664.79 511.369C666.651 512.101 668.507 512.833 670.358 513.567L669.99 514.496C671.84 515.229 673.687 515.963 675.528 516.698L675.898 515.771C677.74 516.506 679.577 517.244 681.409 517.981L681.037 518.907C682.87 519.645 684.7 520.384 686.524 521.123L686.898 520.197C688.764 520.954 690.625 521.712 692.481 522.47L692.104 523.395C693.959 524.153 695.81 524.912 697.655 525.672L698.035 524.748C699.881 525.508 701.722 526.271 703.558 527.033L703.176 527.955C705.011 528.717 706.842 529.479 708.667 530.243L709.052 529.321C710.878 530.084 712.698 530.85 714.514 531.615L714.127 532.536C715.964 533.31 717.796 534.085 719.623 534.862L720.013 533.943C721.864 534.729 723.709 535.516 725.55 536.304L725.157 537.222C726.996 538.01 728.83 538.799 730.658 539.588L731.053 538.672C732.882 539.461 734.706 540.251 736.524 541.043L736.126 541.958C737.943 542.749 739.755 543.541 741.56 544.334L741.961 543.42C743.772 544.214 745.578 545.009 747.377 545.805L746.974 546.718C748.818 547.534 750.655 548.351 752.487 549.167L752.893 548.255C754.725 549.072 756.552 549.89 758.372 550.709L757.962 551.62C759.782 552.439 761.595 553.258 763.402 554.077L763.815 553.168C765.623 553.988 767.425 554.809 769.221 555.63L768.806 556.538C770.601 557.359 772.39 558.181 774.172 559.003L774.59 558.097C776.416 558.939 778.236 559.782 780.049 560.625L779.629 561.532C781.451 562.379 783.266 563.227 785.075 564.075L785.498 563.171C787.308 564.02 789.11 564.871 790.907 565.722L790.48 566.624C792.275 567.474 794.063 568.325 795.845 569.176L796.275 568.273C798.058 569.125 799.832 569.977 801.601 570.83L801.168 571.73C802.975 572.601 804.776 573.472 806.569 574.344L807.005 573.446C808.815 574.327 810.618 575.207 812.414 576.088L811.974 576.986C813.769 577.867 815.556 578.748 817.335 579.63L817.778 578.735C819.559 579.617 821.333 580.499 823.098 581.382L822.652 582.276C824.417 583.159 826.174 584.041 827.924 584.924L828.372 584.033C830.168 584.939 831.956 585.846 833.735 586.753L833.283 587.644C835.075 588.557 836.86 589.471 838.636 590.386L839.093 589.498C840.871 590.413 842.641 591.329 844.402 592.244L843.942 593.13C845.702 594.046 847.454 594.962 849.197 595.877L849.661 594.992C851.406 595.909 853.142 596.826 854.87 597.743L854.402 598.625C856.19 599.574 857.968 600.521 859.737 601.47L860.208 600.59C861.981 601.541 863.746 602.491 865.5 603.443L865.025 604.32C866.778 605.27 868.523 606.221 870.258 607.171L870.738 606.296C872.474 607.247 874.202 608.198 875.92 609.149L875.435 610.023C877.174 610.986 878.904 611.949 880.624 612.913L881.112 612.041C882.877 613.03 884.633 614.019 886.379 615.008L885.888 615.877C887.632 616.865 889.365 617.853 891.088 618.841L891.585 617.974C893.31 618.963 895.025 619.951 896.729 620.939L896.229 621.804C897.932 622.791 899.624 623.779 901.306 624.766L901.812 623.905C903.558 624.931 905.294 625.956 907.018 626.98L906.508 627.839C908.239 628.868 909.958 629.896 911.666 630.924L912.181 630.068C913.89 631.098 915.588 632.127 917.274 633.155L916.755 634.007C918.439 635.035 920.113 636.062 921.774 637.088L922.298 636.239C924.008 637.296 925.706 638.352 927.391 639.408L926.861 640.254C928.573 641.326 930.272 642.399 931.958 643.471L932.493 642.627C934.181 643.7 935.856 644.772 937.518 645.843L936.977 646.683C938.636 647.754 940.283 648.823 941.917 649.892L942.464 649.056C944.142 650.155 945.807 651.252 947.457 652.349L946.905 653.182C948.591 654.302 950.262 655.421 951.917 656.539L952.476 655.711C954.134 656.831 955.777 657.95 957.405 659.067L956.841 659.891C958.467 661.008 960.079 662.123 961.675 663.237L962.246 662.419C963.9 663.573 965.537 664.727 967.158 665.879L966.58 666.692C968.228 667.863 969.86 669.033 971.475 670.202L972.059 669.393C973.677 670.564 975.277 671.733 976.86 672.901L976.267 673.704C977.848 674.87 979.412 676.034 980.958 677.197L981.558 676.399C983.191 677.627 984.805 678.855 986.4 680.08L985.793 680.871C987.389 682.098 988.966 683.322 990.523 684.545L991.14 683.76C992.7 684.985 994.24 686.208 995.762 687.429L995.137 688.207C996.698 689.46 998.238 690.712 999.757 691.961L1000.39 691.189C1001.96 692.481 1003.51 693.773 1005.04 695.06L1004.4 695.823C1005.92 697.107 1007.42 698.39 1008.9 699.669L1009.55 698.914C1011.05 700.211 1012.52 701.508 1013.98 702.799L1013.31 703.544C1014.84 704.903 1016.34 706.261 1017.82 707.614L1018.49 706.878C1019.97 708.234 1021.42 709.588 1022.85 710.939L1022.16 711.663C1023.59 713.018 1024.99 714.369 1026.37 715.717L1027.07 715.003C1028.54 716.443 1029.98 717.878 1031.38 719.31L1030.67 720.011C1032.07 721.439 1033.45 722.861 1034.79 724.28L1035.51 723.594C1036.88 725.04 1038.21 726.482 1039.51 727.919L1038.77 728.588C1040.15 730.105 1041.48 731.618 1042.78 733.124L1043.54 732.472C1044.84 733.985 1046.11 735.492 1047.34 736.994L1046.57 737.626C1047.85 739.185 1049.09 740.738 1050.28 742.284L1051.07 741.675C1052.32 743.285 1053.52 744.888 1054.67 746.485L1053.87 747.07C1055.02 748.666 1056.13 750.255 1057.2 751.835L1058.02 751.278C1059.18 752.994 1060.28 754.701 1061.33 756.4L1060.48 756.924C1061.52 758.611 1062.51 760.289 1063.45 761.956L1064.32 761.468C1065.32 763.26 1066.26 765.039 1067.14 766.809L1066.25 767.253C1067.13 769.039 1067.96 770.813 1068.71 772.574L1069.63 772.18C1070.44 774.056 1071.17 775.92 1071.83 777.769L1070.89 778.104C1071.56 779.979 1072.16 781.838 1072.67 783.682L1073.63 783.414C1074.18 785.378 1074.64 787.325 1075.02 789.256L1074.04 789.446C1074.42 791.383 1074.7 793.302 1074.9 795.201L1075.89 795.1C1076.1 797.121 1076.2 799.121 1076.21 801.101L1075.21 801.103C1075.21 803.064 1075.12 805.004 1074.92 806.921L1075.91 807.026C1075.7 809.015 1075.38 810.981 1074.95 812.924L1073.98 812.708C1073.77 813.66 1073.53 814.608 1073.26 815.549C1073 816.489 1072.71 817.421 1072.39 818.344L1073.34 818.669C1072.69 820.55 1071.93 822.393 1071.07 824.199L1070.17 823.77C1069.34 825.51 1068.41 827.216 1067.39 828.887L1068.24 829.411C1067.2 831.097 1066.06 832.747 1064.83 834.362L1064.04 833.757C1062.88 835.276 1061.64 836.764 1060.31 838.221L1061.04 838.894C1059.71 840.345 1058.31 841.767 1056.81 843.156L1056.13 842.424C1054.73 843.728 1053.25 845.005 1051.71 846.255L1052.33 847.032C1050.8 848.265 1049.2 849.471 1047.54 850.65L1046.96 849.836C1045.4 850.942 1043.77 852.026 1042.08 853.086L1042.61 853.933C1040.94 854.984 1039.2 856.011 1037.41 857.016L1036.93 856.145C1035.26 857.08 1033.54 857.995 1031.77 858.891L1032.22 859.781C1030.44 860.683 1028.61 861.564 1026.73 862.425L1026.31 861.516C1024.58 862.309 1022.8 863.085 1020.99 863.843L1021.37 864.766C1019.55 865.525 1017.69 866.265 1015.79 866.989L1015.43 866.056C1013.6 866.752 1011.74 867.431 1009.83 868.094L1010.16 869.037C1008.33 869.676 1006.46 870.3 1004.56 870.91L1004.25 869.958C1002.36 870.565 1000.43 871.158 998.467 871.736L998.748 872.693C996.888 873.24 994.999 873.774 993.079 874.295L992.818 873.331C990.934 873.841 989.021 874.34 987.079 874.825L987.321 875.795C985.373 876.282 983.396 876.756 981.392 877.217L981.168 876.243C979.291 876.675 977.389 877.096 975.462 877.506L975.67 878.482C973.749 878.891 971.804 879.289 969.835 879.675L969.643 878.694C967.68 879.079 965.692 879.453 963.68 879.816L963.856 880.799C961.944 881.144 960.011 881.479 958.056 881.804L957.892 880.818C955.964 881.138 954.014 881.449 952.044 881.75L952.194 882.738C950.22 883.04 948.225 883.332 946.21 883.615L946.072 882.625C944.124 882.898 942.157 883.161 940.172 883.416L940.298 884.406C938.364 884.654 936.411 884.894 934.441 885.125L934.325 884.132C932.358 884.363 930.374 884.585 928.373 884.798L928.478 885.791C926.478 886.004 924.461 886.209 922.427 886.405L922.331 885.41C920.405 885.596 918.464 885.772 916.507 885.942L916.593 886.938C914.633 887.108 912.658 887.271 910.668 887.426L910.591 886.429C908.604 886.584 906.601 886.73 904.584 886.87L904.652 887.867C902.669 888.004 900.67 888.133 898.658 888.255L898.598 887.258C896.654 887.375 894.697 887.485 892.728 887.589L892.779 888.588C890.807 888.692 888.821 888.789 886.823 888.879L886.778 887.88C884.782 887.97 882.773 888.054 880.751 888.13L880.787 889.128C878.807 889.203 876.814 889.271 874.809 889.332L874.779 888.333C872.828 888.392 870.865 888.446 868.89 888.492L868.913 889.492C866.937 889.539 864.948 889.58 862.949 889.615L862.933 888.615C860.936 888.649 858.926 888.678 856.906 888.699L856.916 889.698C854.928 889.72 852.928 889.735 850.918 889.745L850.915 888.745C848.962 888.754 846.999 888.757 845.026 888.755L845.023 889.755C843.048 889.752 841.063 889.743 839.068 889.729L839.076 888.73C837.083 888.716 835.079 888.697 833.065 888.671L833.052 889.67C831.047 889.645 829.031 889.613 827.006 889.577L827.025 888.578C825.075 888.542 823.115 888.502 821.147 888.456L821.124 889.455C819.154 889.409 817.175 889.357 815.188 889.301L815.217 888.302C813.231 888.245 811.236 888.183 809.233 888.116L809.198 889.115C807.193 889.047 805.18 888.975 803.157 888.897L803.197 887.899C801.227 887.823 799.248 887.742 797.262 887.656L797.218 888.655C795.257 888.57 793.287 888.48 791.309 888.385L791.358 887.388C789.382 887.293 787.397 887.194 785.406 887.089L785.353 888.087C783.36 887.983 781.359 887.873 779.35 887.759L779.407 886.762C777.403 886.648 775.391 886.529 773.372 886.406L773.31 887.403C771.358 887.283 769.398 887.16 767.431 887.031L767.498 886.033C765.533 885.905 763.561 885.772 761.582 885.635L761.511 886.631C759.531 886.494 757.544 886.351 755.549 886.204L755.624 885.208C753.631 885.061 751.632 884.909 749.625 884.754L749.546 885.751C747.555 885.596 745.557 885.436 743.553 885.273L743.635 884.277C741.681 884.118 739.722 883.953 737.756 883.785L737.67 884.782C735.703 884.614 733.729 884.442 731.75 884.265L731.84 883.269C729.862 883.093 727.877 882.913 725.886 882.728L725.794 883.723C723.802 883.538 721.804 883.349 719.8 883.155L719.897 882.161C717.913 881.969 715.922 881.773 713.926 881.573L713.825 882.567C711.871 882.372 709.912 882.173 707.948 881.97L708.051 880.974C706.088 880.771 704.118 880.563 702.144 880.352L702.036 881.345C700.06 881.133 698.079 880.919 696.092 880.699L696.203 879.706C694.217 879.486 692.226 879.263 690.23 879.035L690.116 880.028C688.129 879.801 686.136 879.571 684.138 879.337L684.255 878.344C682.306 878.116 680.351 877.883 678.392 877.647L678.271 878.639C676.31 878.403 674.345 878.162 672.374 877.919L672.498 876.927C670.529 876.683 668.554 876.436 666.575 876.184L666.448 877.176C664.468 876.925 662.483 876.67 660.494 876.411L660.623 875.42C658.635 875.161 656.641 874.899 654.643 874.633L654.51 875.624C652.559 875.364 650.604 875.1 648.645 874.833L648.781 873.842C646.827 873.576 644.869 873.306 642.906 873.033L642.767 874.023C640.803 873.749 638.835 873.472 636.863 873.191L637.004 872.202C635.033 871.922 633.057 871.638 631.077 871.35L630.932 872.339C628.951 872.051 626.966 871.76 624.976 871.465L625.124 870.476C623.16 870.185 621.193 869.891 619.221 869.593L619.071 870.581C617.123 870.287 615.17 869.99 613.214 869.689L613.367 868.7C611.412 868.399 609.453 868.094 607.49 867.787L607.334 868.774C605.37 868.466 603.402 868.156 601.43 867.842L601.589 866.854C599.618 866.539 597.643 866.221 595.665 865.9L595.504 866.886C593.525 866.565 591.542 866.242 589.556 865.913L589.719 864.926C587.777 864.605 585.832 864.281 583.883 863.954L583.716 864.939C581.768 864.612 579.816 864.282 577.861 863.949L578.03 862.963C576.076 862.63 574.118 862.293 572.157 861.953L571.985 862.938C570.023 862.598 568.058 862.255 566.089 861.908L566.263 860.925C564.296 860.578 562.324 860.229 560.35 859.876L560.172 860.86C558.209 860.509 556.243 860.155 554.273 859.798L554.453 858.814C552.514 858.463 550.571 858.109 548.625 857.751L548.444 858.734C546.498 858.376 544.549 858.016 542.596 857.652L542.78 856.669C540.829 856.305 538.874 855.938 536.917 855.568L536.73 856.55C534.772 856.18 532.811 855.808 530.847 855.431L531.035 854.45C529.071 854.073 527.105 853.694 525.136 853.312L524.944 854.293C522.993 853.914 521.039 853.532 519.083 853.148L519.276 852.167C517.339 851.787 515.4 851.403 513.459 851.016L513.263 851.997C511.32 851.61 509.375 851.22 507.427 850.828L507.625 849.848C505.678 849.455 503.727 849.06 501.775 848.662L501.574 849.641C499.621 849.243 497.664 848.841 495.705 848.436L495.909 847.458C493.951 847.053 491.99 846.646 490.027 846.236L489.821 847.214C487.879 846.808 485.933 846.399 483.985 845.987L484.192 845.01C482.26 844.601 480.325 844.189 478.388 843.775L478.178 844.753C476.24 844.339 474.299 843.921 472.356 843.501L472.569 842.524C470.627 842.104 468.682 841.682 466.735 841.256L466.521 842.233C464.573 841.807 462.623 841.379 460.671 840.948L460.888 839.971C458.937 839.54 456.982 839.106 455.026 838.669L454.807 839.645C452.869 839.212 450.929 838.776 448.986 838.337L449.207 837.362C447.279 836.927 445.349 836.489 443.417 836.049L443.195 837.023L443.194 837.024C441.262 836.583 439.327 836.138 437.39 835.692L437.615 834.719C435.679 834.272 433.741 833.824 431.801 833.372L431.573 834.345C429.632 833.894 427.689 833.439 425.744 832.982L425.974 832.009C424.029 831.552 422.083 831.092 420.135 830.629L419.903 831.602C417.967 831.143 416.029 830.68 414.089 830.215L414.323 829.244C412.401 828.783 410.477 828.319 408.551 827.853L408.316 828.825C406.389 828.359 404.46 827.89 402.53 827.418L402.768 826.447C400.838 825.975 398.907 825.501 396.974 825.024L396.734 825.994C394.8 825.518 392.864 825.038 390.927 824.556L391.169 823.587C389.233 823.105 387.294 822.62 385.354 822.133L385.11 823.103C383.174 822.617 381.238 822.127 379.299 821.635L379.545 820.667C377.629 820.181 375.711 819.693 373.792 819.202L373.544 820.17C371.624 819.679 369.702 819.186 367.779 818.69L368.029 817.722C366.107 817.226 364.183 816.727 362.258 816.226L362.005 817.195C360.079 816.694 358.151 816.189 356.221 815.682L356.476 814.716C354.547 814.21 352.617 813.7 350.685 813.189L350.428 814.155C348.496 813.644 346.562 813.129 344.627 812.612L344.886 811.647C342.974 811.137 341.06 810.623 339.145 810.108L338.884 811.073C336.971 810.558 335.057 810.04 333.141 809.52L333.403 808.555C331.488 808.035 329.572 807.513 327.654 806.988L327.39 807.951C325.471 807.426 323.551 806.899 321.629 806.369L321.897 805.405C319.976 804.875 318.054 804.343 316.131 803.808L315.862 804.772C313.939 804.236 312.014 803.698 310.088 803.158L310.359 802.195L307.47 801.384C306.507 801.113 305.543 800.84 304.581 800.568L304.309 801.531C302.384 800.987 300.461 800.442 298.541 799.894L298.814 798.933C296.895 798.386 294.978 797.837 293.063 797.287L292.787 798.248C290.872 797.698 288.959 797.146 287.048 796.592L287.326 795.633C285.416 795.08 283.508 794.525 281.603 793.97L281.324 794.93C279.418 794.374 277.515 793.817 275.614 793.258L275.895 792.299C273.993 791.739 272.093 791.179 270.195 790.617L269.911 791.574C267.991 791.005 266.072 790.436 264.157 789.864L264.443 788.906C262.528 788.334 260.616 787.761 258.707 787.187L258.419 788.144C257.918 787.993 257.416 787.842 256.915 787.691L252.696 786.416L252.986 785.459C251.082 784.881 249.18 784.303 247.281 783.723L246.99 784.679C245.09 784.099 243.194 783.517 241.3 782.934L241.593 781.979C239.7 781.396 237.809 780.812 235.921 780.226L235.626 781.181C233.715 780.589 231.807 779.996 229.902 779.401L229.903 779.4L230.201 778.446C228.292 777.85 226.385 777.252 224.482 776.652L224.182 777.606C222.278 777.006 220.376 776.405 218.478 775.803L218.78 774.85C216.882 774.248 214.986 773.645 213.094 773.04L212.791 773.992L212.789 773.993C210.897 773.388 209.007 772.782 207.12 772.175L207.121 772.174L207.428 771.222C205.542 770.615 203.658 770.007 201.778 769.397L201.47 770.347C199.572 769.732 197.678 769.115 195.786 768.497L196.097 767.547C194.194 766.925 192.293 766.302 190.396 765.677L190.084 766.627C188.186 766.002 186.291 765.376 184.399 764.748L184.714 763.8C182.823 763.173 180.936 762.544 179.051 761.915L178.735 762.862C176.849 762.232 174.966 761.602 173.087 760.97L173.088 760.969L173.408 760.022C171.53 759.39 169.655 758.757 167.783 758.122L167.462 759.068C165.576 758.429 163.693 757.788 161.814 757.146L162.137 756.2C160.24 755.552 158.347 754.902 156.457 754.252L156.132 755.198C154.589 754.667 153.049 754.135 151.511 753.603L150.471 753.242L150.799 752.298C148.916 751.645 147.036 750.991 145.16 750.336L144.831 751.28C144.227 751.069 143.623 750.858 143.019 750.647L139.212 749.31L139.543 748.367C137.675 747.709 135.809 747.051 133.947 746.391L133.613 747.333C132.532 746.95 131.451 746.566 130.372 746.182L127.995 745.334L128.331 744.393C126.442 743.718 124.556 743.043 122.675 742.366L122.337 743.307C120.455 742.63 118.576 741.952 116.702 741.273L117.043 740.333C115.169 739.654 113.299 738.973 111.433 738.291L111.09 739.231C109.223 738.549 107.36 737.867 105.501 737.183L105.847 736.245C103.989 735.561 102.134 734.877 100.284 734.192L99.9359 735.128C98.0661 734.436 96.2002 733.742 94.3384 733.047L94.6873 732.11C92.808 731.409 90.9327 730.707 89.0616 730.003L88.7099 730.939C87.4586 730.468 86.2088 729.998 84.9612 729.526L83.1058 728.823L83.4603 727.888C81.5975 727.182 79.7383 726.476 77.8838 725.768L77.5264 726.702C75.6711 725.994 73.8204 725.284 71.9736 724.574L72.3326 723.641C70.4866 722.931 68.6449 722.22 66.8075 721.508L66.4456 722.44C64.5792 721.717 62.7168 720.993 60.8593 720.268L61.223 719.337C59.3544 718.607 57.4896 717.877 55.6301 717.145L55.2648 718.075C53.4043 717.343 51.5482 716.611 49.697 715.877L50.0663 714.948C48.216 714.214 46.3694 713.48 44.5283 712.745L44.1573 713.673C42.3154 712.938 40.4784 712.2 38.6458 711.463L39.0193 710.536C37.186 709.799 35.3567 709.06 33.5328 708.32L33.1572 709.247L33.156 709.248C31.2902 708.491 29.4299 707.732 27.574 706.974L27.9522 706.049C26.0971 705.291 24.2469 704.531 22.4017 703.772L22.0207 704.696L22.0195 704.697C20.1736 703.936 18.3334 703.173 16.4976 702.411L16.8802 701.488C15.0451 700.727 13.2145 699.964 11.3895 699.201L11.0037 700.124C9.17773 699.36 7.35717 698.594 5.54138 697.829L5.92942 696.909C4.09206 696.134 2.26019 695.358 0.433407 694.582L0.0422913 695.502C-1.80878 694.716 -3.65422 693.928 -5.49437 693.14L-5.10069 692.221C-6.93988 691.433 -8.77378 690.645 -10.6019 689.855L-10.9982 690.773C-12.6222 690.071 -14.2423 689.37 -15.8576 688.668L-16.4685 688.401L-16.0694 687.485C-17.8865 686.694 -19.6982 685.902 -21.504 685.11L-21.9059 686.025C-23.717 685.231 -25.5227 684.436 -27.3225 683.64L-26.9178 682.725C-28.7612 681.91 -30.5987 681.093 -32.4301 680.276L-32.8373 681.189C-34.6698 680.372 -36.4964 679.554 -38.3168 678.735L-37.9058 677.823C-39.7251 677.005 -41.5387 676.186 -43.3458 675.366L-43.7594 676.276C-45.5675 675.456 -47.3698 674.636 -49.1656 673.815L-48.7492 672.905C-50.5442 672.084 -52.3335 671.263 -54.1161 670.44L-54.535 671.348C-56.3613 670.506 -58.181 669.663 -59.9942 668.819L-59.5727 667.913C-61.3945 667.065 -63.2101 666.217 -65.0185 665.368L-65.4428 666.273C-67.2525 665.424 -69.0551 664.573 -70.8514 663.723L-70.4236 662.819C-72.2185 661.97 -74.007 661.119 -75.7883 660.268L-76.2189 661.17L-76.2202 661.171C-78.0024 660.32 -79.7773 659.467 -81.5459 658.614L-81.1118 657.714C-82.9191 656.843 -84.7196 655.972 -86.5126 655.099L-86.9502 655.998C-88.7602 655.118 -90.5632 654.237 -92.3585 653.356L-91.918 652.458C-93.7124 651.578 -95.4993 650.695 -97.2788 649.814L-97.723 650.71C-98.4175 650.366 -99.1111 650.022 -99.8034 649.678L-103.043 648.062L-102.596 647.168C-104.36 646.286 -106.118 645.402 -107.867 644.519L-108.317 645.411C-110.113 644.505 -111.901 643.599 -113.68 642.692L-113.226 641.8C-115.019 640.886 -116.804 639.972 -118.58 639.058L-119.038 639.946C-120.816 639.031 -122.585 638.115 -124.347 637.2L-123.885 636.313C-125.645 635.398 -127.398 634.482 -129.141 633.566L-129.606 634.452C-130.379 634.046 -131.15 633.639 -131.92 633.233L-134.815 631.702L-134.346 630.819C-136.133 629.871 -137.912 628.922 -139.681 627.974L-140.153 628.854C-141.926 627.904 -143.69 626.953 -145.445 626.002L-144.969 625.123C-146.722 624.173 -148.466 623.223 -150.201 622.272L-150.682 623.148C-152.419 622.197 -154.146 621.247 -155.864 620.295L-155.379 619.42C-157.118 618.457 -158.848 617.494 -160.567 616.531L-161.056 617.403C-162.822 616.414 -164.578 615.425 -166.324 614.436L-165.831 613.567C-167.575 612.579 -169.309 611.59 -171.032 610.603L-171.53 611.47C-172.302 611.027 -173.073 610.585 -173.841 610.143L-176.674 608.505L-176.172 607.64C-177.875 606.652 -179.568 605.664 -181.25 604.677L-181.756 605.539C-183.503 604.514 -185.238 603.489 -186.962 602.464L-186.452 601.605C-188.183 600.577 -189.902 599.548 -191.609 598.52L-192.125 599.376C-193.835 598.347 -195.533 597.318 -197.219 596.29L-196.699 595.436C-198.383 594.409 -200.056 593.382 -201.717 592.355L-202.243 593.205C-203.953 592.149 -205.65 591.092 -207.335 590.037L-206.805 589.19C-208.517 588.117 -210.216 587.044 -211.902 585.973L-212.438 586.817C-214.126 585.745 -215.801 584.672 -217.462 583.601L-216.92 582.76C-218.58 581.69 -220.227 580.62 -221.86 579.551L-222.408 580.388C-224.005 579.343 -225.59 578.299 -227.161 577.255L-227.402 577.095L-226.849 576.262C-228.535 575.142 -230.205 574.023 -231.861 572.904L-232.421 573.733C-234.079 572.613 -235.722 571.494 -237.35 570.377L-236.784 569.552C-238.41 568.436 -240.022 567.321 -241.619 566.206L-242.191 567.025C-243.844 565.871 -245.482 564.718 -247.103 563.566L-246.523 562.752C-248.172 561.58 -249.804 560.41 -251.418 559.242L-252.004 560.052C-253.622 558.881 -255.221 557.711 -256.805 556.543L-256.211 555.739C-257.792 554.573 -259.355 553.409 -260.902 552.246L-261.503 553.045C-263.136 551.817 -264.75 550.59 -266.345 549.365L-265.736 548.572C-267.333 547.346 -268.909 546.121 -270.466 544.899L-271.084 545.684C-272.645 544.46 -274.185 543.236 -275.706 542.015L-275.08 541.237C-276.641 539.984 -278.182 538.732 -279.701 537.484L-280.336 538.255C-281.908 536.963 -283.457 535.672 -284.984 534.384L-284.339 533.621C-285.863 532.336 -287.364 531.054 -288.842 529.774L-289.497 530.53C-290.995 529.233 -292.469 527.938 -293.921 526.646L-293.256 525.899C-294.783 524.54 -296.285 523.184 -297.759 521.83L-298.435 522.566C-299.914 521.21 -301.365 519.856 -302.791 518.505L-302.103 517.781C-303.532 516.426 -304.935 515.074 -306.311 513.727L-307.011 514.441C-308.481 513.001 -309.92 511.566 -311.328 510.134L-310.615 509.433C-312.018 508.006 -313.389 506.582 -314.73 505.164L-315.457 505.85C-316.823 504.404 -318.156 502.962 -319.457 501.526L-318.717 500.855C-320.091 499.338 -321.428 497.826 -322.728 496.319L-323.484 496.972C-324.789 495.459 -326.057 493.952 -327.287 492.45L-326.515 491.818C-327.792 490.259 -329.029 488.705 -330.225 487.159L-331.016 487.77C-332.261 486.159 -333.463 484.556 -334.619 482.959L-333.809 482.373C-334.964 480.777 -336.075 479.189 -337.139 477.608L-337.968 478.166C-339.124 476.451 -340.226 474.743 -341.275 473.045L-340.426 472.519C-341.468 470.833 -342.456 469.156 -343.39 467.489L-344.261 467.976C-345.264 466.185 -346.208 464.405 -347.087 462.635L-346.191 462.19C-347.078 460.404 -347.901 458.63 -348.658 456.869L-349.576 457.264C-350.383 455.388 -351.118 453.525 -351.779 451.675L-350.838 451.339C-351.508 449.464 -352.101 447.605 -352.616 445.762L-353.579 446.03C-354.128 444.067 -354.589 442.119 -354.963 440.188L-353.983 439.998C-354.359 438.06 -354.645 436.141 -354.84 434.242L-355.833 434.344C-356.04 432.324 -356.149 430.323 -356.153 428.344L-355.154 428.341C-355.158 426.379 -355.06 424.439 -354.859 422.522L-355.852 422.418C-355.643 420.429 -355.327 418.463 -354.898 416.521L-353.92 416.736C-353.71 415.783 -353.473 414.837 -353.208 413.896C-352.943 412.955 -352.651 412.022 -352.333 411.1L-353.28 410.775C-352.632 408.894 -351.876 407.051 -351.017 405.245L-350.115 405.674C-349.286 403.933 -348.358 402.227 -347.33 400.556L-348.182 400.034C-347.145 398.347 -346.008 396.698 -344.777 395.082L-343.984 395.686C-342.826 394.168 -341.581 392.679 -340.25 391.222L-340.987 390.55C-339.66 389.099 -338.25 387.677 -336.757 386.288L-336.076 387.019C-334.675 385.716 -333.199 384.438 -331.649 383.188L-332.275 382.412C-330.747 381.18 -329.149 379.973 -327.481 378.794L-326.904 379.608C-325.339 378.501 -323.711 377.418 -322.023 376.357L-322.555 375.511C-320.881 374.46 -319.148 373.433 -317.358 372.429L-316.869 373.299C-315.202 372.363 -313.483 371.448 -311.714 370.553L-312.166 369.663C-310.385 368.761 -308.553 367.88 -306.672 367.02L-306.256 367.927C-304.523 367.134 -302.747 366.359 -300.929 365.6L-301.314 364.678C-299.494 363.919 -297.633 363.179 -295.731 362.455L-295.374 363.387C-293.548 362.692 -291.682 362.012 -289.778 361.349L-290.108 360.407C-288.275 359.768 -286.406 359.144 -284.504 358.535L-284.198 359.485C-282.303 358.878 -280.374 358.285 -278.41 357.708L-278.693 356.751C-276.833 356.204 -274.943 355.67 -273.024 355.149L-272.761 356.113C-270.878 355.602 -268.964 355.104 -267.022 354.618L-267.266 353.649C-265.318 353.162 -263.341 352.688 -261.336 352.227L-261.111 353.2C-259.235 352.769 -257.333 352.348 -255.406 351.939L-255.615 350.962C-253.695 350.553 -251.75 350.155 -249.781 349.769L-249.78 349.769L-249.587 350.75C-247.623 350.365 -245.635 349.991 -243.623 349.628L-243.801 348.646C-241.889 348.301 -239.956 347.964 -238.002 347.639L-238.001 347.64L-237.836 348.626C-235.907 348.305 -233.958 347.995 -231.988 347.693L-232.139 346.706C-230.164 346.405 -228.17 346.112 -226.155 345.83L-226.154 345.829L-226.015 346.819C-224.068 346.547 -222.101 346.282 -220.115 346.028L-220.243 345.038C-218.309 344.79 -216.356 344.55 -214.386 344.319L-214.268 345.311C-212.302 345.081 -210.318 344.858 -208.316 344.645L-208.422 343.653C-206.423 343.44 -204.406 343.235 -202.372 343.039L-202.371 343.038L-202.275 344.033C-200.349 343.848 -198.408 343.671 -196.451 343.501L-196.538 342.507C-194.578 342.336 -192.603 342.174 -190.613 342.019L-190.535 343.014C-188.548 342.859 -186.545 342.713 -184.528 342.574L-184.597 341.578C-182.613 341.441 -180.615 341.311 -178.603 341.189L-178.541 342.186C-176.598 342.068 -174.641 341.958 -172.671 341.854L-172.724 340.856C-170.752 340.752 -168.766 340.655 -166.768 340.565L-166.722 341.563C-164.726 341.473 -162.717 341.39 -160.695 341.314L-160.732 340.316C-158.752 340.241 -156.759 340.173 -154.754 340.112L-154.723 341.111C-152.771 341.051 -150.808 340.998 -148.834 340.951L-148.858 339.952C-146.881 339.905 -144.893 339.864 -142.894 339.83L-142.877 340.829C-140.879 340.794 -138.87 340.766 -136.85 340.744L-136.861 339.746C-134.873 339.724 -132.874 339.709 -130.864 339.699L-130.858 340.698C-128.905 340.689 -126.942 340.686 -124.969 340.689L-124.968 339.691C-122.993 339.693 -121.008 339.701 -119.013 339.715L-119.02 340.713C-117.026 340.727 -115.022 340.748 -113.009 340.773L-112.997 339.774C-110.991 339.8 -108.976 339.831 -106.951 339.867L-106.968 340.866C-105.018 340.901 -103.059 340.942 -101.091 340.988L-101.068 339.989C-99.0987 340.035 -97.1199 340.087 -95.1323 340.144L-95.1608 341.142C-93.175 341.199 -91.18 341.26 -89.1766 341.327L-89.1431 340.329C-87.1381 340.397 -85.1244 340.469 -83.102 340.547L-83.1017 340.546L-83.1404 341.545C-81.1708 341.621 -79.1926 341.701 -77.2067 341.787L-77.163 340.789L-77.1639 340.789C-75.2019 340.873 -73.232 340.964 -71.2542 341.059L-71.254 341.058L-71.3016 342.056C-69.3255 342.15 -67.3411 342.251 -65.3494 342.355L-65.2977 341.357C-63.3044 341.461 -61.3034 341.571 -59.2947 341.685L-59.3513 342.682C-57.3471 342.796 -55.3351 342.915 -53.3157 343.039L-53.255 342.041C-51.3024 342.161 -49.3427 342.285 -47.376 342.413L-47.4417 343.41C-45.4767 343.539 -43.5045 343.671 -41.5255 343.809L-41.4561 342.813C-39.4757 342.951 -37.4883 343.093 -35.4941 343.24L-35.4939 343.239L-35.5676 344.236C-33.5749 344.382 -31.5751 344.534 -29.5688 344.69L-29.4913 343.694C-27.5001 343.849 -25.5023 344.008 -23.4979 344.171L-23.5782 345.166C-21.6249 345.326 -19.6651 345.49 -17.6994 345.658L-17.6148 344.662C-15.6475 344.83 -13.6742 345.003 -11.6946 345.18L-11.7839 346.174C-9.80565 346.351 -7.82045 346.531 -5.83003 346.716L-5.7386 345.721C-3.74687 345.906 -1.74903 346.095 0.254764 346.289L0.255028 346.288L0.159314 347.284C2.14367 347.475 4.134 347.67 6.13008 347.87L6.23023 346.877C8.18376 347.072 10.1429 347.271 12.1076 347.475L12.1085 347.475L12.005 348.469C13.9687 348.673 15.9381 348.88 17.9129 349.092L18.0189 348.099C19.9947 348.311 21.9761 348.525 23.9628 348.745L23.8537 349.738C25.8391 349.957 27.8298 350.182 29.826 350.409L29.9391 349.416C31.9265 349.643 33.9189 349.874 35.9168 350.108L35.801 351.099C37.7506 351.328 39.7051 351.56 41.6645 351.797L41.7843 350.806C43.7449 351.042 45.7105 351.282 47.681 351.525L47.5581 352.517C49.5274 352.76 51.5019 353.008 53.4809 353.259L53.6069 352.268C55.587 352.519 57.5719 352.775 59.5617 353.033L59.4329 354.024C61.4216 354.283 63.4151 354.545 65.4132 354.811L65.5448 353.821C67.4955 354.081 69.4506 354.345 71.4102 354.612L71.2758 355.601C73.2296 355.868 75.1879 356.137 77.1505 356.41L77.2879 355.421C79.2519 355.695 81.2201 355.972 83.1927 356.253L83.0524 357.241C85.0238 357.522 86.9999 357.806 88.9798 358.094L89.1232 357.105C91.1039 357.393 93.0887 357.685 95.0779 357.979L94.9326 358.967C96.896 359.258 98.8634 359.553 100.835 359.851L100.984 358.863C102.932 359.158 104.885 359.454 106.841 359.755L106.841 359.756L106.689 360.743C108.644 361.044 110.604 361.349 112.567 361.657L112.721 360.67C114.685 360.978 116.653 361.289 118.625 361.604L118.467 362.59C120.438 362.904 122.413 363.222 124.392 363.544L124.551 362.558C126.531 362.879 128.514 363.204 130.5 363.532L130.337 364.518C132.279 364.839 134.225 365.162 136.173 365.489L136.339 364.505C138.287 364.832 140.239 365.162 142.194 365.495L142.026 366.48C143.98 366.813 145.938 367.151 147.899 367.49L148.07 366.506C150.032 366.846 151.997 367.189 153.966 367.536L153.793 368.519C155.761 368.865 157.732 369.215 159.707 369.568L159.883 368.584C161.846 368.935 163.812 369.289 165.782 369.646L165.604 370.629C167.543 370.98 169.486 371.335 171.431 371.693L171.611 370.71C173.557 371.068 175.506 371.428 177.458 371.792L177.459 371.792L177.276 372.774C179.228 373.138 181.182 373.506 183.14 373.875L183.325 372.894C185.283 373.264 187.244 373.637 189.209 374.013L189.022 374.994C190.985 375.37 192.951 375.749 194.921 376.131L195.111 375.151C197.062 375.53 199.016 375.912 200.972 376.296L200.781 377.276C202.717 377.657 204.656 378.041 206.598 378.427L206.792 377.447C208.735 377.834 210.681 378.224 212.629 378.617L212.431 379.596C214.378 379.988 216.329 380.384 218.281 380.782L218.481 379.803C220.435 380.201 222.391 380.603 224.35 381.008L224.35 381.007L224.148 381.986C226.105 382.39 228.066 382.798 230.03 383.208L230.234 382.23C232.177 382.636 234.122 383.045 236.07 383.457L235.864 384.435C237.796 384.843 239.731 385.254 241.669 385.668L241.878 384.691C243.816 385.106 245.756 385.524 247.698 385.944L247.488 386.919C249.43 387.339 251.375 387.762 253.321 388.187L253.534 387.212C255.482 387.637 257.432 388.066 259.384 388.498L259.168 389.473C261.12 389.904 263.074 390.338 265.03 390.775L265.248 389.8C267.186 390.233 269.127 390.668 271.069 391.107L270.85 392.081C272.777 392.516 274.707 392.954 276.639 393.395L276.862 392.421Z" stroke="#6B81FF" stroke-width="2" stroke-dasharray="6 6"/>
<circle cx="1127.5" cy="870.464" r="12" transform="rotate(-2.20658 1127.5 870.464)" fill="#6B81FF"/>
<path fill-rule="evenodd" clip-rule="evenodd" d="M541.91 920.546L536.74 918.402L539.475 911.805L544.646 913.944L543.92 908.396L551.002 907.464L551.734 913.011L556.177 909.608L560.525 915.274L556.085 918.682L561.255 920.826L558.52 927.423L553.348 925.284L554.075 930.832L546.993 931.763L546.261 926.216L541.818 929.62L537.47 923.954L541.91 920.546Z" fill="#A3B1FF"/>
<path d="M218.641 906.757L204.254 930.17L230.389 938.663L202.919 937.91L208.632 964.79L195.549 940.624L175.127 959.011L189.513 935.598L163.378 927.106L190.848 927.858L185.135 900.978L198.219 925.145L218.641 906.757Z" fill="#C1CAFF"/>
<circle cx="929" cy="864" r="9.5" stroke="#A3B1FF"/>
<path d="M1196.8 4.80664L1313.08 118.856" stroke="#C1CAFF" stroke-width="2"/>
<circle cx="1194.09" cy="2.11195" r="5" transform="rotate(1.29768 1194.09 2.11195)" fill="#A3B1FF"/>
<circle cx="1320.8" cy="126.802" r="13.5" transform="rotate(1.29768 1320.8 126.802)" fill="#A3B1FF"/>
</svg>
