<svg width="339" height="188" viewBox="0 0 339 188" fill="none" xmlns="http://www.w3.org/2000/svg">
<g filter="url(#filter0_i_3583_1159)">
<path d="M145.638 46.0056C161.007 39.0975 179.382 46.0544 186.276 61.3911C193.279 76.971 186.284 95.332 170.916 102.241C156.046 108.924 133.782 103.829 116.387 99.2027C116.099 99.1263 115.811 99.2925 115.705 99.5702C115.468 100.194 115.683 100.925 116.279 101.226C132.263 109.287 151.915 120.175 158.523 134.875C165.431 150.244 158.475 168.619 142.895 175.623C127.558 182.517 109.197 175.521 102.288 160.152C95.8371 145.8 100.438 122.429 105.107 105.157C105.183 104.878 105.022 104.596 104.752 104.493C104.299 104.321 103.776 104.489 103.56 104.922C95.5848 120.895 83.5727 141.216 69.3088 147.628C53.94 154.536 35.5647 147.579 28.6706 132.242C21.6674 116.662 28.6621 98.3014 44.0309 91.3929C58.8385 84.7368 80.9793 89.7603 98.3427 94.3707C98.9691 94.537 99.5983 94.1463 99.8284 93.5404C99.9264 93.2824 99.8264 92.9888 99.5797 92.865C83.4395 84.7602 63.1582 73.7388 56.4247 58.7589C49.5164 43.3901 56.4735 25.0148 72.0534 18.0115C87.3902 11.1175 105.751 18.1123 112.66 33.4811C118.981 47.5433 114.692 70.2631 110.124 87.4222C109.99 87.9251 110.295 88.4323 110.781 88.6171C111.086 88.7328 111.433 88.6162 111.579 88.325C119.554 72.4119 131.489 52.3657 145.638 46.0056Z" fill="url(#paint0_linear_3583_1159)"/>
</g>
<g filter="url(#filter1_i_3583_1159)">
<path d="M115.825 36.5313C127.98 37.844 136.077 41.1838 136.674 45.9855C137.719 54.3724 115.485 64.0444 87.0121 67.5868C58.5396 71.1293 34.6094 67.2025 33.565 58.8155C32.958 53.9369 40.223 48.6257 52.011 44.338L51.5739 46.7575C46.904 49.3326 44.3022 52.119 44.6287 54.7463C45.4433 61.2799 64.0839 64.3385 86.2642 61.5783C108.444 58.8182 125.762 51.2845 124.951 44.7516C124.637 42.2327 121.672 40.2296 116.876 38.8783L115.825 36.5313Z" fill="white"/>
</g>
<g filter="url(#filter2_d_3583_1159)">
<circle cx="142.814" cy="172.447" r="1.46105" transform="rotate(-31.2989 142.814 172.447)" fill="white"/>
</g>
<g filter="url(#filter3_d_3583_1159)">
<circle cx="31.9039" cy="130.325" r="1.46105" transform="rotate(-31.2989 31.9039 130.325)" fill="white"/>
</g>
<g filter="url(#filter4_d_3583_1159)">
<circle cx="183.578" cy="65.1129" r="1.46105" transform="rotate(-31.2989 183.578 65.1129)" fill="white"/>
</g>
<g filter="url(#filter5_d_3583_1159)">
<circle cx="72.6656" cy="22.9914" r="1.46105" transform="rotate(-31.2989 72.6656 22.9914)" fill="white"/>
</g>
<path d="M215 40.5005H338.5V70.0005C338.5 82.4269 328.426 92.5005 316 92.5005H203.5V52.0005C203.5 45.6492 208.649 40.5005 215 40.5005Z" fill="#3755FF"/>
<path d="M215 40.5005H338.5V70.0005C338.5 82.4269 328.426 92.5005 316 92.5005H203.5V52.0005C203.5 45.6492 208.649 40.5005 215 40.5005Z" stroke="white"/>
<path d="M229.828 77.0005C229.623 77.0005 229.52 76.8978 229.52 76.6925V56.7285C229.52 56.5418 229.623 56.4485 229.828 56.4485H235.96C239.376 56.4485 241.952 57.3538 243.688 59.1645C245.443 60.9752 246.32 63.4952 246.32 66.7245C246.32 69.9352 245.443 72.4552 243.688 74.2845C241.952 76.0952 239.376 77.0005 235.96 77.0005H229.828ZM235.68 74.7885C238.387 74.7885 240.431 74.0885 241.812 72.6885C243.193 71.2885 243.884 69.3005 243.884 66.7245C243.884 64.1485 243.193 62.1605 241.812 60.7605C240.431 59.3605 238.387 58.6605 235.68 58.6605H231.872V74.7885H235.68ZM255.477 77.2805C254.077 77.2805 252.855 76.9632 251.809 76.3285C250.764 75.6938 249.961 74.8258 249.401 73.7245C248.841 72.6045 248.561 71.3352 248.561 69.9165C248.561 68.4978 248.841 67.2378 249.401 66.1365C249.98 65.0165 250.792 64.1485 251.837 63.5325C252.883 62.8978 254.096 62.5805 255.477 62.5805C257.531 62.5805 259.117 63.2898 260.237 64.7085C261.376 66.1085 261.927 67.9845 261.889 70.3365C261.889 70.5418 261.787 70.6445 261.581 70.6445H250.913C251.044 72.0632 251.511 73.1832 252.313 74.0045C253.135 74.8258 254.189 75.2365 255.477 75.2365C257.419 75.2365 258.791 74.4432 259.593 72.8565C259.668 72.7072 259.799 72.6605 259.985 72.7165L261.385 73.2205C261.479 73.2578 261.535 73.3138 261.553 73.3885C261.591 73.4445 261.591 73.5098 261.553 73.5845C260.956 74.8165 260.135 75.7405 259.089 76.3565C258.063 76.9725 256.859 77.2805 255.477 77.2805ZM259.481 68.8805C259.388 67.5925 258.987 66.5565 258.277 65.7725C257.568 64.9885 256.635 64.5965 255.477 64.5965C254.264 64.5965 253.247 64.9885 252.425 65.7725C251.604 66.5378 251.109 67.5738 250.941 68.8805H259.481ZM269.191 77.2805C267.697 77.2805 266.447 76.9725 265.439 76.3565C264.449 75.7218 263.731 74.7792 263.283 73.5285L263.255 73.4165C263.255 73.3045 263.329 73.2205 263.479 73.1645L264.935 72.7725C264.972 72.7538 265.019 72.7445 265.075 72.7445C265.205 72.7445 265.28 72.8098 265.299 72.9405C265.653 73.7432 266.139 74.3312 266.755 74.7045C267.371 75.0592 268.155 75.2365 269.107 75.2365C269.965 75.2365 270.647 75.0778 271.151 74.7605C271.673 74.4245 271.935 73.9392 271.935 73.3045C271.935 72.7632 271.72 72.3338 271.291 72.0165C270.861 71.6805 270.152 71.3725 269.163 71.0925L268.323 70.8685C266.792 70.4392 265.672 69.8698 264.963 69.1605C264.272 68.4325 263.927 67.5458 263.927 66.5005C263.927 65.3618 264.375 64.4285 265.271 63.7005C266.185 62.9538 267.38 62.5805 268.855 62.5805C270.105 62.5805 271.179 62.8698 272.075 63.4485C272.971 64.0085 273.624 64.8578 274.035 65.9965C274.053 66.0338 274.063 66.0805 274.063 66.1365C274.063 66.1925 274.044 66.2392 274.007 66.2765C273.969 66.3138 273.923 66.3418 273.867 66.3605L272.411 66.8085C272.373 66.8272 272.327 66.8365 272.271 66.8365C272.177 66.8365 272.093 66.7712 272.019 66.6405C271.403 65.2778 270.339 64.5965 268.827 64.5965C268.043 64.5965 267.408 64.7645 266.923 65.1005C266.456 65.4365 266.223 65.9032 266.223 66.5005C266.223 67.0418 266.437 67.4805 266.867 67.8165C267.315 68.1525 268.071 68.4605 269.135 68.7405L269.919 68.9365C271.449 69.3285 272.551 69.8792 273.223 70.5885C273.913 71.2792 274.259 72.1658 274.259 73.2485C274.259 74.4618 273.783 75.4418 272.831 76.1885C271.897 76.9165 270.684 77.2805 269.191 77.2805ZM278.253 59.6685C277.824 59.6685 277.469 59.5378 277.189 59.2765C276.909 58.9965 276.769 58.6512 276.769 58.2405C276.769 57.8298 276.909 57.4938 277.189 57.2325C277.469 56.9525 277.824 56.8125 278.253 56.8125C278.682 56.8125 279.037 56.9525 279.317 57.2325C279.597 57.4938 279.737 57.8298 279.737 58.2405C279.737 58.6512 279.597 58.9965 279.317 59.2765C279.037 59.5378 278.682 59.6685 278.253 59.6685ZM277.441 77.0005C277.236 77.0005 277.133 76.8978 277.133 76.6925V63.1405C277.133 62.9538 277.236 62.8605 277.441 62.8605H279.093C279.28 62.8605 279.373 62.9538 279.373 63.1405V76.6925C279.373 76.8978 279.28 77.0005 279.093 77.0005H277.441ZM289.294 83.3845C287.745 83.3845 286.41 83.0485 285.29 82.3765C284.189 81.7045 283.386 80.7245 282.882 79.4365C282.863 79.3992 282.854 79.3525 282.854 79.2965C282.854 79.2032 282.919 79.1285 283.05 79.0725L284.394 78.5685L284.506 78.5405C284.637 78.5405 284.73 78.6058 284.786 78.7365C285.178 79.5578 285.729 80.1925 286.438 80.6405C287.166 81.0885 288.099 81.3125 289.238 81.3125C290.619 81.3125 291.758 80.9672 292.654 80.2765C293.569 79.6045 294.026 78.5125 294.026 77.0005V74.4805C293.541 75.3392 292.841 76.0205 291.926 76.5245C291.011 77.0285 290.013 77.2805 288.93 77.2805C287.586 77.2805 286.401 76.9725 285.374 76.3565C284.347 75.7218 283.554 74.8538 282.994 73.7525C282.453 72.6325 282.182 71.3538 282.182 69.9165C282.182 68.4978 282.453 67.2378 282.994 66.1365C283.554 65.0165 284.347 64.1485 285.374 63.5325C286.401 62.8978 287.586 62.5805 288.93 62.5805C290.05 62.5805 291.077 62.8418 292.01 63.3645C292.943 63.8872 293.643 64.5965 294.11 65.4925L294.222 63.1405C294.222 62.9538 294.325 62.8605 294.53 62.8605H295.986C296.173 62.8605 296.266 62.9538 296.266 63.1405V76.7765C296.266 78.9605 295.622 80.6032 294.334 81.7045C293.046 82.8245 291.366 83.3845 289.294 83.3845ZM289.35 75.2085C290.787 75.2085 291.954 74.7232 292.85 73.7525C293.765 72.7818 294.222 71.5032 294.222 69.9165C294.222 68.8898 294.017 67.9752 293.606 67.1725C293.195 66.3698 292.617 65.7538 291.87 65.3245C291.142 64.8765 290.302 64.6525 289.35 64.6525C288.398 64.6525 287.549 64.8765 286.802 65.3245C286.074 65.7538 285.505 66.3698 285.094 67.1725C284.683 67.9752 284.478 68.8898 284.478 69.9165C284.478 71.5032 284.926 72.7818 285.822 73.7525C286.737 74.7232 287.913 75.2085 289.35 75.2085ZM300.383 77.0005C300.178 77.0005 300.075 76.8978 300.075 76.6925V63.1405C300.075 62.9538 300.178 62.8605 300.383 62.8605H301.811C302.017 62.8605 302.119 62.9538 302.119 63.1405L302.231 65.4645C302.717 64.5312 303.426 63.8218 304.359 63.3365C305.293 62.8325 306.273 62.5805 307.299 62.5805C308.886 62.5805 310.127 63.0472 311.023 63.9805C311.919 64.8952 312.367 66.1738 312.367 67.8165V76.6925C312.367 76.8978 312.274 77.0005 312.087 77.0005H310.435C310.23 77.0005 310.127 76.8978 310.127 76.6925V68.7405C310.127 67.3778 309.847 66.3605 309.287 65.6885C308.727 64.9978 307.869 64.6525 306.711 64.6525C306.002 64.6525 305.311 64.8392 304.639 65.2125C303.967 65.5672 303.407 66.1085 302.959 66.8365C302.53 67.5645 302.315 68.4605 302.315 69.5245V76.6925C302.315 76.8978 302.222 77.0005 302.035 77.0005H300.383Z" fill="white"/>
<defs>
<filter id="filter0_i_3583_1159" x="25.9473" y="10.4244" width="163.053" height="167.856" filterUnits="userSpaceOnUse" color-interpolation-filters="sRGB">
<feFlood flood-opacity="0" result="BackgroundImageFix"/>
<feBlend mode="normal" in="SourceGraphic" in2="BackgroundImageFix" result="shape"/>
<feColorMatrix in="SourceAlpha" type="matrix" values="0 0 0 0 0 0 0 0 0 0 0 0 0 0 0 0 0 0 127 0" result="hardAlpha"/>
<feOffset dy="-4.92958"/>
<feGaussianBlur stdDeviation="9.85915"/>
<feComposite in2="hardAlpha" operator="arithmetic" k2="-1" k3="1"/>
<feColorMatrix type="matrix" values="0 0 0 0 1 0 0 0 0 1 0 0 0 0 1 0 0 0 0.7 0"/>
<feBlend mode="normal" in2="shape" result="effect1_innerShadow_3583_1159"/>
</filter>
<filter id="filter1_i_3583_1159" x="31.5575" y="36.5312" width="105.152" height="32.3589" filterUnits="userSpaceOnUse" color-interpolation-filters="sRGB">
<feFlood flood-opacity="0" result="BackgroundImageFix"/>
<feBlend mode="normal" in="SourceGraphic" in2="BackgroundImageFix" result="shape"/>
<feColorMatrix in="SourceAlpha" type="matrix" values="0 0 0 0 0 0 0 0 0 0 0 0 0 0 0 0 0 0 127 0" result="hardAlpha"/>
<feOffset dx="-1.97183"/>
<feGaussianBlur stdDeviation="1.97183"/>
<feComposite in2="hardAlpha" operator="arithmetic" k2="-1" k3="1"/>
<feColorMatrix type="matrix" values="0 0 0 0 0.027451 0 0 0 0 0.25098 0 0 0 0 0.964706 0 0 0 0.25 0"/>
<feBlend mode="normal" in2="shape" result="effect1_innerShadow_3583_1159"/>
</filter>
<filter id="filter2_d_3583_1159" x="138.199" y="167.831" width="9.23173" height="9.23222" filterUnits="userSpaceOnUse" color-interpolation-filters="sRGB">
<feFlood flood-opacity="0" result="BackgroundImageFix"/>
<feColorMatrix in="SourceAlpha" type="matrix" values="0 0 0 0 0 0 0 0 0 0 0 0 0 0 0 0 0 0 127 0" result="hardAlpha"/>
<feMorphology radius="0.985915" operator="dilate" in="SourceAlpha" result="effect1_dropShadow_3583_1159"/>
<feOffset/>
<feGaussianBlur stdDeviation="1.08451"/>
<feComposite in2="hardAlpha" operator="out"/>
<feColorMatrix type="matrix" values="0 0 0 0 1 0 0 0 0 1 0 0 0 0 1 0 0 0 1 0"/>
<feBlend mode="normal" in2="BackgroundImageFix" result="effect1_dropShadow_3583_1159"/>
<feBlend mode="normal" in="SourceGraphic" in2="effect1_dropShadow_3583_1159" result="shape"/>
</filter>
<filter id="filter3_d_3583_1159" x="27.2884" y="125.709" width="9.23173" height="9.23222" filterUnits="userSpaceOnUse" color-interpolation-filters="sRGB">
<feFlood flood-opacity="0" result="BackgroundImageFix"/>
<feColorMatrix in="SourceAlpha" type="matrix" values="0 0 0 0 0 0 0 0 0 0 0 0 0 0 0 0 0 0 127 0" result="hardAlpha"/>
<feMorphology radius="0.985915" operator="dilate" in="SourceAlpha" result="effect1_dropShadow_3583_1159"/>
<feOffset/>
<feGaussianBlur stdDeviation="1.08451"/>
<feComposite in2="hardAlpha" operator="out"/>
<feColorMatrix type="matrix" values="0 0 0 0 1 0 0 0 0 1 0 0 0 0 1 0 0 0 1 0"/>
<feBlend mode="normal" in2="BackgroundImageFix" result="effect1_dropShadow_3583_1159"/>
<feBlend mode="normal" in="SourceGraphic" in2="effect1_dropShadow_3583_1159" result="shape"/>
</filter>
<filter id="filter4_d_3583_1159" x="178.962" y="60.4969" width="9.23173" height="9.23222" filterUnits="userSpaceOnUse" color-interpolation-filters="sRGB">
<feFlood flood-opacity="0" result="BackgroundImageFix"/>
<feColorMatrix in="SourceAlpha" type="matrix" values="0 0 0 0 0 0 0 0 0 0 0 0 0 0 0 0 0 0 127 0" result="hardAlpha"/>
<feMorphology radius="0.985915" operator="dilate" in="SourceAlpha" result="effect1_dropShadow_3583_1159"/>
<feOffset/>
<feGaussianBlur stdDeviation="1.08451"/>
<feComposite in2="hardAlpha" operator="out"/>
<feColorMatrix type="matrix" values="0 0 0 0 1 0 0 0 0 1 0 0 0 0 1 0 0 0 1 0"/>
<feBlend mode="normal" in2="BackgroundImageFix" result="effect1_dropShadow_3583_1159"/>
<feBlend mode="normal" in="SourceGraphic" in2="effect1_dropShadow_3583_1159" result="shape"/>
</filter>
<filter id="filter5_d_3583_1159" x="68.0501" y="18.3753" width="9.23173" height="9.23222" filterUnits="userSpaceOnUse" color-interpolation-filters="sRGB">
<feFlood flood-opacity="0" result="BackgroundImageFix"/>
<feColorMatrix in="SourceAlpha" type="matrix" values="0 0 0 0 0 0 0 0 0 0 0 0 0 0 0 0 0 0 127 0" result="hardAlpha"/>
<feMorphology radius="0.985915" operator="dilate" in="SourceAlpha" result="effect1_dropShadow_3583_1159"/>
<feOffset/>
<feGaussianBlur stdDeviation="1.08451"/>
<feComposite in2="hardAlpha" operator="out"/>
<feColorMatrix type="matrix" values="0 0 0 0 1 0 0 0 0 1 0 0 0 0 1 0 0 0 1 0"/>
<feBlend mode="normal" in2="BackgroundImageFix" result="effect1_dropShadow_3583_1159"/>
<feBlend mode="normal" in="SourceGraphic" in2="effect1_dropShadow_3583_1159" result="shape"/>
</filter>
<linearGradient id="paint0_linear_3583_1159" x1="103.599" y1="7.93676" x2="92.9131" y2="175.095" gradientUnits="userSpaceOnUse">
<stop stop-color="#C1CAFF"/>
<stop offset="1" stop-color="#6B81FF"/>
</linearGradient>
</defs>
</svg>
