<svg preserveAspectRatio="none" width="100%" height="100%" overflow="visible" style="display: block;" viewBox="0 0 279.692 107.49" fill="none" xmlns="http://www.w3.org/2000/svg">
<g id="Group 287">
<path id="Vector" d="M4 51.8979L-2.96743e-08 51.8979L9.83349e-07 59.8979L4 59.8979L4 55.8979L4 51.8979ZM4 55.8979L4 59.8979L276.309 59.8979L276.309 55.8979L276.309 51.8979L4 51.8979L4 55.8979Z" fill="var(--stroke-0, white)"/>
<path id="Vector_2" d="M229.808 2.85076L227.002 0L221.3 5.61184L224.106 8.4626L226.957 5.65668L229.808 2.85076ZM275.692 55.1706L278.543 57.9765C280.075 56.4197 280.075 53.9215 278.543 52.3646L275.692 55.1706ZM226.957 5.65668L224.106 8.4626L272.841 57.9765L275.692 55.1706L278.543 52.3646L229.808 2.85076L226.957 5.65668ZM275.692 55.1706L272.841 52.3646L224.106 101.879L226.957 104.684L229.808 107.49L278.543 57.9765L275.692 55.1706Z" fill="var(--stroke-0, white)"/>
</g>
</svg>
