<svg width="455" height="176" viewBox="0 0 455 176" fill="none" xmlns="http://www.w3.org/2000/svg">
<g filter="url(#filter0_ii_3583_1161)">
<rect width="82.6824" height="82.6824" transform="matrix(0.778821 0.627247 -0.932622 0.360855 83.4707 83.1016)" fill="url(#paint0_linear_3583_1161)"/>
</g>
<circle cx="77.6992" cy="120.193" r="16.9958" transform="rotate(8.84729 77.6992 120.193)" fill="#D9D9D9"/>
<circle cx="77.6992" cy="120.193" r="16.9958" transform="rotate(8.84729 77.6992 120.193)" fill="white"/>
<g opacity="0.7" filter="url(#filter1_ii_3583_1161)">
<rect width="82.6824" height="82.6824" transform="matrix(0.778821 0.627247 -0.932622 0.360855 86.6953 62.3867)" fill="url(#paint1_linear_3583_1161)"/>
</g>
<g opacity="0.5" filter="url(#filter2_ii_3583_1161)">
<rect width="82.6824" height="82.6824" transform="matrix(0.778821 0.627247 -0.932622 0.360855 89.9199 41.6714)" fill="url(#paint2_linear_3583_1161)"/>
</g>
<path d="M93.3998 25.6533C92.9508 25.0388 92.0887 24.9046 91.4741 25.3536L81.4599 32.6703C80.8454 33.1192 80.7112 33.9814 81.1602 34.5959C81.6091 35.2104 82.4713 35.3446 83.0858 34.8956L91.9874 28.392L98.4911 37.2935C98.94 37.908 99.8022 38.0422 100.417 37.5933C101.031 37.1443 101.165 36.2821 100.716 35.6676L93.3998 25.6533ZM80.4182 102.718L81.7799 102.93L93.6488 26.6783L92.2871 26.4663L90.9255 26.2544L79.0566 102.506L80.4182 102.718Z" fill="url(#paint3_linear_3583_1161)"/>
<g filter="url(#filter3_i_3583_1161)">
<path d="M63.9475 69.7099C57.4763 72.8 53.7851 76.3882 54.6578 79.4793C56.1816 84.8787 71.0538 86.7173 87.8758 83.5848C104.698 80.4523 117.101 73.5357 115.577 68.1363C114.69 64.9956 110.154 63.171 102.48 62.7175L102.469 64.0262C105.73 64.7497 107.886 65.9915 108.364 67.6828C109.55 71.8892 99.8887 77.2768 86.784 79.7167C73.6794 82.1566 62.0955 80.7243 60.9074 76.5189C60.4502 74.8972 61.6056 73.0992 63.9496 71.3628L63.9475 69.7099Z" fill="#C1CAFF"/>
</g>
<g filter="url(#filter4_i_3583_1161)">
<path d="M106.55 76.3412C111.776 81.2519 114.202 85.7923 112.431 88.4719C109.338 93.1527 94.6109 90.384 79.5368 82.2868C64.4627 74.1896 54.7487 63.8304 57.8415 59.1496C59.6408 56.427 64.517 56.0674 71.9656 57.9677L71.5784 59.2179C68.2524 58.9162 65.8207 59.4439 64.8516 60.91C62.4427 64.5568 70.0095 72.626 81.7526 78.9335C93.4957 85.2411 104.967 87.3974 107.377 83.7521C108.306 82.346 107.751 80.2819 106.046 77.9153L106.55 76.3412Z" fill="white"/>
</g>
<path d="M171.955 0.5H454.455V54C454.455 66.4264 444.381 76.5 431.955 76.5H160.455V12C160.455 5.64873 165.604 0.5 171.955 0.5Z" fill="#3755FF"/>
<path d="M171.955 0.5H454.455V54C454.455 66.4264 444.381 76.5 431.955 76.5H160.455V12C160.455 5.64873 165.604 0.5 171.955 0.5Z" stroke="white"/>
<path d="M186.783 37C186.578 37 186.475 36.8973 186.475 36.692V16.728C186.475 16.5413 186.578 16.448 186.783 16.448H198.767C198.972 16.448 199.075 16.5413 199.075 16.728V18.352C199.075 18.5573 198.972 18.66 198.767 18.66H188.827V25.744H197.563C197.768 25.744 197.871 25.8373 197.871 26.024V27.648C197.871 27.8533 197.768 27.956 197.563 27.956H188.827V36.692C188.827 36.8973 188.724 37 188.519 37H186.783ZM201.473 37C201.268 37 201.165 36.8973 201.165 36.692V23.14C201.165 22.9533 201.268 22.86 201.473 22.86H202.901C203.106 22.86 203.209 22.9533 203.209 23.14L203.321 25.576C203.825 24.6613 204.497 23.952 205.337 23.448C206.196 22.9253 207.129 22.664 208.137 22.664C208.51 22.664 208.762 22.6827 208.893 22.72C209.061 22.7387 209.145 22.8413 209.145 23.028V24.652C209.145 24.8387 209.061 24.932 208.893 24.932C208.781 24.932 208.622 24.9227 208.417 24.904C208.23 24.8667 208.053 24.848 207.885 24.848C207.12 24.848 206.392 25.044 205.701 25.436C205.01 25.828 204.45 26.3693 204.021 27.06C203.61 27.7507 203.405 28.5067 203.405 29.328V36.692C203.405 36.8973 203.312 37 203.125 37H201.473ZM217.074 37.28C215.655 37.28 214.404 36.9627 213.322 36.328C212.239 35.6933 211.399 34.8253 210.802 33.724C210.204 32.604 209.906 31.3347 209.906 29.916C209.906 28.4973 210.204 27.2373 210.802 26.136C211.399 25.016 212.239 24.148 213.322 23.532C214.404 22.8973 215.655 22.58 217.074 22.58C218.492 22.58 219.743 22.8973 220.826 23.532C221.927 24.148 222.776 25.016 223.374 26.136C223.971 27.2373 224.27 28.4973 224.27 29.916C224.27 31.3347 223.971 32.604 223.374 33.724C222.776 34.8253 221.927 35.6933 220.826 36.328C219.743 36.9627 218.492 37.28 217.074 37.28ZM217.074 35.208C218.511 35.208 219.678 34.7227 220.574 33.752C221.488 32.7813 221.946 31.5027 221.946 29.916C221.946 28.8893 221.74 27.9747 221.33 27.172C220.919 26.3693 220.34 25.7533 219.594 25.324C218.866 24.876 218.026 24.652 217.074 24.652C216.122 24.652 215.272 24.876 214.526 25.324C213.798 25.7533 213.228 26.3693 212.818 27.172C212.407 27.9747 212.202 28.8893 212.202 29.916C212.202 31.5027 212.65 32.7813 213.546 33.752C214.46 34.7227 215.636 35.208 217.074 35.208ZM227.341 37C227.136 37 227.033 36.8973 227.033 36.692V23.14C227.033 22.9533 227.136 22.86 227.341 22.86H228.769C228.975 22.86 229.077 22.9533 229.077 23.14L229.189 25.464C229.675 24.5307 230.384 23.8213 231.317 23.336C232.251 22.832 233.231 22.58 234.257 22.58C235.844 22.58 237.085 23.0467 237.981 23.98C238.877 24.8947 239.325 26.1733 239.325 27.816V36.692C239.325 36.8973 239.232 37 239.045 37H237.393C237.188 37 237.085 36.8973 237.085 36.692V28.74C237.085 27.3773 236.805 26.36 236.245 25.688C235.685 24.9973 234.827 24.652 233.669 24.652C232.96 24.652 232.269 24.8387 231.597 25.212C230.925 25.5667 230.365 26.108 229.917 26.836C229.488 27.564 229.273 28.46 229.273 29.524V36.692C229.273 36.8973 229.18 37 228.993 37H227.341ZM247.944 37.28C246.637 37.28 245.629 36.86 244.92 36.02C244.21 35.1613 243.856 33.8547 243.856 32.1V24.876H241.364C241.177 24.876 241.084 24.7827 241.084 24.596V23.14C241.084 22.9533 241.177 22.86 241.364 22.86H243.856V18.52C243.856 18.3333 243.949 18.24 244.136 18.24H245.788C245.993 18.24 246.096 18.3333 246.096 18.52V22.86H250.016C250.202 22.86 250.296 22.9533 250.296 23.14V24.596C250.296 24.7827 250.202 24.876 250.016 24.876H246.096V32.156C246.096 33.22 246.254 33.9947 246.572 34.48C246.908 34.9653 247.43 35.208 248.14 35.208C248.942 35.208 249.549 34.7787 249.96 33.92C250.053 33.7333 250.184 33.6867 250.352 33.78L251.612 34.312C251.798 34.4053 251.836 34.564 251.724 34.788C250.902 36.4493 249.642 37.28 247.944 37.28ZM259.384 37.28C257.984 37.28 256.761 36.9627 255.716 36.328C254.67 35.6933 253.868 34.8253 253.308 33.724C252.748 32.604 252.468 31.3347 252.468 29.916C252.468 28.4973 252.748 27.2373 253.308 26.136C253.886 25.016 254.698 24.148 255.744 23.532C256.789 22.8973 258.002 22.58 259.384 22.58C261.437 22.58 263.024 23.2893 264.144 24.708C265.282 26.108 265.833 27.984 265.796 30.336C265.796 30.5413 265.693 30.644 265.488 30.644H254.82C254.95 32.0627 255.417 33.1827 256.22 34.004C257.041 34.8253 258.096 35.236 259.384 35.236C261.325 35.236 262.697 34.4427 263.5 32.856C263.574 32.7067 263.705 32.66 263.892 32.716L265.292 33.22C265.385 33.2573 265.441 33.3133 265.46 33.388C265.497 33.444 265.497 33.5093 265.46 33.584C264.862 34.816 264.041 35.74 262.996 36.356C261.969 36.972 260.765 37.28 259.384 37.28ZM263.388 28.88C263.294 27.592 262.893 26.556 262.184 25.772C261.474 24.988 260.541 24.596 259.384 24.596C258.17 24.596 257.153 24.988 256.332 25.772C255.51 26.5373 255.016 27.5733 254.848 28.88H263.388ZM268.673 37C268.468 37 268.365 36.8973 268.365 36.692V23.14C268.365 22.9533 268.468 22.86 268.673 22.86H270.101C270.306 22.86 270.409 22.9533 270.409 23.14L270.521 25.464C271.006 24.5307 271.716 23.8213 272.649 23.336C273.582 22.832 274.562 22.58 275.589 22.58C277.176 22.58 278.417 23.0467 279.313 23.98C280.209 24.8947 280.657 26.1733 280.657 27.816V36.692C280.657 36.8973 280.564 37 280.377 37H278.725C278.52 37 278.417 36.8973 278.417 36.692V28.74C278.417 27.3773 278.137 26.36 277.577 25.688C277.017 24.9973 276.158 24.652 275.001 24.652C274.292 24.652 273.601 24.8387 272.929 25.212C272.257 25.5667 271.697 26.108 271.249 26.836C270.82 27.564 270.605 28.46 270.605 29.524V36.692C270.605 36.8973 270.512 37 270.325 37H268.673ZM290.115 37.28C288.771 37.28 287.586 36.972 286.559 36.356C285.533 35.7213 284.739 34.8533 284.179 33.752C283.638 32.632 283.367 31.3533 283.367 29.916C283.367 28.4973 283.638 27.2373 284.179 26.136C284.739 25.016 285.533 24.148 286.559 23.532C287.586 22.8973 288.771 22.58 290.115 22.58C291.217 22.58 292.225 22.832 293.139 23.336C294.054 23.84 294.745 24.5213 295.211 25.38V16.28C295.211 16.0933 295.314 16 295.519 16H297.171C297.358 16 297.451 16.0933 297.451 16.28V36.692C297.451 36.8973 297.358 37 297.171 37H295.715C295.51 37 295.407 36.8973 295.407 36.692L295.295 34.34C294.829 35.236 294.129 35.9547 293.195 36.496C292.262 37.0187 291.235 37.28 290.115 37.28ZM290.535 35.208C291.973 35.208 293.139 34.7227 294.035 33.752C294.95 32.7813 295.407 31.5027 295.407 29.916C295.407 28.8893 295.202 27.9747 294.791 27.172C294.381 26.3693 293.802 25.7533 293.055 25.324C292.327 24.876 291.487 24.652 290.535 24.652C289.583 24.652 288.734 24.876 287.987 25.324C287.259 25.7533 286.69 26.3693 286.279 27.172C285.869 27.9747 285.663 28.8893 285.663 29.916C285.663 31.5027 286.111 32.7813 287.007 33.752C287.922 34.7227 289.098 35.208 290.535 35.208ZM187.175 60.78C187.042 60.78 186.975 60.7067 186.975 60.56V50.76C186.975 50.64 187.042 50.58 187.175 50.58H188.335C188.388 50.58 188.435 50.6 188.475 50.64C188.515 50.6667 188.535 50.7067 188.535 50.76V59.36H198.595C198.742 59.36 198.815 59.4267 198.815 59.56V60.56C198.815 60.7067 198.742 60.78 198.595 60.78H187.175ZM207.624 50.62C207.318 50.62 207.064 50.5267 206.864 50.34C206.664 50.14 206.564 49.8933 206.564 49.6C206.564 49.3067 206.664 49.0667 206.864 48.88C207.064 48.68 207.318 48.58 207.624 48.58C207.931 48.58 208.184 48.68 208.384 48.88C208.584 49.0667 208.684 49.3067 208.684 49.6C208.684 49.8933 208.584 50.14 208.384 50.34C208.184 50.5267 207.931 50.62 207.624 50.62ZM207.044 63C206.898 63 206.824 62.9267 206.824 62.78V53.1C206.824 52.9667 206.898 52.9 207.044 52.9H208.224C208.358 52.9 208.424 52.9667 208.424 53.1V62.78C208.424 62.9267 208.358 63 208.224 63H207.044ZM217.871 63.28C216.484 63.28 215.251 62.9667 214.171 62.34C213.104 61.7133 212.264 60.8267 211.651 59.68C211.051 58.52 210.751 57.18 210.751 55.66C210.751 54.1267 211.051 52.7867 211.651 51.64C212.264 50.4933 213.104 49.6067 214.171 48.98C215.251 48.3533 216.484 48.04 217.871 48.04C219.258 48.04 220.491 48.3533 221.571 48.98C222.651 49.6067 223.491 50.4933 224.091 51.64C224.691 52.7867 224.991 54.1267 224.991 55.66C224.991 57.18 224.691 58.52 224.091 59.68C223.491 60.8267 222.651 61.7133 221.571 62.34C220.491 62.9667 219.258 63.28 217.871 63.28ZM217.871 61.64C218.991 61.64 219.958 61.3867 220.771 60.88C221.584 60.36 222.204 59.6467 222.631 58.74C223.058 57.8333 223.271 56.8067 223.271 55.66C223.271 54.5 223.058 53.4733 222.631 52.58C222.204 51.6733 221.584 50.9667 220.771 50.46C219.958 49.94 218.991 49.68 217.871 49.68C216.764 49.68 215.804 49.94 214.991 50.46C214.178 50.9667 213.558 51.6733 213.131 52.58C212.704 53.4867 212.491 54.5133 212.491 55.66C212.491 56.8067 212.704 57.8333 213.131 58.74C213.558 59.6467 214.178 60.36 214.991 60.88C215.804 61.3867 216.764 61.64 217.871 61.64ZM231.578 63.28C230.258 63.28 229.152 62.96 228.258 62.32C227.378 61.6667 226.752 60.7 226.378 59.42L226.358 59.34C226.358 59.26 226.412 59.2 226.518 59.16L227.718 58.86L227.798 58.84C227.878 58.84 227.938 58.8933 227.978 59C228.285 59.92 228.725 60.5933 229.298 61.02C229.872 61.4333 230.632 61.64 231.578 61.64C232.538 61.64 233.305 61.4333 233.878 61.02C234.452 60.6067 234.738 60.0267 234.738 59.28C234.738 58.5333 234.492 57.9467 233.998 57.52C233.518 57.0933 232.758 56.7 231.718 56.34L230.618 55.96C228.045 55.0933 226.758 53.74 226.758 51.9C226.758 51.1533 226.958 50.4867 227.358 49.9C227.758 49.3133 228.305 48.86 228.998 48.54C229.705 48.2067 230.492 48.04 231.358 48.04C232.598 48.04 233.632 48.34 234.458 48.94C235.285 49.5267 235.858 50.4 236.178 51.56L236.198 51.64C236.198 51.7333 236.145 51.7933 236.038 51.82L234.778 52.14L234.698 52.16C234.618 52.16 234.558 52.1067 234.518 52C234.265 51.2 233.878 50.6133 233.358 50.24C232.838 49.8667 232.172 49.68 231.358 49.68C230.505 49.68 229.812 49.88 229.278 50.28C228.745 50.68 228.478 51.2067 228.478 51.86C228.478 52.4333 228.718 52.94 229.198 53.38C229.692 53.8067 230.452 54.1867 231.478 54.52L232.458 54.84C233.858 55.3067 234.872 55.88 235.498 56.56C236.138 57.2267 236.458 58.1333 236.458 59.28C236.458 60.0533 236.252 60.7467 235.838 61.36C235.425 61.96 234.845 62.4333 234.098 62.78C233.365 63.1133 232.525 63.28 231.578 63.28ZM238.016 66.16C237.949 66.16 237.903 66.14 237.876 66.1C237.849 66.06 237.843 66.0067 237.856 65.94L238.736 63.2C238.536 63.1067 238.376 62.9733 238.256 62.8C238.136 62.6133 238.076 62.4 238.076 62.16C238.076 61.84 238.189 61.5733 238.416 61.36C238.643 61.1333 238.916 61.02 239.236 61.02C239.569 61.02 239.843 61.1267 240.056 61.34C240.283 61.5533 240.396 61.8267 240.396 62.16C240.396 62.3867 240.356 62.6333 240.276 62.9C240.196 63.1533 240.049 63.5267 239.836 64.02L238.956 66C238.903 66.1067 238.829 66.16 238.736 66.16H238.016ZM245.918 63C245.838 63 245.784 62.98 245.758 62.94C245.731 62.8867 245.731 62.8267 245.758 62.76L251.578 48.48C251.631 48.3733 251.718 48.32 251.838 48.32H253.018C253.138 48.32 253.218 48.3733 253.258 48.48L259.098 62.76L259.118 62.84C259.118 62.9467 259.058 63 258.938 63H257.498C257.378 63 257.298 62.9467 257.258 62.84L255.878 59.32H248.938L247.558 62.84C247.504 62.9467 247.418 63 247.298 63H245.918ZM252.398 50.46L249.538 57.76H255.258L252.398 50.46ZM260.992 63C260.845 63 260.772 62.9267 260.772 62.78V53.1C260.772 52.9667 260.845 52.9 260.992 52.9H262.012C262.159 52.9 262.232 52.9667 262.232 53.1L262.312 54.76C262.659 54.0933 263.165 53.5867 263.832 53.24C264.499 52.88 265.199 52.7 265.932 52.7C267.065 52.7 267.952 53.0333 268.592 53.7C269.232 54.3533 269.552 55.2667 269.552 56.44V62.78C269.552 62.9267 269.485 63 269.352 63H268.172C268.025 63 267.952 62.9267 267.952 62.78V57.1C267.952 56.1267 267.752 55.4 267.352 54.92C266.952 54.4267 266.339 54.18 265.512 54.18C265.005 54.18 264.512 54.3133 264.032 54.58C263.552 54.8333 263.152 55.22 262.832 55.74C262.525 56.26 262.372 56.9 262.372 57.66V62.78C262.372 62.9267 262.305 63 262.172 63H260.992ZM276.308 63.2C275.348 63.2 274.501 62.98 273.768 62.54C273.035 62.0867 272.468 61.4667 272.068 60.68C271.681 59.88 271.488 58.9667 271.488 57.94C271.488 56.9267 271.681 56.0267 272.068 55.24C272.468 54.44 273.035 53.82 273.768 53.38C274.501 52.9267 275.348 52.7 276.308 52.7C277.095 52.7 277.815 52.88 278.468 53.24C279.121 53.6 279.615 54.0867 279.948 54.7V48.2C279.948 48.0667 280.021 48 280.168 48H281.348C281.481 48 281.548 48.0667 281.548 48.2V62.78C281.548 62.9267 281.481 63 281.348 63H280.308C280.161 63 280.088 62.9267 280.088 62.78L280.008 61.1C279.675 61.74 279.175 62.2533 278.508 62.64C277.841 63.0133 277.108 63.2 276.308 63.2ZM276.608 61.72C277.635 61.72 278.468 61.3733 279.108 60.68C279.761 59.9867 280.088 59.0733 280.088 57.94C280.088 57.2067 279.941 56.5533 279.648 55.98C279.355 55.4067 278.941 54.9667 278.408 54.66C277.888 54.34 277.288 54.18 276.608 54.18C275.928 54.18 275.321 54.34 274.788 54.66C274.268 54.9667 273.861 55.4067 273.568 55.98C273.275 56.5533 273.128 57.2067 273.128 57.94C273.128 59.0733 273.448 59.9867 274.088 60.68C274.741 61.3733 275.581 61.72 276.608 61.72ZM284.489 63C284.342 63 284.269 62.9267 284.269 62.78V53.1C284.269 52.9667 284.342 52.9 284.489 52.9H285.509C285.656 52.9 285.729 52.9667 285.729 53.1L285.809 54.84C286.169 54.1867 286.649 53.68 287.249 53.32C287.862 52.9467 288.529 52.76 289.249 52.76C289.516 52.76 289.696 52.7733 289.789 52.8C289.909 52.8133 289.969 52.8867 289.969 53.02V54.18C289.969 54.3133 289.909 54.38 289.789 54.38C289.709 54.38 289.596 54.3733 289.449 54.36C289.316 54.3333 289.189 54.32 289.069 54.32C288.522 54.32 288.002 54.46 287.509 54.74C287.016 55.02 286.616 55.4067 286.309 55.9C286.016 56.3933 285.869 56.9333 285.869 57.52V62.78C285.869 62.9267 285.802 63 285.669 63H284.489ZM295.632 63.2C294.619 63.2 293.726 62.9733 292.952 62.52C292.179 62.0667 291.579 61.4467 291.152 60.66C290.726 59.86 290.512 58.9533 290.512 57.94C290.512 56.9267 290.726 56.0267 291.152 55.24C291.579 54.44 292.179 53.82 292.952 53.38C293.726 52.9267 294.619 52.7 295.632 52.7C296.646 52.7 297.539 52.9267 298.312 53.38C299.099 53.82 299.706 54.44 300.132 55.24C300.559 56.0267 300.772 56.9267 300.772 57.94C300.772 58.9533 300.559 59.86 300.132 60.66C299.706 61.4467 299.099 62.0667 298.312 62.52C297.539 62.9733 296.646 63.2 295.632 63.2ZM295.632 61.72C296.659 61.72 297.492 61.3733 298.132 60.68C298.786 59.9867 299.112 59.0733 299.112 57.94C299.112 57.2067 298.966 56.5533 298.672 55.98C298.379 55.4067 297.966 54.9667 297.432 54.66C296.912 54.34 296.312 54.18 295.632 54.18C294.952 54.18 294.346 54.34 293.812 54.66C293.292 54.9667 292.886 55.4067 292.592 55.98C292.299 56.5533 292.152 57.2067 292.152 57.94C292.152 59.0733 292.472 59.9867 293.112 60.68C293.766 61.3733 294.606 61.72 295.632 61.72ZM303.546 50.62C303.24 50.62 302.986 50.5267 302.786 50.34C302.586 50.14 302.486 49.8933 302.486 49.6C302.486 49.3067 302.586 49.0667 302.786 48.88C302.986 48.68 303.24 48.58 303.546 48.58C303.853 48.58 304.106 48.68 304.306 48.88C304.506 49.0667 304.606 49.3067 304.606 49.6C304.606 49.8933 304.506 50.14 304.306 50.34C304.106 50.5267 303.853 50.62 303.546 50.62ZM302.966 63C302.82 63 302.746 62.9267 302.746 62.78V53.1C302.746 52.9667 302.82 52.9 302.966 52.9H304.146C304.28 52.9 304.346 52.9667 304.346 53.1V62.78C304.346 62.9267 304.28 63 304.146 63H302.966ZM311.173 63.2C310.213 63.2 309.366 62.98 308.633 62.54C307.9 62.0867 307.333 61.4667 306.933 60.68C306.546 59.88 306.353 58.9667 306.353 57.94C306.353 56.9267 306.546 56.0267 306.933 55.24C307.333 54.44 307.9 53.82 308.633 53.38C309.366 52.9267 310.213 52.7 311.173 52.7C311.96 52.7 312.68 52.88 313.333 53.24C313.986 53.6 314.48 54.0867 314.813 54.7V48.2C314.813 48.0667 314.886 48 315.033 48H316.213C316.346 48 316.413 48.0667 316.413 48.2V62.78C316.413 62.9267 316.346 63 316.213 63H315.173C315.026 63 314.953 62.9267 314.953 62.78L314.873 61.1C314.54 61.74 314.04 62.2533 313.373 62.64C312.706 63.0133 311.973 63.2 311.173 63.2ZM311.473 61.72C312.5 61.72 313.333 61.3733 313.973 60.68C314.626 59.9867 314.953 59.0733 314.953 57.94C314.953 57.2067 314.806 56.5533 314.513 55.98C314.22 55.4067 313.806 54.9667 313.273 54.66C312.753 54.34 312.153 54.18 311.473 54.18C310.793 54.18 310.186 54.34 309.653 54.66C309.133 54.9667 308.726 55.4067 308.433 55.98C308.14 56.5533 307.993 57.2067 307.993 57.94C307.993 59.0733 308.313 59.9867 308.953 60.68C309.606 61.3733 310.446 61.72 311.473 61.72ZM318.674 66.16C318.607 66.16 318.56 66.14 318.534 66.1C318.507 66.06 318.5 66.0067 318.514 65.94L319.394 63.2C319.194 63.1067 319.034 62.9733 318.914 62.8C318.794 62.6133 318.734 62.4 318.734 62.16C318.734 61.84 318.847 61.5733 319.074 61.36C319.3 61.1333 319.574 61.02 319.894 61.02C320.227 61.02 320.5 61.1267 320.714 61.34C320.94 61.5533 321.054 61.8267 321.054 62.16C321.054 62.3867 321.014 62.6333 320.934 62.9C320.854 63.1533 320.707 63.5267 320.494 64.02L319.614 66C319.56 66.1067 319.487 66.16 319.394 66.16H318.674ZM327.895 63C327.749 63 327.675 62.9267 327.675 62.78V48.52C327.675 48.3867 327.749 48.32 327.895 48.32H336.455C336.602 48.32 336.675 48.3867 336.675 48.52V49.68C336.675 49.8267 336.602 49.9 336.455 49.9H329.355V54.96H335.595C335.742 54.96 335.815 55.0267 335.815 55.16V56.32C335.815 56.4667 335.742 56.54 335.595 56.54H329.355V62.78C329.355 62.9267 329.282 63 329.135 63H327.895ZM338.779 63C338.632 63 338.559 62.9267 338.559 62.78V48.2C338.559 48.0667 338.632 48 338.779 48H339.959C340.092 48 340.159 48.0667 340.159 48.2V62.78C340.159 62.9267 340.092 63 339.959 63H338.779ZM346.425 63.2C345.292 63.2 344.405 62.8667 343.765 62.2C343.139 61.5333 342.825 60.62 342.825 59.46V53.1C342.825 52.9667 342.892 52.9 343.025 52.9H344.205C344.352 52.9 344.425 52.9667 344.425 53.1V58.78C344.425 59.7533 344.619 60.4867 345.005 60.98C345.405 61.4733 346.019 61.72 346.845 61.72C347.352 61.72 347.839 61.5933 348.305 61.34C348.785 61.0733 349.179 60.68 349.485 60.16C349.792 59.64 349.945 59 349.945 58.24V53.1C349.945 52.9667 350.019 52.9 350.165 52.9H351.345C351.479 52.9 351.545 52.9667 351.545 53.1V62.78C351.545 62.9267 351.479 63 351.345 63H350.305C350.159 63 350.085 62.9267 350.085 62.78L350.025 61.12C349.679 61.7867 349.172 62.3 348.505 62.66C347.839 63.02 347.145 63.2 346.425 63.2ZM357.763 63.2C356.829 63.2 356.109 62.9 355.603 62.3C355.096 61.6867 354.843 60.7533 354.843 59.5V54.34H353.063C352.929 54.34 352.863 54.2733 352.863 54.14V53.1C352.863 52.9667 352.929 52.9 353.063 52.9H354.843V49.8C354.843 49.6667 354.909 49.6 355.043 49.6H356.223C356.369 49.6 356.443 49.6667 356.443 49.8V52.9H359.243C359.376 52.9 359.443 52.9667 359.443 53.1V54.14C359.443 54.2733 359.376 54.34 359.243 54.34H356.443V59.54C356.443 60.3 356.556 60.8533 356.783 61.2C357.023 61.5467 357.396 61.72 357.903 61.72C358.476 61.72 358.909 61.4133 359.203 60.8C359.269 60.6667 359.363 60.6333 359.483 60.7L360.383 61.08C360.516 61.1467 360.543 61.26 360.463 61.42C359.876 62.6067 358.976 63.2 357.763 63.2ZM364.609 63.2C363.675 63.2 362.955 62.9 362.449 62.3C361.942 61.6867 361.689 60.7533 361.689 59.5V54.34H359.909C359.775 54.34 359.709 54.2733 359.709 54.14V53.1C359.709 52.9667 359.775 52.9 359.909 52.9H361.689V49.8C361.689 49.6667 361.755 49.6 361.889 49.6H363.069C363.215 49.6 363.289 49.6667 363.289 49.8V52.9H366.089C366.222 52.9 366.289 52.9667 366.289 53.1V54.14C366.289 54.2733 366.222 54.34 366.089 54.34H363.289V59.54C363.289 60.3 363.402 60.8533 363.629 61.2C363.869 61.5467 364.242 61.72 364.749 61.72C365.322 61.72 365.755 61.4133 366.049 60.8C366.115 60.6667 366.209 60.6333 366.329 60.7L367.229 61.08C367.362 61.1467 367.389 61.26 367.309 61.42C366.722 62.6067 365.822 63.2 364.609 63.2ZM372.78 63.2C371.78 63.2 370.907 62.9733 370.16 62.52C369.414 62.0667 368.84 61.4467 368.44 60.66C368.04 59.86 367.84 58.9533 367.84 57.94C367.84 56.9267 368.04 56.0267 368.44 55.24C368.854 54.44 369.434 53.82 370.18 53.38C370.927 52.9267 371.794 52.7 372.78 52.7C374.247 52.7 375.38 53.2067 376.18 54.22C376.994 55.22 377.387 56.56 377.36 58.24C377.36 58.3867 377.287 58.46 377.14 58.46H369.52C369.614 59.4733 369.947 60.2733 370.52 60.86C371.107 61.4467 371.86 61.74 372.78 61.74C374.167 61.74 375.147 61.1733 375.72 60.04C375.774 59.9333 375.867 59.9 376 59.94L377 60.3C377.067 60.3267 377.107 60.3667 377.12 60.42C377.147 60.46 377.147 60.5067 377.12 60.56C376.694 61.44 376.107 62.1 375.36 62.54C374.627 62.98 373.767 63.2 372.78 63.2ZM375.64 57.2C375.574 56.28 375.287 55.54 374.78 54.98C374.274 54.42 373.607 54.14 372.78 54.14C371.914 54.14 371.187 54.42 370.6 54.98C370.014 55.5267 369.66 56.2667 369.54 57.2H375.64ZM379.416 63C379.269 63 379.196 62.9267 379.196 62.78V53.1C379.196 52.9667 379.269 52.9 379.416 52.9H380.436C380.582 52.9 380.656 52.9667 380.656 53.1L380.736 54.84C381.096 54.1867 381.576 53.68 382.176 53.32C382.789 52.9467 383.456 52.76 384.176 52.76C384.442 52.76 384.622 52.7733 384.716 52.8C384.836 52.8133 384.896 52.8867 384.896 53.02V54.18C384.896 54.3133 384.836 54.38 384.716 54.38C384.636 54.38 384.522 54.3733 384.376 54.36C384.242 54.3333 384.116 54.32 383.996 54.32C383.449 54.32 382.929 54.46 382.436 54.74C381.942 55.02 381.542 55.4067 381.236 55.9C380.942 56.3933 380.796 56.9333 380.796 57.52V62.78C380.796 62.9267 380.729 63 380.596 63H379.416ZM384.586 66.16C384.519 66.16 384.472 66.14 384.446 66.1C384.419 66.06 384.412 66.0067 384.426 65.94L385.306 63.2C385.106 63.1067 384.946 62.9733 384.826 62.8C384.706 62.6133 384.646 62.4 384.646 62.16C384.646 61.84 384.759 61.5733 384.986 61.36C385.212 61.1333 385.486 61.02 385.806 61.02C386.139 61.02 386.412 61.1267 386.626 61.34C386.852 61.5533 386.966 61.8267 386.966 62.16C386.966 62.3867 386.926 62.6333 386.846 62.9C386.766 63.1533 386.619 63.5267 386.406 64.02L385.526 66C385.472 66.1067 385.399 66.16 385.306 66.16H384.586ZM396.027 63C395.907 63 395.827 62.9467 395.787 62.84L392.307 53.14L392.287 53.06C392.287 52.9533 392.354 52.9 392.487 52.9H393.907C394.027 52.9 394.107 52.9533 394.147 53.06L396.507 60.22L399.327 53.06C399.367 52.9533 399.447 52.9 399.567 52.9H400.307C400.414 52.9 400.494 52.9533 400.547 53.06L403.287 60.14L405.707 53.06C405.747 52.9533 405.827 52.9 405.947 52.9H407.247C407.42 52.9 407.48 52.98 407.427 53.14L403.947 62.84C403.907 62.9467 403.827 63 403.707 63H402.967C402.847 63 402.767 62.9467 402.727 62.84L399.907 55.56L397.007 62.84C396.967 62.9467 396.887 63 396.767 63H396.027ZM412.929 63.2C411.929 63.2 411.056 62.9733 410.309 62.52C409.562 62.0667 408.989 61.4467 408.589 60.66C408.189 59.86 407.989 58.9533 407.989 57.94C407.989 56.9267 408.189 56.0267 408.589 55.24C409.002 54.44 409.582 53.82 410.329 53.38C411.076 52.9267 411.942 52.7 412.929 52.7C414.396 52.7 415.529 53.2067 416.329 54.22C417.142 55.22 417.536 56.56 417.509 58.24C417.509 58.3867 417.436 58.46 417.289 58.46H409.669C409.762 59.4733 410.096 60.2733 410.669 60.86C411.256 61.4467 412.009 61.74 412.929 61.74C414.316 61.74 415.296 61.1733 415.869 60.04C415.922 59.9333 416.016 59.9 416.149 59.94L417.149 60.3C417.216 60.3267 417.256 60.3667 417.269 60.42C417.296 60.46 417.296 60.5067 417.269 60.56C416.842 61.44 416.256 62.1 415.509 62.54C414.776 62.98 413.916 63.2 412.929 63.2ZM415.789 57.2C415.722 56.28 415.436 55.54 414.929 54.98C414.422 54.42 413.756 54.14 412.929 54.14C412.062 54.14 411.336 54.42 410.749 54.98C410.162 55.5267 409.809 56.2667 409.689 57.2H415.789ZM424.584 63.2C423.784 63.2 423.051 63.0133 422.384 62.64C421.731 62.2533 421.231 61.74 420.884 61.1L420.804 62.78C420.804 62.9267 420.731 63 420.584 63H419.564C419.417 63 419.344 62.9267 419.344 62.78V48.2C419.344 48.0667 419.417 48 419.564 48H420.744C420.877 48 420.944 48.0667 420.944 48.2V54.7C421.291 54.0733 421.791 53.5867 422.444 53.24C423.097 52.88 423.811 52.7 424.584 52.7C425.557 52.7 426.404 52.9267 427.124 53.38C427.857 53.82 428.424 54.44 428.824 55.24C429.224 56.0267 429.424 56.9267 429.424 57.94C429.424 58.9667 429.224 59.88 428.824 60.68C428.437 61.4667 427.877 62.0867 427.144 62.54C426.411 62.98 425.557 63.2 424.584 63.2ZM424.284 61.72C425.311 61.72 426.144 61.3733 426.784 60.68C427.437 59.9867 427.764 59.0733 427.764 57.94C427.764 57.2067 427.617 56.5533 427.324 55.98C427.031 55.4067 426.617 54.9667 426.084 54.66C425.564 54.34 424.964 54.18 424.284 54.18C423.604 54.18 422.997 54.34 422.464 54.66C421.944 54.9667 421.537 55.4067 421.244 55.98C420.951 56.5533 420.804 57.2067 420.804 57.94C420.804 59.0733 421.124 59.9867 421.764 60.68C422.417 61.3733 423.257 61.72 424.284 61.72Z" fill="white"/>
<defs>
<filter id="filter0_ii_3583_1161" x="5.19483" y="80.1902" width="142.67" height="84.6101" filterUnits="userSpaceOnUse" color-interpolation-filters="sRGB">
<feFlood flood-opacity="0" result="BackgroundImageFix"/>
<feBlend mode="normal" in="SourceGraphic" in2="BackgroundImageFix" result="shape"/>
<feColorMatrix in="SourceAlpha" type="matrix" values="0 0 0 0 0 0 0 0 0 0 0 0 0 0 0 0 0 0 127 0" result="hardAlpha"/>
<feOffset dy="-2.91135"/>
<feGaussianBlur stdDeviation="5.8227"/>
<feComposite in2="hardAlpha" operator="arithmetic" k2="-1" k3="1"/>
<feColorMatrix type="matrix" values="0 0 0 0 1 0 0 0 0 1 0 0 0 0 1 0 0 0 0.7 0"/>
<feBlend mode="normal" in2="shape" result="effect1_innerShadow_3583_1161"/>
<feColorMatrix in="SourceAlpha" type="matrix" values="0 0 0 0 0 0 0 0 0 0 0 0 0 0 0 0 0 0 127 0" result="hardAlpha"/>
<feOffset dx="-1.16454"/>
<feGaussianBlur stdDeviation="1.16454"/>
<feComposite in2="hardAlpha" operator="arithmetic" k2="-1" k3="1"/>
<feColorMatrix type="matrix" values="0 0 0 0 0.027451 0 0 0 0 0.25098 0 0 0 0 0.964706 0 0 0 0.25 0"/>
<feBlend mode="normal" in2="effect1_innerShadow_3583_1161" result="effect2_innerShadow_3583_1161"/>
</filter>
<filter id="filter1_ii_3583_1161" x="8.41944" y="59.4754" width="142.67" height="84.6101" filterUnits="userSpaceOnUse" color-interpolation-filters="sRGB">
<feFlood flood-opacity="0" result="BackgroundImageFix"/>
<feBlend mode="normal" in="SourceGraphic" in2="BackgroundImageFix" result="shape"/>
<feColorMatrix in="SourceAlpha" type="matrix" values="0 0 0 0 0 0 0 0 0 0 0 0 0 0 0 0 0 0 127 0" result="hardAlpha"/>
<feOffset dy="-2.91135"/>
<feGaussianBlur stdDeviation="5.8227"/>
<feComposite in2="hardAlpha" operator="arithmetic" k2="-1" k3="1"/>
<feColorMatrix type="matrix" values="0 0 0 0 1 0 0 0 0 1 0 0 0 0 1 0 0 0 0.7 0"/>
<feBlend mode="normal" in2="shape" result="effect1_innerShadow_3583_1161"/>
<feColorMatrix in="SourceAlpha" type="matrix" values="0 0 0 0 0 0 0 0 0 0 0 0 0 0 0 0 0 0 127 0" result="hardAlpha"/>
<feOffset dx="-1.16454"/>
<feGaussianBlur stdDeviation="1.16454"/>
<feComposite in2="hardAlpha" operator="arithmetic" k2="-1" k3="1"/>
<feColorMatrix type="matrix" values="0 0 0 0 0.027451 0 0 0 0 0.25098 0 0 0 0 0.964706 0 0 0 0.25 0"/>
<feBlend mode="normal" in2="effect1_innerShadow_3583_1161" result="effect2_innerShadow_3583_1161"/>
</filter>
<filter id="filter2_ii_3583_1161" x="11.6441" y="38.76" width="142.67" height="84.6101" filterUnits="userSpaceOnUse" color-interpolation-filters="sRGB">
<feFlood flood-opacity="0" result="BackgroundImageFix"/>
<feBlend mode="normal" in="SourceGraphic" in2="BackgroundImageFix" result="shape"/>
<feColorMatrix in="SourceAlpha" type="matrix" values="0 0 0 0 0 0 0 0 0 0 0 0 0 0 0 0 0 0 127 0" result="hardAlpha"/>
<feOffset dy="-2.91135"/>
<feGaussianBlur stdDeviation="5.8227"/>
<feComposite in2="hardAlpha" operator="arithmetic" k2="-1" k3="1"/>
<feColorMatrix type="matrix" values="0 0 0 0 1 0 0 0 0 1 0 0 0 0 1 0 0 0 0.7 0"/>
<feBlend mode="normal" in2="shape" result="effect1_innerShadow_3583_1161"/>
<feColorMatrix in="SourceAlpha" type="matrix" values="0 0 0 0 0 0 0 0 0 0 0 0 0 0 0 0 0 0 127 0" result="hardAlpha"/>
<feOffset dx="-1.16454"/>
<feGaussianBlur stdDeviation="1.16454"/>
<feComposite in2="hardAlpha" operator="arithmetic" k2="-1" k3="1"/>
<feColorMatrix type="matrix" values="0 0 0 0 0.027451 0 0 0 0 0.25098 0 0 0 0 0.964706 0 0 0 0.25 0"/>
<feBlend mode="normal" in2="effect1_innerShadow_3583_1161" result="effect2_innerShadow_3583_1161"/>
</filter>
<filter id="filter3_i_3583_1161" x="52.5594" y="62.7173" width="63.1437" height="22.3955" filterUnits="userSpaceOnUse" color-interpolation-filters="sRGB">
<feFlood flood-opacity="0" result="BackgroundImageFix"/>
<feBlend mode="normal" in="SourceGraphic" in2="BackgroundImageFix" result="shape"/>
<feColorMatrix in="SourceAlpha" type="matrix" values="0 0 0 0 0 0 0 0 0 0 0 0 0 0 0 0 0 0 127 0" result="hardAlpha"/>
<feOffset dx="-1.97183"/>
<feGaussianBlur stdDeviation="1.97183"/>
<feComposite in2="hardAlpha" operator="arithmetic" k2="-1" k3="1"/>
<feColorMatrix type="matrix" values="0 0 0 0 0.027451 0 0 0 0 0.25098 0 0 0 0 0.964706 0 0 0 0.25 0"/>
<feBlend mode="normal" in2="shape" result="effect1_innerShadow_3583_1161"/>
</filter>
<filter id="filter4_i_3583_1161" x="55.2957" y="56.7769" width="57.7101" height="33.9717" filterUnits="userSpaceOnUse" color-interpolation-filters="sRGB">
<feFlood flood-opacity="0" result="BackgroundImageFix"/>
<feBlend mode="normal" in="SourceGraphic" in2="BackgroundImageFix" result="shape"/>
<feColorMatrix in="SourceAlpha" type="matrix" values="0 0 0 0 0 0 0 0 0 0 0 0 0 0 0 0 0 0 127 0" result="hardAlpha"/>
<feOffset dx="-1.97183"/>
<feGaussianBlur stdDeviation="1.97183"/>
<feComposite in2="hardAlpha" operator="arithmetic" k2="-1" k3="1"/>
<feColorMatrix type="matrix" values="0 0 0 0 0.027451 0 0 0 0 0.25098 0 0 0 0 0.964706 0 0 0 0.25 0"/>
<feBlend mode="normal" in2="shape" result="effect1_innerShadow_3583_1161"/>
</filter>
<linearGradient id="paint0_linear_3583_1161" x1="20.6129" y1="-6.91812" x2="49.8188" y2="87.575" gradientUnits="userSpaceOnUse">
<stop stop-color="#C1CAFF"/>
<stop offset="1" stop-color="#6B81FF"/>
</linearGradient>
<linearGradient id="paint1_linear_3583_1161" x1="20.6129" y1="-6.91812" x2="49.8188" y2="87.575" gradientUnits="userSpaceOnUse">
<stop stop-color="#C1CAFF"/>
<stop offset="1" stop-color="#6B81FF"/>
</linearGradient>
<linearGradient id="paint2_linear_3583_1161" x1="20.6129" y1="-6.91812" x2="49.8188" y2="87.575" gradientUnits="userSpaceOnUse">
<stop stop-color="#C1CAFF"/>
<stop offset="1" stop-color="#6B81FF"/>
</linearGradient>
<linearGradient id="paint3_linear_3583_1161" x1="83.8472" y1="83.9395" x2="80.9123" y2="102.795" gradientUnits="userSpaceOnUse">
<stop stop-color="white"/>
<stop offset="1" stop-color="white" stop-opacity="0"/>
</linearGradient>
</defs>
</svg>
