<svg width="235" height="160" viewBox="0 0 235 160" fill="none" xmlns="http://www.w3.org/2000/svg">
<path d="M90.5463 48.2428C97.6118 45.9998 102.923 45.8984 104.431 48.4645C107.067 52.9463 97.1015 63.8703 82.1728 72.863C67.2442 81.8558 53.0048 85.5134 50.3695 81.0315C48.8369 78.4244 51.5657 73.6398 57.0549 68.3228L57.4055 69.7971C55.4457 72.3987 54.6852 74.6118 55.5103 76.0159C57.5638 79.5071 68.6557 76.6579 80.2851 69.6521C91.9145 62.6464 99.6761 54.1377 97.6245 50.6461C96.8327 49.3002 93.7714 49.07 90.7791 49.4843L90.5463 48.2428Z" fill="white"/>
<g filter="url(#filter0_ii_3583_1160)">
<path d="M59.507 11.0524C92.062 4.94834 119.972 8.10374 121.847 18.1005C122.489 21.5249 119.994 25.3081 115.125 29.0473C98.3308 41.9466 80.767 55.3853 73.7606 74.8474C73.5913 75.3176 73.82 75.8288 74.2118 76.1391C74.9229 76.7022 75.442 77.5141 75.6224 78.4756C75.8409 79.6413 75.5161 80.7828 74.8268 81.6398C74.4743 82.0781 74.3761 82.7194 74.7363 83.1514C88.3046 99.422 110.049 105.603 130.683 112.023C136.218 113.745 139.681 116.302 140.3 119.605C142.175 129.602 117.303 142.655 84.7478 148.759C52.1923 154.864 24.2808 151.708 22.4064 141.711C21.7644 138.286 24.2603 134.504 29.1284 130.765C46.1638 117.68 63.9896 104.041 70.7871 84.1231C70.9809 83.5556 70.6037 82.9596 70.0658 82.6944C69.0021 82.17 68.1896 81.1688 67.9543 79.9134C67.7567 78.8592 68.0029 77.8245 68.5615 77.0022C68.8623 76.5593 68.9173 75.9522 68.5632 75.5506C54.9442 60.1052 33.7287 54.0597 13.5702 47.7878C8.03596 46.066 4.5729 43.5093 3.95345 40.2056C2.07965 30.2086 26.9518 17.1565 59.507 11.0524Z" fill="url(#paint0_linear_3583_1160)"/>
</g>
<circle cx="68.7349" cy="62.9003" r="2.92557" transform="rotate(-10.6197 68.7349 62.9003)" fill="url(#paint1_linear_3583_1160)"/>
<circle cx="74.8432" cy="95.4889" r="2.92557" transform="rotate(169.38 74.8432 95.4889)" fill="url(#paint2_linear_3583_1160)"/>
<circle cx="66.3966" cy="50.4398" r="3.90077" transform="rotate(-10.6197 66.3966 50.4398)" fill="url(#paint3_linear_3583_1160)"/>
<circle cx="77.1796" cy="107.949" r="3.90077" transform="rotate(169.38 77.1796 107.949)" fill="url(#paint4_linear_3583_1160)"/>
<path d="M50.3601 80.9777C53.0227 85.5417 67.3544 81.8495 82.3696 72.7319L80.488 69.5317C68.7912 76.6347 57.6017 79.4413 55.527 75.8862C54.6933 74.4563 56.5511 71.9225 58.5194 69.2802L57.0672 68.0642C51.5501 73.4616 48.8116 78.3228 50.3601 80.9777Z" fill="white"/>
<path d="M142 23.4995H234.5V52.9995C234.5 65.4259 224.426 75.4995 212 75.4995H130.5V34.9995C130.5 28.6482 135.649 23.4995 142 23.4995Z" fill="#3755FF"/>
<path d="M142 23.4995H234.5V52.9995C234.5 65.4259 224.426 75.4995 212 75.4995H130.5V34.9995C130.5 28.6482 135.649 23.4995 142 23.4995Z" stroke="white"/>
<path d="M156.828 59.9995C156.623 59.9995 156.52 59.8968 156.52 59.6915V39.7275C156.52 39.5408 156.623 39.4475 156.828 39.4475H162.792C165.368 39.4475 167.291 40.0448 168.56 41.2395C169.848 42.4155 170.492 44.0862 170.492 46.2515C170.492 48.4355 169.857 50.1155 168.588 51.2915C167.319 52.4675 165.387 53.0555 162.792 53.0555H158.872V59.6915C158.872 59.8968 158.769 59.9995 158.564 59.9995H156.828ZM162.652 50.8715C164.5 50.8715 165.863 50.4888 166.74 49.7235C167.617 48.9582 168.056 47.7822 168.056 46.1955C168.056 44.6835 167.617 43.5448 166.74 42.7795C165.863 42.0142 164.5 41.6315 162.652 41.6315H158.872V50.8715H162.652ZM173.733 59.9995C173.527 59.9995 173.425 59.8968 173.425 59.6915V39.2795C173.425 39.0928 173.527 38.9995 173.733 38.9995H175.385C175.571 38.9995 175.665 39.0928 175.665 39.2795V59.6915C175.665 59.8968 175.571 59.9995 175.385 59.9995H173.733ZM185.222 60.2795C183.878 60.2795 182.693 59.9715 181.666 59.3555C180.639 58.7208 179.846 57.8528 179.286 56.7515C178.745 55.6315 178.474 54.3528 178.474 52.9155C178.474 51.4968 178.745 50.2368 179.286 49.1355C179.846 48.0155 180.639 47.1475 181.666 46.5315C182.693 45.8968 183.878 45.5795 185.222 45.5795C186.342 45.5795 187.369 45.8408 188.302 46.3635C189.235 46.8862 189.935 47.5955 190.402 48.4915L190.514 46.1395C190.514 45.9528 190.617 45.8595 190.822 45.8595H192.278C192.465 45.8595 192.558 45.9528 192.558 46.1395V59.6915C192.558 59.8968 192.465 59.9995 192.278 59.9995H190.822C190.617 59.9995 190.514 59.8968 190.514 59.6915L190.402 57.3395C189.935 58.2355 189.235 58.9542 188.302 59.4955C187.369 60.0182 186.342 60.2795 185.222 60.2795ZM185.642 58.2075C187.079 58.2075 188.246 57.7222 189.142 56.7515C190.057 55.7808 190.514 54.5022 190.514 52.9155C190.514 51.8888 190.309 50.9742 189.898 50.1715C189.487 49.3688 188.909 48.7528 188.162 48.3235C187.434 47.8755 186.594 47.6515 185.642 47.6515C184.69 47.6515 183.841 47.8755 183.094 48.3235C182.366 48.7528 181.797 49.3688 181.386 50.1715C180.975 50.9742 180.77 51.8888 180.77 52.9155C180.77 54.5022 181.218 55.7808 182.114 56.7515C183.029 57.7222 184.205 58.2075 185.642 58.2075ZM196.675 59.9995C196.47 59.9995 196.367 59.8968 196.367 59.6915V46.1395C196.367 45.9528 196.47 45.8595 196.675 45.8595H198.103C198.309 45.8595 198.411 45.9528 198.411 46.1395L198.523 48.4635C199.009 47.5302 199.718 46.8208 200.651 46.3355C201.585 45.8315 202.565 45.5795 203.591 45.5795C205.178 45.5795 206.419 46.0462 207.315 46.9795C208.211 47.8942 208.659 49.1728 208.659 50.8155V59.6915C208.659 59.8968 208.566 59.9995 208.379 59.9995H206.727C206.522 59.9995 206.419 59.8968 206.419 59.6915V51.7395C206.419 50.3768 206.139 49.3595 205.579 48.6875C205.019 47.9968 204.161 47.6515 203.003 47.6515C202.294 47.6515 201.603 47.8382 200.931 48.2115C200.259 48.5662 199.699 49.1075 199.251 49.8355C198.822 50.5635 198.607 51.4595 198.607 52.5235V59.6915C198.607 59.8968 198.514 59.9995 198.327 59.9995H196.675Z" fill="white"/>
<defs>
<filter id="filter0_ii_3583_1160" x="1.88168" y="3.01232" width="138.519" height="148.858" filterUnits="userSpaceOnUse" color-interpolation-filters="sRGB">
<feFlood flood-opacity="0" result="BackgroundImageFix"/>
<feBlend mode="normal" in="SourceGraphic" in2="BackgroundImageFix" result="shape"/>
<feColorMatrix in="SourceAlpha" type="matrix" values="0 0 0 0 0 0 0 0 0 0 0 0 0 0 0 0 0 0 127 0" result="hardAlpha"/>
<feOffset dy="-4.92958"/>
<feGaussianBlur stdDeviation="9.85916"/>
<feComposite in2="hardAlpha" operator="arithmetic" k2="-1" k3="1"/>
<feColorMatrix type="matrix" values="0 0 0 0 1 0 0 0 0 1 0 0 0 0 1 0 0 0 0.7 0"/>
<feBlend mode="normal" in2="shape" result="effect1_innerShadow_3583_1160"/>
<feColorMatrix in="SourceAlpha" type="matrix" values="0 0 0 0 0 0 0 0 0 0 0 0 0 0 0 0 0 0 127 0" result="hardAlpha"/>
<feOffset dx="-1.97183"/>
<feGaussianBlur stdDeviation="1.97183"/>
<feComposite in2="hardAlpha" operator="arithmetic" k2="-1" k3="1"/>
<feColorMatrix type="matrix" values="0 0 0 0 0.027451 0 0 0 0 0.25098 0 0 0 0 0.964706 0 0 0 0.25 0"/>
<feBlend mode="normal" in2="effect1_innerShadow_3583_1160" result="effect2_innerShadow_3583_1160"/>
</filter>
<linearGradient id="paint0_linear_3583_1160" x1="27.372" y1="5.15963" x2="110.779" y2="147.494" gradientUnits="userSpaceOnUse">
<stop stop-color="#C1CAFF"/>
<stop offset="1" stop-color="#6B81FF"/>
</linearGradient>
<linearGradient id="paint1_linear_3583_1160" x1="68.7349" y1="65.8259" x2="68.7349" y2="59.9747" gradientUnits="userSpaceOnUse">
<stop stop-color="white"/>
<stop offset="1" stop-color="white" stop-opacity="0"/>
</linearGradient>
<linearGradient id="paint2_linear_3583_1160" x1="74.8432" y1="98.4144" x2="74.8432" y2="92.5633" gradientUnits="userSpaceOnUse">
<stop stop-color="white"/>
<stop offset="1" stop-color="white" stop-opacity="0"/>
</linearGradient>
<linearGradient id="paint3_linear_3583_1160" x1="66.3966" y1="54.3406" x2="66.3966" y2="46.539" gradientUnits="userSpaceOnUse">
<stop stop-color="white"/>
<stop offset="1" stop-color="white" stop-opacity="0"/>
</linearGradient>
<linearGradient id="paint4_linear_3583_1160" x1="77.1796" y1="111.85" x2="77.1796" y2="104.049" gradientUnits="userSpaceOnUse">
<stop stop-color="white"/>
<stop offset="1" stop-color="white" stop-opacity="0"/>
</linearGradient>
</defs>
</svg>
