<svg width="360" height="502" viewBox="0 0 360 502" fill="none" xmlns="http://www.w3.org/2000/svg">
<g clip-path="url(#clip0_3710_1115)">
<path opacity="0.5" d="M387.852 50.6915C530.677 39.0143 656.279 149.293 668.359 297.045C680.439 444.796 574.418 574.013 431.593 585.691C288.767 597.368 163.165 487.088 151.085 339.337C139.006 191.585 245.026 62.3688 387.852 50.6915Z" stroke="white"/>
<path opacity="0.5" d="M458.278 90.0368C598.385 78.8507 721.08 179.052 732.362 313.8C743.643 448.548 639.245 566.881 499.138 578.068C359.031 589.254 236.336 489.052 225.054 354.304C213.772 219.556 318.171 101.223 458.278 90.0368Z" stroke="white"/>
<path opacity="0.5" d="M533.18 115.815C671.37 104.782 792.177 201.325 803.066 331.383C813.955 461.442 710.812 575.865 572.621 586.899C434.43 597.932 313.624 501.388 302.735 371.33C291.846 241.272 394.989 126.849 533.18 115.815Z" stroke="white"/>
<g filter="url(#filter0_iiii_3710_1115)">
<path d="M179 501.9C179 486.265 173.62 463.842 163.167 449.397C152.714 434.952 137.393 421.827 118.078 410.772C98.7636 399.716 75.8339 390.946 50.5981 384.963C25.3624 378.98 -27.6851 375.9 -55 375.9V501.9H179Z" fill="#0D0F14"/>
</g>
<path d="M19.781 473.9C19.7003 473.9 19.66 473.86 19.66 473.779V473.581C19.66 473.537 19.6783 473.49 19.715 473.438L21.673 471.271C22.2523 470.633 22.6887 470.12 22.982 469.731C23.2753 469.343 23.4733 469.013 23.576 468.741C23.6787 468.47 23.73 468.188 23.73 467.894C23.73 467.484 23.587 467.161 23.301 466.926C23.0223 466.692 22.6557 466.574 22.201 466.574C21.7757 466.574 21.4127 466.684 21.112 466.904C20.8113 467.124 20.5913 467.443 20.452 467.861C20.43 467.935 20.3823 467.96 20.309 467.938L19.66 467.762C19.5793 467.748 19.55 467.7 19.572 467.619C19.77 467.003 20.1 466.527 20.562 466.189C21.024 465.845 21.5813 465.672 22.234 465.672C22.7107 465.672 23.1323 465.764 23.499 465.947C23.873 466.123 24.1627 466.373 24.368 466.695C24.5733 467.018 24.676 467.392 24.676 467.817C24.676 468.191 24.6173 468.547 24.5 468.884C24.39 469.222 24.1663 469.621 23.829 470.083C23.4917 470.545 22.993 471.125 22.333 471.821L21.2 473.031H24.885C24.9583 473.031 24.995 473.068 24.995 473.141V473.779C24.995 473.86 24.9583 473.9 24.885 473.9H19.781ZM28.9379 474.054C28.3146 474.054 27.7792 473.889 27.3319 473.559C26.8846 473.222 26.5399 472.742 26.2979 472.118C26.0632 471.488 25.9459 470.736 25.9459 469.863C25.9459 468.991 26.0632 468.243 26.2979 467.619C26.5399 466.989 26.8846 466.508 27.3319 466.178C27.7792 465.841 28.3146 465.672 28.9379 465.672C29.5612 465.672 30.0966 465.841 30.5439 466.178C30.9912 466.508 31.3322 466.989 31.5669 467.619C31.8089 468.243 31.9299 468.991 31.9299 469.863C31.9299 470.736 31.8089 471.488 31.5669 472.118C31.3322 472.742 30.9912 473.222 30.5439 473.559C30.0966 473.889 29.5612 474.054 28.9379 474.054ZM28.9379 473.152C29.5906 473.152 30.0929 472.874 30.4449 472.316C30.7969 471.752 30.9729 470.934 30.9729 469.863C30.9729 468.793 30.7969 467.979 30.4449 467.421C30.0929 466.857 29.5906 466.574 28.9379 466.574C28.2852 466.574 27.7829 466.857 27.4309 467.421C27.0789 467.979 26.9029 468.793 26.9029 469.863C26.9029 470.934 27.0789 471.752 27.4309 472.316C27.7829 472.874 28.2852 473.152 28.9379 473.152ZM32.9892 473.9C32.9085 473.9 32.8682 473.86 32.8682 473.779V473.581C32.8682 473.537 32.8865 473.49 32.9232 473.438L34.8812 471.271C35.4605 470.633 35.8968 470.12 36.1902 469.731C36.4835 469.343 36.6815 469.013 36.7842 468.741C36.8868 468.47 36.9382 468.188 36.9382 467.894C36.9382 467.484 36.7952 467.161 36.5092 466.926C36.2305 466.692 35.8638 466.574 35.4092 466.574C34.9838 466.574 34.6208 466.684 34.3202 466.904C34.0195 467.124 33.7995 467.443 33.6602 467.861C33.6382 467.935 33.5905 467.96 33.5172 467.938L32.8682 467.762C32.7875 467.748 32.7582 467.7 32.7802 467.619C32.9782 467.003 33.3082 466.527 33.7702 466.189C34.2322 465.845 34.7895 465.672 35.4422 465.672C35.9188 465.672 36.3405 465.764 36.7072 465.947C37.0812 466.123 37.3708 466.373 37.5762 466.695C37.7815 467.018 37.8842 467.392 37.8842 467.817C37.8842 468.191 37.8255 468.547 37.7082 468.884C37.5982 469.222 37.3745 469.621 37.0372 470.083C36.6998 470.545 36.2012 471.125 35.5412 471.821L34.4082 473.031H38.0932C38.1665 473.031 38.2032 473.068 38.2032 473.141V473.779C38.2032 473.86 38.1665 473.9 38.0932 473.9H32.9892ZM41.8051 474.054C41.2624 474.054 40.7821 473.941 40.3641 473.713C39.9461 473.479 39.6197 473.156 39.3851 472.745C39.1577 472.327 39.0441 471.851 39.0441 471.315C39.0441 470.831 39.1431 470.358 39.3411 469.896C39.5391 469.427 39.8911 468.826 40.3971 468.092L41.9591 465.892C41.9957 465.848 42.0434 465.826 42.1021 465.826H42.9051C42.9491 465.826 42.9784 465.841 42.9931 465.87C43.0077 465.9 43.0004 465.933 42.9711 465.969L40.7381 469.082C41.0974 468.818 41.5227 468.686 42.0141 468.686C42.5127 468.686 42.9564 468.8 43.3451 469.027C43.7337 469.247 44.0344 469.559 44.2471 469.962C44.4671 470.366 44.5771 470.828 44.5771 471.348C44.5771 471.884 44.4597 472.357 44.2251 472.767C43.9977 473.171 43.6751 473.486 43.2571 473.713C42.8391 473.941 42.3551 474.054 41.8051 474.054ZM41.8051 473.152C42.3477 473.152 42.7841 472.987 43.1141 472.657C43.4441 472.327 43.6091 471.884 43.6091 471.326C43.6091 470.769 43.4441 470.329 43.1141 470.006C42.7914 469.676 42.3551 469.511 41.8051 469.511C41.2551 469.511 40.8151 469.676 40.4851 470.006C40.1551 470.329 39.9901 470.769 39.9901 471.326C39.9901 471.884 40.1551 472.327 40.4851 472.657C40.8151 472.987 41.2551 473.152 41.8051 473.152ZM45.8652 474.065C45.6818 474.065 45.5278 474.007 45.4032 473.889C45.2858 473.772 45.2272 473.622 45.2272 473.438C45.2272 473.255 45.2858 473.105 45.4032 472.987C45.5278 472.87 45.6818 472.811 45.8652 472.811C46.0485 472.811 46.1988 472.87 46.3162 472.987C46.4408 473.105 46.5032 473.255 46.5032 473.438C46.5032 473.622 46.4408 473.772 46.3162 473.889C46.1988 474.007 46.0485 474.065 45.8652 474.065ZM50.0798 474.054C49.4565 474.054 48.9211 473.889 48.4738 473.559C48.0265 473.222 47.6818 472.742 47.4398 472.118C47.2051 471.488 47.0878 470.736 47.0878 469.863C47.0878 468.991 47.2051 468.243 47.4398 467.619C47.6818 466.989 48.0265 466.508 48.4738 466.178C48.9211 465.841 49.4565 465.672 50.0798 465.672C50.7031 465.672 51.2385 465.841 51.6858 466.178C52.1331 466.508 52.4741 466.989 52.7088 467.619C52.9508 468.243 53.0718 468.991 53.0718 469.863C53.0718 470.736 52.9508 471.488 52.7088 472.118C52.4741 472.742 52.1331 473.222 51.6858 473.559C51.2385 473.889 50.7031 474.054 50.0798 474.054ZM50.0798 473.152C50.7325 473.152 51.2348 472.874 51.5868 472.316C51.9388 471.752 52.1148 470.934 52.1148 469.863C52.1148 468.793 51.9388 467.979 51.5868 467.421C51.2348 466.857 50.7325 466.574 50.0798 466.574C49.4271 466.574 48.9248 466.857 48.5728 467.421C48.2208 467.979 48.0448 468.793 48.0448 469.863C48.0448 470.934 48.2208 471.752 48.5728 472.316C48.9248 472.874 49.4271 473.152 50.0798 473.152ZM57.9617 473.9C57.881 473.9 57.8407 473.86 57.8407 473.779V472.129H53.7817C53.701 472.129 53.6607 472.089 53.6607 472.008V471.788C53.6607 471.73 53.6753 471.682 53.7047 471.645L58.0167 465.892C58.0533 465.848 58.101 465.826 58.1597 465.826H58.6437C58.7243 465.826 58.7647 465.863 58.7647 465.936V471.26H59.8757C59.9563 471.26 59.9967 471.297 59.9967 471.37V472.008C59.9967 472.089 59.9563 472.129 59.8757 472.129H58.7647V473.779C58.7647 473.86 58.7243 473.9 58.6437 473.9H57.9617ZM57.8407 467.421L54.9807 471.26H57.8407V467.421ZM61.2463 474.065C61.0629 474.065 60.9089 474.007 60.7843 473.889C60.6669 473.772 60.6083 473.622 60.6083 473.438C60.6083 473.255 60.6669 473.105 60.7843 472.987C60.9089 472.87 61.0629 472.811 61.2463 472.811C61.4296 472.811 61.5799 472.87 61.6973 472.987C61.8219 473.105 61.8843 473.255 61.8843 473.438C61.8843 473.622 61.8219 473.772 61.6973 473.889C61.5799 474.007 61.4296 474.065 61.2463 474.065ZM63.5542 473.9C63.4809 473.9 63.4442 473.86 63.4442 473.779V467.113L61.8822 468.015C61.8529 468.03 61.8309 468.037 61.8162 468.037C61.7869 468.037 61.7575 468.012 61.7282 467.96L61.5852 467.718C61.5705 467.689 61.5632 467.667 61.5632 467.652C61.5632 467.616 61.5815 467.586 61.6182 467.564L63.6202 465.881C63.6569 465.845 63.7045 465.826 63.7632 465.826H64.2472C64.3205 465.826 64.3572 465.863 64.3572 465.936V473.779C64.3572 473.86 64.3205 473.9 64.2472 473.9H63.5542ZM68.64 474.054C68.0827 474.054 67.584 473.955 67.144 473.757C66.704 473.559 66.3593 473.281 66.11 472.921C65.868 472.562 65.747 472.151 65.747 471.689C65.747 471.213 65.8937 470.791 66.187 470.424C66.4877 470.05 66.8873 469.786 67.386 469.632C66.9607 469.486 66.6197 469.247 66.363 468.917C66.1137 468.58 65.989 468.206 65.989 467.795C65.989 467.385 66.1027 467.018 66.33 466.695C66.5573 466.373 66.8727 466.123 67.276 465.947C67.6793 465.764 68.134 465.672 68.64 465.672C69.1533 465.672 69.608 465.764 70.004 465.947C70.4073 466.123 70.7227 466.373 70.95 466.695C71.1773 467.018 71.291 467.385 71.291 467.795C71.291 468.206 71.1627 468.58 70.906 468.917C70.6567 469.247 70.3193 469.486 69.894 469.632C70.3927 469.786 70.7887 470.05 71.082 470.424C71.3827 470.791 71.533 471.213 71.533 471.689C71.533 472.151 71.4083 472.562 71.159 472.921C70.917 473.273 70.576 473.552 70.136 473.757C69.696 473.955 69.1973 474.054 68.64 474.054ZM68.64 469.302C69.1387 469.302 69.5457 469.17 69.861 468.906C70.1837 468.642 70.345 468.305 70.345 467.894C70.345 467.498 70.1837 467.168 69.861 466.904C69.5457 466.64 69.1387 466.508 68.64 466.508C68.1413 466.508 67.7307 466.64 67.408 466.904C67.0927 467.168 66.935 467.498 66.935 467.894C66.935 468.305 67.0927 468.642 67.408 468.906C67.7307 469.17 68.1413 469.302 68.64 469.302ZM68.64 473.207C69.014 473.207 69.3477 473.141 69.641 473.009C69.9417 472.87 70.1727 472.679 70.334 472.437C70.5027 472.188 70.587 471.909 70.587 471.601C70.587 471.301 70.5027 471.033 70.334 470.798C70.1727 470.556 69.9417 470.369 69.641 470.237C69.3477 470.098 69.014 470.028 68.64 470.028C68.266 470.028 67.9287 470.098 67.628 470.237C67.3347 470.369 67.1037 470.556 66.935 470.798C66.7737 471.033 66.693 471.301 66.693 471.601C66.693 471.909 66.7737 472.188 66.935 472.437C67.1037 472.679 67.3347 472.87 67.628 473.009C67.9287 473.141 68.266 473.207 68.64 473.207ZM73.0287 474.065C72.8454 474.065 72.6914 474.007 72.5667 473.889C72.4494 473.772 72.3907 473.622 72.3907 473.438C72.3907 473.255 72.4494 473.105 72.5667 472.987C72.6914 472.87 72.8454 472.811 73.0287 472.811C73.2121 472.811 73.3624 472.87 73.4797 472.987C73.6044 473.105 73.6667 473.255 73.6667 473.438C73.6667 473.622 73.6044 473.772 73.4797 473.889C73.3624 474.007 73.2121 474.065 73.0287 474.065ZM80.6306 470.809C80.3006 470.809 80.0219 470.762 79.7946 470.666C79.5746 470.571 79.3363 470.432 79.0796 470.248C78.9109 470.124 78.7643 470.032 78.6396 469.973C78.5223 469.915 78.3903 469.885 78.2436 469.885C78.0603 469.885 77.8843 469.948 77.7156 470.072C77.5469 470.197 77.3966 470.384 77.2646 470.633C77.2573 470.655 77.2389 470.666 77.2096 470.666C77.2023 470.666 77.1656 470.655 77.0996 470.633L76.5496 470.402C76.4909 470.38 76.4726 470.333 76.4946 470.259C76.6779 469.863 76.9236 469.563 77.2316 469.357C77.5396 469.145 77.8549 469.038 78.1776 469.038C78.5076 469.038 78.7826 469.086 79.0026 469.181C79.2299 469.277 79.4719 469.416 79.7286 469.599C79.8973 469.724 80.0403 469.816 80.1576 469.874C80.2823 469.933 80.4179 469.962 80.5646 469.962C80.7479 469.962 80.9239 469.9 81.0926 469.775C81.2613 469.651 81.4116 469.464 81.5436 469.214C81.5583 469.192 81.5766 469.181 81.5986 469.181C81.6059 469.181 81.6426 469.192 81.7086 469.214L82.2586 469.445C82.3173 469.467 82.3356 469.515 82.3136 469.588C82.1303 469.984 81.8846 470.289 81.5766 470.501C81.2686 470.707 80.9533 470.809 80.6306 470.809ZM88.0805 474.054C87.4572 474.054 86.9218 473.889 86.4745 473.559C86.0272 473.222 85.6825 472.742 85.4405 472.118C85.2058 471.488 85.0885 470.736 85.0885 469.863C85.0885 468.991 85.2058 468.243 85.4405 467.619C85.6825 466.989 86.0272 466.508 86.4745 466.178C86.9218 465.841 87.4572 465.672 88.0805 465.672C88.7038 465.672 89.2392 465.841 89.6865 466.178C90.1338 466.508 90.4748 466.989 90.7095 467.619C90.9515 468.243 91.0725 468.991 91.0725 469.863C91.0725 470.736 90.9515 471.488 90.7095 472.118C90.4748 472.742 90.1338 473.222 89.6865 473.559C89.2392 473.889 88.7038 474.054 88.0805 474.054ZM88.0805 473.152C88.7332 473.152 89.2355 472.874 89.5875 472.316C89.9395 471.752 90.1155 470.934 90.1155 469.863C90.1155 468.793 89.9395 467.979 89.5875 467.421C89.2355 466.857 88.7332 466.574 88.0805 466.574C87.4278 466.574 86.9255 466.857 86.5735 467.421C86.2215 467.979 86.0455 468.793 86.0455 469.863C86.0455 470.934 86.2215 471.752 86.5735 472.316C86.9255 472.874 87.4278 473.152 88.0805 473.152ZM95.9624 473.9C95.8817 473.9 95.8414 473.86 95.8414 473.779V472.129H91.7824C91.7017 472.129 91.6614 472.089 91.6614 472.008V471.788C91.6614 471.73 91.676 471.682 91.7054 471.645L96.0174 465.892C96.054 465.848 96.1017 465.826 96.1604 465.826H96.6444C96.725 465.826 96.7654 465.863 96.7654 465.936V471.26H97.8764C97.957 471.26 97.9974 471.297 97.9974 471.37V472.008C97.9974 472.089 97.957 472.129 97.8764 472.129H96.7654V473.779C96.7654 473.86 96.725 473.9 96.6444 473.9H95.9624ZM95.8414 467.421L92.9814 471.26H95.8414V467.421ZM99.247 474.065C99.0636 474.065 98.9096 474.007 98.785 473.889C98.6676 473.772 98.609 473.622 98.609 473.438C98.609 473.255 98.6676 473.105 98.785 472.987C98.9096 472.87 99.0636 472.811 99.247 472.811C99.4303 472.811 99.5806 472.87 99.698 472.987C99.8226 473.105 99.885 473.255 99.885 473.438C99.885 473.622 99.8226 473.772 99.698 473.889C99.5806 474.007 99.4303 474.065 99.247 474.065ZM100.979 473.9C100.898 473.9 100.858 473.86 100.858 473.779V473.581C100.858 473.537 100.876 473.49 100.913 473.438L102.871 471.271C103.45 470.633 103.886 470.12 104.18 469.731C104.473 469.343 104.671 469.013 104.774 468.741C104.876 468.47 104.928 468.188 104.928 467.894C104.928 467.484 104.785 467.161 104.499 466.926C104.22 466.692 103.853 466.574 103.399 466.574C102.973 466.574 102.61 466.684 102.31 466.904C102.009 467.124 101.789 467.443 101.65 467.861C101.628 467.935 101.58 467.96 101.507 467.938L100.858 467.762C100.777 467.748 100.748 467.7 100.77 467.619C100.968 467.003 101.298 466.527 101.76 466.189C102.222 465.845 102.779 465.672 103.432 465.672C103.908 465.672 104.33 465.764 104.697 465.947C105.071 466.123 105.36 466.373 105.566 466.695C105.771 467.018 105.874 467.392 105.874 467.817C105.874 468.191 105.815 468.547 105.698 468.884C105.588 469.222 105.364 469.621 105.027 470.083C104.689 470.545 104.191 471.125 103.531 471.821L102.398 473.031H106.083C106.156 473.031 106.193 473.068 106.193 473.141V473.779C106.193 473.86 106.156 473.9 106.083 473.9H100.979ZM110.71 473.9C110.629 473.9 110.589 473.86 110.589 473.779V472.129H106.53C106.449 472.129 106.409 472.089 106.409 472.008V471.788C106.409 471.73 106.423 471.682 106.453 471.645L110.765 465.892C110.801 465.848 110.849 465.826 110.908 465.826H111.392C111.472 465.826 111.513 465.863 111.513 465.936V471.26H112.624C112.704 471.26 112.745 471.297 112.745 471.37V472.008C112.745 472.089 112.704 472.129 112.624 472.129H111.513V473.779C111.513 473.86 111.472 473.9 111.392 473.9H110.71ZM110.589 467.421L107.729 471.26H110.589V467.421ZM113.994 474.065C113.811 474.065 113.657 474.007 113.532 473.889C113.415 473.772 113.356 473.622 113.356 473.438C113.356 473.255 113.415 473.105 113.532 472.987C113.657 472.87 113.811 472.811 113.994 472.811C114.178 472.811 114.328 472.87 114.445 472.987C114.57 473.105 114.632 473.255 114.632 473.438C114.632 473.622 114.57 473.772 114.445 473.889C114.328 474.007 114.178 474.065 113.994 474.065Z" fill="white"/>
<path d="M21.332 411.9C21.266 411.9 21.222 411.871 21.2 411.812L19.286 406.477L19.275 406.433C19.275 406.375 19.3117 406.345 19.385 406.345H20.166C20.232 406.345 20.276 406.375 20.298 406.433L21.596 410.371L23.147 406.433C23.169 406.375 23.213 406.345 23.279 406.345H23.686C23.7447 406.345 23.7887 406.375 23.818 406.433L25.325 410.327L26.656 406.433C26.678 406.375 26.722 406.345 26.788 406.345H27.503C27.5983 406.345 27.6313 406.389 27.602 406.477L25.688 411.812C25.666 411.871 25.622 411.9 25.556 411.9H25.149C25.083 411.9 25.039 411.871 25.017 411.812L23.466 407.808L21.871 411.812C21.849 411.871 21.805 411.9 21.739 411.9H21.332ZM28.5328 411.9C28.4521 411.9 28.4118 411.86 28.4118 411.779V403.76C28.4118 403.687 28.4521 403.65 28.5328 403.65H29.1818C29.2551 403.65 29.2918 403.687 29.2918 403.76V407.324C29.4898 406.972 29.7648 406.705 30.1168 406.521C30.4761 406.331 30.8538 406.235 31.2498 406.235C31.8731 406.235 32.3608 406.419 32.7128 406.785C33.0648 407.145 33.2408 407.647 33.2408 408.292V411.779C33.2408 411.86 33.2041 411.9 33.1308 411.9H32.4818C32.4011 411.9 32.3608 411.86 32.3608 411.779V408.655C32.3608 408.12 32.2508 407.72 32.0308 407.456C31.8108 407.185 31.4735 407.049 31.0188 407.049C30.7401 407.049 30.4688 407.123 30.2048 407.269C29.9408 407.409 29.7208 407.621 29.5448 407.907C29.3761 408.193 29.2918 408.545 29.2918 408.963V411.779C29.2918 411.86 29.2551 411.9 29.1818 411.9H28.5328ZM36.9126 412.01C36.3626 412.01 35.8822 411.886 35.4716 411.636C35.0609 411.387 34.7456 411.046 34.5256 410.613C34.3056 410.173 34.1956 409.675 34.1956 409.117C34.1956 408.56 34.3056 408.065 34.5256 407.632C34.7529 407.192 35.0719 406.851 35.4826 406.609C35.8932 406.36 36.3699 406.235 36.9126 406.235C37.7192 406.235 38.3426 406.514 38.7826 407.071C39.2299 407.621 39.4462 408.358 39.4316 409.282C39.4316 409.363 39.3912 409.403 39.3106 409.403H35.1196C35.1709 409.961 35.3542 410.401 35.6696 410.723C35.9922 411.046 36.4066 411.207 36.9126 411.207C37.6752 411.207 38.2142 410.896 38.5296 410.272C38.5589 410.214 38.6102 410.195 38.6836 410.217L39.2336 410.415C39.2702 410.43 39.2922 410.452 39.2996 410.481C39.3142 410.503 39.3142 410.529 39.2996 410.558C39.0649 411.042 38.7422 411.405 38.3316 411.647C37.9282 411.889 37.4552 412.01 36.9126 412.01ZM38.4856 408.71C38.4489 408.204 38.2912 407.797 38.0126 407.489C37.7339 407.181 37.3672 407.027 36.9126 407.027C36.4359 407.027 36.0362 407.181 35.7136 407.489C35.3909 407.79 35.1966 408.197 35.1306 408.71H38.4856ZM40.4519 411.9C40.3712 411.9 40.3309 411.86 40.3309 411.779V406.455C40.3309 406.382 40.3712 406.345 40.4519 406.345H41.0129C41.0936 406.345 41.1339 406.382 41.1339 406.455L41.1779 407.368C41.3686 407.002 41.6472 406.723 42.0139 406.532C42.3806 406.334 42.7656 406.235 43.1689 406.235C43.7922 406.235 44.2799 406.419 44.6319 406.785C44.9839 407.145 45.1599 407.647 45.1599 408.292V411.779C45.1599 411.86 45.1232 411.9 45.0499 411.9H44.4009C44.3202 411.9 44.2799 411.86 44.2799 411.779V408.655C44.2799 408.12 44.1699 407.72 43.9499 407.456C43.7299 407.185 43.3926 407.049 42.9379 407.049C42.6592 407.049 42.3879 407.123 42.1239 407.269C41.8599 407.409 41.6399 407.621 41.4639 407.907C41.2952 408.193 41.2109 408.545 41.2109 408.963V411.779C41.2109 411.86 41.1742 411.9 41.1009 411.9H40.4519Z" fill="white"/>
<rect x="29" y="419.9" width="8" height="8" fill="white"/>
<path d="M33 428.04V456.9" stroke="white" stroke-width="0.52"/>
<rect x="19" y="375.9" width="8" height="8" fill="white"/>
<g filter="url(#filter1_d_3710_1115)">
<path fill-rule="evenodd" clip-rule="evenodd" d="M122.719 414.52L121.098 412.653L123.48 410.584L125.103 412.449L125.909 410.112L128.893 411.14L128.089 413.477L130.516 413.007L131.118 416.104L128.691 416.576L130.313 418.443L127.931 420.512L126.308 418.647L125.502 420.984L122.518 419.956L123.322 417.619L120.895 418.089L120.293 414.992L122.719 414.52Z" fill="white"/>
</g>
<path d="M447.313 499.703C442.027 511.321 424.78 516.139 399.987 514.802C364.021 512.862 312.175 497.969 257.929 472.087C166.289 428.363 102.502 369.838 115.457 341.366C128.313 313.11 211.922 325.075 302.762 367.996C303.455 368.323 342.572 385.873 343.265 386.204" stroke="white"/>
<g filter="url(#filter2_iiii_3710_1115)">
<path d="M179 501.9C179 486.265 184.38 463.842 194.833 449.397C205.286 434.952 220.607 421.827 239.922 410.772C259.236 399.716 282.166 390.946 307.402 384.963C332.638 378.98 385.685 375.9 413 375.9V501.9H179Z" fill="#0D0F14"/>
</g>
<g filter="url(#filter3_d_3710_1115)">
<path d="M271 470.9L271.523 474.459L273.069 471.213L272.523 474.769L274.954 472.124L273.387 475.36L276.488 473.551L274.04 476.18L277.534 475.368L274.422 477.157L278 477.414L274.5 478.203L277.844 479.506L274.267 479.226L277.079 481.459L273.744 480.134L275.775 483.1L272.977 480.848L274.046 484.282L272.035 481.303L272.046 484.9L271 481.459L269.954 484.9L269.965 481.303L267.954 484.282L269.023 480.848L266.225 483.1L268.256 480.134L264.921 481.459L267.733 479.226L264.156 479.506L267.5 478.203L264 477.414L267.578 477.157L264.466 475.368L267.96 476.18L265.512 473.551L268.613 475.36L267.046 472.124L269.477 474.769L268.931 471.213L270.477 474.459L271 470.9Z" fill="white"/>
</g>
</g>
<defs>
<filter id="filter0_iiii_3710_1115" x="-55" y="375.9" width="234" height="154.889" filterUnits="userSpaceOnUse" color-interpolation-filters="sRGB">
<feFlood flood-opacity="0" result="BackgroundImageFix"/>
<feBlend mode="normal" in="SourceGraphic" in2="BackgroundImageFix" result="shape"/>
<feColorMatrix in="SourceAlpha" type="matrix" values="0 0 0 0 0 0 0 0 0 0 0 0 0 0 0 0 0 0 127 0" result="hardAlpha"/>
<feOffset dy="62.4444"/>
<feGaussianBlur stdDeviation="14.4444"/>
<feComposite in2="hardAlpha" operator="arithmetic" k2="-1" k3="1"/>
<feColorMatrix type="matrix" values="0 0 0 0 0.00392157 0 0 0 0 0.12549 0 0 0 0 0.458824 0 0 0 0.7 0"/>
<feBlend mode="lighten" in2="shape" result="effect1_innerShadow_3710_1115"/>
<feColorMatrix in="SourceAlpha" type="matrix" values="0 0 0 0 0 0 0 0 0 0 0 0 0 0 0 0 0 0 127 0" result="hardAlpha"/>
<feOffset dy="14.6667"/>
<feGaussianBlur stdDeviation="11.1111"/>
<feComposite in2="hardAlpha" operator="arithmetic" k2="-1" k3="1"/>
<feColorMatrix type="matrix" values="0 0 0 0 0.0196078 0 0 0 0 0.415686 0 0 0 0 0.803922 0 0 0 0.6 0"/>
<feBlend mode="screen" in2="effect1_innerShadow_3710_1115" result="effect2_innerShadow_3710_1115"/>
<feColorMatrix in="SourceAlpha" type="matrix" values="0 0 0 0 0 0 0 0 0 0 0 0 0 0 0 0 0 0 127 0" result="hardAlpha"/>
<feOffset dy="20.8889"/>
<feGaussianBlur stdDeviation="8.33333"/>
<feComposite in2="hardAlpha" operator="arithmetic" k2="-1" k3="1"/>
<feColorMatrix type="matrix" values="0 0 0 0 0.36366 0 0 0 0 0.32549 0 0 0 0 0.898039 0 0 0 0.8 0"/>
<feBlend mode="normal" in2="effect2_innerShadow_3710_1115" result="effect3_innerShadow_3710_1115"/>
<feColorMatrix in="SourceAlpha" type="matrix" values="0 0 0 0 0 0 0 0 0 0 0 0 0 0 0 0 0 0 127 0" result="hardAlpha"/>
<feOffset dy="4.88889"/>
<feGaussianBlur stdDeviation="7.22222"/>
<feComposite in2="hardAlpha" operator="arithmetic" k2="-1" k3="1"/>
<feColorMatrix type="matrix" values="0 0 0 0 0.792157 0 0 0 0 0.768627 0 0 0 0 0.858824 0 0 0 0.8 0"/>
<feBlend mode="screen" in2="effect3_innerShadow_3710_1115" result="effect4_innerShadow_3710_1115"/>
</filter>
<filter id="filter1_d_3710_1115" x="116.293" y="406.112" width="18.8262" height="18.8721" filterUnits="userSpaceOnUse" color-interpolation-filters="sRGB">
<feFlood flood-opacity="0" result="BackgroundImageFix"/>
<feColorMatrix in="SourceAlpha" type="matrix" values="0 0 0 0 0 0 0 0 0 0 0 0 0 0 0 0 0 0 127 0" result="hardAlpha"/>
<feOffset/>
<feGaussianBlur stdDeviation="2"/>
<feComposite in2="hardAlpha" operator="out"/>
<feColorMatrix type="matrix" values="0 0 0 0 1 0 0 0 0 1 0 0 0 0 1 0 0 0 1 0"/>
<feBlend mode="normal" in2="BackgroundImageFix" result="effect1_dropShadow_3710_1115"/>
<feBlend mode="normal" in="SourceGraphic" in2="effect1_dropShadow_3710_1115" result="shape"/>
</filter>
<filter id="filter2_iiii_3710_1115" x="179" y="375.9" width="234" height="154.889" filterUnits="userSpaceOnUse" color-interpolation-filters="sRGB">
<feFlood flood-opacity="0" result="BackgroundImageFix"/>
<feBlend mode="normal" in="SourceGraphic" in2="BackgroundImageFix" result="shape"/>
<feColorMatrix in="SourceAlpha" type="matrix" values="0 0 0 0 0 0 0 0 0 0 0 0 0 0 0 0 0 0 127 0" result="hardAlpha"/>
<feOffset dy="62.4444"/>
<feGaussianBlur stdDeviation="14.4444"/>
<feComposite in2="hardAlpha" operator="arithmetic" k2="-1" k3="1"/>
<feColorMatrix type="matrix" values="0 0 0 0 0.00392157 0 0 0 0 0.12549 0 0 0 0 0.458824 0 0 0 0.7 0"/>
<feBlend mode="lighten" in2="shape" result="effect1_innerShadow_3710_1115"/>
<feColorMatrix in="SourceAlpha" type="matrix" values="0 0 0 0 0 0 0 0 0 0 0 0 0 0 0 0 0 0 127 0" result="hardAlpha"/>
<feOffset dy="14.6667"/>
<feGaussianBlur stdDeviation="11.1111"/>
<feComposite in2="hardAlpha" operator="arithmetic" k2="-1" k3="1"/>
<feColorMatrix type="matrix" values="0 0 0 0 0.0196078 0 0 0 0 0.415686 0 0 0 0 0.803922 0 0 0 0.6 0"/>
<feBlend mode="screen" in2="effect1_innerShadow_3710_1115" result="effect2_innerShadow_3710_1115"/>
<feColorMatrix in="SourceAlpha" type="matrix" values="0 0 0 0 0 0 0 0 0 0 0 0 0 0 0 0 0 0 127 0" result="hardAlpha"/>
<feOffset dy="20.8889"/>
<feGaussianBlur stdDeviation="8.33333"/>
<feComposite in2="hardAlpha" operator="arithmetic" k2="-1" k3="1"/>
<feColorMatrix type="matrix" values="0 0 0 0 0.344575 0 0 0 0 0.32549 0 0 0 0 0.898039 0 0 0 0.8 0"/>
<feBlend mode="normal" in2="effect2_innerShadow_3710_1115" result="effect3_innerShadow_3710_1115"/>
<feColorMatrix in="SourceAlpha" type="matrix" values="0 0 0 0 0 0 0 0 0 0 0 0 0 0 0 0 0 0 127 0" result="hardAlpha"/>
<feOffset dy="4.88889"/>
<feGaussianBlur stdDeviation="7.22222"/>
<feComposite in2="hardAlpha" operator="arithmetic" k2="-1" k3="1"/>
<feColorMatrix type="matrix" values="0 0 0 0 0.792157 0 0 0 0 0.768627 0 0 0 0 0.858824 0 0 0 0.8 0"/>
<feBlend mode="screen" in2="effect3_innerShadow_3710_1115" result="effect4_innerShadow_3710_1115"/>
</filter>
<filter id="filter3_d_3710_1115" x="259" y="465.9" width="24" height="24" filterUnits="userSpaceOnUse" color-interpolation-filters="sRGB">
<feFlood flood-opacity="0" result="BackgroundImageFix"/>
<feColorMatrix in="SourceAlpha" type="matrix" values="0 0 0 0 0 0 0 0 0 0 0 0 0 0 0 0 0 0 127 0" result="hardAlpha"/>
<feOffset/>
<feGaussianBlur stdDeviation="2.5"/>
<feComposite in2="hardAlpha" operator="out"/>
<feColorMatrix type="matrix" values="0 0 0 0 1 0 0 0 0 1 0 0 0 0 1 0 0 0 1 0"/>
<feBlend mode="normal" in2="BackgroundImageFix" result="effect1_dropShadow_3710_1115"/>
<feBlend mode="normal" in="SourceGraphic" in2="effect1_dropShadow_3710_1115" result="shape"/>
</filter>
<clipPath id="clip0_3710_1115">
<rect width="360" height="502" fill="white"/>
</clipPath>
</defs>
</svg>
