<svg width="573" height="972" viewBox="0 0 573 972" fill="none" xmlns="http://www.w3.org/2000/svg">
<path opacity="0.5" d="M586.9 -15C869.127 -15 1097.9 209.315 1097.9 486C1097.9 762.685 869.127 987 586.9 987C304.674 987 75.9004 762.685 75.9004 486C75.9004 209.315 304.674 -15 586.9 -15Z" stroke="white"/>
<circle opacity="0.5" cx="720.9" cy="535.5" r="501" stroke="white"/>
<circle opacity="0.5" cx="863.752" cy="574" r="493.5" stroke="white"/>
<circle opacity="0.5" cx="1009.9" cy="576" r="493.5" stroke="white"/>
<path d="M159.254 167.19C157.59 167.19 156.126 166.822 154.862 166.086C153.614 165.334 152.638 164.27 151.934 162.894C151.246 161.502 150.902 159.886 150.902 158.046C150.902 156.206 151.254 154.598 151.958 153.222C152.662 151.83 153.646 150.766 154.91 150.03C156.174 149.278 157.63 148.902 159.278 148.902C161.054 148.902 162.566 149.302 163.814 150.102C165.062 150.902 165.99 152.046 166.598 153.534L166.622 153.63C166.622 153.742 166.558 153.822 166.43 153.87L164.966 154.302L164.87 154.326C164.79 154.326 164.718 154.27 164.654 154.158C163.614 151.966 161.83 150.87 159.302 150.87C157.974 150.87 156.83 151.174 155.87 151.782C154.926 152.39 154.206 153.238 153.71 154.326C153.23 155.398 152.99 156.638 152.99 158.046C152.99 159.47 153.238 160.726 153.734 161.814C154.23 162.886 154.95 163.726 155.894 164.334C156.838 164.926 157.974 165.222 159.302 165.222C160.71 165.222 161.894 164.878 162.854 164.19C163.83 163.502 164.55 162.51 165.014 161.214C165.062 161.054 165.166 160.998 165.326 161.046L166.79 161.478C166.934 161.526 166.99 161.614 166.958 161.742C166.43 163.406 165.51 164.734 164.198 165.726C162.886 166.702 161.238 167.19 159.254 167.19ZM169.917 166.854C169.741 166.854 169.653 166.766 169.653 166.59V149.478C169.653 149.318 169.741 149.238 169.917 149.238H171.525C171.669 149.238 171.765 149.294 171.813 149.406L178.725 161.07L185.589 149.406C185.653 149.294 185.749 149.238 185.877 149.238H187.437C187.613 149.238 187.701 149.318 187.701 149.478V166.59C187.701 166.766 187.613 166.854 187.437 166.854H185.997C185.837 166.854 185.757 166.766 185.757 166.59V152.67L179.469 163.326C179.421 163.438 179.325 163.494 179.181 163.494H178.173C178.045 163.494 177.949 163.438 177.885 163.326L171.597 152.694V166.59C171.597 166.766 171.517 166.854 171.357 166.854H169.917ZM198.876 167.19C197.212 167.19 195.748 166.822 194.484 166.086C193.236 165.334 192.26 164.27 191.556 162.894C190.868 161.502 190.524 159.886 190.524 158.046C190.524 156.206 190.876 154.598 191.58 153.222C192.284 151.83 193.268 150.766 194.532 150.03C195.796 149.278 197.252 148.902 198.9 148.902C200.676 148.902 202.188 149.302 203.436 150.102C204.684 150.902 205.612 152.046 206.22 153.534L206.244 153.63C206.244 153.742 206.18 153.822 206.052 153.87L204.588 154.302L204.492 154.326C204.412 154.326 204.34 154.27 204.276 154.158C203.236 151.966 201.452 150.87 198.924 150.87C197.596 150.87 196.452 151.174 195.492 151.782C194.548 152.39 193.828 153.238 193.332 154.326C192.852 155.398 192.612 156.638 192.612 158.046C192.612 159.47 192.86 160.726 193.356 161.814C193.852 162.886 194.572 163.726 195.516 164.334C196.46 164.926 197.596 165.222 198.924 165.222C200.332 165.222 201.516 164.878 202.476 164.19C203.452 163.502 204.172 162.51 204.636 161.214C204.684 161.054 204.788 160.998 204.948 161.046L206.412 161.478C206.556 161.526 206.612 161.614 206.58 161.742C206.052 163.406 205.132 164.734 203.82 165.726C202.508 166.702 200.86 167.19 198.876 167.19ZM217.091 166.854C216.931 166.854 216.851 166.766 216.851 166.59V152.046L213.443 154.014C213.379 154.046 213.331 154.062 213.299 154.062C213.235 154.062 213.171 154.006 213.107 153.894L212.795 153.366C212.763 153.302 212.747 153.254 212.747 153.222C212.747 153.142 212.787 153.078 212.867 153.03L217.235 149.358C217.315 149.278 217.419 149.238 217.547 149.238H218.603C218.763 149.238 218.843 149.318 218.843 149.478V166.59C218.843 166.766 218.763 166.854 218.603 166.854H217.091ZM225.067 166.854C224.971 166.854 224.907 166.822 224.875 166.758C224.843 166.694 224.859 166.622 224.923 166.542L229.915 159.822C229.163 160.334 228.275 160.59 227.251 160.59C226.147 160.59 225.171 160.35 224.323 159.87C223.475 159.39 222.819 158.71 222.355 157.83C221.891 156.95 221.659 155.934 221.659 154.782C221.659 153.614 221.907 152.59 222.403 151.71C222.915 150.814 223.627 150.126 224.539 149.646C225.451 149.15 226.499 148.902 227.683 148.902C228.883 148.902 229.939 149.158 230.851 149.67C231.763 150.166 232.467 150.87 232.963 151.782C233.475 152.678 233.731 153.71 233.731 154.878C233.731 155.95 233.507 157.006 233.059 158.046C232.611 159.07 231.819 160.35 230.683 161.886L227.107 166.686C227.027 166.798 226.923 166.854 226.795 166.854H225.067ZM227.707 158.814C228.907 158.814 229.859 158.454 230.563 157.734C231.283 157.014 231.643 156.046 231.643 154.83C231.643 153.614 231.283 152.654 230.563 151.95C229.859 151.23 228.907 150.87 227.707 150.87C226.507 150.87 225.547 151.23 224.827 151.95C224.107 152.654 223.747 153.614 223.747 154.83C223.747 156.046 224.107 157.014 224.827 157.734C225.547 158.454 226.507 158.814 227.707 158.814ZM240.137 167.094C239.017 167.094 238.153 166.734 237.545 166.014C236.937 165.278 236.633 164.158 236.633 162.654V156.462H234.497C234.337 156.462 234.257 156.382 234.257 156.222V154.974C234.257 154.814 234.337 154.734 234.497 154.734H236.633V151.014C236.633 150.854 236.713 150.774 236.873 150.774H238.289C238.465 150.774 238.553 150.854 238.553 151.014V154.734H241.913C242.073 154.734 242.153 154.814 242.153 154.974V156.222C242.153 156.382 242.073 156.462 241.913 156.462H238.553V162.702C238.553 163.614 238.689 164.278 238.961 164.694C239.249 165.11 239.697 165.318 240.305 165.318C240.993 165.318 241.513 164.95 241.865 164.214C241.945 164.054 242.057 164.014 242.201 164.094L243.281 164.55C243.441 164.63 243.473 164.766 243.377 164.958C242.673 166.382 241.593 167.094 240.137 167.094ZM245.02 166.854C244.844 166.854 244.756 166.766 244.756 166.59V149.094C244.756 148.934 244.844 148.854 245.02 148.854H246.436C246.596 148.854 246.676 148.934 246.676 149.094V156.87C247.108 156.102 247.708 155.518 248.476 155.118C249.26 154.702 250.084 154.494 250.948 154.494C252.308 154.494 253.372 154.894 254.14 155.694C254.908 156.478 255.292 157.574 255.292 158.982V166.59C255.292 166.766 255.212 166.854 255.052 166.854H253.636C253.46 166.854 253.372 166.766 253.372 166.59V159.774C253.372 158.606 253.132 157.734 252.652 157.158C252.172 156.566 251.436 156.27 250.444 156.27C249.836 156.27 249.244 156.43 248.668 156.75C248.092 157.054 247.612 157.518 247.228 158.142C246.86 158.766 246.676 159.534 246.676 160.446V166.59C246.676 166.766 246.596 166.854 246.436 166.854H245.02ZM258.503 162.342C258.327 162.342 258.239 162.254 258.239 162.078L258.095 149.094C258.095 148.918 258.175 148.83 258.335 148.83H259.799C259.975 148.83 260.063 148.918 260.063 149.094L259.895 162.078C259.895 162.254 259.815 162.342 259.655 162.342H258.503ZM259.103 167.55C258.703 167.55 258.367 167.422 258.095 167.166C257.839 166.91 257.711 166.582 257.711 166.182C257.711 165.782 257.839 165.454 258.095 165.198C258.367 164.942 258.703 164.814 259.103 164.814C259.503 164.814 259.831 164.942 260.087 165.198C260.359 165.454 260.495 165.782 260.495 166.182C260.495 166.582 260.359 166.91 260.087 167.166C259.831 167.422 259.503 167.55 259.103 167.55Z" fill="white"/>
<g filter="url(#filter0_d_3583_1156)">
<circle cx="229.147" cy="124.518" r="2.47278" transform="rotate(-4.52678 229.147 124.518)" fill="white"/>
</g>
<path d="M228.943 124.473C217.643 103.6 225.858 61.1947 262.637 69.0352C301.704 77.3636 304.468 112.622 288.229 117.978C264.959 125.652 250.941 45.8724 309.52 53.6871C340.34 57.7987 349.668 85.9222 340.149 108.532C333.623 124.033 323.803 132.887 323.803 132.887" stroke="url(#paint0_linear_3583_1156)" stroke-width="7.95525" stroke-linecap="round"/>
<path d="M228.943 124.473C217.643 103.6 225.858 61.1947 262.637 69.0352C301.704 77.3636 304.468 112.622 288.229 117.978C264.959 125.652 250.941 45.8724 309.52 53.6871C340.34 57.7987 349.668 85.9222 340.149 108.532C333.623 124.033 323.803 132.887 323.803 132.887" stroke="url(#paint1_linear_3583_1156)" stroke-width="7.95525" stroke-linecap="round"/>
<g filter="url(#filter1_d_3583_1156)">
<path d="M218.798 119.815L224.94 125.704C225.013 125.775 225.067 125.863 225.096 125.961C225.126 126.058 225.13 126.162 225.108 126.261L223.237 134.562C223.209 134.689 223.223 134.82 223.277 134.938C223.331 135.055 223.422 135.152 223.536 135.213C223.65 135.274 223.781 135.297 223.908 135.277C224.036 135.257 224.154 135.196 224.244 135.104L230.133 128.961C230.204 128.889 230.293 128.835 230.39 128.806C230.488 128.776 230.591 128.772 230.691 128.794L238.992 130.665C239.118 130.693 239.25 130.679 239.367 130.625C239.485 130.57 239.581 130.48 239.642 130.366C239.704 130.252 239.726 130.121 239.706 129.993C239.687 129.866 239.626 129.748 239.533 129.658L233.391 123.769C233.318 123.698 233.264 123.609 233.235 123.512C233.206 123.414 233.202 123.311 233.223 123.211L235.095 114.91C235.122 114.784 235.108 114.652 235.054 114.535C235 114.417 234.909 114.321 234.795 114.259C234.681 114.198 234.551 114.176 234.423 114.196C234.295 114.215 234.177 114.276 234.087 114.369L228.198 120.511C228.127 120.584 228.038 120.637 227.941 120.667C227.843 120.696 227.74 120.7 227.64 120.679L219.34 118.807C219.213 118.78 219.081 118.794 218.964 118.848C218.847 118.902 218.75 118.993 218.689 119.107C218.628 119.221 218.605 119.351 218.625 119.479C218.645 119.607 218.705 119.725 218.798 119.815Z" fill="#B3B4FF"/>
</g>
<g filter="url(#filter2_fn_3583_1156)">
<circle cx="456.4" cy="32" r="239" fill="#1E2330"/>
</g>
<defs>
<filter id="filter0_d_3583_1156" x="212.574" y="107.945" width="33.1453" height="33.1458" filterUnits="userSpaceOnUse" color-interpolation-filters="sRGB">
<feFlood flood-opacity="0" result="BackgroundImageFix"/>
<feColorMatrix in="SourceAlpha" type="matrix" values="0 0 0 0 0 0 0 0 0 0 0 0 0 0 0 0 0 0 127 0" result="hardAlpha"/>
<feMorphology radius="4" operator="dilate" in="SourceAlpha" result="effect1_dropShadow_3583_1156"/>
<feOffset/>
<feGaussianBlur stdDeviation="5.05"/>
<feComposite in2="hardAlpha" operator="out"/>
<feColorMatrix type="matrix" values="0 0 0 0 1 0 0 0 0 1 0 0 0 0 1 0 0 0 1 0"/>
<feBlend mode="normal" in2="BackgroundImageFix" result="effect1_dropShadow_3583_1156"/>
<feBlend mode="normal" in="SourceGraphic" in2="effect1_dropShadow_3583_1156" result="shape"/>
</filter>
<filter id="filter1_d_3583_1156" x="206.417" y="101.988" width="45.4957" height="45.4952" filterUnits="userSpaceOnUse" color-interpolation-filters="sRGB">
<feFlood flood-opacity="0" result="BackgroundImageFix"/>
<feColorMatrix in="SourceAlpha" type="matrix" values="0 0 0 0 0 0 0 0 0 0 0 0 0 0 0 0 0 0 127 0" result="hardAlpha"/>
<feOffset/>
<feGaussianBlur stdDeviation="6.1"/>
<feComposite in2="hardAlpha" operator="out"/>
<feColorMatrix type="matrix" values="0 0 0 0 1 0 0 0 0 1 0 0 0 0 1 0 0 0 1 0"/>
<feBlend mode="normal" in2="BackgroundImageFix" result="effect1_dropShadow_3583_1156"/>
<feBlend mode="normal" in="SourceGraphic" in2="effect1_dropShadow_3583_1156" result="shape"/>
</filter>
<filter id="filter2_fn_3583_1156" x="0.000396729" y="-424.4" width="912.8" height="912.8" filterUnits="userSpaceOnUse" color-interpolation-filters="sRGB">
<feFlood flood-opacity="0" result="BackgroundImageFix"/>
<feBlend mode="normal" in="SourceGraphic" in2="BackgroundImageFix" result="shape"/>
<feGaussianBlur stdDeviation="108.7" result="effect1_foregroundBlur_3583_1156"/>
<feTurbulence type="fractalNoise" baseFrequency="0.71428573131561279 0.71428573131561279" stitchTiles="stitch" numOctaves="3" result="noise" seed="5370" />
<feColorMatrix in="noise" type="luminanceToAlpha" result="alphaNoise" />
<feComponentTransfer in="alphaNoise" result="coloredNoise1">
<feFuncA type="discrete" tableValues="0 0 0 0 0 0 0 1 1 1 1 1 1 1 1 1 1 1 1 1 1 1 1 1 1 1 1 1 1 1 1 1 1 1 1 1 1 1 1 1 1 1 1 0 0 0 0 0 0 0 0 0 0 0 0 0 0 0 0 0 0 0 0 0 0 0 0 0 0 0 0 0 0 0 0 0 0 0 0 0 0 0 0 0 0 0 0 0 0 0 0 0 0 0 0 0 0 0 0 0 "/>
</feComponentTransfer>
<feComposite operator="in" in2="effect1_foregroundBlur_3583_1156" in="coloredNoise1" result="noise1Clipped" />
<feFlood flood-color="#4051B2" result="color1Flood" />
<feComposite operator="in" in2="noise1Clipped" in="color1Flood" result="color1" />
<feMerge result="effect2_noise_3583_1156">
<feMergeNode in="effect1_foregroundBlur_3583_1156" />
<feMergeNode in="color1" />
</feMerge>
</filter>
<linearGradient id="paint0_linear_3583_1156" x1="283.982" y1="110.074" x2="281.401" y2="129.417" gradientUnits="userSpaceOnUse">
<stop stop-color="white"/>
<stop offset="1" stop-color="white" stop-opacity="0"/>
</linearGradient>
<linearGradient id="paint1_linear_3583_1156" x1="341.899" y1="98.7743" x2="226.549" y2="83.3864" gradientUnits="userSpaceOnUse">
<stop stop-color="#3755FF"/>
<stop offset="1" stop-color="#B5B6FF"/>
</linearGradient>
</defs>
</svg>
