<svg width="645" height="90" viewBox="0 0 645 90" fill="none" xmlns="http://www.w3.org/2000/svg">
<path d="M1 41L-2.99997 41.0148L-2.99997 49.0148L1 49L1 45L1 41ZM1 45L1 49L272 48L272 44L272 40L1 41L1 45Z" fill="white"/>
<rect x="188" width="457" height="90" rx="45" fill="white"/>
<rect x="188" width="457" height="90" rx="45" fill="url(#paint0_linear_3491_1271)"/>
<g clip-path="url(#clip0_3491_1271)">
<path d="M233.001 77.5924C251.001 77.5924 265.593 63.0002 265.593 44.9998C265.593 26.9994 251.001 12.4072 233.001 12.4072C215 12.4072 200.408 26.9994 200.408 44.9998C200.408 63.0002 215 77.5924 233.001 77.5924Z" fill="#3755FF"/>
<path d="M233 58.0371L246.037 45.0001L233 31.963" stroke="white" stroke-width="6.51852" stroke-linecap="round" stroke-linejoin="round"/>
<path d="M219.963 45H246.037" stroke="white" stroke-width="6.51852" stroke-linecap="round" stroke-linejoin="round"/>
</g>
<path d="M295.388 62.088C292.392 62.088 289.76 61.43 287.492 60.114C285.224 58.798 283.46 56.936 282.2 54.528C280.968 52.092 280.352 49.278 280.352 46.086C280.352 42.894 280.996 40.094 282.284 37.686C283.572 35.25 285.364 33.374 287.66 32.058C289.956 30.742 292.56 30.084 295.472 30.084C298.692 30.084 301.436 30.812 303.704 32.268C305.972 33.696 307.624 35.726 308.66 38.358C308.688 38.414 308.702 38.498 308.702 38.61C308.702 38.862 308.576 39.016 308.324 39.072L303.83 40.332L303.662 40.374C303.41 40.374 303.242 40.248 303.158 39.996C302.43 38.596 301.408 37.518 300.092 36.762C298.804 36.006 297.292 35.628 295.556 35.628C292.644 35.628 290.362 36.58 288.71 38.484C287.058 40.36 286.232 42.894 286.232 46.086C286.232 49.278 287.058 51.826 288.71 53.73C290.39 55.606 292.672 56.544 295.556 56.544C297.572 56.544 299.28 56.068 300.68 55.116C302.108 54.164 303.158 52.736 303.83 50.832C303.942 50.496 304.166 50.37 304.502 50.454L308.954 51.714C309.29 51.798 309.416 51.98 309.332 52.26C308.492 55.256 306.868 57.65 304.46 59.442C302.052 61.206 299.028 62.088 295.388 62.088ZM314.115 61.5C313.751 61.5 313.569 61.318 313.569 60.954V31.218C313.569 30.854 313.751 30.672 314.115 30.672H318.945C319.253 30.672 319.463 30.798 319.575 31.05L330.243 48.774L340.785 31.05C340.925 30.798 341.135 30.672 341.415 30.672H346.119C346.483 30.672 346.665 30.854 346.665 31.218V60.954C346.665 61.318 346.483 61.5 346.119 61.5H341.751C341.387 61.5 341.205 61.318 341.205 60.954V40.122L332.175 55.242C332.063 55.494 331.853 55.62 331.545 55.62H328.689C328.409 55.62 328.199 55.494 328.059 55.242L319.029 40.332V60.954C319.029 61.318 318.847 61.5 318.483 61.5H314.115ZM366.163 62.088C363.167 62.088 360.535 61.43 358.267 60.114C355.999 58.798 354.235 56.936 352.975 54.528C351.743 52.092 351.127 49.278 351.127 46.086C351.127 42.894 351.771 40.094 353.059 37.686C354.347 35.25 356.139 33.374 358.435 32.058C360.731 30.742 363.335 30.084 366.247 30.084C369.467 30.084 372.211 30.812 374.479 32.268C376.747 33.696 378.399 35.726 379.435 38.358C379.463 38.414 379.477 38.498 379.477 38.61C379.477 38.862 379.351 39.016 379.099 39.072L374.605 40.332L374.437 40.374C374.185 40.374 374.017 40.248 373.933 39.996C373.205 38.596 372.183 37.518 370.867 36.762C369.579 36.006 368.067 35.628 366.331 35.628C363.419 35.628 361.137 36.58 359.485 38.484C357.833 40.36 357.007 42.894 357.007 46.086C357.007 49.278 357.833 51.826 359.485 53.73C361.165 55.606 363.447 56.544 366.331 56.544C368.347 56.544 370.055 56.068 371.455 55.116C372.883 54.164 373.933 52.736 374.605 50.832C374.717 50.496 374.941 50.37 375.277 50.454L379.729 51.714C380.065 51.798 380.191 51.98 380.107 52.26C379.267 55.256 377.643 57.65 375.235 59.442C372.827 61.206 369.803 62.088 366.163 62.088ZM397.982 61.5C397.618 61.5 397.436 61.318 397.436 60.954V38.232L391.808 40.458C391.752 40.486 391.668 40.5 391.556 40.5C391.36 40.5 391.206 40.388 391.094 40.164L390.296 38.652C390.24 38.484 390.212 38.386 390.212 38.358C390.212 38.162 390.296 38.008 390.464 37.896L398.612 30.924C398.78 30.756 399.004 30.672 399.284 30.672H402.56C402.924 30.672 403.106 30.854 403.106 31.218V60.954C403.106 61.318 402.924 61.5 402.56 61.5H397.982ZM412.795 61.5C412.487 61.5 412.333 61.388 412.333 61.164C412.333 61.052 412.375 60.94 412.459 60.828L420.229 50.16C419.193 50.58 418.073 50.79 416.869 50.79C414.993 50.79 413.327 50.37 411.871 49.53C410.415 48.662 409.267 47.458 408.427 45.918C407.615 44.35 407.209 42.572 407.209 40.584C407.209 38.512 407.671 36.692 408.595 35.124C409.547 33.528 410.863 32.296 412.543 31.428C414.251 30.532 416.211 30.084 418.423 30.084C420.607 30.084 422.553 30.546 424.261 31.47C425.969 32.394 427.285 33.682 428.209 35.334C429.161 36.958 429.637 38.806 429.637 40.878C429.637 42.782 429.231 44.7 428.419 46.632C427.607 48.536 426.151 50.93 424.051 53.814L418.717 61.164C418.549 61.388 418.325 61.5 418.045 61.5H412.795ZM418.465 45.876C420.033 45.876 421.307 45.414 422.287 44.49C423.267 43.538 423.757 42.292 423.757 40.752C423.757 39.212 423.267 37.98 422.287 37.056C421.307 36.104 420.033 35.628 418.465 35.628C416.897 35.628 415.623 36.104 414.643 37.056C413.663 37.98 413.173 39.212 413.173 40.752C413.173 42.292 413.663 43.538 414.643 44.49C415.623 45.414 416.897 45.876 418.465 45.876ZM458.256 65.028C457.892 65.028 457.71 64.86 457.71 64.524V28.656C457.71 28.292 457.892 28.11 458.256 28.11H462.54C462.932 28.11 463.128 28.292 463.128 28.656V64.524C463.128 64.86 462.932 65.028 462.54 65.028H458.256ZM435.702 57.09C435.618 57.146 435.492 57.174 435.324 57.174C435.156 57.174 435.016 57.09 434.904 56.922L432.93 53.436C432.846 53.296 432.804 53.184 432.804 53.1C432.804 52.96 432.916 52.82 433.14 52.68C437.704 50.468 440.98 48.2 442.968 45.876C444.956 43.552 445.95 40.808 445.95 37.644V36.804H434.19C433.854 36.804 433.686 36.636 433.686 36.3V32.604C433.686 32.24 433.854 32.058 434.19 32.058H450.822C451.186 32.058 451.368 32.24 451.368 32.604V37.644C451.368 41.676 450.094 45.274 447.546 48.438C444.998 51.574 441.05 54.458 435.702 57.09ZM506.284 28.11C506.676 28.11 506.872 28.292 506.872 28.656V64.524C506.872 64.86 506.676 65.028 506.284 65.028H502.042C501.678 65.028 501.496 64.86 501.496 64.524V28.656C501.496 28.292 501.678 28.11 502.042 28.11H506.284ZM498.094 52.638C498.262 52.75 498.346 52.89 498.346 53.058C498.346 53.198 498.276 53.338 498.136 53.478L495.616 56.418C495.504 56.53 495.364 56.586 495.196 56.586C495.028 56.586 494.874 56.53 494.734 56.418C492.942 54.962 491.374 53.478 490.03 51.966C488.686 50.426 487.664 48.956 486.964 47.556C486.18 49.152 485.074 50.79 483.646 52.47C482.218 54.122 480.608 55.634 478.816 57.006C478.676 57.118 478.508 57.174 478.312 57.174C478.172 57.174 478.046 57.118 477.934 57.006L475.372 54.066C475.26 53.982 475.204 53.842 475.204 53.646C475.204 53.478 475.274 53.338 475.414 53.226C478.158 51.042 480.3 48.648 481.84 46.044C483.38 43.44 484.15 40.542 484.15 37.35V36.72H476.968C476.604 36.72 476.422 36.538 476.422 36.174V32.478C476.422 32.114 476.604 31.932 476.968 31.932H496.204C496.596 31.932 496.792 32.114 496.792 32.478V36.174C496.792 36.538 496.596 36.72 496.204 36.72H489.484V37.35C489.484 42.922 492.354 48.018 498.094 52.638ZM537.315 49.824V28.656C537.315 28.292 537.497 28.11 537.861 28.11H542.103C542.495 28.11 542.691 28.292 542.691 28.656V56.334C542.691 56.698 542.495 56.88 542.103 56.88H537.861C537.497 56.88 537.315 56.698 537.315 56.334V54.024H529.377C529.181 54.024 529.041 53.982 528.957 53.898C528.873 53.814 528.831 53.674 528.831 53.478V50.37C528.831 50.174 528.873 50.034 528.957 49.95C529.041 49.866 529.181 49.824 529.377 49.824H537.315ZM523.035 42.432C519.843 42.432 517.393 41.83 515.685 40.626C513.977 39.422 513.123 37.812 513.123 35.796C513.123 33.752 513.977 32.128 515.685 30.924C517.393 29.72 519.843 29.118 523.035 29.118C526.255 29.118 528.705 29.72 530.385 30.924C532.093 32.128 532.947 33.752 532.947 35.796C532.947 37.812 532.093 39.422 530.385 40.626C528.705 41.83 526.255 42.432 523.035 42.432ZM523.035 33.234C521.523 33.234 520.361 33.472 519.549 33.948C518.765 34.396 518.373 35.012 518.373 35.796C518.373 36.552 518.765 37.168 519.549 37.644C520.361 38.092 521.523 38.316 523.035 38.316C524.547 38.316 525.709 38.092 526.521 37.644C527.333 37.168 527.739 36.552 527.739 35.796C527.739 35.012 527.333 34.396 526.521 33.948C525.709 33.472 524.547 33.234 523.035 33.234ZM519.927 48.396H519.003H511.275C510.911 48.396 510.729 48.228 510.729 47.892V44.448C510.729 44.084 510.911 43.902 511.275 43.902H517.953C524.757 43.902 530.301 43.524 534.585 42.768H534.753C535.005 42.768 535.159 42.922 535.215 43.23L535.677 46.506V46.59C535.677 46.814 535.495 46.968 535.131 47.052C532.107 47.64 528.803 48.046 525.219 48.27V52.806C525.219 53.142 525.051 53.31 524.715 53.31H520.515C520.123 53.31 519.927 53.142 519.927 52.806V48.396ZM543.111 60.114C543.503 60.114 543.699 60.31 543.699 60.702V64.356C543.699 64.72 543.503 64.902 543.111 64.902H517.785C517.421 64.902 517.239 64.72 517.239 64.356V55.41C517.239 55.074 517.421 54.906 517.785 54.906H521.859C522.055 54.906 522.223 54.948 522.363 55.032C522.531 55.116 522.615 55.242 522.615 55.41V60.114H543.111ZM582.037 42.348C582.429 42.348 582.625 42.53 582.625 42.894V46.59C582.625 46.926 582.429 47.094 582.037 47.094H576.703V64.524C576.703 64.86 576.507 65.028 576.115 65.028H571.831C571.495 65.028 571.327 64.86 571.327 64.524V28.656C571.327 28.292 571.495 28.11 571.831 28.11H576.115C576.507 28.11 576.703 28.292 576.703 28.656V42.348H582.037ZM568.135 34.074C568.499 34.074 568.681 34.256 568.681 34.62V38.19C568.681 38.554 568.499 38.736 568.135 38.736H547.009C546.673 38.736 546.505 38.554 546.505 38.19V34.62C546.505 34.256 546.673 34.074 547.009 34.074H554.905V29.748C554.905 29.412 555.101 29.244 555.493 29.244H559.735C560.099 29.244 560.281 29.412 560.281 29.748V34.074H568.135ZM557.635 40.878C560.603 40.878 562.955 41.69 564.691 43.314C566.455 44.938 567.337 47.136 567.337 49.908C567.337 52.68 566.455 54.864 564.691 56.46C562.955 58.056 560.603 58.854 557.635 58.854C554.695 58.854 552.357 58.056 550.621 56.46C548.885 54.864 548.017 52.68 548.017 49.908C548.017 47.136 548.885 44.938 550.621 43.314C552.357 41.69 554.695 40.878 557.635 40.878ZM557.677 54.444C559.021 54.444 560.085 54.024 560.869 53.184C561.681 52.344 562.087 51.252 562.087 49.908C562.087 48.536 561.695 47.43 560.911 46.59C560.127 45.722 559.049 45.288 557.677 45.288C556.305 45.288 555.227 45.722 554.443 46.59C553.659 47.43 553.267 48.536 553.267 49.908C553.267 51.252 553.659 52.344 554.443 53.184C555.255 54.024 556.333 54.444 557.677 54.444ZM609.497 65.028C609.133 65.028 608.951 64.86 608.951 64.524V28.656C608.951 28.292 609.133 28.11 609.497 28.11H613.781C614.173 28.11 614.369 28.292 614.369 28.656V64.524C614.369 64.86 614.173 65.028 613.781 65.028H609.497ZM586.943 57.09C586.859 57.146 586.733 57.174 586.565 57.174C586.397 57.174 586.257 57.09 586.145 56.922L584.171 53.436C584.087 53.296 584.045 53.184 584.045 53.1C584.045 52.96 584.157 52.82 584.381 52.68C588.945 50.468 592.221 48.2 594.209 45.876C596.197 43.552 597.191 40.808 597.191 37.644V36.804H585.431C585.095 36.804 584.927 36.636 584.927 36.3V32.604C584.927 32.24 585.095 32.058 585.431 32.058H602.063C602.427 32.058 602.609 32.24 602.609 32.604V37.644C602.609 41.676 601.335 45.274 598.787 48.438C596.239 51.574 592.291 54.458 586.943 57.09Z" fill="#0D0F14"/>
<defs>
<linearGradient id="paint0_linear_3491_1271" x1="645" y1="45" x2="188" y2="44.9999" gradientUnits="userSpaceOnUse">
<stop stop-color="#3755FF"/>
<stop offset="1" stop-color="#B5B6FF"/>
</linearGradient>
<clipPath id="clip0_3491_1271">
<rect width="66" height="66" fill="white" transform="translate(200 12)"/>
</clipPath>
</defs>
</svg>
