<svg width="347" height="313" viewBox="0 0 347 313" fill="none" xmlns="http://www.w3.org/2000/svg">
<rect width="277" height="326" fill="url(#paint0_linear_3503_1311)"/>
<path d="M276.171 149.155C287.524 144.177 296.338 143.07 299.3 147.07C304.474 154.058 289.833 173.984 266.597 191.576C243.361 209.169 220.329 217.767 215.155 210.78C212.145 206.715 215.838 198.277 224.026 188.465L224.87 190.854C222.07 195.527 221.197 199.342 222.817 201.531C226.849 206.973 244.79 200.275 262.891 186.57C280.992 172.866 292.395 157.345 288.366 151.901C286.812 149.803 281.68 149.961 276.778 151.179L276.171 149.155Z" fill="white"/>
<g filter="url(#filter0_ii_3503_1311)">
<path fill-rule="evenodd" clip-rule="evenodd" d="M217.984 92.7966C271.043 76.8932 318.014 77.2088 322.898 93.5019C324.57 99.0828 321.088 105.815 313.653 112.893C288.005 137.311 261.17 162.761 252.958 196.362C252.76 197.174 253.23 197.984 253.936 198.431C255.218 199.242 256.224 200.501 256.693 202.068C257.263 203.967 256.925 205.923 255.93 207.469C255.422 208.261 255.372 209.344 256.047 209.999C281.485 234.659 318.737 241.096 354.186 248.125C363.693 250.011 369.904 253.65 371.518 259.034C376.401 275.327 337.347 301.428 284.289 317.331C231.231 333.235 184.26 332.919 179.376 316.626C177.704 311.045 181.186 304.313 188.621 297.235C214.637 272.467 241.871 246.636 249.656 212.315C249.878 211.336 249.144 210.411 248.202 210.066C246.339 209.382 244.809 207.861 244.196 205.814C243.68 204.094 243.908 202.328 244.694 200.861C245.117 200.071 245.101 199.05 244.441 198.445C219.064 175.17 182.715 168.869 148.087 162.002C138.58 160.116 132.37 156.478 130.756 151.094C125.872 134.801 164.926 108.7 217.984 92.7966Z" fill="#D9D9D9"/>
<path fill-rule="evenodd" clip-rule="evenodd" d="M217.984 92.7966C271.043 76.8932 318.014 77.2088 322.898 93.5019C324.57 99.0828 321.088 105.815 313.653 112.893C288.005 137.311 261.17 162.761 252.958 196.362C252.76 197.174 253.23 197.984 253.936 198.431C255.218 199.242 256.224 200.501 256.693 202.068C257.263 203.967 256.925 205.923 255.93 207.469C255.422 208.261 255.372 209.344 256.047 209.999C281.485 234.659 318.737 241.096 354.186 248.125C363.693 250.011 369.904 253.65 371.518 259.034C376.401 275.327 337.347 301.428 284.289 317.331C231.231 333.235 184.26 332.919 179.376 316.626C177.704 311.045 181.186 304.313 188.621 297.235C214.637 272.467 241.871 246.636 249.656 212.315C249.878 211.336 249.144 210.411 248.202 210.066C246.339 209.382 244.809 207.861 244.196 205.814C243.68 204.094 243.908 202.328 244.694 200.861C245.117 200.071 245.101 199.05 244.441 198.445C219.064 175.17 182.715 168.869 148.087 162.002C138.58 160.116 132.37 156.478 130.756 151.094C125.872 134.801 164.926 108.7 217.984 92.7966Z" fill="url(#paint1_linear_3503_1311)"/>
</g>
<circle cx="242.488" cy="177.385" r="4.89237" transform="rotate(-16.6853 242.488 177.385)" fill="url(#paint2_linear_3503_1311)"/>
<circle cx="258.407" cy="230.496" r="4.89237" transform="rotate(163.315 258.407 230.496)" fill="url(#paint3_linear_3503_1311)"/>
<circle cx="236.403" cy="157.077" r="6.52316" transform="rotate(-16.6853 236.403 157.077)" fill="url(#paint4_linear_3503_1311)"/>
<circle cx="264.494" cy="250.804" r="6.52316" transform="rotate(163.315 264.494 250.804)" fill="url(#paint5_linear_3503_1311)"/>
<path d="M215.128 210.693C220.362 217.812 243.542 209.14 266.9 191.325L263.175 186.348C244.98 200.227 226.898 206.858 222.82 201.313C221.181 199.083 223.823 194.541 226.629 189.799L223.999 188.034C215.778 197.984 212.084 206.552 215.128 210.693Z" fill="white"/>
<defs>
<filter id="filter0_ii_3503_1311" x="127.046" y="72.8286" width="244.883" height="256.227" filterUnits="userSpaceOnUse" color-interpolation-filters="sRGB">
<feFlood flood-opacity="0" result="BackgroundImageFix"/>
<feBlend mode="normal" in="SourceGraphic" in2="BackgroundImageFix" result="shape"/>
<feColorMatrix in="SourceAlpha" type="matrix" values="0 0 0 0 0 0 0 0 0 0 0 0 0 0 0 0 0 0 127 0" result="hardAlpha"/>
<feOffset dy="-8.24362"/>
<feGaussianBlur stdDeviation="16.4872"/>
<feComposite in2="hardAlpha" operator="arithmetic" k2="-1" k3="1"/>
<feColorMatrix type="matrix" values="0 0 0 0 1 0 0 0 0 1 0 0 0 0 1 0 0 0 0.7 0"/>
<feBlend mode="normal" in2="shape" result="effect1_innerShadow_3503_1311"/>
<feColorMatrix in="SourceAlpha" type="matrix" values="0 0 0 0 0 0 0 0 0 0 0 0 0 0 0 0 0 0 127 0" result="hardAlpha"/>
<feOffset dx="-3.29745"/>
<feGaussianBlur stdDeviation="3.29745"/>
<feComposite in2="hardAlpha" operator="arithmetic" k2="-1" k3="1"/>
<feColorMatrix type="matrix" values="0 0 0 0 0.027451 0 0 0 0 0.25098 0 0 0 0 0.964706 0 0 0 0.25 0"/>
<feBlend mode="normal" in2="effect1_innerShadow_3503_1311" result="effect2_innerShadow_3503_1311"/>
</filter>
<linearGradient id="paint0_linear_3503_1311" x1="315.733" y1="135" x2="56.4745" y2="281.038" gradientUnits="userSpaceOnUse">
<stop stop-color="#0D0F14" stop-opacity="0"/>
<stop offset="1" stop-color="#0D0F14"/>
</linearGradient>
<linearGradient id="paint1_linear_3503_1311" x1="163.505" y1="88.6761" x2="327.353" y2="310.627" gradientUnits="userSpaceOnUse">
<stop stop-color="#C1CAFF"/>
<stop offset="1" stop-color="#6B81FF"/>
</linearGradient>
<linearGradient id="paint2_linear_3503_1311" x1="242.488" y1="182.278" x2="242.488" y2="172.493" gradientUnits="userSpaceOnUse">
<stop stop-color="white"/>
<stop offset="1" stop-color="white" stop-opacity="0"/>
</linearGradient>
<linearGradient id="paint3_linear_3503_1311" x1="258.407" y1="235.388" x2="258.407" y2="225.603" gradientUnits="userSpaceOnUse">
<stop stop-color="white"/>
<stop offset="1" stop-color="white" stop-opacity="0"/>
</linearGradient>
<linearGradient id="paint4_linear_3503_1311" x1="236.403" y1="163.6" x2="236.403" y2="150.554" gradientUnits="userSpaceOnUse">
<stop stop-color="white"/>
<stop offset="1" stop-color="white" stop-opacity="0"/>
</linearGradient>
<linearGradient id="paint5_linear_3503_1311" x1="264.494" y1="257.327" x2="264.494" y2="244.281" gradientUnits="userSpaceOnUse">
<stop stop-color="white"/>
<stop offset="1" stop-color="white" stop-opacity="0"/>
</linearGradient>
</defs>
</svg>
