<svg width="28" height="27" viewBox="0 0 28 27" fill="none" xmlns="http://www.w3.org/2000/svg">
<rect width="15.3553" height="15.3553" transform="matrix(0.866025 0.5 -0.866025 0.5 14.1094 10.9009)" fill="white"/>
<circle cx="14.1095" cy="17.8722" r="3.15636" fill="#C4C6D3"/>
<g opacity="0.7">
<rect width="15.3553" height="15.3553" transform="matrix(0.866025 0.5 -0.866025 0.5 14.1094 7.00732)" fill="#D9D9D9"/>
<rect width="15.3553" height="15.3553" transform="matrix(0.866025 0.5 -0.866025 0.5 14.1094 7.00732)" fill="white"/>
</g>
<g opacity="0.5">
<rect width="15.3553" height="15.3553" transform="matrix(0.866025 0.5 -0.866025 0.5 14.1094 3.11377)" fill="#D9D9D9"/>
<rect width="15.3553" height="15.3553" transform="matrix(0.866025 0.5 -0.866025 0.5 14.1094 3.11377)" fill="white"/>
</g>
<path d="M14.2903 0.0748957C14.1904 -0.0250478 14.0284 -0.0250478 13.9284 0.0748957L12.2997 1.70357C12.1998 1.80351 12.1998 1.96555 12.2997 2.0655C12.3997 2.16544 12.5617 2.16544 12.6617 2.0655L14.1094 0.617787L15.5571 2.0655C15.657 2.16544 15.8191 2.16544 15.919 2.0655C16.019 1.96555 16.019 1.80351 15.919 1.70357L14.2903 0.0748957ZM14.1094 14.5875L14.3653 14.5875L14.3653 0.255859L14.1094 0.255859L13.8535 0.255859L13.8535 14.5875L14.1094 14.5875Z" fill="url(#paint0_linear_3227_926)"/>
<path d="M10.146 9.00073C9.04676 9.75261 8.47189 10.5165 8.72034 11.0588C9.15418 12.0061 11.9358 11.9187 14.9333 10.8634C17.9307 9.80805 20.0091 8.18456 19.5753 7.23727C19.3229 6.68627 18.4384 6.48101 17.0172 6.61697L17.0526 6.85744C17.6715 6.89708 18.1027 7.06337 18.2386 7.36008C18.5765 8.09809 16.9575 9.36269 14.6224 10.1847C12.2873 11.0068 10.1207 11.0748 9.78261 10.3371C9.65238 10.0525 9.81305 9.68957 10.1936 9.30399L10.146 9.00073Z" fill="#F2F3F6"/>
<path d="M18.1528 9.00073C19.2521 9.75261 19.8269 10.5165 19.5785 11.0588C19.1447 12.0061 16.363 11.9187 13.3656 10.8634C10.3681 9.80805 8.28969 8.18456 8.72353 7.23727C8.97594 6.68627 9.86048 6.48101 11.2816 6.61697L11.2463 6.85744C10.6273 6.89708 10.1962 7.06337 10.0602 7.36008C9.72231 8.09809 11.3413 9.36269 13.6764 10.1847C16.0115 11.0068 18.1781 11.0748 18.5162 10.337C18.6465 10.0525 18.4858 9.68957 18.1052 9.30399L18.1528 9.00073Z" fill="#F2F3F6"/>
<defs>
<linearGradient id="paint0_linear_3227_926" x1="14.6094" y1="11.0435" x2="14.6094" y2="14.5875" gradientUnits="userSpaceOnUse">
<stop stop-color="white"/>
<stop offset="1" stop-color="white" stop-opacity="0"/>
</linearGradient>
</defs>
</svg>
