<svg width="34" height="26" viewBox="0 0 34 26" fill="none" xmlns="http://www.w3.org/2000/svg">
<path d="M21.6367 7.85086C23.0031 7.68325 23.976 7.84652 24.1635 8.36654C24.4912 9.27482 22.2983 10.9277 19.2656 12.0583C16.2328 13.1888 13.5085 13.3691 13.1809 12.4608C12.9903 11.9325 13.6522 11.1525 14.8361 10.3699L14.8497 10.651C14.4029 11.0588 14.1883 11.4367 14.2909 11.7213C14.5462 12.4288 16.6684 12.2883 19.0309 11.4076C21.3934 10.5268 23.1014 9.23934 22.8464 8.5318C22.7479 8.25903 22.197 8.11223 21.6367 8.08544V7.85086Z" fill="#F2F3F6"/>
<path fill-rule="evenodd" clip-rule="evenodd" d="M17.2422 0C23.3932 0 28.3803 1.53112 28.3809 3.41992C28.3809 4.06692 27.7958 4.6726 26.7793 5.18848C23.2721 6.96832 19.6055 8.82001 17.6606 12.133C17.6136 12.2131 17.6379 12.3143 17.6991 12.3842C17.8101 12.5111 17.8779 12.6766 17.8779 12.8584C17.8779 13.078 17.7793 13.2735 17.6245 13.4058C17.5453 13.4735 17.5058 13.5868 17.5566 13.6778C19.4757 17.1139 23.2325 18.9876 26.7803 20.8662C27.7315 21.3699 28.2764 21.9558 28.2764 22.5801C28.2758 24.4688 23.2895 25.9999 17.1387 26C10.9876 26 6.00057 24.4689 6 22.5801C6 21.9331 6.58509 21.3274 7.60156 20.8115C11.1596 19.0059 14.8796 17.1252 16.8016 13.7209C16.8563 13.624 16.808 13.5025 16.719 13.4359C16.5429 13.3044 16.4287 13.0953 16.4287 12.8584C16.4288 12.6599 16.5091 12.4808 16.6387 12.3503C16.7086 12.2799 16.7391 12.1713 16.6884 12.086C14.7315 8.79929 11.0662 6.96889 7.60059 5.13379C6.64934 4.63009 6.10449 4.04416 6.10449 3.41992C6.10506 1.53116 11.0913 6.14047e-05 17.2422 0Z" fill="white"/>
<path fill-rule="evenodd" clip-rule="evenodd" d="M17.2422 0C23.3932 0 28.3803 1.53112 28.3809 3.41992C28.3809 4.06692 27.7958 4.6726 26.7793 5.18848C23.2721 6.96832 19.6055 8.82001 17.6606 12.133C17.6136 12.2131 17.6379 12.3143 17.6991 12.3842C17.8101 12.5111 17.8779 12.6766 17.8779 12.8584C17.8779 13.078 17.7793 13.2735 17.6245 13.4058C17.5453 13.4735 17.5058 13.5868 17.5566 13.6778C19.4757 17.1139 23.2325 18.9876 26.7803 20.8662C27.7315 21.3699 28.2764 21.9558 28.2764 22.5801C28.2758 24.4688 23.2895 25.9999 17.1387 26C10.9876 26 6.00057 24.4689 6 22.5801C6 21.9331 6.58509 21.3274 7.60156 20.8115C11.1596 19.0059 14.8796 17.1252 16.8016 13.7209C16.8563 13.624 16.808 13.5025 16.719 13.4359C16.5429 13.3044 16.4287 13.0953 16.4287 12.8584C16.4288 12.6599 16.5091 12.4808 16.6387 12.3503C16.7086 12.2799 16.7391 12.1713 16.6884 12.086C14.7315 8.79929 11.0662 6.96889 7.60059 5.13379C6.64934 4.63009 6.10449 4.04416 6.10449 3.41992C6.10506 1.53116 11.0913 6.14047e-05 17.2422 0Z" fill="white"/>
<circle cx="17.1527" cy="9.78014" r="0.54332" fill="url(#paint0_linear_3227_929)"/>
<circle cx="17.152" cy="15.9376" r="0.54332" transform="rotate(-180 17.152 15.9376)" fill="url(#paint1_linear_3227_929)"/>
<circle cx="17.1541" cy="7.42511" r="0.724427" fill="url(#paint2_linear_3227_929)"/>
<circle cx="17.1506" cy="18.2917" r="0.724427" transform="rotate(-180 17.1506 18.2917)" fill="url(#paint3_linear_3227_929)"/>
<path d="M13.1811 12.4504C13.5109 13.3746 16.2532 13.1911 19.3061 12.0407L19.0686 11.3926C16.6904 12.2888 14.5555 12.4178 14.2985 11.6978C14.1952 11.4083 14.621 11.0094 15.0708 10.5944L14.8473 10.3228C13.6555 11.1191 12.9893 11.9127 13.1811 12.4504Z" fill="white"/>
<defs>
<linearGradient id="paint0_linear_3227_929" x1="17.1527" y1="10.3235" x2="17.1527" y2="9.23682" gradientUnits="userSpaceOnUse">
<stop stop-color="white"/>
<stop offset="1" stop-color="white" stop-opacity="0"/>
</linearGradient>
<linearGradient id="paint1_linear_3227_929" x1="17.152" y1="16.481" x2="17.152" y2="15.3943" gradientUnits="userSpaceOnUse">
<stop stop-color="white"/>
<stop offset="1" stop-color="white" stop-opacity="0"/>
</linearGradient>
<linearGradient id="paint2_linear_3227_929" x1="17.1541" y1="8.14954" x2="17.1541" y2="6.70068" gradientUnits="userSpaceOnUse">
<stop stop-color="white"/>
<stop offset="1" stop-color="white" stop-opacity="0"/>
</linearGradient>
<linearGradient id="paint3_linear_3227_929" x1="17.1506" y1="19.0161" x2="17.1506" y2="17.5673" gradientUnits="userSpaceOnUse">
<stop stop-color="white"/>
<stop offset="1" stop-color="white" stop-opacity="0"/>
</linearGradient>
</defs>
</svg>
