<svg width="30" height="26" viewBox="0 0 30 26" fill="none" xmlns="http://www.w3.org/2000/svg">
<path fill-rule="evenodd" clip-rule="evenodd" d="M19.5065 1.66222C21.6108 -0.550525 25.0814 -0.55468 27.1813 1.65343C29.3145 3.89658 29.31 7.54614 27.2058 9.7589C25.1707 11.8985 21.1786 12.4815 18.0173 12.8254C17.9617 12.8314 17.9235 12.8798 17.9235 12.9357C17.9235 13.0602 18.0078 13.1732 18.1316 13.1868C21.2742 13.5324 25.1952 14.1274 27.2058 16.2413C29.31 18.4541 29.3145 22.1036 27.1813 24.3468C25.0814 26.5549 21.6108 26.5507 19.5065 24.338C17.5399 22.2699 16.8345 17.9036 16.5227 14.596C16.518 14.546 16.4747 14.5128 16.4245 14.5128C16.3389 14.5128 16.2629 14.572 16.2547 14.6572C15.94 17.9573 15.2325 22.2827 13.278 24.338C11.1738 26.5507 7.70312 26.5549 5.60322 24.3468C3.47003 22.1036 3.47453 18.4541 5.5788 16.2413C7.60404 14.112 11.5675 13.5236 14.7215 13.179C14.8416 13.1659 14.9245 13.0565 14.9245 12.9357C14.9245 12.8836 14.8884 12.8386 14.8366 12.833C11.6646 12.4901 7.62874 11.9142 5.5788 9.7589C3.47453 7.54614 3.47003 3.89658 5.60322 1.65343C7.70312 -0.55468 11.1738 -0.550525 13.278 1.66222C15.2047 3.68826 15.919 7.92026 16.2404 11.2014C16.2495 11.2934 16.3321 11.3585 16.4245 11.3585C16.4816 11.3585 16.5313 11.3187 16.5368 11.2618C16.8554 7.97236 17.568 3.70074 19.5065 1.66222Z" fill="white"/>
<path d="M13.9885 1.98226C16.0776 1.40872 17.6239 1.45466 18.0236 2.24893C18.7219 3.63615 15.6574 6.78138 11.1786 9.27376C6.69986 11.7661 2.50267 12.6622 1.80435 11.275C1.39822 10.468 2.26467 9.0669 3.94206 7.54523L4.0216 7.99411C3.41205 8.74911 3.15719 9.40443 3.37584 9.83902C3.92002 10.9196 7.18942 10.2216 10.6784 8.27991C14.1674 6.33824 16.5542 3.8884 16.0106 2.8077C15.8008 2.39111 15.1857 2.23882 14.3091 2.32045L13.9885 1.98226Z" fill="#F2F3F6"/>
</svg>
