<svg width="36" height="26" viewBox="0 0 36 26" fill="none" xmlns="http://www.w3.org/2000/svg">
<path d="M33.209 11.1738L29.5557 14.8262L29.5566 14.8271L18.3838 26L18.3828 25.999L18.3818 26L7.20898 14.8271V14.8262L3.55664 11.1738L14.7295 0L18.3828 3.65332L22.0361 0L33.209 11.1738Z" fill="white"/>
<circle cx="18.2162" cy="12.9721" r="3.77483" fill="#D7D8E2"/>
<path d="M26.2997 3.97487C30.3021 2.92992 33.2646 3.01363 34.0304 4.46072C35.3682 6.98816 29.4971 12.7186 20.9165 17.2595C12.3358 21.8004 4.29456 23.4331 2.95667 20.9056C2.17859 19.4354 3.39908 17.1249 6.61273 14.3525L7.25721 14.997C6.08939 16.3726 5.54853 17.4976 5.96743 18.2894C7.00999 20.2582 13.2737 18.9864 19.9581 15.4488C26.6424 11.9112 31.2154 7.44774 30.1739 5.47878C29.7719 4.71977 28.5934 4.4423 26.914 4.59104L26.2997 3.97487Z" fill="#F2F3F6"/>
<path d="M10.5053 3.97545C6.5029 2.9305 3.54041 3.01421 2.77467 4.4613C1.43678 6.98874 7.30788 12.7191 15.8886 17.2601C24.4693 21.801 32.5105 23.4337 33.8484 20.9062C34.6264 19.436 33.306 17.2175 30.0924 14.4451L29.6004 14.9286C30.7682 16.3042 31.2565 17.4982 30.8376 18.29C29.795 20.2588 23.5313 18.987 16.8469 15.4494C10.1626 11.9118 5.58966 7.44832 6.63116 5.47936C7.03317 4.72035 8.21164 4.44288 9.89107 4.59162L10.5053 3.97545Z" fill="#F2F3F6"/>
</svg>
