<svg width="48" height="48" viewBox="0 0 48 48" fill="none"
    xmlns="http://www.w3.org/2000/svg">
    <g id="kakao-talk-fill 1">
        <path id="Vector" d="M24.0018 6C35.5998 6 45.002 13.3289 45.002 22.3694C45.002 31.41 35.5998 38.7388 24.0018 38.7388C22.8254 38.7388 21.6722 38.662 20.5484 38.5172L11.7322 44.2838C10.7294 44.8146 10.3754 44.7556 10.7882 43.4578L12.5714 36.1026C6.81143 33.1838 3.00195 28.1238 3.00195 22.3694C3.00195 13.3289 12.4039 6 24.0018 6ZM35.816 22.1182L38.7566 19.2723C39.1312 18.9097 39.141 18.3123 38.7786 17.9376C38.4162 17.5634 37.8188 17.5534 37.4438 17.9158L33.5874 21.6478V18.5645C33.5874 18.0434 33.165 17.6208 32.6436 17.6208C32.1226 17.6208 31.6998 18.0434 31.6998 18.5645V23.6786C31.6642 23.8246 31.665 23.9758 31.6998 24.1222V27C31.6998 27.5212 32.1226 27.9438 32.6436 27.9438C33.165 27.9438 33.5874 27.5212 33.5874 27V24.2746L34.4426 23.4472L37.2982 27.513C37.482 27.7746 37.7746 27.9146 38.0714 27.9146C38.259 27.9146 38.4482 27.8586 38.6132 27.7428C39.0398 27.4434 39.1426 26.8546 38.843 26.428L35.816 22.1182ZM29.9006 25.9678H26.9808V18.594C26.9808 18.073 26.5582 17.6503 26.0368 17.6503C25.5158 17.6503 25.0934 18.073 25.0934 18.594V26.9114C25.0934 27.4328 25.5158 27.8552 26.0368 27.8552H29.9006C30.422 27.8552 30.8444 27.4328 30.8444 26.9114C30.8444 26.3904 30.422 25.9678 29.9006 25.9678ZM18.1864 23.785L19.5784 20.3698L20.853 23.785H18.1864ZM23.2318 24.7604C23.2322 24.7496 23.235 24.7398 23.235 24.729C23.235 24.481 23.1374 24.2574 22.9812 24.089L20.8904 18.4875C20.6936 17.9278 20.201 17.5563 19.6352 17.5406C19.079 17.5255 18.5613 17.8734 18.3291 18.4334L15.007 26.5848C14.8104 27.0674 15.0421 27.6184 15.5248 27.8152C16.0076 28.012 16.5584 27.78 16.755 27.2972L17.417 25.6728H21.5574L22.154 27.2712C22.2958 27.6508 22.6556 27.8852 23.0386 27.885C23.1482 27.885 23.2596 27.8658 23.3684 27.8252C23.8568 27.6432 24.1048 27.0994 23.9224 26.6108L23.2318 24.7604ZM16.5889 18.6039C16.5889 18.0828 16.1662 17.6601 15.6452 17.6601H9.15643C8.63509 17.6601 8.21243 18.0828 8.21243 18.6039C8.21243 19.125 8.63509 19.5476 9.15643 19.5476H11.4765V27.0198C11.4765 27.541 11.8991 27.9634 12.4202 27.9634C12.9416 27.9634 13.3642 27.541 13.3642 27.0198V19.5476H15.6452C16.1662 19.5476 16.5889 19.125 16.5889 18.6039Z" fill="#606060"/>
    </g>
</svg>
