<svg width="32" height="30" viewBox="0 0 32 30" fill="none" xmlns="http://www.w3.org/2000/svg">
<path d="M30.5996 25.7463V8.12767C30.5996 3.76009 27.1187 0.599121 22.8 0.599121C19.5556 0.599121 16.7756 2.44362 15.5996 5.06663C14.4236 2.44362 11.6436 0.599121 8.39923 0.599121C4.08044 0.599121 0.599609 3.76009 0.599609 8.12767V25.7463C0.599609 27.7267 2.32849 29.332 4.46117 29.332H26.738C28.8707 29.332 30.5996 27.7267 30.5996 25.7463Z" fill="#C1CAFF" stroke="#3755FF" stroke-width="1.19846" stroke-linejoin="round"/>
<path d="M9.02441 14.0952C9.94435 14.0952 10.7205 14.4012 11.2598 14.9214C11.3198 14.9792 11.3156 15.0712 11.2529 15.1294L10.458 15.8677C10.4239 15.8992 10.3642 15.8936 10.332 15.8569C10.0582 15.5447 9.55081 15.3667 9.01562 15.3667C8.01188 15.3668 7.31348 16.0648 7.31348 17.0151C7.31359 17.9653 8.01195 18.6635 9.01562 18.6636C9.52131 18.6636 9.98812 18.5749 10.3301 18.3013C10.3628 18.2753 10.4112 18.2756 10.4404 18.3022L11.2334 19.0386C11.2614 19.0646 11.2624 19.1058 11.2354 19.1313C10.6972 19.6374 9.93061 19.9341 9.02441 19.9341C7.20046 19.934 5.82532 18.7043 5.8252 17.0151C5.8252 15.3258 7.20038 14.0953 9.02441 14.0952Z" fill="#6B81FF" stroke="#3755FF" stroke-width="0.0413262"/>
<path d="M18.2705 14.0952C18.6857 14.0952 19.0195 14.4076 19.0195 14.7896V19.9341H17.4766V16.9478L17.4404 16.9937L15.9619 18.8325C15.8772 18.9379 15.7432 19.0005 15.6006 19.0005C15.4579 19.0005 15.324 18.9379 15.2393 18.8325L13.751 16.9761L13.7139 16.9302V16.9888L13.7236 19.9341H12.1807V14.7847C12.1807 14.4056 12.5127 14.0952 12.9248 14.0952C13.173 14.0954 13.4043 14.2104 13.542 14.4009L15.584 17.2261L15.6006 17.2495L15.6172 17.2261L17.6475 14.4048C17.7861 14.2121 18.0198 14.0953 18.2705 14.0952Z" fill="#6B81FF" stroke="#3755FF" stroke-width="0.0413262"/>
<path d="M23.0264 14.0952C23.9463 14.0952 24.7225 14.4012 25.2617 14.9214C25.3217 14.9792 25.3176 15.0712 25.2549 15.1294L24.46 15.8677C24.4258 15.8992 24.3661 15.8936 24.334 15.8569C24.0601 15.5448 23.5528 15.3667 23.0176 15.3667C22.0138 15.3668 21.3154 16.0648 21.3154 17.0151C21.3155 17.9653 22.0139 18.6635 23.0176 18.6636C23.5233 18.6636 23.9901 18.5749 24.332 18.3013C24.3647 18.2753 24.4131 18.2756 24.4424 18.3022L25.2354 19.0386C25.2634 19.0646 25.2644 19.1058 25.2373 19.1313C24.6992 19.6374 23.9326 19.9341 23.0264 19.9341C21.2025 19.934 19.8273 18.7043 19.8271 17.0151C19.8271 15.3258 21.2024 14.0953 23.0264 14.0952Z" fill="#6B81FF" stroke="#3755FF" stroke-width="0.0413262"/>
</svg>
