<svg width="32" height="31" viewBox="0 0 32 31" fill="none" xmlns="http://www.w3.org/2000/svg">
<path d="M30.5977 26.1472V8.52855C30.5977 4.16097 27.1168 1 22.798 1C19.5536 1 16.7736 2.8445 15.5976 5.46751C14.4217 2.8445 11.6417 1 8.39728 1C4.07848 1 0.597656 4.16097 0.597656 8.52855V26.1472C0.597656 28.1275 2.32654 29.7329 4.45922 29.7329H26.7361C28.8688 29.7329 30.5977 28.1275 30.5977 26.1472Z" fill="#454858" stroke="#6B81FF" stroke-width="1.19846" stroke-linejoin="round"/>
<path d="M9.02051 14.4961C9.94044 14.4961 10.7166 14.8021 11.2559 15.3223C11.3159 15.3801 11.3117 15.4721 11.249 15.5303L10.4541 16.2686C10.4199 16.3 10.3603 16.2945 10.3281 16.2578C10.0543 15.9456 9.54691 15.7676 9.01172 15.7676C8.00797 15.7676 7.30957 16.4657 7.30957 17.416C7.30968 18.3662 8.00805 19.0644 9.01172 19.0645C9.5174 19.0645 9.98421 18.9757 10.3262 18.7021C10.3589 18.6762 10.4073 18.6764 10.4365 18.7031L11.2295 19.4395C11.2575 19.4655 11.2585 19.5067 11.2314 19.5322C10.6933 20.0383 9.9267 20.335 9.02051 20.335C7.19655 20.3348 5.82141 19.1052 5.82129 17.416C5.82129 15.7267 7.19647 14.4962 9.02051 14.4961Z" fill="white" stroke="#6B81FF" stroke-width="0.0413262"/>
<path d="M18.2666 14.4961C18.6818 14.4961 19.0156 14.8085 19.0156 15.1904V20.335H17.4727V17.3486L17.4365 17.3945L15.958 19.2334C15.8733 19.3388 15.7393 19.4013 15.5967 19.4014C15.454 19.4014 15.3201 19.3388 15.2354 19.2334L13.7471 17.377L13.71 17.3311V17.3896L13.7197 20.335H12.1768V15.1855C12.1768 14.8065 12.5088 14.4961 12.9209 14.4961C13.1691 14.4962 13.4004 14.6113 13.5381 14.8018L15.5801 17.627L15.5967 17.6504L15.6133 17.627L17.6436 14.8057C17.7822 14.613 18.0159 14.4962 18.2666 14.4961Z" fill="white" stroke="#6B81FF" stroke-width="0.0413262"/>
<path d="M23.0244 14.4961C23.9443 14.4961 24.7205 14.8021 25.2598 15.3223C25.3198 15.3801 25.3156 15.4721 25.2529 15.5303L24.458 16.2686C24.4238 16.3 24.3641 16.2945 24.332 16.2578C24.0581 15.9456 23.5508 15.7676 23.0156 15.7676C22.0119 15.7676 21.3135 16.4657 21.3135 17.416C21.3136 18.3662 22.012 19.0644 23.0156 19.0645C23.5213 19.0645 23.9881 18.9757 24.3301 18.7021C24.3628 18.6762 24.4112 18.6764 24.4404 18.7031L25.2334 19.4395C25.2614 19.4655 25.2624 19.5067 25.2354 19.5322C24.6972 20.0383 23.9306 20.335 23.0244 20.335C21.2005 20.3348 19.8253 19.1052 19.8252 17.416C19.8252 15.7267 21.2004 14.4962 23.0244 14.4961Z" fill="white" stroke="#6B81FF" stroke-width="0.0413262"/>
</svg>
