<svg width="30" height="30" viewBox="0 0 30 30" fill="none" xmlns="http://www.w3.org/2000/svg">
<g id="Group 17">
<g id="Group 12">
<g id="Group 4">
<ellipse id="Ellipse 1" cx="3.34695" cy="19.3188" rx="3.34689" ry="3.56031" transform="rotate(-180 3.34695 19.3188)" fill="white"/>
<path id="Rectangle 1" d="M6.69385 30H5.91278e-05L5.91278e-05 19.2607H6.69385L6.69385 30Z" fill="white"/>
</g>
<g id="Group 5">
<ellipse id="Ellipse 1_2" cx="10.0408" cy="19.3188" rx="3.34689" ry="3.56031" transform="rotate(-180 10.0408 19.3188)" fill="white"/>
<path id="Rectangle 1_2" d="M13.3877 30H6.69391L6.69391 19.2607H13.3877L13.3877 30Z" fill="white"/>
</g>
</g>
<g id="Group 9">
<ellipse id="Ellipse 1_3" cx="6.8546" cy="7.88869" rx="6.53184" ry="6.34548" fill="white"/>
<g id="Group 8">
<path id="Rectangle 5" d="M0.322754 0H13.3864V8.05447H0.322754V0Z" fill="white"/>
<path id="Rectangle 6" d="M0.322754 6.42041H2.15815V8.05465H0.322754V6.42041Z" fill="white"/>
<path id="Rectangle 7" d="M11.5513 6.42041H13.3867V8.05465H11.5513V6.42041Z" fill="white"/>
<path id="Rectangle 8" d="M11.5513 0H13.3867V1.63424H11.5513V0Z" fill="white"/>
</g>
</g>
<g id="Group 13">
<ellipse id="Ellipse 1_4" cx="22.1721" cy="7.06225" rx="7.06225" ry="5.8689" transform="rotate(90 22.1721 7.06225)" fill="white"/>
<g id="Group 8_2">
<path id="Rectangle 5_2" d="M29.4678 0V14.1245H22.0182V0L29.4678 0Z" fill="white"/>
<path id="Rectangle 6_2" d="M23.5298 0V1.98444H22.0183V0L23.5298 0Z" fill="white"/>
<path id="Rectangle 7_2" d="M23.5298 12.1396V14.1241H22.0183V12.1396H23.5298Z" fill="white"/>
<path id="Rectangle 8_2" d="M29.4678 12.1396V14.1241H27.9563V12.1396H29.4678Z" fill="white"/>
</g>
</g>
<g id="Group 16">
<ellipse id="Ellipse 1_5" cx="7.06225" cy="5.8689" rx="7.06225" ry="5.8689" transform="matrix(0 -1 -1 0 28.041 30)" fill="white"/>
<g id="Group 8_3">
<path id="Rectangle 5_3" d="M29.4678 30V15.8755H22.0182V30H29.4678Z" fill="white"/>
<path id="Rectangle 6_3" d="M23.5298 30V28.0156H22.0183V30H23.5298Z" fill="white"/>
<path id="Rectangle 7_3" d="M23.5298 17.8596V15.8752H22.0183V17.8596H23.5298Z" fill="white"/>
<path id="Rectangle 8_3" d="M29.4678 17.8596V15.8752H27.9563V17.8596H29.4678Z" fill="white"/>
</g>
</g>
</g>
</svg>
